<?xml version="1.0" encoding="UTF-8"?>
<svg width="127px" height="141px" viewBox="0 0 127 141" version="1.1" xmlns="http://www.w3.org/2000/svg" xmlns:xlink="http://www.w3.org/1999/xlink">
    <!-- Generator: Sketch 61.2 (89653) - https://sketch.com -->
    <title>004-thermometer</title>
    <desc>Created with Sketch.</desc>
    <defs>
        <linearGradient x1="100%" y1="26.6877657%" x2="8.96724057%" y2="80.0028369%" id="linearGradient-1">
            <stop stop-color="#66C0B7" stop-opacity="0" offset="0%"></stop>
            <stop stop-color="#66C0B7" stop-opacity="0.166165865" offset="100%"></stop>
        </linearGradient>
    </defs>
    <g id="Page-1" stroke="none" stroke-width="1" fill="none" fill-rule="evenodd">
        <g id="Life-@-Darwin-HD" transform="translate(-845.000000, -5374.000000)">
            <g id="Group-17" transform="translate(0.000000, 5055.000000)">
                <g id="Group-15" transform="translate(140.000000, 80.000000)">
                    <g id="Group-47" transform="translate(35.000000, 239.000000)">
                        <g id="Group-44" transform="translate(670.000000, 0.000000)">
                            <g id="Group-12">
                                <g id="004-thermometer">
                                    <circle id="Oval" fill="url(#linearGradient-1)" cx="63.5" cy="77.5" r="63.5"></circle>
                                    <path d="M87.5004687,0.000234375 C94.3925,0.000234375 100.000391,5.608125 100.000391,12.5001563 L100.000391,12.5001563 L100.000391,90.3297656 C103.191172,93.6011719 105.000312,97.97625 105.000781,102.500156 C105.000781,112.148672 97.1492187,120.000234 87.5007031,120.000234 C77.8521875,120.000234 70.000625,112.148672 70.000625,102.500156 C70.000625,97.97625 71.8095312,93.6011719 75.0005469,90.3297656 L75.0005469,90.3297656 L75.0005469,12.5001563 C75.0005469,5.608125 80.6084375,0.000234375 87.5004687,0.000234375 Z M37.5007812,22.5 C38.8826562,22.5 40.0008594,23.6182031 40.0008594,25.0000781 L40.0008594,25.0000781 L40.0008594,34.2764063 C41.6201562,33.7185938 43.7370312,32.9273438 45.5916406,32.1778125 C46.8661719,31.6528125 48.3260937,32.2753125 48.8485156,33.5571094 C49.3660156,34.8386719 48.7458594,36.2939063 47.4666406,36.8114063 C45.0265625,37.7983594 42.1636719,38.8736719 40.0008594,39.4905469 L40.0008594,39.4905469 L40.0008594,45.5203125 C41.4258594,44.8371094 43.2357031,43.9202344 44.8104687,43.0591406 C45.1402344,42.8817188 45.5053906,42.8203125 45.8684375,42.7992188 C45.9136719,42.7926563 45.9563281,42.7708594 46.0015625,42.7666406 C46.0395312,42.7661719 46.0744531,42.7753125 46.1128906,42.7769531 C47.0346875,42.735 47.94875,43.1892188 48.4235937,44.0552344 C48.7892187,44.7232031 48.7913281,45.4720313 48.5410156,46.1313281 C48.59375,47.6275781 48.6867969,49.1913281 48.80375,50.5108594 L48.80375,50.5108594 L54.2321094,47.3444531 C53.70875,45.1809375 53.2346094,42.2435156 52.8814062,39.7364063 C52.6908594,38.3667188 53.643125,37.1046094 55.0102344,36.9117188 C56.3335156,36.6967969 57.6420312,37.6685156 57.8325781,39.0382031 C58.0978906,40.9204688 58.4492187,43.025625 58.7747656,44.6946094 L58.7747656,44.6946094 L66.2407812,40.3394531 C67.4271875,39.6485156 68.9604687,40.0441406 69.6586719,41.2403906 C70.356875,42.4342969 69.9516406,43.965 68.7598437,44.6610938 L68.7598437,44.6610938 L61.1396094,49.10625 C62.4488281,50.25375 64.2551562,51.7525781 65.9278906,53.0571094 C67.0167969,53.9067188 67.2120312,55.4765625 66.3624219,56.5654688 C65.8692969,57.1978125 65.1319531,57.5273438 64.3896875,57.5273438 C63.8475781,57.5273438 63.3103906,57.3541406 62.8514844,56.9976563 C60.7132812,55.3296094 58.2570312,53.3132813 56.6447656,51.7282031 L56.6447656,51.7282031 L51.23375,54.8845313 C52.5492969,55.7885156 54.2553125,56.908125 55.8251562,57.8667188 C56.5721094,58.3183594 57.0263281,59.1288281 57.0263281,60.0004688 C57.0263281,60.8721094 56.5723437,61.6825781 55.8251562,62.1342188 C54.2761719,63.07875 52.59125,64.1873438 51.2567187,65.1297656 L51.2567187,65.1297656 L56.645,68.2727344 C58.2572656,66.6876563 60.71375,64.6713281 62.8517187,63.0032813 C63.9258594,62.1585938 65.5078906,62.3442188 66.3624219,63.4354688 C67.2120312,64.524375 67.0167969,66.0942188 65.9278906,66.9438281 C64.2673437,68.2401563 62.4734375,69.7296094 61.1503906,70.9007813 L61.1503906,70.9007813 L68.7598437,75.3398438 C69.9511719,76.0357031 70.3564062,77.5664063 69.6582031,78.7603125 C69.194375,79.55625 68.3595312,80.000625 67.5000781,80.000625 C67.0704687,80.000625 66.6359375,79.8907031 66.2403125,79.66125 L66.2403125,79.66125 L58.765625,75.3009375 C58.4503906,76.9542188 58.0988281,79.0713281 57.8321094,80.9625 C57.6563281,82.2100781 56.586875,83.1133594 55.3613281,83.1133594 C55.2441406,83.1133594 55.1269531,83.1060938 55.0097656,83.0889844 C53.6426562,82.8960938 52.6903906,81.6339844 52.8809375,80.2642969 C53.2341406,77.7576563 53.7080469,74.8192969 54.2314062,72.65625 L54.2314062,72.65625 L48.7833594,69.478125 C48.6842187,70.7744531 48.5932812,72.3534375 48.5405469,73.8689063 C48.7910937,74.5282031 48.78875,75.2767969 48.423125,75.9452344 C47.9691406,76.7753906 47.1146094,77.2464844 46.2307812,77.2464844 C46.1965625,77.2464844 46.1639844,77.2221094 46.1295312,77.2204688 C45.6764844,77.2425 45.2217969,77.1642188 44.81,76.9413281 C43.2453125,76.0853906 41.4713281,75.1907813 40.0003906,74.5085156 L40.0003906,74.5085156 L40.0003906,80.9753906 C42.1632031,81.5915625 45.0260937,82.6657031 47.4661719,83.6526563 C48.7453906,84.1678125 49.3655469,85.6253906 48.8480469,86.9046094 C48.4524219,87.8786719 47.5149219,88.4695313 46.5286719,88.4695313 C46.21625,88.4695313 45.8989062,88.4109375 45.5911719,88.2864844 C43.7466406,87.5423438 41.6421875,86.7567188 40.0003906,86.199375 L40.0003906,86.199375 L40.0003906,95.0003906 C40.0003906,96.3822656 38.8821875,97.5004688 37.5003125,97.5004688 C36.1184375,97.5004688 35.0002344,96.3822656 35.0002344,95.0003906 L35.0002344,95.0003906 L35.0002344,86.19 C33.3809375,86.7475781 31.2640625,87.5385938 29.4094531,88.2864844 C28.1253125,88.8016406 26.675,88.1864063 26.1525781,86.9046094 C25.6350781,85.6253906 26.2552344,84.1678125 27.5344531,83.6526563 C29.9745312,82.6657031 32.8376562,81.5915625 35.0002344,80.9753906 L35.0002344,80.9753906 L35.0002344,74.58375 C33.6101562,75.255 31.89875,76.1247656 30.400625,76.9413281 C29.9996094,77.1609375 29.5702344,77.2183594 29.1448437,77.2071094 C29.0916406,77.2103906 29.0426562,77.2464844 28.9894531,77.2464844 C28.8823437,77.2464844 28.784375,77.176875 28.6772656,77.1628125 C28.5746094,77.1400781 28.4782812,77.1182813 28.3796094,77.083125 C28.1635156,77.0273438 27.9366406,77.0259375 27.7392969,76.9120313 C26.9825,76.4775 26.5088281,75.6792188 26.489375,74.8075781 C26.4476562,73.0584375 26.3386719,71.0880469 26.1971094,69.4896094 L26.1971094,69.4896094 L21.1470312,72.4354688 C21.6924219,74.6158594 22.1883594,77.668125 22.5539844,80.2640625 C22.7445312,81.63375 21.7922656,82.8958594 20.4251562,83.08875 C20.3079687,83.1058594 20.1907812,83.113125 20.0735937,83.113125 C18.8480469,83.113125 17.7785937,82.2098438 17.6028125,80.9622656 C17.3253125,78.9930469 16.9535937,76.779375 16.6158594,75.0785156 L16.6158594,75.0785156 L8.76007812,79.6610156 C8.3646875,79.8904688 7.92992187,80.0003906 7.5003125,80.0003906 C6.64109375,80.0003906 5.80601562,79.5560156 5.3421875,78.7600781 C4.64375,77.5661719 5.04921875,76.0354688 6.24054687,75.3396094 L6.24054687,75.3396094 L14.1221094,70.7423438 C12.8246094,69.613125 11.1042969,68.1892969 9.50726562,66.9438281 C8.41835937,66.0942188 8.223125,64.524375 9.07273437,63.4354688 C9.92234375,62.3392969 11.4945312,62.1560156 12.5834375,63.0032813 C14.654375,64.6190625 17.0082031,66.5542969 18.6235156,68.1164063 L18.6235156,68.1164063 L23.766875,65.1161719 C22.4513281,64.2121875 20.7453125,63.0925781 19.1754687,62.1339844 C18.4285156,61.6823438 17.9742969,60.871875 17.9742969,60.0002344 C17.9742969,59.1285938 18.4282812,58.318125 19.1754687,57.8664844 C20.7244531,56.9219531 22.409375,55.8133594 23.7439062,54.8709375 L23.7439062,54.8709375 L18.62375,51.8842969 C17.0084375,53.4464063 14.6546094,55.3814063 12.5836719,56.9974219 C12.1296875,57.3536719 11.5878125,57.5271094 11.0457031,57.5271094 C10.3034375,57.5271094 9.56609375,57.1975781 9.07296875,56.5652344 C8.22335937,55.4763281 8.41859375,53.9064844 9.5075,53.056875 C11.09375,51.8182031 12.8046875,50.401875 14.1132031,49.2529688 L14.1132031,49.2529688 L6.24078125,44.6610938 C5.04945312,43.9652344 4.64421875,42.4345313 5.34242187,41.240625 C6.03570312,40.044375 7.57367187,39.64875 8.7603125,40.3396875 L8.7603125,40.3396875 L16.6257031,44.9278125 C16.9517187,43.2459375 17.3241406,41.0177344 17.6032812,39.0384375 C17.79875,37.6713281 19.0927344,36.7190625 20.425625,36.9119531 C21.7927344,37.1048438 22.745,38.3669531 22.5544531,39.7366406 C22.1888281,42.3325781 21.6928906,45.3850781 21.1475,47.5652344 L21.1475,47.5652344 L26.2175,50.5225781 C26.3375,48.9553125 26.4476562,46.9617188 26.4900781,45.1928906 C26.5095312,44.32125 26.9832031,43.5255469 27.74,43.0884375 C27.9417969,42.973125 28.17125,42.9670313 28.390625,42.9117188 C28.4789844,42.8805469 28.5652344,42.8601563 28.6564062,42.8392969 C28.8146094,42.8175 28.9599219,42.7877344 29.1188281,42.7959375 C29.553125,42.7792969 29.991875,42.834375 30.4010937,43.0589063 C31.8867969,43.8689063 33.575,44.7253125 35.0007031,45.3942188 L35.0007031,45.3942188 L35.0007031,39.4905469 C32.8383594,38.8736719 29.975,37.7983594 27.5349219,36.8114063 C26.2557031,36.2939063 25.6355469,34.8389063 26.1530469,33.5571094 C26.6754687,32.2755469 28.1307031,31.6553906 29.4099219,32.1778125 C31.2544531,32.9228906 33.3589062,33.7096875 35.0007031,34.2672656 L35.0007031,34.2672656 L35.0007031,25.0000781 C35.0007031,23.6182031 36.1189062,22.5 37.5007812,22.5 Z M122.500391,80.0001563 C123.882266,80.0001563 125.000469,81.1183594 125.000469,82.5002344 C125.000469,83.8821094 123.882266,85.0003125 122.500391,85.0003125 L122.500391,85.0003125 L107.500391,85.0003125 C106.118516,85.0003125 105.000312,83.8821094 105.000312,82.5002344 C105.000312,81.1183594 106.118516,80.0001563 107.500391,80.0001563 L107.500391,80.0001563 Z M112.500312,70.0000781 C113.882187,70.0000781 115.000391,71.1182813 115.000391,72.5001563 C115.000391,73.8820313 113.882187,75.0002344 112.500312,75.0002344 L112.500312,75.0002344 L107.500391,75.0002344 C106.118516,75.0002344 105.000312,73.8820313 105.000312,72.5001563 C105.000312,71.1182813 106.118516,70.0000781 107.500391,70.0000781 L107.500391,70.0000781 Z M112.500312,60 C113.882187,60 115.000391,61.1182031 115.000391,62.5000781 C115.000391,63.8819531 113.882187,65.0001563 112.500312,65.0001563 L112.500312,65.0001563 L107.500391,65.0001563 C106.118516,65.0001563 105.000312,63.8819531 105.000312,62.5000781 C105.000312,61.1182031 106.118516,60 107.500391,60 L107.500391,60 Z M122.500391,50.0001563 C123.882266,50.0001563 125.000469,51.1183594 125.000469,52.5002344 C125.000469,53.8821094 123.882266,55.0003125 122.500391,55.0003125 L122.500391,55.0003125 L107.500391,55.0003125 C106.118516,55.0003125 105.000312,53.8821094 105.000312,52.5002344 C105.000312,51.1183594 106.118516,50.0001563 107.500391,50.0001563 L107.500391,50.0001563 Z M112.500312,40.0000781 C113.882187,40.0000781 115.000391,41.1182813 115.000391,42.5001563 C115.000391,43.8820313 113.882187,45.0002344 112.500312,45.0002344 L112.500312,45.0002344 L107.500391,45.0002344 C106.118516,45.0002344 105.000312,43.8820313 105.000312,42.5001563 C105.000312,41.1182813 106.118516,40.0000781 107.500391,40.0000781 L107.500391,40.0000781 Z M112.500312,30 C113.882187,30 115.000391,31.1182031 115.000391,32.5000781 C115.000391,33.8819531 113.882187,35.0001563 112.500312,35.0001563 L112.500312,35.0001563 L107.500391,35.0001563 C106.118516,35.0001563 105.000312,33.8819531 105.000312,32.5000781 C105.000312,31.1182031 106.118516,30 107.500391,30 L107.500391,30 Z M122.500391,19.9999219 C123.882266,19.9999219 125.000469,21.118125 125.000469,22.5 C125.000469,23.881875 123.882266,25.0000781 122.500391,25.0000781 L122.500391,25.0000781 L107.500391,25.0000781 C106.118516,25.0000781 105.000312,23.881875 105.000312,22.5 C105.000312,21.118125 106.118516,19.9999219 107.500391,19.9999219 L107.500391,19.9999219 Z" id="Combined-Shape" fill="#1B3C3E" fill-rule="nonzero"></path>
                                    <g id="Group" transform="translate(24.921875, 49.218750)" fill="#008BFF" fill-rule="nonzero">
                                        <path d="M15.0785156,1.7559375 C16.0835156,1.40109375 17.2846875,0.894140625 18.7678125,0.168046875 C18.8695313,1.71796875 19.0092188,2.99976562 19.1833594,4.033125 L15.0785156,6.4275 L15.0785156,1.7559375 Z" id="Path"></path>
                                        <path d="M6.39679688,0.0759375 C7.8478125,0.793125 9.06820313,1.3303125 10.0783594,1.70460938 L10.0783594,6.4275 L5.97375,4.03335938 C6.15140625,2.97820312 6.29484375,1.67109375 6.39679688,0.0759375 Z" id="Path"></path>
                                        <path d="M0.21515625,10.7814844 C1.57875,9.87304687 2.66789063,9.075 3.50109375,8.38195312 L7.61484375,10.7814844 L3.5015625,13.1807812 C2.66882812,12.4879687 1.57945313,11.6901562 0.21515625,10.7814844 Z" id="Path"></path>
                                        <path d="M10.0785938,15.1354687 L10.0785938,19.8583594 C9.0684375,20.2328906 7.84804688,20.7698437 6.39703125,21.4870312 C6.29507813,19.8921094 6.15164063,18.5854687 5.97375,17.5298437 L10.0785938,15.1354687 Z" id="Path"></path>
                                        <path d="M18.7678125,21.3949219 C17.2846875,20.6688281 16.0835156,20.1621094 15.0785156,19.8070313 L15.0785156,15.1354688 L19.183125,17.5296094 C19.0092187,18.5625 18.8692969,19.8445313 18.7678125,21.3949219 Z" id="Path"></path>
                                        <path d="M24.9417187,10.7814844 C23.578125,11.6899219 22.4889844,12.4879687 21.6557812,13.1810156 L17.5420313,10.7814844 L21.6550781,8.3821875 C22.4880469,9.075 23.5776563,9.87257812 24.9417187,10.7814844 Z" id="Path"></path>
                                    </g>
                                    <g id="Group" transform="translate(69.921875, 0.000000)"></g>
                                    <path d="M87.5004688,115.000078 C80.6084375,115.000078 75.0005469,109.392188 75.0005469,102.500156 C75.0005469,98.9601563 76.4825,95.6739844 79.1754688,93.2496094 C79.7004688,92.7735938 80.0007031,92.0997656 80.0007031,91.3917188 L80.0007031,12.5001563 C80.0007031,8.364375 83.3649219,5.00015625 87.5007031,5.00015625 C91.6364844,5.00015625 95.0007031,8.364375 95.0007031,12.5001563 L95.0007031,91.3917188 C95.0007031,92.0997656 95.3009375,92.7735938 95.8259375,93.2496094 C98.5189063,95.6739844 100.000859,98.9601563 100.000859,102.500156 C100.000391,109.392188 94.3925,115.000078 87.5004688,115.000078 Z" id="Path" fill="#FBD24C" fill-rule="nonzero"></path>
                                    <path d="M77.5003906,105.000234 C77.5003906,101.460234 78.9823438,98.1740625 81.6753125,95.7496875 C82.2003125,95.2736719 82.5005469,94.5998438 82.5005469,93.8917969 L82.5005469,15.0002344 C82.5005469,10.8644531 85.8647656,7.50023438 90.0005469,7.50023438 C91.4269531,7.50023438 92.748125,7.92234375 93.8846094,8.61632813 C92.56625,6.45773438 90.2100781,5.00039063 87.5007031,5.00039063 C83.3649219,5.00039063 80.0007031,8.36460938 80.0007031,12.5003906 L80.0007031,91.3919531 C80.0007031,92.1 79.7004688,92.7738281 79.1754688,93.2498438 C76.4825,95.6742188 75.0005469,98.9603906 75.0005469,102.500391 C75.0005469,106.583906 76.9974219,110.182969 80.0353906,112.465547 C78.4653125,110.375859 77.5003906,107.80875 77.5003906,105.000234 Z" id="Path" fill="#FFFFFF" fill-rule="nonzero" opacity="0.2"></path>
                                    <path d="M90.0003125,98.2678125 L90.0003125,52.5002344 C90.0003125,51.1183594 88.8821094,50.0001563 87.5002344,50.0001563 C86.1183594,50.0001563 85.0001563,51.1183594 85.0001563,52.5002344 L85.0001563,98.2678125 C83.5332031,99.1399219 82.5000781,100.672031 82.5000781,102.500391 C82.5000781,105.259219 84.7414063,107.500313 87.5,107.500313 C90.2588281,107.500313 92.499922,105.258984 92.499922,102.500391 C92.5003906,100.671797 91.4672656,99.1399219 90.0003125,98.2678125 Z" id="Path" fill="#008BFF" fill-rule="nonzero"></path>
                                </g>
                            </g>
                        </g>
                    </g>
                </g>
            </g>
        </g>
    </g>
</svg>