<?xml version="1.0" encoding="UTF-8"?>
<svg width="149px" height="120px" viewBox="0 0 149 120" version="1.1" xmlns="http://www.w3.org/2000/svg" xmlns:xlink="http://www.w3.org/1999/xlink">
    <!-- Generator: Sketch 61.2 (89653) - https://sketch.com -->
    <title>bus</title>
    <desc>Created with Sketch.</desc>
    <g id="Page-1" stroke="none" stroke-width="1" fill="none" fill-rule="evenodd">
        <g id="Desktop-HD" transform="translate(-1185.000000, -1469.000000)" fill-rule="nonzero">
            <g id="Group-15" transform="translate(140.000000, 1270.000000)">
                <g id="Group-47" transform="translate(0.000000, 149.000000)">
                    <g id="Group-43" transform="translate(1005.000000, 0.000000)">
                        <g id="Group-13" transform="translate(40.000000, 50.000000)">
                            <g id="bus">
                                <g>
                                    <path d="M112.027734,47.6402344 L109.318125,47.6402344 L109.318125,35.3925 C109.318125,31.805625 106.399922,28.8874219 102.812812,28.8874219 L97.3523437,28.8874219 L97.3523437,19.9675781 C97.3523437,19.9195312 97.3478906,19.8724219 97.3450781,19.8250781 C97.3478906,19.7777344 97.3523437,19.730625 97.3523437,19.6825781 L97.3523437,13.035 C97.3523437,5.84742188 91.5049219,0 84.3173438,0 L30.0576562,0 C22.8700781,0 17.0226562,5.84742188 17.0226562,13.035 L17.0226562,19.6825781 C17.0226562,19.730625 17.0271094,19.7777344 17.0299219,19.8250781 C17.0271094,19.8724219 17.0226562,19.9195313 17.0226562,19.9675781 L17.0226562,28.8871875 L11.5619531,28.8871875 C7.97484375,28.8871875 5.05664062,31.8053906 5.05664062,35.3922656 L5.05664062,47.64 L2.34726562,47.64 C1.05304687,47.64 0.003515625,48.6892969 0.003515625,49.98375 L0.003515625,68.836875 C0.003515625,70.1313281 1.05304687,71.180625 2.34726562,71.180625 L13.0917187,71.180625 C14.3859375,71.180625 15.4354687,70.1313281 15.4354687,68.836875 L15.4354687,49.98375 C15.4354687,48.6892969 14.3859375,47.64 13.0917187,47.64 L9.74414062,47.64 L9.74414062,35.3922656 C9.74414062,34.3900781 10.5595312,33.5746875 11.5619531,33.5746875 L17.0226562,33.5746875 L17.0226562,79.6633594 L17.0226562,80.0001563 L17.0226562,103.671563 C17.0226562,106.037344 18.6942187,108.017813 20.9177344,108.500156 L20.9177344,113.538516 C20.9177344,117.101484 23.81625,120 27.3789844,120 L34.8236719,120 C38.3864062,120 41.2849219,117.101484 41.2849219,113.538516 L41.2849219,108.614531 L73.0898437,108.614531 L73.0898437,113.538516 C73.0898437,117.101484 75.9883594,120 79.5510937,120 L86.9957812,120 C90.5585156,120 93.4570312,117.101484 93.4570312,113.538516 L93.4570312,108.500156 C95.6805469,108.017812 97.3521094,106.037109 97.3521094,103.671562 L97.3521094,90.999375 L97.3521094,80.0003906 L97.3521094,79.7153906 L97.3521094,79.6635938 L97.3521094,33.5746875 L102.812812,33.5746875 C103.815,33.5746875 104.630625,34.3900781 104.630625,35.3922656 L104.630625,47.64 L101.283281,47.64 C99.9890625,47.64 98.9395312,48.6892969 98.9395312,49.98375 L98.9395312,68.836875 C98.9395312,70.1313281 99.9890625,71.180625 101.283281,71.180625 L112.027734,71.180625 C113.321953,71.180625 114.371484,70.1313281 114.371484,68.836875 L114.371484,49.98375 C114.371484,48.6895312 113.322187,47.6402344 112.027734,47.6402344 Z M10.7477344,52.3277344 L10.7477344,52.3277344 L10.7477344,66.4933594 L4.69101562,66.4933594 L4.69101562,52.3277344 L10.7477344,52.3277344 Z M36.5974219,113.538516 L36.5974219,113.538516 C36.5974219,114.516563 35.8014844,115.3125 34.8236719,115.3125 L27.3789844,115.3125 C26.4009375,115.3125 25.6052344,114.516563 25.6052344,113.538516 L25.6052344,108.614531 L36.5974219,108.614531 L36.5974219,113.538516 L36.5974219,113.538516 Z M88.7697656,113.538516 C88.7697656,114.516563 87.9738281,115.3125 86.9960156,115.3125 L79.5513281,115.3125 C78.5732812,115.3125 77.7775781,114.516563 77.7775781,113.538516 L77.7775781,108.614531 L88.7697656,108.614531 L88.7697656,113.538516 Z M92.6648438,103.671562 C92.6648438,103.812422 92.5502344,103.927031 92.4091406,103.927031 L91.1135156,103.927031 L75.4338281,103.927031 L38.9411719,103.927031 L23.2614844,103.927031 L21.9658594,103.927031 C21.8247656,103.927031 21.7101562,103.812422 21.7101562,103.671562 L21.7101562,93.343125 L39.1307812,93.343125 C41.5263281,93.343125 43.4751562,91.3942969 43.4751562,88.99875 L43.4751562,82.0073438 L71.2042969,82.0073438 L71.2042969,88.99875 C71.2042969,91.3942969 73.153125,93.343125 75.5486719,93.343125 L92.6648438,93.343125 L92.6648438,103.671562 Z M22.0148437,88.655625 L22.0148437,82.0591406 L38.7876562,82.0591406 L38.7876562,88.655625 L22.0148437,88.655625 Z M92.6648438,88.655625 L75.8917969,88.655625 L75.8917969,82.0591406 L92.6648438,82.0591406 L92.6648438,88.655625 Z M92.6648438,31.2309375 L92.6648438,77.3196094 L58.8998438,77.3196094 L46.5215625,63.1589063 C45.6696094,62.184375 44.1890625,62.0847656 43.2145313,62.9369531 C42.24,63.7889063 42.1403906,65.2694531 42.9923437,66.2439844 L52.6739062,77.3196094 L21.7101562,77.3196094 L21.7101562,31.2309375 L21.7101562,22.3113281 L92.6648438,22.3113281 L92.6648438,31.2309375 Z M92.6648438,17.3388281 L21.7101562,17.3388281 L21.7101562,13.035 C21.7101562,8.43234375 25.4547656,4.6875 30.0576562,4.6875 L84.3173438,4.6875 C88.9202344,4.6875 92.6648438,8.43234375 92.6648438,13.035 L92.6648438,17.3388281 Z M109.683984,66.4933594 L103.627031,66.4933594 L103.627031,52.3277344 L109.683984,52.3277344 L109.683984,66.4933594 Z" id="Shape" fill="#233B3D"></path>
                                    <path d="M64.6434375,95.5267969 L49.7317969,95.5267969 C48.4375781,95.5267969 47.3880469,96.5760937 47.3880469,97.8705469 C47.3880469,99.165 48.4375781,100.214297 49.7317969,100.214297 L64.6434375,100.214297 C65.9376563,100.214297 66.9871875,99.165 66.9871875,97.8705469 C66.9871875,96.5760937 65.9376563,95.5267969 64.6434375,95.5267969 Z" id="Path" fill="#FBD24C"></path>
                                    <path d="M40.8841406,57.1851562 C40.8536719,57.0351562 40.809375,56.8875 40.7507813,56.746875 C40.6921875,56.60625 40.6192969,56.4679687 40.5351563,56.3414062 C40.4507813,56.2125 40.3523438,56.0929687 40.2445313,55.9851562 C40.1367188,55.8773437 40.0148438,55.7789062 39.8880469,55.6945312 C39.76125,55.6101562 39.6232031,55.5375 39.4828125,55.4789063 C39.3419531,55.4203125 39.1945313,55.3757813 39.0445313,55.3453125 C38.7421875,55.284375 38.4304688,55.284375 38.128125,55.3453125 C37.978125,55.3757813 37.8304688,55.4203125 37.6898438,55.4789063 C37.5492188,55.5375 37.4132813,55.6101563 37.2867188,55.6945312 C37.1578125,55.7789062 37.0382813,55.8773437 36.9302344,55.9851562 C36.8200781,56.0929687 36.7239844,56.2125 36.6372656,56.3414062 C36.553125,56.4679687 36.4802344,56.60625 36.4216406,56.746875 C36.3630469,56.8875 36.31875,57.0351562 36.2882813,57.1851562 C36.2578125,57.3351563 36.24375,57.4898438 36.24375,57.6421875 C36.24375,57.796875 36.2580469,57.9492188 36.2882813,58.1015625 C36.31875,58.2515625 36.3630469,58.3992188 36.4216406,58.5398438 C36.4802344,58.6804687 36.553125,58.8164062 36.6372656,58.9429687 C36.7239844,59.071875 36.8200781,59.1914062 36.9302344,59.2992188 C37.0382813,59.409375 37.1578125,59.5054687 37.2867188,59.5921875 C37.4132813,59.6765625 37.5492188,59.7492187 37.6898438,59.8078125 C37.8307031,59.8664062 37.978125,59.9109375 38.128125,59.9414062 C38.2804688,59.971875 38.4328125,59.9859375 38.5875,59.9859375 C38.7398438,59.9859375 38.8947656,59.971875 39.0445313,59.9414062 C39.1945312,59.9109375 39.3421875,59.8664062 39.4828125,59.8078125 C39.6234375,59.7492187 39.7614844,59.6765625 39.8880469,59.5921875 C40.0146094,59.5054687 40.1367188,59.409375 40.2445313,59.2992188 C40.3523438,59.1914062 40.4507813,59.071875 40.5351563,58.9429687 C40.6192969,58.8164062 40.6921875,58.6804687 40.7507813,58.5398438 C40.809375,58.3992188 40.8536719,58.2515625 40.8841406,58.1015625 C40.9146094,57.9492188 40.9310156,57.796875 40.9310156,57.6421875 C40.9310156,57.4898437 40.9146094,57.3351562 40.8841406,57.1851562 Z" id="Path" fill="#FBD24C"></path>
                                </g>
                                <g id="father-and-son" transform="translate(107.000000, 72.000000)">
                                    <path d="M41.1548782,24.7217589 L34.2675183,13.7358392 C34.2532783,13.7129592 34.2382383,13.6907192 34.2230383,13.6684792 C33.4844784,12.6121592 32.3460784,11.9172792 31.0897584,11.7257592 C31.8758384,10.5718392 32.3364784,9.17887928 32.3364784,7.68015931 C32.3364784,3.7092794 29.1060785,0.479039475 25.1353585,0.479039475 C21.1644786,0.479039475 17.9342387,3.7094394 17.9342387,7.68015931 C17.9342387,9.17887928 18.3947187,10.5718392 19.1809587,11.7259192 C17.9263987,11.9174392 16.7886387,12.6116792 16.0487987,13.6668792 C15.9785587,13.7668792 15.9201588,13.8745592 15.8743988,13.9878392 L15.2655988,15.4963191 L8.78351891,12.6479992 C8.74943891,12.6331192 8.71503891,12.6193592 8.67999891,12.6068792 C8.11471892,12.4038392 7.52623894,12.3217592 6.94399895,12.3571192 C5,12 2,15 2.96271904,17.7166391 C3.28911903,19.0897591 4.27087901,20.247999 5.61615898,20.774559 L16.6763187,26.6196789 L16.6763187,32.9401587 L16.6763187,45.4243185 C16.6763187,46.3113585 17.3956787,47.0307184 18.2827187,47.0307184 L25.1353585,47.0307184 L31.9863984,47.0307184 C32.8734384,47.0307184 33.5927984,46.3113585 33.5927984,45.4243185 L33.5927984,32.9399987 L33.5927984,29.0095988 L33.9006383,29.5563188 C33.9263983,29.6019188 33.9540783,29.6462388 33.9843183,29.6889588 C34.6521583,30.6438388 35.6521583,31.2809588 36.7996783,31.4833588 C37.9483183,31.6862388 39.1055982,31.4287988 40.0571182,30.7615988 C41.2236782,29.9473588 41.9199982,28.6105588 41.9199982,27.1859189 C41.9199982,26.3014389 41.6555182,25.4505589 41.1548782,24.7217589 Z M25.1353585,3.6919994 C27.3345585,3.6919994 29.1238385,5.48127936 29.1238385,7.68047931 C29.1238385,9.88047927 27.3345585,11.6705592 25.1353585,11.6705592 C22.9361586,11.6705592 21.1468786,9.88047927 21.1468786,7.68047931 C21.1468786,5.48111936 22.9361586,3.6919994 25.1353585,3.6919994 Z M38.2156783,28.1291189 C37.9646383,28.3052789 37.6601583,28.3734389 37.3577583,28.3196789 C37.0759983,28.2700789 36.8281583,28.1209589 36.6534383,27.8972789 L33.3863984,22.094719 C33.0281584,21.458239 32.2859184,21.143519 31.5793584,21.328959 C30.8731184,21.514079 30.3804784,22.152479 30.3804784,22.882719 L30.3804784,32.9399987 L30.3804784,43.8180785 L26.7420785,43.8180785 L26.7420785,32.9399987 C26.7420785,32.0529588 26.0227185,31.3335988 25.1356785,31.3335988 C24.2486386,31.3335988 23.5292786,32.0529588 23.5292786,32.9399987 L23.5292786,43.8180785 L19.8892787,43.8180785 L19.8892787,32.9399987 L19.8892787,22.879519 C19.8892787,22.000479 19.1830387,21.284959 18.3041587,21.273279 C18.2969587,21.273119 18.2897587,21.273119 18.2823987,21.273119 C17.4135987,21.273119 16.6999987,21.965759 16.6771187,22.836959 L16.6731187,22.983999 L7.02767895,17.8868791 C6.96031895,17.8511991 6.89055895,17.8204791 6.81855895,17.7948791 C6.36319896,17.6318391 6.05711897,17.1969591 6.05711897,16.7129591 C6.05711897,16.5803191 6.07967897,16.4511991 6.12495897,16.3252791 C6.22879897,16.0361591 6.43903896,15.8046391 6.71727896,15.6732791 C6.98159895,15.5483191 7.27647894,15.5284791 7.55311894,15.6164791 L15.4891188,19.1039991 C15.8871988,19.2787191 16.3385587,19.2849591 16.7409587,19.1209591 C17.1435187,18.9571191 17.4623987,18.6372791 17.6251187,18.2343991 L18.7723187,15.3924791 C19.0505587,15.0710391 19.4569587,14.8830392 19.8862387,14.8830392 L30.3851184,14.8830392 C30.8545584,14.8830392 31.2953584,15.1067191 31.5713584,15.4827191 L38.4531182,26.4599989 C38.4679982,26.4838389 38.4835182,26.5071989 38.4996782,26.5302389 C38.6711982,26.7745589 38.7073583,27.0217589 38.7073583,27.1859189 C38.7073583,27.5617589 38.5246382,27.9134389 38.2156783,28.1291189 Z" id="Shape" fill="#233B3D"></path>
                                    <path d="M1.55172025,10 C-0.515479708,10 -0.518999708,13.2126399 1.55172025,13.2126399 C3.6189202,13.2126399 3.6222802,10 1.55172025,10 Z" id="Path" fill="#FBD24C"></path>
                                </g>
                            </g>
                        </g>
                    </g>
                </g>
            </g>
        </g>
    </g>
</svg>