<?xml version="1.0" encoding="UTF-8"?>
<svg width="127px" height="131px" viewBox="0 0 127 131" version="1.1" xmlns="http://www.w3.org/2000/svg" xmlns:xlink="http://www.w3.org/1999/xlink">
    <!-- Generator: Sketch 61.2 (89653) - https://sketch.com -->
    <title>004-id-card</title>
    <desc>Created with Sketch.</desc>
    <defs>
        <linearGradient x1="100%" y1="26.6877657%" x2="8.96724057%" y2="80.0028369%" id="linearGradient-1">
            <stop stop-color="#66C0B7" stop-opacity="0" offset="0%"></stop>
            <stop stop-color="#66C0B7" stop-opacity="0.166165865" offset="100%"></stop>
        </linearGradient>
    </defs>
    <g id="Page-1" stroke="none" stroke-width="1" fill="none" fill-rule="evenodd">
        <g id="Life-@-Darwin-HD" transform="translate(-1180.000000, -10302.000000)">
            <g id="Group-17-Copy" transform="translate(175.000000, 10292.000000)">
                <g id="Group-15">
                    <g id="Group-47">
                        <g id="Group-43" transform="translate(1005.000000, 0.000000)">
                            <g id="Group-13">
                                <g id="004-id-card" transform="translate(0.000000, 10.000000)">
                                    <circle id="Oval-Copy" fill="url(#linearGradient-1)" cx="63.5" cy="67.5" r="63.5"></circle>
                                    <g id="Group" transform="translate(8.834862, 1.834862)" fill-rule="nonzero">
                                        <path d="M113.63922,27.6114679 L113.63922,88.2844037 C113.63922,90.3607798 112.815138,92.3525229 111.346789,93.8208716 C109.87844,95.2892202 107.886927,96.1133032 105.810321,96.1133032 L7.95114679,96.1133032 C5.87477064,96.1133032 3.88302752,95.2892202 2.4146789,93.8208716 C0.946330275,92.3525229 0.122247515,90.3610092 0.122247515,88.2844037 L0.122247515,27.6114679 C0.122247515,25.5350917 0.946330275,23.5433486 2.4146789,22.075 C3.88302752,20.6066514 5.87454128,19.7825686 7.95114679,19.7825686 L43.1805046,19.7825686 L113.63922,27.6114679 Z" id="Path" fill="#A2F9F0"></path>
                                        <path d="M107.767661,27.6114679 L107.767661,88.2844037 C107.767661,90.3607798 106.943578,92.3525229 105.475229,93.8208716 C104.006881,95.2892202 102.015367,96.1133032 99.9387615,96.1133032 L7.95114679,96.1133032 C5.87477064,96.1133032 3.88302752,95.2892202 2.4146789,93.8208716 C0.946330275,92.3525229 0.122247515,90.3610092 0.122247515,88.2844037 L0.122247515,27.6114679 C0.122247515,25.5350917 0.946330275,23.5433486 2.4146789,22.075 C3.88302752,20.6066514 5.87454128,19.7825686 7.95114679,19.7825686 L37.308945,19.7825686 L107.767661,27.6114679 Z" id="Path" fill="#66C0B7"></path>
                                        <path d="M113.63922,18.6082569 L113.63922,36.5559633 C113.422248,52.9355505 105.667202,68.3009174 92.6190367,78.2048165 L81.012844,87.383945 C79.4827982,88.5775229 77.3369266,88.5775229 75.8066514,87.383945 L75.4348624,87.090367 L64.2006881,78.2048165 C51.1525229,68.3011468 43.3974771,52.9357798 43.1805046,36.5559633 L43.1805046,18.6082569 C43.191055,17.2988532 43.9520642,16.1114679 45.1376147,15.5552752 L75.2587156,0.935091743 C77.25,-0.023853211 79.5694954,-0.023853211 81.5607798,0.935091743 L107.747936,13.637156 L111.681881,15.5552752 C112.867431,16.1114679 113.62867,17.2988532 113.63922,18.6082569 Z" id="Path" fill="#E8BD32"></path>
                                        <path d="M107.767661,13.9504587 L107.767661,33.0917431 C107.69289,50.2848624 99.993578,66.5584862 86.7474771,77.5199541 L75.4348624,87.0905963 L64.2006881,78.2050459 C51.1525229,68.3013761 43.3974771,52.9360092 43.1805046,36.5561927 L43.1805046,18.6084862 C43.191055,17.2990826 43.9520642,16.1116972 45.1376147,15.5555046 L75.2587156,0.935321101 C77.25,-0.0236238532 79.5694954,-0.0236238532 81.5607798,0.935321101 L107.747936,13.6373853 C107.76422,13.7408257 107.770872,13.8456422 107.767661,13.9504587 Z" id="Path" fill="#FBD24C"></path>
                                        <ellipse id="Oval" fill="#FFDDCF" cx="78.4098624" cy="37.4759174" rx="17.6146789" ry="17.5364679"></ellipse>
                                        <path d="M38.0676606,61.5438073 L31.2694954,58.1928899 C30.3949541,57.766055 29.8392202,56.8793578 29.8362385,55.9061927 L29.8362385,53.2763761 C30.0644495,53.0158257 30.2791284,52.743578 30.4795872,52.4610092 C31.3951835,51.1784404 32.1080275,49.7626147 32.5926606,48.2630734 C33.4827982,48.0009174 34.0972477,47.187844 34.106422,46.2598624 L34.106422,43.453211 C34.103211,42.8566514 33.8440367,42.2901376 33.3947248,41.8977064 L33.3947248,37.8401376 C33.3947248,37.8401376 34.2394495,31.5254587 25.566055,31.5254587 C16.8917431,31.5254587 17.7373853,37.8401376 17.7373853,37.8401376 L17.7373853,41.8977064 C17.2880734,42.2901376 17.0288991,42.8566514 17.0256881,43.453211 L17.0256881,46.2598624 C17.0298165,46.978211 17.4011468,47.6444954 18.0098624,48.0259174 C18.4844037,49.9392202 19.362156,51.7293578 20.5841743,53.2761468 L20.5841743,55.8405963 C20.581422,56.7805046 20.062156,57.6428899 19.2325688,58.0850917 L12.8834862,61.4993119 C11.0573394,62.4722477 9.91422018,64.3704128 9.90848624,66.4394495 L9.90848624,68.712156 L41.2233945,68.712156 L41.2233945,66.5770642 C41.2165138,64.4353211 39.9926606,62.4832569 38.0676606,61.5438073 Z" id="Path" fill="#FFFFFF"></path>
                                    </g>
                                    <g id="Group" transform="translate(7.000000, 0.000000)" fill="#1B3C3E" fill-rule="nonzero">
                                        <path d="M84.2509174,1.00802752 L114.380734,15.621789 C116.243119,16.5036697 117.431193,18.3795872 117.431193,20.4401376 L117.431193,90.1192661 C117.424771,95.5213303 113.047248,99.8988532 107.645183,99.9052752 L9.78600917,99.9052752 C4.38394495,99.8988532 0.00642201835,95.5213303 5.9620995e-12,90.1192661 L5.9620995e-12,29.4463303 C0.00642201835,24.0442661 4.38394495,19.6667431 9.78600917,19.6603211 L43.1155005,19.660243 C43.3732129,17.9158485 44.4843785,16.3906832 46.1087156,15.6220183 L76.2396789,1.00802752 C78.7713303,-0.20940367 81.7192661,-0.20940367 84.2509174,1.00802752 Z M43.058,23.5739541 L9.78600917,23.5745413 C6.54472477,23.5779817 3.91788991,26.2048165 3.91444954,29.4461009 L3.91444954,90.1192661 C3.91788991,93.3605505 6.54472477,95.9873853 9.78600917,95.9908257 L107.645413,95.9908257 C110.886697,95.9873853 113.513532,93.3605505 113.516972,90.1192661 L113.517161,58.090503 C109.853822,67.2791511 103.738232,75.4321248 95.6651376,81.5678899 L84.0614679,90.7555046 C82.9733945,91.6107798 81.6284404,92.0733945 80.2447248,92.0688446 C78.8607798,92.0736239 77.5158257,91.6107798 76.4277523,90.7557339 L64.8213303,81.566055 C51.303211,71.2912844 43.2745413,55.3600917 43.0582569,38.3818807 L43.058,23.5739541 Z M27.4004587,84.2479358 C28.481422,84.2479358 29.3575688,85.1240826 29.3575688,86.2050459 C29.3575688,87.2860092 28.481422,88.162156 27.4006881,88.162156 L12.1864679,88.162156 C11.1055046,88.162156 10.2293578,87.2860092 10.2293578,86.2050459 C10.2293578,85.1240826 11.1057339,84.2479358 12.1864679,84.2479358 L27.4004587,84.2479358 Z M80.2447248,4.00503799 C79.4497706,4.00366972 78.6649083,4.18256881 77.9493119,4.52866972 L47.8174312,19.1426606 C47.3094037,19.3766055 46.9809633,19.8811927 46.9727064,20.440367 L46.9727064,38.3818807 C47.1933486,54.1616972 54.6729358,68.9594037 67.2479358,78.4947248 L78.8573394,87.6862385 C79.6736239,88.3208716 80.8162844,88.3208716 81.6325688,87.6862385 L93.2380734,78.4965596 C105.806377,68.968568 113.285906,54.1836873 113.51673,38.4148567 L113.516972,29.4463303 L113.517,29.4219541 L113.517202,20.440367 C113.509404,19.8811927 113.180734,19.3761468 112.672477,19.1426606 L82.541055,4.52866972 C81.8247706,4.18348624 81.0399083,4.00503799 80.2447248,4.00503799 Z M43.0580275,76.4190367 C44.1389908,76.4190367 45.0151376,77.2954128 45.0151376,78.3761468 C45.0151376,79.4568807 44.1389908,80.3332569 43.0580275,80.3332569 L12.1864679,80.3332569 C11.1055046,80.3332569 10.2293578,79.4571101 10.2293578,78.3761468 C10.2293578,77.2951835 11.1057339,76.4190367 12.1864679,76.4190367 L43.0580275,76.4190367 Z M35.4165138,34.3394495 C36.7052752,35.8449541 37.3419725,37.8013761 37.1864679,39.7770642 L37.1864679,43.0149083 C37.6486239,43.6834862 37.896789,44.4766055 37.8983945,45.2894495 L37.8983945,48.0951835 C37.9002294,49.4853211 37.1834862,50.7777523 36.0034404,51.5126147 C35.4772936,52.9061927 34.7720183,54.2252294 33.9048165,55.4364679 C33.8100917,55.5683486 33.7178899,55.6926606 33.6277523,55.8091743 L33.6277523,57.7415138 C33.6321101,57.9681193 33.7637615,58.1729358 33.9678899,58.2708716 L40.7674312,61.6213303 L40.7683486,61.6233945 C43.3688073,62.8848624 45.018578,65.5222477 45.0153717,68.4123853 L45.0153717,70.5472477 C45.0153717,71.0662844 44.8094037,71.5642202 44.4422018,71.931422 C44.0752294,72.2986239 43.5772936,72.5045873 43.0580275,72.5045873 L11.7431193,72.5045873 C11.2240826,72.5045873 10.7261468,72.2986239 10.358945,71.931422 C9.99197248,71.5644495 9.78577982,71.0665138 9.78577982,70.5472477 L9.78577982,68.2747706 C9.79013761,65.484633 11.3293578,62.9233945 13.791055,61.6100917 L20.140367,58.1965596 C20.3348624,58.0954128 20.4580275,57.8958716 20.4614679,57.6766055 L20.4614679,55.7711009 C19.4172018,54.3119266 18.6229358,52.6894495 18.1105505,50.9699541 C17.337844,50.2130734 16.9022936,49.1770642 16.9025229,48.0954128 L16.9025229,45.2896789 C16.9041284,44.4768349 17.1522936,43.6837156 17.6144495,43.0151376 L17.6144495,39.7772936 C17.4587156,37.8022936 18.0951835,35.8465596 19.3834862,34.3415138 C21.4940367,32.231422 24.4261468,31.1568807 27.4004587,31.4036697 C30.3740826,31.1571101 33.3055046,32.2307339 35.4165138,34.3394495 Z M22.3298165,36.9178899 C21.75,37.6165138 21.4573394,38.509633 21.5116972,39.416055 C21.5231651,39.5022936 21.5288991,39.5889908 21.5288991,39.6759174 L21.5288991,43.7337156 C21.5288991,44.2924312 21.2899083,44.8245413 20.8722477,45.1958716 L20.8167431,48.0954128 C21.2756881,48.4110092 21.6066514,48.8800459 21.7504587,49.4181193 C22.1573394,51.0295872 22.8942661,52.5389908 23.9151376,53.8504587 C24.2107798,54.2045872 24.3736239,54.6506881 24.3756881,55.1119266 L24.3756881,57.6768349 C24.3731651,59.3362385 23.458945,60.8598624 21.9961009,61.6428899 L15.6447248,65.0584862 C14.4529817,65.6901376 13.7055046,66.9263761 13.7,68.2752294 L13.7,68.5901376 L41.1009174,68.5901376 L41.1009174,68.4123853 C41.0986239,67.0144495 40.2970183,65.741055 39.0376147,65.1344037 L32.2389908,61.783945 C30.691055,61.0327982 29.709633,59.4619266 29.7130734,57.7415138 L29.7130734,55.1116972 C29.7130734,54.6309633 29.8899083,54.1669725 30.2100917,53.8082569 C30.393578,53.5983945 30.5658257,53.3788991 30.7261468,53.1506881 C31.5240826,52.0323394 32.1447248,50.7979358 32.5667431,49.4905963 C32.7651376,48.884633 33.2461009,48.4133028 33.8559633,48.2272936 L33.983945,45.2894495 C33.5481651,44.8869266 33.2917431,44.3266055 33.2720183,43.7337156 L33.2720183,39.6759174 C33.2720183,39.5889908 33.2777523,39.5020642 33.2892202,39.416055 C33.3458716,38.4944954 33.0419725,37.5869266 32.4415138,36.8853211 C31.0456422,35.6963303 29.2243119,35.1300459 27.4004587,35.3181193 C25.5612385,35.1233945 23.7240826,35.7029817 22.3298165,36.9178899 Z M80.3490826,19.8171844 C91.1048165,19.8316514 99.8167431,28.5548165 99.8167431,39.3105505 C99.7830275,50.0933486 91.0272936,58.8139908 80.2447248,58.8043658 C69.4889908,58.7612385 60.8006881,50.0144495 60.8295153,39.2587156 C60.8584862,28.5029817 69.5933486,19.8029817 80.3490826,19.8171844 Z M80.2447248,23.7316372 C71.6506881,23.7747706 64.7149083,30.7688073 64.7434894,39.362844 C64.7722477,47.9568807 71.7548165,54.9043578 80.3488532,54.8901594 C88.9428899,54.8759174 95.9020642,47.9050459 95.9020642,39.3110092 C95.8704128,30.6892202 88.8662844,23.7201835 80.2447248,23.7316372 Z M88.0272936,33.941055 C88.7887615,34.7025229 88.7919725,35.9362385 88.0344037,36.7016055 L78.4261468,46.3098624 C78.0594037,46.6775229 77.5614679,46.883945 77.0422018,46.8832586 C76.5229358,46.883945 76.025,46.6775229 75.6584862,46.3098624 L72.4550459,43.1066514 C71.6908257,42.3424312 71.6908257,41.103211 72.4550459,40.3389908 C73.2192661,39.5747706 74.4584862,39.5747706 75.2227064,40.3389908 L77.0422018,42.1584862 L85.2667431,33.9341743 C86.0321101,33.1763761 87.2658257,33.1795872 88.0272936,33.941055 Z" id="Combined-Shape"></path>
                                    </g>
                                </g>
                            </g>
                        </g>
                    </g>
                </g>
            </g>
        </g>
    </g>
</svg>