<?xml version="1.0" encoding="UTF-8"?>
<svg width="24px" height="24px" viewBox="0 0 24 24" version="1.1" xmlns="http://www.w3.org/2000/svg" xmlns:xlink="http://www.w3.org/1999/xlink">
    <!-- Generator: Sketch 61.2 (89653) - https://sketch.com -->
    <title>icon</title>
    <desc>Created with Sketch.</desc>
    <g id="Page-1" stroke="none" stroke-width="1" fill="none" fill-rule="evenodd">
        <g id="Contact-Us-HD" transform="translate(-1232.000000, -819.000000)" fill="#1B3C3E" fill-rule="nonzero">
            <g id="Group-3" transform="translate(0.000000, 335.000000)">
                <g id="Group-26" transform="translate(133.000000, 306.000000)">
                    <g id="Group-25" transform="translate(1047.000000, 0.000000)">
                        <g id="Group-24" transform="translate(0.000000, 45.000000)">
                            <g id="Group-2" transform="translate(52.000000, 133.000000)">
                                <path d="M2.7093185,2.88163649 C3.48842859,2.1125342 4.4673105,2.1125342 5.25141489,2.87664232 C5.73586154,3.35108854 6.21031961,3.8355231 6.68977198,4.31496348 C7.15424145,4.78441553 7.61871093,5.24387923 8.08318041,5.71333128 C8.90224486,6.53736944 8.90224486,7.49625022 8.0881747,8.31529421 C7.50384213,8.90460635 6.92450386,9.49391849 6.3301827,10.0682481 C6.17535954,10.2230674 6.16037666,10.3479217 6.24028539,10.5377002 C6.63483473,11.4766043 7.19919011,12.3106308 7.83346563,13.0897214 C9.11200527,14.657891 10.5553567,16.0512646 12.2783886,17.1349997 C12.6479664,17.3647315 13.0574987,17.5345333 13.4420594,17.7442885 C13.6368369,17.8541602 13.7716829,17.819201 13.9315004,17.6543934 C14.5158329,17.0550929 15.1101541,16.4657808 15.7044753,15.8764686 C16.4835854,15.1023722 17.4624673,15.1023722 18.2465716,15.8764686 C19.2004821,16.8253611 20.1543925,17.7742535 21.1033086,18.7281401 C21.8974016,19.5272074 21.8924073,20.5060649 21.09332,21.3151205 C20.5539361,21.8594851 19.9795922,22.3788789 19.470174,22.9482144 C18.726024,23.7822409 17.7970851,24.0519261 16.7283058,23.991996 C15.1750799,23.9070951 13.7467114,23.3926955 12.3682859,22.7234767 C9.30678279,21.2352138 6.68977198,19.1726213 4.49727627,16.5656642 C2.87413025,14.6379143 1.53565907,12.5353684 0.656663074,10.1681315 C0.227153665,9.02446645 -0.0774983571,7.85083634 0.0173932564,6.60728783 C0.0773248018,5.84317972 0.361999642,5.18894335 0.926355028,4.65456709 C1.53565907,4.07524329 2.11000305,3.47094863 2.7093185,2.88163649 Z M12.1385483,4.79440387 C13.9265061,5.0441124 15.5496521,5.85316806 16.833186,7.13666993 C18.0467998,8.35524758 18.8458871,9.88845798 19.1355562,11.5814818 L19.1355562,11.5814818 L17.2926612,11.8961146 C17.0679179,10.5876419 16.4536196,9.39902925 15.514692,8.46012516 C14.5208272,7.46628519 13.2622648,6.84201385 11.8788449,6.6472412 L11.8788449,6.6472412 Z M12.3832688,6.57252031e-14 C15.3548746,0.414516168 18.0467998,1.75794809 20.1743697,3.8854648 C22.192065,5.90810393 23.5155533,8.45513099 24,11.2618549 L24,11.2618549 L22.157105,11.5764877 C21.7425785,9.15431489 20.5988848,6.95188561 18.8558757,5.20892004 C17.017975,3.37605939 14.6906333,2.21241762 12.1235654,1.85283733 L12.1235654,1.85283733 Z" id="icon"></path>
                            </g>
                        </g>
                    </g>
                </g>
            </g>
        </g>
    </g>
</svg>