<?xml version="1.0" encoding="UTF-8"?>
<svg width="45px" height="45px" viewBox="0 0 45 45" version="1.1" xmlns="http://www.w3.org/2000/svg" xmlns:xlink="http://www.w3.org/1999/xlink">
    <!-- Generator: Sketch 61.2 (89653) - https://sketch.com -->
    <title>Group 4</title>
    <desc>Created with Sketch.</desc>
    <g id="Page-1" stroke="none" stroke-width="1" fill="none" fill-rule="evenodd" fill-opacity="0.447115385">
        <g id="Desktop-HD" transform="translate(-160.000000, -4866.000000)" fill="#000000" fill-rule="nonzero">
            <g id="Group-37" transform="translate(140.000000, 3859.000000)">
                <g id="Group-36" transform="translate(0.000000, 742.000000)">
                    <g id="Group-5" transform="translate(20.000000, 265.000000)">
                        <g id="Group-4">
                            <path d="M22.4569912,1.42108547e-14 C34.89,1.1926948e-14 44.9139823,10.0239823 44.9139823,22.4569912 C44.9139823,34.89 34.89,44.9139823 22.4569912,44.9139823 C10.0239823,44.9139823 1.7065233e-14,34.8785841 1.47834234e-14,22.4569912 C1.25016382e-14,10.035531 10.0239823,1.64947614e-14 22.4569912,1.42108547e-14 Z M22.4568584,3.00265487 C11.679292,3.00265487 3.00252212,11.6795575 3.00252212,22.4569912 C3.00252212,33.2344248 11.679292,41.9113274 22.4568584,41.9113274 C33.2344248,41.9113274 41.9111947,33.2345575 41.9111947,22.4569912 C41.9111947,11.6794248 33.2344248,3.00265487 22.4568584,3.00265487 Z M28.2849696,11.5817118 C28.5817837,11.878526 28.7303236,12.1753402 28.7303236,12.6321101 C28.7303236,12.9289242 28.5819165,13.3856941 28.1366952,13.8307826 L19.4599253,22.5075525 L28.1366952,31.1843225 C28.7303236,31.7779508 28.7303236,32.6799419 28.1366952,33.2849862 C27.5431997,33.8787472 26.6412085,33.8787472 26.0360315,33.2851189 L16.3087306,23.5579508 C15.7151023,22.9643225 15.7151023,22.0623313 16.3087306,21.4572871 L26.1843059,11.5817118 C26.7779342,10.9880835 27.6799253,10.9880835 28.2849696,11.5817118 Z" id="Combined-Shape"></path>
                        </g>
                    </g>
                </g>
            </g>
        </g>
    </g>
</svg>