<?xml version="1.0" encoding="UTF-8"?>
<svg width="45px" height="45px" viewBox="0 0 45 45" version="1.1" xmlns="http://www.w3.org/2000/svg" xmlns:xlink="http://www.w3.org/1999/xlink">
    <!-- Generator: Sketch 61.2 (89653) - https://sketch.com -->
    <title>Group 3</title>
    <desc>Created with Sketch.</desc>
    <g id="Page-1" stroke="none" stroke-width="1" fill="none" fill-rule="evenodd" fill-opacity="0.447115385">
        <g id="Desktop-HD" transform="translate(-235.000000, -4866.000000)" fill="#000000" fill-rule="nonzero">
            <g id="Group-37" transform="translate(140.000000, 3859.000000)">
                <g id="Group-36" transform="translate(0.000000, 742.000000)">
                    <g id="Group-5" transform="translate(20.000000, 265.000000)">
                        <g id="Group-3" transform="translate(75.000000, 0.000000)">
                            <path d="M22.4569912,0 C34.89,2.28390667e-15 44.9139823,10.035531 44.9139823,22.4569912 C44.9139823,34.8785841 34.89,44.9139823 22.4569912,44.9139823 C10.0239823,44.9139823 -7.10542736e-15,34.89 -7.10542736e-15,22.4569912 C0,10.0239823 10.0239823,-2.28390667e-15 22.4569912,0 Z M22.4571239,3.00265487 C11.6795575,3.00265487 3.00278761,11.6794248 3.00278761,22.4569912 C3.00278761,33.2345575 11.6795575,41.9113274 22.4571239,41.9113274 C33.2346903,41.9113274 41.9114602,33.2344248 41.9114602,22.4569912 C41.9114602,11.6795575 33.2346903,3.00265487 22.4571239,3.00265487 Z M16.3088634,11.5817118 C16.9139076,10.9880835 17.8158988,10.9880835 18.4095271,11.5817118 L18.4095271,11.5817118 L28.2851023,21.4572871 C28.8787306,22.0623313 28.8787306,22.9643225 28.2851023,23.5579508 L28.2851023,23.5579508 L18.5578014,33.2851189 C17.9526244,33.8787472 17.0506333,33.8787472 16.4571377,33.2849862 C15.8635094,32.6799419 15.8635094,31.7779508 16.4571377,31.1843225 L16.4571377,31.1843225 L25.1339076,22.5075525 L16.4571377,13.8307826 C16.0119165,13.3856941 15.8635094,12.9289242 15.8635094,12.6321101 C15.8635094,12.1753402 16.0120492,11.878526 16.3088634,11.5817118 Z" id="Combined-Shape"></path>
                        </g>
                    </g>
                </g>
            </g>
        </g>
    </g>
</svg>