<?xml version="1.0" encoding="UTF-8"?>
<svg width="148px" height="141px" viewBox="0 0 148 141" version="1.1" xmlns="http://www.w3.org/2000/svg" xmlns:xlink="http://www.w3.org/1999/xlink">
    <!-- Generator: Sketch 61.2 (89653) - https://sketch.com -->
    <title>001-cctv</title>
    <desc>Created with Sketch.</desc>
    <defs>
        <linearGradient x1="100%" y1="26.6877657%" x2="8.96724057%" y2="80.0028369%" id="linearGradient-1">
            <stop stop-color="#66C0B7" stop-opacity="0" offset="0%"></stop>
            <stop stop-color="#66C0B7" stop-opacity="0.166165865" offset="100%"></stop>
        </linearGradient>
    </defs>
    <g id="Page-1" stroke="none" stroke-width="1" fill="none" fill-rule="evenodd">
        <g id="Life-@-Darwin-HD" transform="translate(-175.000000, -5374.000000)">
            <g id="Group-17" transform="translate(0.000000, 5055.000000)">
                <g id="Group-15" transform="translate(140.000000, 80.000000)">
                    <g id="Group-47" transform="translate(35.000000, 239.000000)">
                        <g id="Group-46">
                            <g id="Group-10">
                                <g id="001-cctv">
                                    <circle id="Oval" fill="url(#linearGradient-1)" cx="63.5" cy="77.5" r="63.5"></circle>
                                    <path d="M57.6384186,97.62 L29.0036279,97.62 L29.0036279,85.8973953 L54.267814,85.8973953 L71.1389767,51.867907 L81.2711628,57.763814 L62.7043721,94.7067907 C61.6550698,96.5106977 59.7255814,97.62 57.6384186,97.62 Z" id="Path" fill="#66C0B7" fill-rule="nonzero"></path>
                                    <g id="Group" transform="translate(36.255814, 3.069767)" fill="#FBD24C" fill-rule="nonzero">
                                        <path d="M10.8591628,10.6889302 L0.286046512,39.7389767 C-0.37255814,41.5484651 0.560372093,43.5488372 2.36986047,44.2074419 L85.2826047,74.3852093 L97.048186,42.0588837 L10.8591628,10.6889302 Z" id="Path"></path>
                                        <path d="M23.7385116,38.1583256 L3.53748837,30.8059535 L13.872,2.412 C14.5306047,0.602511628 16.5309767,-0.330139535 18.3404651,0.328186047 L108.697395,33.2154419 L74.9899535,56.8124651 L47.0243721,46.6336744 L23.7385116,38.1583256 Z" id="Path"></path>
                                    </g>
                                    <rect id="Rectangle" fill="#395087" fill-rule="nonzero" transform="translate(134.807290, 59.851492) rotate(-160.001229) translate(-134.807290, -59.851492) " x="128.359802" y="50.3268402" width="12.8949773" height="19.0493032"></rect>
                                    <g id="Group" transform="translate(7.790698, 68.372093)" fill="#FFFFFF" fill-rule="nonzero">
                                        <rect id="Rectangle" x="11.8624186" y="5.94837209" width="13.188" height="36.6332093"></rect>
                                        <path d="M0.139813953,0.0881860465 L6.44093023,0.0881860465 C9.43506977,0.0881860465 11.8626977,2.51553488 11.8626977,5.50995349 L11.8626977,43.0222326 C11.8626977,46.0163721 9.43534884,48.444 6.44093023,48.444 L0.139813953,48.444 L0.139813953,0.0881860465 Z" id="Path"></path>
                                    </g>
                                    <circle id="Oval" fill="#EFEFEF" fill-rule="nonzero" cx="57.0188837" cy="90.3923721" r="8.79181395"></circle>
                                    <g id="Group" transform="translate(5.000000, 0.000000)" fill-rule="nonzero">
                                        <path d="M140.123721,50.355907 L130.760372,46.947907 L131.057581,46.1313488 C131.064,46.1140465 131.067907,46.096186 131.073767,46.0788837 L141.634047,38.6863256 C142.529302,38.0595349 143.001488,36.9865116 142.858884,35.9031628 C142.716558,34.819814 141.982884,33.9053023 140.955628,33.5316279 L50.5981395,0.643813953 C48.9873488,0.0577674419 47.2448372,0.133674419 45.6915349,0.858139535 C44.1379535,1.58260465 42.96,2.86855814 42.3733953,4.47906977 L28.7874419,41.8063256 C28.2013953,43.4171163 28.2773023,45.1596279 29.0017674,46.7129302 C29.7262326,48.2665116 31.012186,49.4444651 32.6226977,50.0310698 L59.0157209,59.6374884 L49.4366512,78.9588837 C46.8491163,79.5429767 44.5825116,80.9824186 42.9541395,82.9671628 L30.7716279,82.9671628 L30.7716279,74.3218605 C30.7716279,72.7032558 29.4594419,71.3913488 27.8411163,71.3913488 L17.2043721,71.3913488 C16.1419535,67.9986977 12.9697674,65.5300465 9.23162791,65.5300465 L2.93051163,65.5300465 C1.31190698,65.5300465 0,66.8422326 0,68.4605581 L0,116.815814 C0,118.434419 1.31218605,119.746326 2.93051163,119.746326 L9.23162791,119.746326 C12.9700465,119.746326 16.1422326,117.277674 17.2043721,113.885023 L27.8411163,113.885023 C29.4597209,113.885023 30.7716279,112.573116 30.7716279,110.954512 L30.7716279,100.550791 L46.1818605,100.550791 C47.9020465,101.542884 49.8943256,102.113581 52.0188837,102.113581 C58.4826977,102.113581 63.7414884,96.8547907 63.7414884,90.3909767 C63.7414884,90.0304186 63.7227907,89.6740465 63.6904186,89.3218605 L75.5793488,65.6656744 L115.535442,80.2085581 C115.859442,80.3266047 116.19907,80.3852093 116.53786,80.3852093 C116.961767,80.3852093 117.384837,80.2931163 117.776651,80.1106047 C118.481023,79.7821395 119.026326,79.1874419 119.291721,78.4568372 L122.240372,70.3554419 L131.603442,73.7634419 C131.927442,73.8814884 132.26707,73.940093 132.60586,73.940093 C133.029767,73.940093 133.452837,73.848 133.844651,73.6654884 C134.548744,73.3370233 135.094326,72.7423256 135.359721,72.0117209 L141.874884,54.1113488 C142.428837,52.5909767 141.644651,50.9093023 140.123721,50.355907 Z M11.7226047,111.394047 C11.7226047,112.767628 10.6052093,113.885023 9.23162791,113.885023 L5.86130233,113.885023 L5.86130233,71.3907907 L9.23162791,71.3907907 C10.6052093,71.3907907 11.7226047,72.508186 11.7226047,73.8817674 L11.7226047,74.3213023 L11.7226047,110.954512 L11.7226047,111.394047 Z M24.9106047,108.024 L17.583907,108.024 L17.583907,77.252093 L24.9106047,77.252093 L24.9106047,108.024 Z M52.0188837,96.2522791 C48.7869767,96.2522791 46.1575814,93.6228837 46.1575814,90.3909767 C46.1575814,87.1590698 48.7869767,84.5296744 52.0188837,84.5296744 C55.2507907,84.5296744 57.880186,87.1590698 57.880186,90.3909767 C57.880186,93.6228837 55.2507907,96.2522791 52.0188837,96.2522791 Z M30.771907,88.828186 L40.4037209,88.828186 C40.3350698,89.34 40.2965581,89.8610233 40.2965581,90.3909767 C40.2965581,91.9082791 40.5893023,93.3574884 41.116186,94.6894884 L30.771907,94.6894884 L30.771907,88.828186 L30.771907,88.828186 Z M60.6011163,82.4171163 C59.2981395,81.0156279 57.6572093,79.9342326 55.8094884,79.3010233 L64.5583256,61.6543256 L70.0345116,63.6474419 L60.6011163,82.4171163 Z M114.786698,73.6986977 L34.6275349,44.5233488 C34.4486512,44.4583256 34.3585116,44.3310698 34.3138605,44.236186 C34.2694884,44.1413023 34.2304186,43.9903256 34.2954419,43.8114419 L36.5447442,37.6322791 L53.9916279,43.9825116 C55.512,44.535907 57.1942326,43.7522791 57.747907,42.2307907 C58.3015814,40.7098605 57.5173953,39.028186 55.996186,38.4745116 L38.5490233,32.1242791 L47.8813953,6.48446512 C47.9464186,6.3055814 48.0736744,6.21516279 48.1685581,6.1707907 C48.2634419,6.1264186 48.4144186,6.08734884 48.5933023,6.15237209 L133.659628,37.1137674 L105.814047,56.6067907 L79.2814884,46.9498605 C77.7611163,46.395907 76.0786047,47.1803721 75.5254884,48.7015814 C74.9715349,50.2225116 75.7557209,51.904186 77.2772093,52.4578605 L105.24307,62.6366512 C105.568465,62.7549767 105.907814,62.8133023 106.24493,62.8133023 C106.838512,62.8133023 107.426512,62.6330233 107.926047,62.2833488 L122.707256,51.9357209 L119.134605,61.7522791 L114.786698,73.6986977 Z M130.854698,67.2535814 L124.245488,64.848 L128.755814,52.4553488 L135.365302,54.8609302 L130.854698,67.2535814 Z" id="Shape" fill="#1B3C3E"></path>
                                        <path d="M68.4139535,42.9937674 L67.9872558,42.8383256 C66.4663256,42.2846512 64.7846512,43.0688372 64.2309767,44.5900465 C63.6773023,46.1109767 64.4614884,47.7926512 65.9826977,48.3463256 L66.4093953,48.5017674 C66.7403721,48.6223256 67.0788837,48.6792558 67.4112558,48.6792558 C68.608186,48.6792558 69.7322791,47.9402791 70.1653953,46.7500465 C70.7190698,45.2291163 69.9348837,43.5474419 68.4139535,42.9937674 Z" id="Path" fill="#FBD24C"></path>
                                    </g>
                                </g>
                            </g>
                        </g>
                    </g>
                </g>
            </g>
        </g>
    </g>
</svg>