<?xml version="1.0" encoding="UTF-8"?>
<svg width="127px" height="141px" viewBox="0 0 127 141" version="1.1" xmlns="http://www.w3.org/2000/svg" xmlns:xlink="http://www.w3.org/1999/xlink">
    <!-- Generator: Sketch 61.2 (89653) - https://sketch.com -->
    <title>003-insurance</title>
    <desc>Created with Sketch.</desc>
    <defs>
        <linearGradient x1="100%" y1="26.6877657%" x2="8.96724057%" y2="80.0028369%" id="linearGradient-1">
            <stop stop-color="#66C0B7" stop-opacity="0" offset="0%"></stop>
            <stop stop-color="#66C0B7" stop-opacity="0.166165865" offset="100%"></stop>
        </linearGradient>
    </defs>
    <g id="Page-1" stroke="none" stroke-width="1" fill="none" fill-rule="evenodd">
        <g id="Life-@-Darwin-HD" transform="translate(-1180.000000, -5374.000000)">
            <g id="Group-17" transform="translate(0.000000, 5055.000000)">
                <g id="Group-15" transform="translate(140.000000, 80.000000)">
                    <g id="Group-47" transform="translate(35.000000, 239.000000)">
                        <g id="Group-43" transform="translate(1005.000000, 0.000000)">
                            <g id="Group-13">
                                <g id="003-insurance">
                                    <circle id="Oval-Copy" fill="url(#linearGradient-1)" cx="63.5" cy="77.5" r="63.5"></circle>
                                    <g id="Group" transform="translate(95.431211, 78.357290)" fill="#FEE0E6" fill-rule="nonzero">
                                        <path d="M0.200082136,0.197125257 C0.117289528,1.01519507 0.154743326,1.65979466 0.200082136,2.06784394 C0.245420945,1.65979466 0.284845996,1.01519507 0.200082136,0.197125257 Z" id="Path"></path>
                                        <path d="M0.251334702,2.46406571 C0.239507187,2.3812731 0.219794661,2.24328542 0.200082136,2.06784394 C0.184312115,2.21371663 0.168542094,2.32410678 0.156714579,2.40689938 L0.251334702,2.46406571 Z" id="Path"></path>
                                    </g>
                                    <path d="M20.7749487,55.1950719 C26.6,56.6005749 30.595729,59.4529774 32.6024641,61.1088296 L34.5737166,61.1088296 C43.2137166,59.9517043 53.1488296,59.137577 64.1425051,59.137577 C72.8613552,59.137577 82.8142094,59.6501027 93.7112936,61.1088296 L95.6825462,61.1088296 C97.6892813,59.4529774 101.68501,56.6005749 107.510062,55.1950719 C113.654456,53.7126899 118.754086,54.5800411 121.30883,55.1950719 L121.30883,55.1950719 C121.30883,31.2443532 101.891992,11.8275154 77.9412731,11.8275154 L68.0850103,11.8275154 L64.1425051,11.8275154 L58.2287474,11.8275154 L50.3437372,11.8275154 C26.3930185,11.8275154 6.9761807,31.2443532 6.9761807,55.1950719 L6.9761807,55.1950719 C9.53092402,54.5800411 14.6305544,53.7126899 20.7749487,55.1950719 Z M54.2862423,33.5112936 L60.2,33.5112936 L60.2,27.5975359 L68.0850103,27.5975359 L68.0850103,33.5112936 L73.998768,33.5112936 L73.998768,41.3963039 L68.0850103,41.3963039 L68.0850103,47.3100616 L60.2,47.3100616 L60.2,41.3963039 L54.2862423,41.3963039 L54.2862423,33.5112936 L54.2862423,33.5112936 Z" id="Shape" fill="#FBD24C" fill-rule="nonzero"></path>
                                    <polygon id="Path" fill="#FFFFFF" fill-rule="nonzero" points="60.2 47.3100616 68.0850103 47.3100616 68.0850103 41.3963039 73.998768 41.3963039 73.998768 33.5112936 68.0850103 33.5112936 68.0850103 27.5975359 60.2 27.5975359 60.2 33.5112936 54.2862423 33.5112936 54.2862423 41.3963039 60.2 41.3963039"></polygon>
                                    <g id="Group" transform="translate(85.821355, 74.907598)" fill="#FBD24C" fill-rule="nonzero">
                                        <polygon id="Path" points="19.7174538 8.9061191 19.7174538 0 9.86119097 5.9137577 19.7174538 11.8275154"></polygon>
                                        <polygon id="Path" points="0.00492813142 0 0.00492813142 8.9061191 0.00492813142 11.8275154 9.86119097 5.9137577 9.76854209 5.85856263"></polygon>
                                    </g>
                                    <path d="M85.8262834,83.8137166 C82.1222998,86.2935524 79.4275975,90.1374949 78.4064887,94.6201232 L75.9700205,94.6201232 C73.7917864,94.6201232 72.0275154,96.3843943 72.0275154,98.5626283 C72.0275154,100.740862 73.7917864,102.505133 75.9700205,102.505133 L78.3966324,102.505133 C80.1924435,110.403943 87.2416427,116.303901 95.6825462,116.303901 C104.12345,116.303901 111.17462,110.403943 112.96846,102.505133 L115.395072,102.505133 C117.573306,102.505133 119.337577,100.740862 119.337577,98.5626283 C119.337577,96.3843943 117.573306,94.6201232 115.395072,94.6201232 L112.958604,94.6201232 C111.937495,90.1374949 109.242793,86.2935524 105.538809,83.8137166 L105.538809,86.7351129 L95.6825462,80.8213552 L85.8262834,86.7351129 L85.8262834,83.8137166 Z" id="Path" fill="#FEE0E6" fill-rule="nonzero"></path>
                                    <path d="M46.401232,70.9650924 C40.6510883,69.2461602 35.0566735,74.4463244 34.5737166,74.9075975 L32.6024641,76.8788501 L30.6568378,74.9075975 C30.1738809,74.4463244 24.5794661,69.2461602 18.8293224,70.9650924 C11.7229569,73.0881314 10.9975359,83.7959754 10.9443121,84.7638604 C10.873347,86.0806571 10.9285421,87.3974538 11.0921561,88.7063655 C12.1369199,97.0920739 17.9895688,105.148583 28.6599589,110.390144 L32.6024641,112.361396 L36.5449692,110.390144 C47.2153593,105.148583 53.0877207,97.0920739 54.1383984,88.7063655 C54.3020123,87.3974538 54.3591786,86.0806571 54.2862423,84.7638604 C54.2330185,83.7959754 53.5075975,73.0881314 46.401232,70.9650924 Z" id="Path" fill="#66C0B7" fill-rule="nonzero"></path>
                                    <g id="Group" transform="translate(5.000000, 0.000000)" fill="#1B3C3E" fill-rule="nonzero">
                                        <path d="M2.4374538,57.1131006 C5.37856263,56.4054209 9.99917864,55.8317864 15.3136756,57.1111294 C19.3310883,58.0809856 23.1474333,59.9891581 26.3487474,62.6306366 C26.7016016,62.9204107 27.1451335,63.0800821 27.6024641,63.0800821 L29.5737166,63.0800821 C29.6604517,63.0800821 29.7491581,63.0741684 29.8358932,63.0623409 C38.8701437,61.8519918 48.0167556,61.229076 57.1712526,61.1482546 L57.1712526,111.882382 C57.1712526,112.919261 56.7513758,113.936427 56.0160986,114.669733 C54.4804928,116.205339 51.9770021,116.205339 50.4413963,114.669733 C49.7061191,113.938398 49.2862423,112.921232 49.2862423,111.884353 L49.2862423,106.447639 L45.3437372,106.447639 L45.3437372,111.884353 C45.3437372,113.962053 46.185462,115.992444 47.6540452,117.459055 C49.1916222,118.994661 51.2101848,119.76345 53.2287474,119.76345 C55.2473101,119.76345 57.2658727,118.994661 58.8034497,117.459055 C60.2720329,115.992444 61.1137577,113.962053 61.1137577,111.884353 L61.1137577,61.1482546 C70.2682546,61.229076 79.4168378,61.8519918 88.449117,63.0623409 C88.5358522,63.0741684 88.6245585,63.0800821 88.7112936,63.0800821 L90.6825462,63.0800821 C91.1398768,63.0800821 91.5834086,62.9204107 91.9362628,62.6286653 C95.137577,59.9871869 98.953922,58.0790144 102.971335,57.1091581 C108.28386,55.8317864 112.904476,56.4034497 115.847556,57.1111294 C116.433018,57.249117 117.053963,57.1150719 117.529035,56.7405339 C118.002136,56.3699384 118.280082,55.8002464 118.280082,55.1950719 C118.280082,30.1936756 97.9406982,9.85626283 72.9412731,9.85626283 L61.1137577,9.85626283 L61.1137577,0 L57.1712526,0 L57.1712526,9.85626283 L45.3437372,9.85626283 C20.3443121,9.85626283 0.00492813142,30.1936756 0.00492813142,55.1950719 C0.00492813142,55.8002464 0.282874743,56.3699384 0.755975359,56.7425051 C1.23104723,57.1190144 1.84804928,57.2530595 2.4374538,57.1131006 Z M29.5303491,59.1277207 C29.459384,52.7487474 30.5021766,43.809117 35.2745791,34.4022998 C40.604846,23.8915811 48.2119097,17.4396715 53.8280082,13.798768 L62.3950719,13.798768 C69.1170431,19.0068172 74.7528542,25.310883 79.1388912,32.5611499 C83.9940862,40.5900616 87.1697741,49.7209035 88.4313758,59.0902669 C68.9652567,56.5296099 48.9944969,56.5394661 29.5303491,59.1277207 Z M114.268583,52.78423 C110.209774,52.1534292 106.03269,52.3170431 102.048789,53.2790144 C98.5616427,54.118768 95.2243121,55.6011499 92.2122382,57.5743737 C90.7909651,48.01577 87.4772895,38.7232854 82.5136756,30.5189322 C78.7170431,24.2444353 74.0274333,18.6480493 68.5591786,13.798768 L72.9412731,13.798768 C94.958193,13.798768 113.014867,31.0767967 114.268583,52.78423 Z M45.3437372,13.798768 L47.0922382,13.798768 C41.9137577,17.9383984 36.1222177,24.0137988 31.7578645,32.6202875 C27.1057084,41.7905544 25.7455441,50.5685421 25.5898152,57.2353183 C22.7058727,55.4237372 19.5321561,54.0734292 16.2362218,53.2790144 C12.2523203,52.3170431 8.07326489,52.1534292 4.0164271,52.78423 C5.27014374,31.0767967 23.3268172,13.798768 45.3437372,13.798768 Z" id="Shape"></path>
                                        <path d="M65.0562628,47.3100616 L65.0562628,43.3675565 L68.998768,43.3675565 C70.0868994,43.3675565 70.9700205,42.4864066 70.9700205,41.3963039 L70.9700205,33.5112936 C70.9700205,32.421191 70.0868994,31.5400411 68.998768,31.5400411 L65.0562628,31.5400411 L65.0562628,27.5975359 C65.0562628,26.5074333 64.1731417,25.6262834 63.0850103,25.6262834 L55.2,25.6262834 C54.1118686,25.6262834 53.2287474,26.5074333 53.2287474,27.5975359 L53.2287474,31.5400411 L49.2862423,31.5400411 C48.1981109,31.5400411 47.3149897,32.421191 47.3149897,33.5112936 L47.3149897,41.3963039 C47.3149897,42.4864066 48.1981109,43.3675565 49.2862423,43.3675565 L53.2287474,43.3675565 L53.2287474,47.3100616 C53.2287474,48.4001643 54.1118686,49.2813142 55.2,49.2813142 L63.0850103,49.2813142 C64.1731417,49.2813142 65.0562628,48.4001643 65.0562628,47.3100616 Z M61.1137577,41.3963039 L61.1137577,45.338809 L57.1712526,45.338809 L57.1712526,41.3963039 C57.1712526,40.3062012 56.2881314,39.4250513 55.2,39.4250513 L51.2574949,39.4250513 L51.2574949,35.4825462 L55.2,35.4825462 C56.2881314,35.4825462 57.1712526,34.6013963 57.1712526,33.5112936 L57.1712526,29.5687885 L61.1137577,29.5687885 L61.1137577,33.5112936 C61.1137577,34.6013963 61.9968789,35.4825462 63.0850103,35.4825462 L67.0275154,35.4825462 L67.0275154,39.4250513 L63.0850103,39.4250513 C61.9968789,39.4250513 61.1137577,40.3062012 61.1137577,41.3963039 Z" id="Shape"></path>
                                        <path d="M79.8544559,73.1926078 C79.2374538,73.5434908 78.8550308,74.1979466 78.8550308,74.9075975 L78.8550308,82.8162628 C75.5571253,85.2960986 73.1305133,88.710308 71.8984805,92.6488706 L70.9700205,92.6488706 C67.7095688,92.6488706 65.0562628,95.3021766 65.0562628,98.5626283 C65.0562628,101.82308 67.7095688,104.476386 70.9700205,104.476386 L71.886653,104.476386 C74.4413963,112.676797 81.9577823,118.275154 90.6825462,118.275154 C99.4073101,118.275154 106.923696,112.676797 109.478439,104.476386 L110.395072,104.476386 C113.655524,104.476386 116.30883,101.82308 116.30883,98.5626283 C116.30883,95.3021766 113.655524,92.6488706 110.395072,92.6488706 L109.466612,92.6488706 C108.234579,88.710308 105.809938,85.2941273 102.510062,82.8162628 L102.510062,74.9075975 C102.510062,74.1979466 102.127639,73.5434908 101.510637,73.1926078 C100.893634,72.8397536 100.134702,72.8535524 99.5255852,73.2182341 L92.9317454,77.174538 C93.444271,75.5206571 94.4772074,73.8805749 96.0088706,72.3686242 C99.2239836,69.2008214 103.3577,69.0273511 104.465544,68.9938398 L104.497084,65.0513347 C102.431211,65.0257084 97.4143737,65.4455852 93.241232,69.5615606 C92.1905544,70.5984394 91.3330595,71.6983984 90.6332649,72.8338398 C89.9334702,71.6983984 89.0759754,70.5984394 88.0252977,69.5615606 C83.8521561,65.443614 78.7426694,65.0552772 76.7694456,65.0513347 L76.8009856,68.9938398 C77.9088296,68.9583573 82.0464887,69.1988501 85.2576591,72.3686242 C86.7656674,73.8569199 87.7887474,75.4694045 88.3091581,77.0976591 L81.8434497,73.2182341 C81.2323614,72.8535524 80.4714579,72.8397536 79.8544559,73.1926078 Z M106.036632,95.0577413 C106.239671,95.9546612 107.038029,96.5913758 107.958604,96.5913758 L110.395072,96.5913758 C111.481232,96.5913758 112.366324,97.4744969 112.366324,98.5626283 C112.366324,99.6507598 111.481232,100.533881 110.395072,100.533881 L107.970431,100.533881 C107.049856,100.533881 106.251499,101.170595 106.04846,102.067515 C104.406407,109.288214 98.0885421,114.332649 90.6825462,114.332649 C83.2765503,114.332649 76.9586858,109.288214 75.3186037,102.067515 C75.1135934,101.170595 74.3152361,100.533881 73.3946612,100.533881 L70.9700205,100.533881 C69.8838604,100.533881 68.998768,99.6507598 68.998768,98.5626283 C68.998768,97.4744969 69.8838604,96.5913758 70.9700205,96.5913758 L73.4064887,96.5913758 C74.3270637,96.5913758 75.1254209,95.9546612 75.32846,95.0577413 C75.9553183,92.3058727 77.2819713,89.8142094 79.1645175,87.7956468 C79.1743737,87.8114168 79.1960575,87.8193018 79.2059138,87.8350719 C79.3734702,88.0814784 79.5863655,88.2983162 79.8544559,88.4501027 C80.4714579,88.8009856 81.2303901,88.7911294 81.8395072,88.4244764 L90.6825462,83.1198357 L99.523614,88.4244764 C99.6773717,88.5171253 99.8429569,88.5861191 100.010513,88.6334292 C100.059795,88.6472279 100.113018,88.6452567 100.164271,88.6551129 C100.284517,88.678768 100.404764,88.702423 100.526982,88.7043943 C100.530924,88.7043943 100.534867,88.7063655 100.538809,88.7063655 C100.647228,88.7063655 100.753676,88.6827105 100.862094,88.6649692 C100.919261,88.6551129 100.976427,88.6570842 101.031622,88.6432854 C101.197207,88.5999179 101.35885,88.5368378 101.510637,88.4501027 C101.778727,88.2983162 101.991622,88.0814784 102.159179,87.8350719 C102.169035,87.8193018 102.190719,87.8114168 102.200575,87.7956468 C104.08115,89.8142094 105.409774,92.3039014 106.036632,95.0577413 Z M98.5675565,78.3908008 L98.5675565,83.2538809 L94.5146612,80.8213552 L98.5675565,78.3908008 Z M82.7975359,78.3908008 L86.8504312,80.8213552 L82.7975359,83.2519097 L82.7975359,78.3908008 L82.7975359,78.3908008 Z" id="Shape"></path>
                                        <rect id="Rectangle" x="80.8262834" y="96.5913758" width="3.94250513" height="3.94250513"></rect>
                                        <rect id="Rectangle" x="96.5963039" y="96.5913758" width="3.94250513" height="3.94250513"></rect>
                                        <path d="M90.6825462,106.447639 C88.8847639,106.447639 87.278193,105.377248 86.5882546,103.717454 L82.9473511,105.235318 C84.2523203,108.367639 87.2880493,110.390144 90.6825462,110.390144 C94.0770431,110.390144 97.1127721,108.367639 98.41577,105.235318 L94.7748665,103.717454 C94.0868994,105.377248 92.4803285,106.447639 90.6825462,106.447639 Z" id="Path"></path>
                                        <path d="M51.2555236,84.6554415 C51.1825873,83.3228747 50.3034086,71.5663244 41.9669815,69.0766324 C35.195729,67.0482136 28.9074333,72.8180698 28.1820123,73.513922 L27.6123203,74.0816427 L27.0189733,73.4823819 C26.3250924,72.8180698 20.0427105,67.0482136 13.2655441,69.0766324 C4.92911704,71.5682957 4.0499384,83.324846 3.97700205,84.6554415 C3.36985626,95.789076 10.4013142,106.071129 22.786694,112.156386 L26.7213142,114.123696 C26.9972895,114.263655 27.3008624,114.332649 27.6024641,114.332649 C27.9040657,114.332649 28.2076386,114.263655 28.483614,114.125667 L32.4142916,112.160329 C44.8174127,106.067187 51.8606982,95.7851335 51.2555236,84.6554415 Z M7.91162218,84.8722793 C7.93527721,84.4543737 8.53848049,74.6040246 14.3931006,72.8535524 C15.0081314,72.6702259 15.6271047,72.5894045 16.2401643,72.5894045 C20.3265708,72.5894045 24.1074333,76.1534292 24.253306,76.2914168 L26.1989322,78.2626694 C26.5675565,78.6372074 27.0702259,78.8481314 27.5945791,78.8501027 C27.5965503,78.8501027 27.5985216,78.8501027 27.6004928,78.8501027 C28.1228747,78.8501027 28.6255441,78.6431211 28.9941684,78.2725257 L30.9338809,76.3328131 C31.1428337,76.1317454 36.1103901,71.446078 40.8354825,72.8535524 C46.6881314,74.6040246 47.293306,84.4543737 47.316961,84.8722793 C47.3504723,85.4971663 47.3524435,86.1181109 47.3287885,86.7351129 L33.5162218,86.7351129 C32.769117,86.7351129 32.0870637,87.156961 31.7519507,87.8252156 L29.5737166,92.183655 L23.4529774,79.9402053 C22.7847228,78.6036961 20.5946612,78.6036961 19.9264066,79.9402053 L16.5279671,86.7351129 L7.89979466,86.7351129 C7.87613963,86.1161396 7.87811088,85.4951951 7.91162218,84.8722793 Z M30.6638193,108.625873 L27.6024641,110.157536 L24.5411088,108.627844 C24.5371663,108.625873 24.5332238,108.623901 24.5292813,108.62193 C15.87154,104.367967 10.1903901,97.9062012 8.45568789,90.6776181 L17.7462012,90.6776181 C18.493306,90.6776181 19.1753593,90.25577 19.5104723,89.5875154 L21.6887064,85.229076 L27.8094456,97.4725257 C28.1445585,98.1407803 28.8266119,98.5626283 29.5737166,98.5626283 C30.3208214,98.5626283 31.0028747,98.1407803 31.3379877,97.4725257 L34.7344559,90.6776181 L46.770924,90.6776181 C45.0322793,97.9022587 39.3412731,104.364025 30.6638193,108.625873 Z" id="Shape"></path>
                                    </g>
                                </g>
                            </g>
                        </g>
                    </g>
                </g>
            </g>
        </g>
    </g>
</svg>