<?xml version="1.0" encoding="UTF-8"?>
<svg width="127px" height="131px" viewBox="0 0 127 131" version="1.1" xmlns="http://www.w3.org/2000/svg" xmlns:xlink="http://www.w3.org/1999/xlink">
    <!-- Generator: Sketch 61.2 (89653) - https://sketch.com -->
    <title>004-thermometer</title>
    <desc>Created with Sketch.</desc>
    <defs>
        <linearGradient x1="100%" y1="26.6877657%" x2="8.96724057%" y2="80.0028369%" id="linearGradient-1">
            <stop stop-color="#66C0B7" stop-opacity="0" offset="0%"></stop>
            <stop stop-color="#66C0B7" stop-opacity="0.166165865" offset="100%"></stop>
        </linearGradient>
    </defs>
    <g id="Page-1" stroke="none" stroke-width="1" fill="none" fill-rule="evenodd">
        <g id="Learning-HD" transform="translate(-826.000000, -2037.000000)">
            <g id="Group-3" transform="translate(140.000000, 1921.000000)">
                <g id="Group-47" transform="translate(0.000000, 106.000000)">
                    <g id="Group-44" transform="translate(686.000000, 10.000000)">
                        <g id="Group-12">
                            <g id="004-thermometer">
                                <circle id="Oval" fill="url(#linearGradient-1)" cx="63.5" cy="67.5" r="63.5"></circle>
                                <g id="003-life-insurance" transform="translate(5.000000, 0.000000)" fill-rule="nonzero">
                                    <path d="M66.4078409,75.454228 C67.8093386,76.6846968 68.7369774,78.3660907 69.0304592,80.2078609 L71.0100422,79.1653975 L82.9204602,72.739434 L84.3513783,71.9669138 C87.4086089,70.318159 91.2218104,71.3615483 93.0137,74.3371463 L64.9418083,93.6128421 C61.1571604,95.4853869 56.870349,96.0902036 52.7153593,95.3378446 L36.4880458,92.3509128 C34.9953446,91.9750643 33.4154009,92.1847288 32.0723905,92.9368869 L23.2849732,98.4915705 L17.1465102,78.3533735 L17.1969873,78.3380108 C19.0905477,77.987156 20.852055,77.1249965 22.2907924,75.8448775 L24.9792505,73.4505038 C30.357166,69.4030283 37.5465166,68.7016283 43.605327,71.6333256 L44.7180195,72.1710172 C46.4609918,73.0134889 48.3719171,73.4508934 50.3078176,73.4505038 L61.1055432,73.4505038 C63.0582596,73.4490594 64.9441071,74.1617162 66.4078409,75.454228 L66.4078409,75.454228 Z" id="Path" fill="#FFDDCF"></path>
                                    <path d="M85.8525255,32.3862268 C88.6651217,32.9480366 90.6899461,35.4173146 90.6899461,38.285472 C90.6899461,41.1536295 88.6651217,43.6229074 85.8525255,44.1847172 C83.1502787,54.8661841 73.5387095,62.3478913 62.5207301,62.3463368 C51.5027506,62.3447818 41.8932933,54.8603623 39.1940611,44.1781332 C36.389909,43.6103343 34.3740917,41.1454348 34.3740917,38.2843747 C34.3740917,35.4233146 36.389909,32.9584151 39.1940611,32.3906162 C41.8970994,21.7116473 51.5058332,14.2312992 62.5215851,14.2302629 C73.5373371,14.2292266 83.1474781,21.7077667 85.8525255,32.3862268 L85.8525255,32.3862268 Z M76.1433514,39.9007415 C76.1439571,38.6007891 75.0906286,37.5464782 73.7906762,37.545872 C72.4907238,37.5452662 71.4364128,38.5985946 71.4358065,39.898547 C71.4352006,41.1984995 72.4885289,42.2528105 73.7884814,42.2534172 C74.4127763,42.2538243 75.0116508,42.0061548 75.4532999,41.5649174 C75.8949489,41.1236799 76.1431767,40.5250366 76.1433514,39.9007415 L76.1433514,39.9007415 Z M53.6283377,39.1260267 C53.6283377,37.8266801 52.5750092,36.7733515 51.2756626,36.7733515 C49.9763159,36.7733515 48.9229874,37.8266801 48.9229874,39.1260267 C48.9229874,40.4253733 49.9763159,41.4787018 51.2756626,41.4787018 C52.5748586,41.4783384 53.6279743,40.4252227 53.6283377,39.1260267 L53.6283377,39.1260267 Z" id="Shape" fill="#FBD24C"></path>
                                    <path d="M82.9116816,72.7240714 L82.9204602,72.739434 L71.0100422,79.1653975 L69.0304592,80.2078609 C68.7369774,78.3660907 67.8093386,76.6846968 66.4078409,75.454228 L74.0650085,71.3282679 L76.0116716,70.2792206 C78.4192132,69.0589898 81.5773285,70.3779802 82.9116816,72.7240714 L82.9116816,72.7240714 Z" id="Path" fill="#FFDDCF"></path>
                                    <path d="M76.6986001,7.9552755 C80.9485672,12.1989532 82.9163019,18.217139 81.9943138,24.1518638 C76.5073434,16.5957501 67.1442438,12.8963411 57.9744014,14.6614723 C48.804559,16.4266035 41.4838746,23.3375254 39.1940611,32.3906162 C36.389909,32.9584151 34.3740917,35.4233146 34.3740917,38.2843747 C34.3740917,41.1454348 36.389909,43.6103343 39.1940611,44.1781332 C40.8950647,50.8960361 45.4067403,56.5560218 51.5763309,59.7119343 L45.6222193,65.666046 L14.5458385,34.5918598 C9.07727059,29.1193431 7.51131243,20.8593764 10.5974037,13.7650326 C13.6834949,6.67068872 20.7939038,2.18500488 28.5257155,2.45474939 C36.2575271,2.72449391 43.0380391,7.69479894 45.6222193,14.9869651 C47.7823445,8.89308115 52.9162738,4.33243467 59.2222722,2.90556892 C65.5282706,1.47870317 72.1254679,3.38493374 76.6986001,7.9552755 L76.6986001,7.9552755 Z" id="Path" fill="#66C0B7"></path>
                                    <path d="M73.7884814,37.5480664 C75.087828,37.5480664 76.1411565,38.6013949 76.1411565,39.9007415 C76.1411565,41.2000881 75.087828,42.2534167 73.7884814,42.2534167 C72.4891348,42.2534167 71.4358062,41.2000881 71.4358062,39.9007415 C71.4361696,38.6015455 72.4892853,37.5484298 73.7884814,37.5480664 L73.7884814,37.5480664 Z" id="Path" fill="#FFFFFF"></path>
                                    <path d="M73.9706381,71.1526951 L74.0650085,71.3282679 L66.4078409,75.454228 C64.9441071,74.1617162 63.0582596,73.4490594 61.1055432,73.4505038 L58.7089748,73.4505038 L65.0778772,69.9895255 C67.9631237,68.3167797 71.612684,68.7941407 73.9706381,71.1526951 L73.9706381,71.1526951 Z" id="Path" fill="#FFDDCF"></path>
                                    <path d="M51.2756626,36.7711566 C52.575615,36.770551 53.6299259,37.8238794 53.6305321,39.1238318 C53.6311379,40.4237843 52.5778095,41.4780952 51.277857,41.4787016 C49.9779046,41.4793074 48.9235936,40.4259791 48.9229869,39.1260267 C48.9225798,38.5017317 49.1702493,37.9028572 49.6114867,37.4612082 C50.0527242,37.0195591 50.6513675,36.7713314 51.2756626,36.7711566 L51.2756626,36.7711566 Z" id="Path" fill="#FFFFFF"></path>
                                    <polygon id="Path" fill="#66C0B7" points="23.2849732 98.4915705 26.1160842 107.781565 6.61433844 107.781565 2.28208027 72.2456356 15.2832441 72.2456356 17.1465102 78.3533735"></polygon>
                                    <g id="Group" fill="#1B3C3E">
                                        <path d="M45.2641678,10.6568846 L45.4550997,10.9764035 L45.6220492,11.2677869 L45.7946368,10.9688686 C48.7873087,5.87301607 53.8464819,2.32473685 59.6566249,1.24633325 L60.0365985,1.17951377 L60.4106412,1.12092716 C66.7856291,0.182795124 73.2289903,2.31259621 77.7895378,6.86570657 C82.1436251,11.2392432 84.2869005,17.3382246 83.6381345,23.4613897 L83.6027049,23.7663115 L83.869974,24.1586746 C85.1123177,26.0256525 86.1011107,28.0484845 86.8110592,30.1739564 L86.9827225,30.7074319 L87.1082787,31.1309016 L87.2273901,31.1715435 C90.0628297,32.1894429 92.0163547,34.7934785 92.214405,37.7834547 L92.2270613,38.0406555 L92.2310093,38.285911 C92.2310093,41.4836608 90.220591,44.325744 87.2273901,45.4002784 L87.1091803,45.439918 L87.0250333,45.7253713 C84.9737251,52.4728106 80.2317705,58.0704105 73.9284106,61.2055402 L73.5483444,61.3906825 L73.1719994,61.5664631 C66.5022425,64.6162077 58.8522337,64.6574597 52.1587413,61.6953061 L51.8938525,61.5747541 L46.7128157,66.7566154 C46.4958953,66.9735725 46.2209933,67.119228 45.9245261,67.178496 L45.774664,67.2008611 L45.6222193,67.2084093 C45.2642886,67.2084093 44.9191883,67.0839816 44.6447591,66.8590951 L44.531642,66.7566345 L13.4552331,35.6824202 C7.80264962,30.0282422 5.97829625,21.5911512 8.78992408,14.1067556 C11.6015519,6.62235991 18.5297511,1.47329932 26.5069908,0.939372998 C34.1102973,0.430474471 41.3278357,4.20378727 45.2641678,10.6568846 Z M51.1524215,9.04669303 C49.3255624,10.8644931 47.9322929,13.0709782 47.0762246,15.5022216 C46.8581887,16.1180836 46.2757577,16.5297381 45.6224387,16.5297381 C44.9691198,16.5297381 44.3866888,16.1180836 44.1685183,15.5018404 C43.312808,13.0709577 41.9196788,10.8644602 40.0924954,9.04629452 C33.3393771,2.29293693 22.3902151,2.29274295 15.6368575,9.04586124 C8.96295116,15.7195311 8.88424517,26.491095 15.4008741,33.261408 L15.636415,33.50149 L45.6220492,63.4853279 L49.0518852,60.0563934 L48.9296635,59.9812291 C43.6942359,56.7039615 39.8206315,51.6426072 38.02493,45.7328153 L37.9355738,45.4318033 L37.8185405,45.392108 C34.9109744,44.3411375 32.9356484,41.6208001 32.8362612,38.5307189 L32.8323294,38.2860207 C32.8323294,35.095573 34.8344595,32.258561 37.8185405,31.1799334 L37.9355738,31.1390164 L38.0189979,30.8589802 C40.5966858,22.3545376 47.4037444,15.7935502 55.9972906,13.5305918 L56.3951755,13.429208 C65.034925,11.3010708 74.1380553,13.8148181 80.4568016,20.022566 L80.6336066,20.1994262 L80.6287924,20.0990954 C80.1893157,13.5934155 76.1178142,7.87268624 70.090316,5.33503826 L69.7712822,5.20442993 C63.3548467,2.65156383 56.0346849,4.16204637 51.1524215,9.04669303 Z M58.2667524,16.1759246 C49.6846065,17.8275226 42.83287,24.2951516 40.6895001,32.7676158 C40.5443532,33.3440203 40.0808697,33.7857047 39.4984675,33.9028714 C37.4138868,34.3253984 35.9155108,36.1579524 35.9155108,38.2849234 C35.9155108,40.4118943 37.4138868,42.2444483 39.4981463,42.6669105 C40.0808697,42.784142 40.5443532,43.2258264 40.6894672,43.8021001 C42.2771575,50.0912068 46.5010186,55.3895456 52.2787806,58.3390915 C55.4468509,59.9683316 58.9600035,60.8127284 62.5236288,60.8013605 C72.8381185,60.8165965 81.8396225,53.8105448 84.3568729,43.8079136 C84.491286,43.2743768 84.8983974,42.8564319 85.4197354,42.7043228 L85.5523579,42.6719208 C87.6428188,42.253201 89.1473273,40.4174554 89.1473273,38.285472 C89.1473273,36.1534887 87.6428188,34.317743 85.5528634,33.8991239 C84.9682221,33.7834099 84.5025831,33.3411879 84.3568522,32.7631676 C83.6997622,30.1507736 82.5754666,27.6803022 81.0396615,25.4706106 L80.7466268,25.0590177 C75.6116812,17.9870068 66.8488983,14.5243266 58.2667524,16.1759246 Z M69.3377116,46.0018954 C70.0649578,46.0018954 70.6545074,46.5914449 70.6545074,47.3186912 C70.6545074,51.8039824 67.0184605,55.4400293 62.5331693,55.4400293 C58.0478781,55.4400293 54.4118312,51.8039824 54.4118312,47.3186912 C54.4118312,46.5914449 55.0013808,46.0018954 55.728627,46.0018954 C56.4558732,46.0018954 57.0454228,46.5914449 57.0454228,47.3186912 C57.0454228,50.3494899 59.5023706,52.8064377 62.5331693,52.8064377 C65.563968,52.8064377 68.0209158,50.3494899 68.0209158,47.3186912 C68.0209158,46.5914449 68.6104653,46.0018954 69.3377116,46.0018954 Z M73.7884814,36.2312706 C75.8149786,36.2323588 77.457847,37.8742453 77.460147,39.9007415 C77.460147,41.9270486 75.8177142,43.569808 73.7914071,43.5702118 C71.7651001,43.5706155 70.1220132,41.9285107 70.1212051,39.9022038 C70.1203975,37.8758968 71.7621746,36.2324825 73.7884814,36.2312706 Z M51.2756626,35.4543609 C53.3019082,35.4572647 54.9434414,37.0997797 54.9451335,39.1260267 C54.9445274,41.1532254 53.3006668,42.7961034 51.273468,42.7954975 C49.2462693,42.7948912 47.6033913,41.1510307 47.6039971,39.1238319 C47.6046033,37.0966331 49.2484638,35.4537551 51.2756626,35.4543609 Z M73.791406,38.8648645 C73.2195918,38.8644618 72.7556049,39.3274677 72.7547966,39.8992815 C72.7539905,40.4710954 73.2166682,40.9354094 73.7884814,40.9366215 C74.0635047,40.9369121 74.3273795,40.8279386 74.5220562,40.6336735 C74.7167329,40.4394085 74.8262645,40.1757649 74.8265554,39.9007415 C74.8265554,39.3289271 74.3632203,38.8652677 73.791406,38.8648645 Z M51.6719062,38.1670984 C51.2843151,38.0063127 50.838027,38.0949623 50.5413126,38.3916767 C50.2445981,38.6883911 50.1559486,39.1346792 50.3167343,39.5222703 C50.4775199,39.9098614 50.8560452,40.1623498 51.2756626,40.1619066 C51.8475122,40.1613012 52.3109371,39.6978763 52.3115425,39.1260267 C52.3119857,38.7064094 52.0594973,38.327884 51.6719062,38.1670984 Z M56.9021115,19.3648721 C57.4174202,18.8576464 58.2453296,18.860821 58.7567334,19.3719837 C59.2681371,19.8831464 59.271702,20.7110542 58.7647192,21.2266019 L58.7647192,21.2266019 L54.1625179,25.8312174 C53.9157539,26.0786379 53.5805455,26.2174919 53.2311043,26.2170396 L53.2305617,26.2166729 L53.1000322,26.2104777 C52.6647008,26.1668939 52.2787075,25.9090895 52.0716986,25.5236543 L52.0150951,25.4042814 C51.8111964,24.9121669 51.9238728,24.3456806 52.3005686,23.9690486 L52.3005686,23.9690486 Z M63.5431517,19.3644332 C64.057436,18.8501489 64.8912555,18.850149 65.4055398,19.3644332 C65.9198241,19.8787175 65.9198241,20.7125371 65.4055399,21.2268214 L65.4055399,21.2268214 L60.8011439,25.8312174 C60.5541904,26.0782127 60.2192244,26.2169768 59.8699498,26.2169768 C59.5206752,26.2169768 59.1857092,26.0782127 58.9387557,25.8312174 C58.6916932,25.5842549 58.5528865,25.2492419 58.5528865,24.8999135 C58.5528865,24.5505852 58.6916932,24.2155721 58.9387557,23.9686097 L58.9387557,23.9686097 Z" id="Combined-Shape"></path>
                                        <path d="M74.2439555,69.3407265 L74.3464754,69.4235246 L75.314295,68.9038292 C77.8768442,67.6040584 81.2469596,68.3940449 83.3291039,70.6905607 L83.3727869,70.7408197 L83.6186331,70.6098829 C87.2545468,68.6426036 91.7599839,69.7611513 94.0687957,73.1266488 L94.2046639,73.3312682 L94.3351131,73.5412401 C94.7310189,74.1991703 94.5801745,75.040181 94.0003219,75.5218229 L93.8866009,75.607787 L65.8146713,94.8835088 C65.7542684,94.9249666 65.6909676,94.9620354 65.625114,94.9944999 C61.6771889,96.9372767 57.2288909,97.6110509 52.8883596,96.9297052 L52.4397485,96.8543837 L36.1476467,93.8558615 L36.1115078,93.8473439 C35.0850369,93.5867843 34.0019064,93.7002775 33.0639667,94.1575143 L32.8652755,94.2607439 L25.102541,99.1668033 L27.5912198,107.332012 C27.7051751,107.705961 27.6719562,108.105415 27.5052052,108.451295 L27.4364409,108.578335 L27.3553179,108.699425 C27.0935583,109.052862 26.6949911,109.275832 26.2616713,109.316892 L26.1160842,109.32377 L6.61433844,109.32377 C5.88093671,109.32377 5.25596473,108.808974 5.10592359,108.103487 L5.08344595,107.969053 L0.751191921,72.4331579 C0.697686605,71.994827 0.834645082,71.5545875 1.12737054,71.223969 C1.38757094,70.9300858 1.74865601,70.7478797 2.13581819,70.7110284 L2.28208027,70.7040884 L15.2832372,70.7040884 C15.9164067,70.7040689 16.4801916,71.0902265 16.7135255,71.6693071 L16.7583725,71.7962783 L18.1869672,76.4833607 L18.301639,76.4458329 C19.1739727,76.1357247 19.9925769,75.6930667 20.7287405,75.1341241 L21.0008814,74.9191016 L21.264957,74.6933679 L23.9962395,72.2609448 L24.051444,72.217726 C29.7824259,67.8832067 37.4277213,67.071083 43.9296587,70.079343 L44.2768656,70.2441562 L45.3888803,70.7815131 C46.8138523,71.468033 48.3652359,71.8488566 49.9432366,71.9011859 L50.3078176,71.9074203 L58.3180328,71.9066393 L64.3212885,68.6454865 C67.4700489,66.8328943 71.394113,67.1177977 74.2439555,69.3407265 Z M14.1404098,73.787459 L4.02311475,73.787459 L7.9795082,106.239262 L24.0340984,106.239262 L14.1404098,73.787459 Z M26.535551,74.2285499 L26.2478802,74.4304564 L25.9637913,74.6391343 L23.3165083,76.9967129 C22.130326,78.0520186 20.748777,78.8623175 19.2515097,79.3826023 L19.0868033,79.4362295 L24.1702459,96.1084426 L31.3180256,91.5910494 C32.9022408,90.7005431 34.7516606,90.4140488 36.5140451,90.7753899 L36.8069095,90.8416194 L52.993383,93.8206673 C56.6555761,94.47563 60.4270871,93.9944052 63.7770146,92.462134 L64.1474669,92.2875607 L90.7671311,74.0065574 L90.6323799,73.8873908 C89.1439657,72.6357345 87.048263,72.3665653 85.2849481,73.2191685 L85.0830172,73.322532 L71.7401281,80.5220777 L70.6632787,81.0889344 L70.6715305,81.3092663 L70.6733997,81.4768131 C70.6733997,82.2837215 70.053699,82.9458911 69.2642615,83.0133579 L69.1311941,83.0190187 L69.0615224,83.018788 L59.8528548,82.6018082 C57.1753786,82.4820497 54.4925589,82.6062949 51.8345653,82.9734053 C50.9974773,83.0774198 50.2321331,82.489604 50.1166999,81.6540141 C50.0012667,80.8184242 50.578579,80.0451262 51.4155586,79.9178542 C53.9981211,79.5610604 56.6053512,79.4188228 59.2105915,79.4923825 L59.9920772,79.5209255 L67.3822131,79.8554918 L67.3404967,79.6976799 C66.5711963,77.0050298 64.1485721,75.0972962 61.3331226,74.9968713 L61.1040069,74.9927094 L50.3075671,74.9927093 C48.284188,74.9904599 46.2854413,74.5636716 44.4397902,73.7416959 L44.0466836,73.5595201 L42.9336144,73.0215392 C37.6272713,70.4375526 31.3592694,70.9199349 26.535551,74.2285499 Z M77.0772687,71.5014797 L76.8950439,71.5689781 L76.7273857,71.6454395 L68.8618033,75.8819672 L68.920679,75.9619639 C69.3376386,76.5525649 69.6864615,77.1884407 69.9604879,77.8574507 L69.9978689,77.9548361 L70.2893834,77.8016555 L80.5064754,72.2880328 L80.4364923,72.2334118 C79.4031165,71.4565342 78.124087,71.1570573 77.0772687,71.5014797 Z M66.0822364,71.1965984 L65.8142721,71.3443873 L63.9631967,72.3502459 L64.1182017,72.3980779 C64.916366,72.6627382 65.6766012,73.0318485 66.378939,73.4961716 L66.5590164,73.6197541 L71.2412295,71.0969672 L71.17782,71.0669586 C69.5523026,70.3252445 67.6695027,70.3703983 66.0822364,71.1965984 Z" id="Shape"></path>
                                    </g>
                                </g>
                            </g>
                        </g>
                    </g>
                </g>
            </g>
        </g>
    </g>
</svg>