<?xml version="1.0" encoding="UTF-8"?>
<svg width="38px" height="38px" viewBox="0 0 38 38" version="1.1" xmlns="http://www.w3.org/2000/svg" xmlns:xlink="http://www.w3.org/1999/xlink">
    <!-- Generator: Sketch 61.2 (89653) - https://sketch.com -->
    <title>close</title>
    <desc>Created with Sketch.</desc>
    <g id="Page-1" stroke="none" stroke-width="1" fill="none" fill-rule="evenodd">
        <g id="Admission-Remit-Fee-HD" transform="translate(-1483.000000, -234.000000)" fill="#1B3C3E" fill-rule="nonzero">
            <path d="M1502,234 C1512.49341,234 1521,242.50659 1521,253 C1521,263.49341 1512.49341,272 1502,272 C1491.50659,272 1483,263.49341 1483,253 C1483,242.50659 1491.50659,234 1502,234 Z M1502,237 C1493.16344,237 1486,244.163444 1486,253 C1486,261.836556 1493.16344,269 1502,269 C1510.83656,269 1518,261.836556 1518,253 C1518,244.163444 1510.83656,237 1502,237 Z M1507.71334,245.392617 C1508.21876,244.887188 1509.02576,244.86976 1509.55193,245.340279 L1509.55193,245.340279 L1509.6072,245.392559 C1510.13092,245.916047 1510.13092,246.763126 1509.60726,247.286553 L1509.60726,247.286553 L1503.89391,253 L1509.6072,258.71362 C1510.11286,259.219057 1510.1303,260.026152 1509.65956,260.552342 L1509.65956,260.552342 L1509.60726,260.607618 C1509.353,260.861877 1509.01278,261 1508.6603,261 C1508.30781,261 1507.96759,260.861876 1507.71334,260.607618 L1507.71334,260.607618 L1501.99965,254.893916 L1496.28666,260.607618 C1496.05197,260.842318 1495.74402,260.978063 1495.42079,260.997558 L1495.42079,260.997558 L1495.3397,261 C1494.98713,261 1494.6467,260.861818 1494.3928,260.607675 C1493.86908,260.084187 1493.86908,259.237108 1494.39274,258.713681 L1494.39274,258.713681 L1500.10574,253 L1494.3928,247.286614 C1493.88714,246.781177 1493.8697,245.974082 1494.34049,245.447841 L1494.34049,245.447841 L1494.39274,245.392617 C1494.9162,244.869147 1495.76296,244.869147 1496.28667,245.39262 L1496.28667,245.39262 L1501.99965,251.106091 Z" id="close"></path>
        </g>
    </g>
</svg>