<?xml version="1.0" encoding="UTF-8"?>
<svg width="112px" height="123px" viewBox="0 0 112 123" version="1.1" xmlns="http://www.w3.org/2000/svg" xmlns:xlink="http://www.w3.org/1999/xlink">
    <!-- Generator: Sketch 61.2 (89653) - https://sketch.com -->
    <title>Group 56</title>
    <desc>Created with Sketch.</desc>
    <defs>
        <linearGradient x1="50%" y1="100%" x2="50%" y2="34.0281792%" id="linearGradient-1">
            <stop stop-color="#FFFFFF" stop-opacity="0" offset="0%"></stop>
            <stop stop-color="#F8F8F8" offset="100%"></stop>
        </linearGradient>
    </defs>
    <g id="Page-1" stroke="none" stroke-width="1" fill="none" fill-rule="evenodd">
        <g id="Desktop-HD" transform="translate(-917.000000, -3183.000000)">
            <g id="Group-27" transform="translate(0.000000, 1899.000000)">
                <g id="Group-24" transform="translate(140.000000, 160.000000)">
                    <g id="Group-23" transform="translate(736.000000, 81.000000)">
                        <g id="Group-21" transform="translate(0.000000, 1010.000000)">
                            <g id="Group-15-Copy-4" transform="translate(41.344130, 33.255061)">
                                <g id="Group-56">
                                    <rect id="Rectangle" fill="url(#linearGradient-1)" x="-3.69482223e-13" y="-2.84217094e-14" width="110.550607" height="110.550607" rx="55.2753036"></rect>
                                    <g id="008-presentation" transform="translate(17.975709, 35.951417)" fill-rule="nonzero">
                                        <path d="M44.830962,1.25726545 C39.0560091,1.25726545 34.3741608,5.93911387 34.3741608,11.7140668 L34.3741608,15.969878 C35.0731483,15.3217022 36.1988244,14.9699284 37.1694593,15.0995636 L37.1694593,14.5784173 C37.1694593,14.164106 37.5231874,13.8370866 37.9335903,13.867704 C41.9763829,14.1582431 45.9592438,12.8736172 49.069836,10.8417981 C49.360375,10.6515797 49.7447204,10.6991342 49.9805392,10.9525416 C52.6403398,13.8110292 52.4924645,13.7009371 52.4924645,14.0742081 L52.4924645,15.0969579 C53.556906,14.9380083 54.6317702,15.2663305 55.2877632,15.8760717 L55.2877632,11.7140668 C55.2877632,5.93911387 50.6065662,1.25726545 44.830962,1.25726545 L44.830962,1.25726545 Z" id="Path" fill="#576574"></path>
                                        <path d="M39.2390618,11.7140668 C39.2390618,6.77685668 42.6616903,2.64156052 47.2634124,1.54454749 C46.4823443,1.35888915 45.6687047,1.25726545 44.830962,1.25726545 C39.0560091,1.25726545 34.3748122,5.93911387 34.3748122,11.7140668 L34.3748122,15.969878 C35.0731483,15.3217022 36.1994758,14.9699284 37.1701109,15.0995636 L37.1701109,14.5784173 C37.1701109,14.164106 37.5238388,13.8370866 37.9335903,13.867704 C38.3700502,13.8996241 38.8058588,13.91135 39.2390618,13.9067899 L39.2390618,11.7140668 Z" id="Path" fill="#3E4B5A"></path>
                                        <path d="M52.6032082,14.6852523 L52.6032082,20.4471764 C52.6032082,20.5090626 52.5999509,20.5709486 52.5986481,20.6328348 C54.6376331,20.941614 56.2342952,19.4687243 56.2342952,17.6596949 C56.2342952,15.8467572 54.6363303,14.3803817 52.6032082,14.6852523 Z" id="Path" fill="#FFBEAB"></path>
                                        <path d="M37.1095277,20.485611 L37.1095277,14.6461663 C35.3096185,14.4057875 33.4282802,15.7868252 33.4282802,17.6590435 C33.4282802,19.4915243 35.0438338,20.9878657 37.1140876,20.6738751 C37.1127848,20.6113375 37.1095277,20.5481486 37.1095277,20.485611 Z" id="Path" fill="#FFBEAB"></path>
                                        <path d="M55.2923233,15.4780461 C54.6324216,14.8585334 53.6793752,14.5243483 52.6032082,14.6852523 L52.6032082,20.4471764 C52.6032082,20.5090626 52.6006023,20.5709486 52.5986481,20.6328348 C53.677421,20.7963445 54.6324216,20.4608565 55.2923233,19.8406923 L55.2923233,15.4780461 Z" id="Path" fill="#F7AF9F"></path>
                                        <path d="M37.1095277,19.9045328 C36.4913177,19.3423462 36.1173953,18.5397808 36.1173953,17.6590435 C36.1173953,16.8037122 36.5108608,16.0513071 37.1095277,15.5086635 L37.1095277,14.6461663 C35.3096185,14.4057875 33.4282802,15.7868252 33.4282802,17.6590435 C33.4282802,19.4915243 35.0438338,20.9878657 37.1140876,20.6738751 C37.1127848,20.6113375 37.1095277,20.5481486 37.1095277,20.4849596 L37.1095277,19.9045328 Z" id="Path" fill="#F7AF9F"></path>
                                        <path d="M44.9423571,27.8494087 C43.2531914,27.8494087 41.7685759,27.3855885 40.5543049,26.6097318 L40.5543049,30.6857475 L44.9234654,36.0789607 L49.2932774,30.6857475 L49.2932774,26.4944282 C48.0555549,27.3478053 46.5566078,27.8494087 44.9423571,27.8494087 Z" id="Path" fill="#FFBEAB"></path>
                                        <path d="M45.4192058,27.8331229 C45.2615591,27.8428943 45.1026095,27.8494087 44.9423571,27.8494087 C43.2531914,27.8494087 41.7685759,27.3855885 40.5543049,26.6097318 L40.5543049,30.6857475 L44.9234654,36.0789607 L45.4192058,35.4672652 L45.4192058,27.8331229 Z" id="Path" fill="#F7AF9F"></path>
                                        <path d="M60.8523031,34.8992157 L49.2932774,30.4225686 L44.9241168,35.8157818 L40.5543049,30.4225686 L29.0076563,34.8992157 C29.0076563,34.8992157 24.7323022,36.6567818 24.7323022,41.5301514 L24.7323022,51.6495104 L65.127006,51.6495104 C65.127006,47.7910732 65.127006,43.7821549 65.127006,41.5301514 C65.127006,36.6567818 60.8523031,34.8992157 60.8523031,34.8992157 Z" id="Path" fill="#FFDF46"></path>
                                        <g id="Group" transform="translate(24.681490, 30.351562)" fill="#F9B200">
                                            <path d="M0.050811851,11.1785889 L0.050811851,21.2979479 L4.91571271,21.2979479 C4.91571271,16.6030708 4.91571271,11.4977909 4.91571271,9.07055195 C4.91571271,5.86289626 6.76708515,4.00566097 8.03347074,3.10994083 L4.32616596,4.54765316 C4.32616596,4.54765316 0.050811851,6.30521925 0.050811851,11.1785889 Z" id="Path"></path>
                                            <path d="M25.5179303,8.23541486 L28.7855178,1.68721134 L24.611787,0.0710061463 L20.2426264,5.46421931 L24.5023463,8.48947378 C24.8469544,8.73506395 25.3290146,8.61389751 25.5179303,8.23541486 L25.5179303,8.23541486 Z" id="Path"></path>
                                            <path d="M14.9725342,8.23541486 L11.7055981,1.68721134 L15.8786774,0.0710061463 L20.2478379,5.46421931 L15.9881181,8.48947378 C15.6435102,8.73506395 15.1614496,8.61389751 14.9725342,8.23541486 Z" id="Path"></path>
                                        </g>
                                        <polygon id="Path" fill="#EE5253" points="44.9293282 35.8196903 44.9293282 35.8157818 44.9267227 35.8177362 44.9241168 35.8157818 44.9241168 35.8196903 41.825902 38.0202308 43.2903232 40.2246798 46.5631222 40.2246798 48.0275434 38.0202308"></polygon>
                                        <polygon id="Path" fill="#FF6B6B" points="43.2903232 40.2246798 41.3568703 51.6495104 48.4972265 51.6495104 46.5631222 40.2246798"></polygon>
                                        <path d="M46.1409936,37.7192689 L46.8725527,37.2000767 L44.9293282,35.8196903 L44.9293282,35.8157818 L44.9267227,35.8177362 L44.9241168,35.8157818 L44.9241168,35.8196903 L41.8252504,38.0202308 L43.2903232,40.2246798 L46.5631222,40.2246798 L46.8725527,39.7589052 L46.004844,38.4534337 C45.8445916,38.211752 45.9051748,37.8866871 46.1409936,37.7192689 L46.1409936,37.7192689 Z" id="Path" fill="#D83941"></path>
                                        <polygon id="Path" fill="#EE5253" points="44.9293282 40.2246798 43.2903232 40.2246798 41.3568703 51.6495104 45.2478791 51.6495104 46.8725527 42.0526005 46.5631222 40.2246798"></polygon>
                                        <path d="M49.9811906,10.5577733 C49.7447204,10.3043658 49.360375,10.2568112 49.069836,10.4470297 C45.9592438,12.478849 41.8447935,13.7634747 37.8020007,13.4735871 C37.3915981,13.4423183 37.03787,13.7693375 37.03787,14.1836489 L37.03787,20.4308906 C37.03787,24.4456718 40.184291,28.1125876 44.9423571,28.1125876 C49.1786252,28.1125876 52.6247075,24.6665074 52.6247075,20.4308906 L52.6247075,13.6794399 C52.6247075,13.3061687 52.6403398,13.4169124 49.9811906,10.5577733 Z" id="Path" fill="#FFCDBF"></path>
                                        <path d="M41.902771,20.4308906 L41.902771,13.25666 C40.5556077,13.4885699 39.1745699,13.5719533 37.8020007,13.4735871 C37.3915981,13.4423183 37.03787,13.7693375 37.03787,14.1836489 L37.03787,20.4308906 C37.03787,24.4456718 40.184291,28.1125876 44.9423571,28.1125876 C45.7631624,28.1125876 46.5533506,27.982301 47.2953326,27.7425737 C43.9730249,26.7152639 41.902771,23.6874037 41.902771,20.4308906 Z" id="Path" fill="#FFBEAB"></path>
                                        <path d="M24.0684921,1.25726545 L5.57756856,1.25726545 C3.2115642,1.25726545 1.27550574,3.19332425 1.27550574,5.5593286 L1.27550574,21.8060654 C1.27550574,24.1720698 3.2115642,26.107477 5.57756856,26.107477 L15.382937,26.107477 C15.5887896,26.107477 15.7868252,26.1895576 15.9320948,26.334827 L22.3506635,32.7533957 C22.5408817,32.9436141 22.8659468,32.8087675 22.8659468,32.5397257 L22.8659468,26.883985 C22.8659468,26.4553423 23.2131605,26.107477 23.6424548,26.107477 L24.0684921,26.107477 C26.4344964,26.107477 28.370555,24.1720698 28.370555,21.8060654 L28.370555,5.5593286 C28.370555,3.19332425 26.4344964,1.25726545 24.0684921,1.25726545 Z" id="Path" fill="#54A0FF"></path>
                                        <path d="M6.27916194,21.8060654 L6.27916194,5.5593286 C6.27916194,3.19332425 8.21456901,1.25726545 10.5812249,1.25726545 L5.57756856,1.25726545 C3.2115642,1.25726545 1.27550574,3.19332425 1.27550574,5.5593286 L1.27550574,21.8060654 C1.27550574,24.1720698 3.2115642,26.1074772 5.57756856,26.1074772 L10.5812249,26.1074772 C8.21456901,26.1081286 6.27916194,24.1720698 6.27916194,21.8060654 Z" id="Path" fill="#338DEF"></path>
                                        <path d="M20.9350996,26.3354786 C20.7898301,26.1895576 20.592446,26.1081286 20.3865932,26.1081286 L15.382937,26.1081286 C15.5887896,26.1081286 15.7868252,26.1895576 15.9320948,26.3354786 L22.3506635,32.7533957 C22.5408817,32.9436141 22.8659468,32.8094189 22.8659468,32.5403771 L22.8659468,28.2656744 L20.9350996,26.3354786 Z" id="Path" fill="#338DEF"></path>
                                        <path d="M20.9188139,55.5411706 L20.9188139,82.4036584 C20.9188139,83.3625676 21.6966247,84.1403784 22.6555339,84.1403784 L67.2037741,84.1403784 C68.1626834,84.1403784 68.9404942,83.363219 68.9404942,82.4036584 L68.9404942,55.5411706 L20.9188139,55.5411706 Z" id="Path" fill="#E29C6D"></path>
                                        <path d="M25.9224701,82.4036584 L25.9224701,55.5411706 L20.9188139,55.5411706 L20.9188139,82.4036584 C20.9188139,83.3625676 21.6966247,84.1403784 22.6555339,84.1403784 L27.6591903,84.1403784 C26.6996295,84.1403784 25.9224701,83.3625676 25.9224701,82.4036584 Z" id="Path" fill="#EDB48A"></path>
                                        <path d="M72.739651,51.1492099 L17.1203085,51.1492099 C16.4135038,51.1492099 15.8408942,51.7224709 15.8408942,52.428624 L15.8408942,55.0962418 C15.8408942,55.8030467 16.4135038,56.3750047 17.1203085,56.3750047 L72.739651,56.3750047 C73.4458043,56.3750047 74.0184138,55.8023951 74.0184138,55.0962418 L74.0184138,52.428624 C74.0184138,51.7218193 73.4458043,51.1492099 72.739651,51.1492099 L72.739651,51.1492099 Z" id="Path" fill="#B45F4A"></path>
                                        <path d="M72.739651,52.8800671 L17.1203085,52.8800671 C16.5587734,52.8800671 16.0825759,52.5178704 15.9105976,52.0149642 C15.8663001,52.1445994 15.8408942,52.2833546 15.8408942,52.428624 L15.8408942,55.0962418 C15.8408942,55.8030467 16.4135038,56.3750047 17.1203085,56.3750047 L72.739651,56.3750047 C73.4458043,56.3750047 74.0184138,55.8030467 74.0184138,55.0962418 L74.0184138,52.428624 C74.0184138,52.2833546 73.9936593,52.1445994 73.9487105,52.0149642 C73.7767322,52.5178704 73.3011862,52.8800671 72.739651,52.8800671 L72.739651,52.8800671 Z" id="Path" fill="#EDB48A"></path>
                                        <path d="M21.4249772,6.73386203 L7.50385582,6.73386203 C6.81268537,6.73386203 6.25245323,7.29409434 6.25245323,7.98461323 C6.25245323,8.67578368 6.81268537,9.23536443 7.50385582,9.23536443 L21.4249772,9.23536443 C22.1161476,9.23536443 22.6763798,8.67578368 22.6763798,7.98461323 C22.6763798,7.29409434 22.1161476,6.73386203 21.4249772,6.73386203 Z" id="Path" fill="#000000"></path>
                                        <path d="M21.4249772,12.4658203 L7.50385582,12.4658203 C6.81268537,12.4658203 6.25245323,13.0254012 6.25245323,13.7165715 C6.25245323,14.4070904 6.81268537,14.9673227 7.50385582,14.9673227 L21.4249772,14.9673227 C22.1161476,14.9673227 22.6763798,14.4070904 22.6763798,13.7165715 C22.6763798,13.0254012 22.1161476,12.4658203 21.4249772,12.4658203 Z" id="Path" fill="#000000"></path>
                                        <path d="M21.4249772,18.1971272 L7.50385582,18.1971272 C6.81268537,18.1971272 6.25245323,18.7573593 6.25245323,19.4478784 C6.25245323,20.1390487 6.81268537,20.6986296 7.50385582,20.6986296 L21.4249772,20.6986296 C22.1161476,20.6986296 22.6763798,20.1390487 22.6763798,19.4478784 C22.6763798,18.7573593 22.1161476,18.1971272 21.4249772,18.1971272 Z" id="Path" fill="#000000"></path>
                                        <path d="M67.1790196,82.883113 L47.7252785,82.883113 C47.034108,82.883113 46.4745273,83.4426939 46.4745273,84.1338642 C46.4745273,84.8250345 47.034108,85.3846154 47.7252785,85.3846154 L67.1790196,85.3846154 C68.8264936,85.3846154 70.166491,84.0446179 70.166491,82.3971441 L70.166491,57.6192415 L72.7148966,57.6192415 C74.1096144,57.6192415 75.2444105,56.4844454 75.2444105,55.0897276 L75.2444105,52.4221098 C75.2444105,51.0267404 74.1096144,49.8919443 72.7148966,49.8919443 L66.3530027,49.8919443 L66.3530027,41.5236371 C66.3530027,35.8770164 61.5089475,33.8204427 61.3030947,33.7357565 C61.2946261,33.7324994 61.2868089,33.7292421 61.2789917,33.725985 L50.5192742,29.5587687 L50.5192742,27.3751655 C52.1954111,26.0221392 53.3738532,24.0763092 53.7334442,21.859483 C55.920956,21.5735039 57.460292,19.7501433 57.460292,17.6525291 C57.460292,16.6721226 57.1208953,15.7334078 56.5137599,14.9862142 L56.5137599,11.7075524 C56.5137599,5.25185227 51.2619078,0 44.806859,0 C38.3511587,0 33.0993065,5.25185227 33.0993065,11.7075524 L33.0993065,15.0722034 C32.4850053,15.8096254 32.1527745,16.7046943 32.1527745,17.6525291 C32.1527745,19.7488403 33.6914591,21.576761 35.8861366,21.8601344 C36.2502876,24.0268003 37.426124,26.1035685 39.2787992,27.5197836 L39.2787992,29.5594201 L28.5308075,33.725985 C28.5229903,33.7292421 28.5151731,33.7324994 28.5073559,33.7357565 C28.3015031,33.8204427 23.4567965,35.8770164 23.4567965,41.5236371 L23.4567965,49.8919443 L17.0955541,49.8919443 C15.7001847,49.8919443 14.5653886,51.0273919 14.5653886,52.4221098 L14.5653886,55.0897276 C14.5653886,56.4844454 15.7001847,57.619893 17.0955541,57.619893 L19.6433081,57.619893 L19.6433081,82.3971441 C19.6433081,84.0446179 20.9833058,85.3846154 22.6307796,85.3846154 L41.887788,85.3846154 C42.5789583,85.3846154 43.1385392,84.8250345 43.1385392,84.1338642 C43.1385392,83.4426939 42.5789583,82.883113 41.887788,82.883113 L22.631431,82.883113 C22.363692,82.883113 22.1454621,82.6648829 22.1454621,82.3971441 L22.1454621,57.619893 L67.6649886,57.619893 L67.6649886,82.3971441 C67.6649886,82.6648829 67.44741,82.883113 67.1790196,82.883113 L67.1790196,82.883113 Z M63.8515002,41.5236371 L63.8515002,49.8919443 L59.0771484,49.8919443 L59.0771484,43.198471 C59.0771484,42.5079521 58.5175675,41.9477198 57.8263972,41.9477198 C57.135227,41.9477198 56.575646,42.5079521 56.575646,43.198471 L56.575646,49.8919443 L49.4444098,49.8919443 L47.8542621,40.4976302 L48.3304596,39.7804025 C49.506296,40.6155396 50.7987389,40.1302221 51.2938279,39.1387411 L54.0526464,33.6100299 L60.3591684,36.052252 C60.5389639,36.130424 63.8515002,37.6228566 63.8515002,41.5236371 Z M40.4559385,37.4345926 L38.0944942,32.7025839 L40.1328278,31.9130472 L43.0903332,35.5636772 C41.4760824,36.7101992 40.7836093,37.2020311 40.4559385,37.4345926 Z M51.7094421,32.7025839 L49.3486492,37.4345926 C49.2203169,37.3440435 48.6874449,36.9649095 46.7096945,35.5610715 L49.6665484,31.9117444 L51.7094421,32.7025839 Z M44.9019681,37.3459977 L46.2901717,38.3316157 L45.8680432,38.9667628 L43.9365446,38.9667628 L43.5144161,38.3316157 L44.9019681,37.3459977 Z M44.3221929,41.4682652 L45.4817434,41.4682652 L46.9070788,49.8919443 L42.8968575,49.8919443 L44.3221929,41.4682652 Z M53.8507021,19.26678 L53.8507021,16.0402328 C54.5288437,16.3066688 54.9587896,16.9444217 54.9587896,17.6525291 C54.9587896,18.3567282 54.5347067,18.999041 53.8507021,19.26678 Z M35.6008089,11.7075524 C35.6008089,6.63093571 39.7302422,2.5015024 44.806859,2.5015024 C49.8828243,2.5015024 54.0122575,6.6315871 54.0122575,11.7075524 L54.0122575,13.4918272 C53.9568857,13.4814043 53.9015139,13.4709813 53.8454906,13.4625126 C53.8226906,13.0696987 53.6963125,12.8312741 53.4539795,12.5159806 C53.1022057,12.0580234 52.5465335,11.4984425 50.8723508,9.69918467 C50.2196151,8.99759146 49.1636424,8.86860782 48.361077,9.39301128 C45.2237761,11.4430707 41.3972591,12.4723346 37.8717041,12.2195788 C36.997481,12.1518297 36.1962186,12.6781875 35.891348,13.4801013 C35.8815765,13.4820557 35.6047175,13.536776 35.6008089,13.538079 L35.6008089,11.7075524 Z M34.6542769,17.6525291 C34.6542769,16.9639646 35.1487145,16.3933093 35.7630158,16.1131933 L35.7630158,19.2674314 C35.0842226,19.0016467 34.6542769,18.3632425 34.6542769,17.6525291 Z M38.2645182,20.4237248 L38.2645182,14.7458355 C42.1327268,14.8904535 46.1155877,13.7361146 49.3460436,11.7316554 C50.430028,12.8938117 51.0723407,13.5660905 51.3491997,13.8839897 C51.3491997,13.9830075 51.3505026,20.4015762 51.3472455,20.500594 C51.2071874,25.0124183 46.9787363,27.8709059 42.7353022,26.5243941 C39.9699695,25.641051 38.2645182,23.0626796 38.2645182,20.4237248 L38.2645182,20.4237248 Z M48.0177718,28.8018035 L48.0177718,29.97308 L44.9019681,33.8184884 L41.780953,29.9652628 L41.780953,28.8513124 C43.6870458,29.5001396 45.9833468,29.5594201 48.0177718,28.8018035 L48.0177718,28.8018035 Z M25.9582989,41.5236371 C25.9582989,37.6293711 29.240218,36.144104 29.4519337,36.052252 L35.7512899,33.6100299 L38.5101084,39.1387411 C39.0025916,40.124359 40.2917774,40.6200996 41.4734767,39.7804025 L41.9496742,40.4969788 L40.3595265,49.8919443 L33.2348045,49.8919443 L33.2348045,43.198471 C33.2348045,42.5079521 32.6745724,41.9477198 31.9840533,41.9477198 C31.292883,41.9477198 30.7333021,42.5079521 30.7333021,43.198471 L30.7333021,49.8919443 L25.9582989,49.8919443 L25.9582989,41.5236371 Z M17.0675424,55.0897276 L17.0675424,52.4221098 C17.0675424,52.4064754 17.0799197,52.3934467 17.0955541,52.3934467 L72.7148966,52.3934467 C72.730531,52.3934467 72.7429081,52.4064754 72.7429081,52.4221098 L72.7429081,55.0897276 C72.7429081,55.105362 72.730531,55.1177391 72.7148966,55.1177391 L17.0955541,55.1177391 C17.0799197,55.1177391 17.0675424,55.105362 17.0675424,55.0897276 Z" id="Shape" fill="#000000"></path>
                                        <path d="M28.3458005,12.0489032 C29.036971,12.0489032 29.5965517,11.4886709 29.5965517,10.7975007 L29.5965517,5.55281419 C29.5965517,2.49107948 27.1054722,0 24.0437375,0 L5.55281419,0 C2.49107948,0 0,2.49107948 0,5.55281419 L0,21.7988998 C0,24.8606345 2.49107948,27.351714 5.55281419,27.351714 L15.1621012,27.351714 L21.441263,33.6315273 C22.417761,34.6067223 24.0919436,33.9175062 24.0919436,32.5332113 L24.0919436,27.351714 C27.1321809,27.3256566 29.5965517,24.8450001 29.5965517,21.7988998 L29.5965517,16.634991 C29.5965517,15.9444721 29.036971,15.3842398 28.3458005,15.3842398 C27.6546302,15.3842398 27.0950493,15.9444721 27.0950493,16.634991 L27.0950493,21.7988998 C27.0950493,23.481551 25.7263888,24.8502116 24.0437375,24.8502116 L23.6177005,24.8502116 C22.4998416,24.8502116 21.5904412,25.7596119 21.5904412,26.8774708 L21.5904412,30.2427732 L16.7919863,25.4436668 C16.4089437,25.0612758 15.9001747,24.8502116 15.3588339,24.8502116 L5.55281419,24.8502116 C3.87016292,24.8502116 2.5015024,23.481551 2.5015024,21.7988998 L2.5015024,5.55281419 C2.5015024,3.87016292 3.87016292,2.5015024 5.55281419,2.5015024 L24.0437375,2.5015024 C25.7263888,2.5015024 27.0950493,3.87016292 27.0950493,5.55281419 L27.0950493,10.7975007 C27.0950493,11.4886709 27.6546302,12.0489032 28.3458005,12.0489032 Z" id="Path" fill="#000000"></path>
                                    </g>
                                </g>
                            </g>
                        </g>
                    </g>
                </g>
            </g>
        </g>
    </g>
</svg>