<?xml version="1.0" encoding="UTF-8"?>
<svg width="30px" height="30px" viewBox="0 0 30 30" version="1.1" xmlns="http://www.w3.org/2000/svg" xmlns:xlink="http://www.w3.org/1999/xlink">
    <!-- Generator: Sketch 61.2 (89653) - https://sketch.com -->
    <title>Combined Shape</title>
    <desc>Created with Sketch.</desc>
    <g id="Page-1" stroke="none" stroke-width="1" fill="none" fill-rule="evenodd">
        <g id="Desktop-HD" transform="translate(-428.000000, -977.000000)" fill="#EAC445" fill-rule="nonzero">
            <g id="Group-12">
                <g id="Group-11" transform="translate(140.000000, 216.000000)">
                    <g id="Group-2" transform="translate(0.000000, 721.000000)">
                        <g id="Group-Copy" transform="translate(288.000000, 38.000000)">
                            <g id="mail" transform="translate(0.000000, 2.000000)">
                                <path d="M19.6547699,-5.32907052e-13 C20.1919556,0.14533998 20.6838226,0.42755127 21.0866546,0.830154434 L21.0866546,0.830154434 L29.054718,8.79844664 C30.3151703,10.0586701 30.3151703,12.1092224 29.054718,13.3696747 L29.054718,13.3696747 L15.4385376,26.9858551 C14.8299408,27.5944519 14.018097,27.9297638 13.1529236,27.9297638 C12.2877503,27.9297638 11.4761353,27.5944519 10.8673096,26.9858551 L10.8673096,26.9858551 L10.1673889,26.2859344 L6.82548521,29.6276092 C6.65382387,29.7992706 6.42906187,29.8851013 6.20407102,29.8851013 C5.97908021,29.8851013 5.75408936,29.7992706 5.58265687,29.6276092 C5.23933412,29.2845154 5.23933412,28.7278747 5.58265687,28.3847809 L5.58265687,28.3847809 L8.92433168,25.0428772 L7.5048065,23.6231232 L1.50032045,29.6276092 C1.32865904,29.7992706 1.10389711,29.8851013 0.87890625,29.8851013 C0.653915391,29.8851013 0.429153457,29.7992706 0.257492051,29.6276092 C-0.0858307031,29.2845154 -0.0858307031,28.7278747 0.257263184,28.3847809 L0.257263184,28.3847809 L6.2617493,22.3802948 L4.84222412,20.9607697 L1.50032045,24.3026733 C1.32865904,24.4741058 1.10389711,24.5599365 0.87890625,24.5599365 C0.653915391,24.5599365 0.429153457,24.4741058 0.257492051,24.3026733 C-0.0858307031,23.9593506 -0.0858307031,23.4029388 0.257263184,23.0596161 L0.257263184,23.0596161 L3.59916686,19.7177124 L2.89924623,19.0177917 C2.48794559,18.6064911 2.2116852,18.110733 2.06886293,17.5861359 L2.06886293,17.5861359 L16.1494446,14.7699738 C16.497345,14.7003937 16.7692566,14.4282532 16.8388366,14.0803528 L16.8388366,14.0803528 Z M17.8573608,0.0249481055 L15.2300262,13.1611634 L2.0944977,15.788269 C2.24349973,15.2970886 2.51152037,14.8342896 2.89924623,14.4465637 L2.89924623,14.4465637 L16.5156555,0.830383301 C16.8958283,0.450210586 17.3551941,0.176696777 17.8573608,0.0249481055 L17.8573608,0.0249481055 Z" id="Combined-Shape"></path>
                            </g>
                        </g>
                    </g>
                </g>
            </g>Í
        </g>
    </g>
</svg>