<?xml version="1.0" encoding="UTF-8"?>
<svg width="112px" height="123px" viewBox="0 0 112 123" version="1.1" xmlns="http://www.w3.org/2000/svg" xmlns:xlink="http://www.w3.org/1999/xlink">
    <!-- Generator: Sketch 61.2 (89653) - https://sketch.com -->
    <title>Group 53</title>
    <desc>Created with Sketch.</desc>
    <defs>
        <linearGradient x1="50%" y1="100%" x2="50%" y2="34.0281792%" id="linearGradient-1">
            <stop stop-color="#FFFFFF" stop-opacity="0" offset="0%"></stop>
            <stop stop-color="#F8F8F8" offset="100%"></stop>
        </linearGradient>
    </defs>
    <g id="Page-1" stroke="none" stroke-width="1" fill="none" fill-rule="evenodd">
        <g id="Desktop-HD" transform="translate(-1409.000000, -2173.000000)">
            <g id="Group-27" transform="translate(0.000000, 1899.000000)">
                <g id="Group-24" transform="translate(140.000000, 160.000000)">
                    <g id="Group-23" transform="translate(736.000000, 81.000000)">
                        <g id="Group-18" transform="translate(492.000000, 0.000000)">
                            <g id="Group-15-Copy" transform="translate(41.344130, 33.255061)">
                                <g id="Group-53">
                                    <rect id="Rectangle" fill="url(#linearGradient-1)" x="-3.69482223e-13" y="-2.84217094e-14" width="110.550607" height="110.550607" rx="55.2753036"></rect>
                                    <g id="007-manual" transform="translate(19.773279, 35.951417)" fill-rule="nonzero">
                                        <path d="M62.6153846,68.3076923 C62.6153846,64.3779739 65.8010508,61.1923077 69.7307692,61.1923077 L8.53846154,61.1923077 C4.60874313,61.1923077 1.42307692,64.3779739 1.42307692,68.3076923 C1.42307692,72.2374107 4.60874313,75.4230769 8.53846154,75.4230769 L69.7307692,75.4230769 C65.8010508,75.4230769 62.6153846,72.2374107 62.6153846,68.3076923 L62.6153846,68.3076923 Z" id="Path" fill="#0091FF"></path>
                                        <path d="M3.50076923,66.1161538 C4.83969633,64.7854411 6.6507322,64.0385168 8.53846154,64.0384615 L64.0711923,64.0384615 C65.4042157,62.2513855 67.5012913,61.1967838 69.7307692,61.1923075 L8.53846154,61.1923075 C6.40155003,61.1918715 4.37758569,62.1518588 3.02591525,63.8069654 C1.67424482,65.4620721 1.13800226,67.6370321 1.56538462,69.7307692 C1.84496298,68.3632118 2.51759077,67.1069805 3.50076923,66.1161538 L3.50076923,66.1161538 Z" id="Path" fill="#005ECE"></path>
                                        <path d="M69.7307692,1.42307692 L69.7307692,61.1923077 L8.53846154,61.1923077 C6.64960494,61.1866155 4.83646985,61.9344419 3.50084047,63.2700712 C2.16521109,64.6057006 1.4173847,66.4188357 1.42304466,68.3076923 L1.42304466,8.53846154 C1.42304466,4.60874313 4.60874313,1.42307692 8.53846154,1.42307692 L69.7307692,1.42307692 Z" id="Path" fill="#E29C6D"></path>
                                        <path d="M7.11538462,8.53846154 C7.11538462,4.60874313 10.3010508,1.42307692 14.2307692,1.42307692 L8.53846154,1.42307692 C4.60874313,1.42307692 1.4230246,4.60874313 1.4230246,8.53846154 L1.4230246,68.3076923 C1.41014664,64.9216256 3.79527995,61.9998373 7.11538462,61.3346154 L7.11538462,8.53846154 Z" id="Path" fill="#EDB48A"></path>
                                        <polygon id="Path" fill="#FFCD00" points="14.2307692 68.3076923 14.2307692 75.4230769 14.2307692 83.9615385 19.9230769 78.2692308 25.6153846 83.9615385 25.6153846 75.4230769 25.6153846 68.3076923"></polygon>
                                        <path d="M49.1530769,35.5769231 C48.9044375,36.3743648 48.5804103,37.146312 48.1853846,37.8823077 L52.6823077,42.3792308 L46.6484615,48.4130769 L42.1515385,43.9161538 C41.4155428,44.3111795 40.6435956,44.6352067 39.8461538,44.8838462 L39.8461538,51.2307692 L31.3076923,51.2307692 L31.3076923,44.8838462 C30.5102506,44.6352067 29.7383033,44.3111795 29.0023077,43.9161538 L24.5053846,48.4130769 L18.4715385,42.3792308 L22.9684615,37.8823077 C22.5734359,37.146312 22.2494086,36.3743648 22.0007692,35.5769231 L15.6538462,35.5769231 L15.6538462,27.0384615 L22.0007692,27.0384615 C22.2494086,26.2410198 22.5734359,25.4690726 22.9684615,24.7330769 L18.4715385,20.2361538 L24.5053846,14.2023077 L29.0023077,18.6992308 C29.7383033,18.3042051 30.5102506,17.9801779 31.3076923,17.7315385 L31.3076923,11.3846154 L39.8461538,11.3846154 L39.8461538,17.7315385 C40.6435956,17.9801779 41.4155428,18.3042051 42.1515385,18.6992308 L46.6484615,14.2023077 L52.6823077,20.2361538 L48.1853846,24.7330769 C48.5804103,25.4690726 48.9044375,26.2410198 49.1530769,27.0384615 L55.5,27.0384615 L55.5,35.5769231 L49.1530769,35.5769231 Z" id="Path" fill="#FFDF46"></path>
                                        <circle id="Oval" fill="#DF2A47" cx="35.5769231" cy="31.3076923" r="7.11538462"></circle>
                                        <circle id="Oval" fill="#FF3051" cx="35.5769231" cy="31.3076923" r="4.26923077"></circle>
                                        <path d="M39.8461538,52.6538462 L31.3076923,52.6538462 C30.5217486,52.6538462 29.8846154,52.0167129 29.8846154,51.2307692 L29.8846154,45.8899615 C29.6796923,45.8088462 29.4818846,45.7263077 29.2883462,45.6423462 L25.5115,49.4191923 C25.2446834,49.6860895 24.8827772,49.8360732 24.5053846,49.8361538 C24.127992,49.8360732 23.7660858,49.6860895 23.4992692,49.4191923 L17.4654231,43.3853462 C16.9098795,42.8296348 16.9098795,41.9288267 17.4654231,41.3731154 L21.2422692,37.5948462 C21.1568846,37.4027308 21.0757692,37.2049231 20.9946538,37 L15.6538462,37 C14.8679025,37 14.2307692,36.3628668 14.2307692,35.5769231 L14.2307692,27.0384615 C14.2307692,26.2525179 14.8679025,25.6153846 15.6538462,25.6153846 L20.9946538,25.6153846 C21.0757692,25.4104615 21.1568846,25.2126538 21.2422692,25.0191154 L17.4654231,21.2422692 C16.9098795,20.6865579 16.9098795,19.7857498 17.4654231,19.2300385 L23.4992692,13.1961923 C24.0637973,12.6623633 24.9469719,12.6623633 25.5115,13.1961923 L29.2883462,16.9730385 C29.4818846,16.8890769 29.6796923,16.8065385 29.8846154,16.7254231 L29.8846154,11.3846154 C29.8846154,10.5986717 30.5217486,9.96153846 31.3076923,9.96153846 L39.8461538,9.96153846 C40.6320975,9.96153846 41.2692308,10.5986717 41.2692308,11.3846154 L41.2692308,16.7254231 C41.4741538,16.8065385 41.6719615,16.8890769 41.8655,16.9730385 L45.6423462,13.1961923 C45.9091627,12.9292951 46.2710689,12.7793114 46.6484615,12.7792308 C47.0258542,12.7793114 47.3877603,12.9292951 47.6545769,13.1961923 L53.6884231,19.2300385 C54.2439666,19.7857498 54.2439666,20.6865579 53.6884231,21.2422692 L49.9115769,25.0191154 C49.9969615,25.2126538 50.0780769,25.4104615 50.1591923,25.6153846 L55.5,25.6153846 C56.2859437,25.6153846 56.9230769,26.2525179 56.9230769,27.0384615 L56.9230769,35.5769231 C56.9230769,36.3628668 56.2859437,37 55.5,37 L50.1591923,37 C50.0780769,37.2049231 49.9969615,37.4027308 49.9115769,37.5948462 L53.6884231,41.3731154 C54.2439666,41.9288267 54.2439666,42.8296348 53.6884231,43.3853462 L47.6545769,49.4191923 C47.0900488,49.9530213 46.2068743,49.9530213 45.6423462,49.4191923 L41.8655,45.6423462 C41.6719615,45.7263077 41.4741538,45.8088462 41.2692308,45.8899615 L41.2692308,51.2307692 C41.2692308,52.0167129 40.6320975,52.6538462 39.8461538,52.6538462 L39.8461538,52.6538462 Z M32.7307692,49.8076923 L38.4230769,49.8076923 L38.4230769,44.8838462 C38.4228975,44.2660674 38.8213233,43.718735 39.4092692,43.5290769 C40.1213761,43.3091876 40.8105155,43.0208548 41.4670385,42.6681154 C42.0217147,42.3640623 42.7105104,42.4626274 43.1576538,42.9100385 L46.6484615,46.4008462 L50.6686538,42.3792308 L47.1792692,38.8884231 C46.7325429,38.4415169 46.6340148,37.7535588 46.9373462,37.1992308 C47.2891872,36.5422801 47.5774832,35.8532289 47.7983077,35.1414615 C47.987465,34.5529528 48.5349159,34.1538656 49.1530769,34.1538462 L54.0769231,34.1538462 L54.0769231,28.4615385 L49.1530769,28.4615385 C48.5349159,28.461519 47.987465,28.0624318 47.7983077,27.4739231 C47.5774832,26.7621557 47.2891872,26.0731045 46.9373462,25.4161538 C46.6340148,24.8618258 46.7325429,24.1738677 47.1792692,23.7269615 L50.6686538,20.2361538 L46.6484615,16.2145385 L43.1576538,19.7053462 C42.7105104,20.1527573 42.0217147,20.2513223 41.4670385,19.9472692 C40.8102479,19.5969763 40.1211164,19.3110297 39.4092692,19.0934231 C38.8188179,18.9029664 38.4197975,18.3519382 38.4230769,17.7315385 L38.4230769,12.8076923 L32.7307692,12.8076923 L32.7307692,17.7315385 C32.7309487,18.3493172 32.3325228,18.8966496 31.7445769,19.0863077 C31.0327298,19.3039143 30.3435983,19.5898609 29.6868077,19.9401538 C29.1321315,20.2442069 28.4433357,20.1456419 27.9961923,19.6982308 L24.5053846,16.2145385 L20.4923077,20.2361538 L23.9816923,23.7269615 C24.4284186,24.1738677 24.5269468,24.8618258 24.2236154,25.4161538 C23.8717743,26.0731045 23.5834784,26.7621557 23.3626538,27.4739231 C23.1726997,28.0649375 22.6215519,28.4646204 22.0007692,28.4615385 L17.0769231,28.4615385 L17.0769231,34.1538462 L22.0007692,34.1538462 C22.6189302,34.1538656 23.1663812,34.5529528 23.3555385,35.1414615 C23.576363,35.8532289 23.864659,36.5422801 24.2165,37.1992308 C24.5198314,37.7535588 24.4213033,38.4415169 23.9745769,38.8884231 L20.4923077,42.3792308 L24.5125,46.4008462 L28.0033077,42.9100385 C28.4504511,42.4626274 29.1392469,42.3640623 29.6939231,42.6681154 C30.3504461,43.0208548 31.0395854,43.3091876 31.7516923,43.5290769 C32.3368246,43.7212288 32.73195,44.2679722 32.7307692,44.8838462 L32.7307692,49.8076923 Z" id="Shape" fill="#000000"></path>
                                        <path d="M35.5769231,39.8461538 C30.861261,39.8461538 27.0384615,36.0233544 27.0384615,31.3076923 C27.0384615,26.5920302 30.861261,22.7692308 35.5769231,22.7692308 C40.2925852,22.7692308 44.1153846,26.5920302 44.1153846,31.3076923 C44.110678,36.0214035 40.2906342,39.8414472 35.5769231,39.8461538 Z M35.5769231,25.6153846 C32.4331483,25.6153846 29.8846154,28.1639176 29.8846154,31.3076923 C29.8846154,34.451467 32.4331483,37 35.5769231,37 C38.7206978,37 41.2692308,34.451467 41.2692308,31.3076923 C41.2692308,28.1639176 38.7206978,25.6153846 35.5769231,25.6153846 Z" id="Shape" fill="#000000"></path>
                                        <path d="M69.7307692,62.6153846 C70.5167129,62.6153846 71.1538462,61.9782514 71.1538462,61.1923077 L71.1538462,1.42307692 C71.1538462,0.637133241 70.5167129,0 69.7307692,0 L8.53846154,0 C3.82475038,0.0047066547 0.0047066547,3.82475038 0,8.53846154 L0,68.3076923 C0.0047066547,73.0214035 3.82475038,76.8414472 8.53846154,76.8461538 L12.8076923,76.8461538 L12.8076923,83.9615385 C12.8078152,84.5370249 13.1545353,85.0557908 13.6862224,85.2760033 C14.2179094,85.4962158 14.8298928,85.3745228 15.2368846,84.9676538 L19.9230769,80.2814615 L24.6092692,84.9676538 C25.0162611,85.3745228 25.6282444,85.4962158 26.1599315,85.2760033 C26.6916186,85.0557908 27.0383387,84.5370249 27.0384615,83.9615385 L27.0384615,76.8461538 L69.7307692,76.8461538 C70.5167129,76.8461538 71.1538462,76.2090206 71.1538462,75.4230769 C71.1538462,74.6371332 70.5167129,74 69.7307692,74 C66.5869945,74 64.0384615,71.451467 64.0384615,68.3076923 C64.0384615,65.1639176 66.5869945,62.6153846 69.7307692,62.6153846 Z M24.1923077,80.5262308 L20.9291923,77.2631154 C20.373481,76.7075719 19.4726729,76.7075719 18.9169615,77.2631154 L15.6538462,80.5262308 L15.6538462,69.7307692 L24.1923077,69.7307692 L24.1923077,80.5262308 Z M63.3838462,74 L27.0384615,74 L27.0384615,69.7307692 L56.9230769,69.7307692 C57.7090206,69.7307692 58.3461538,69.093636 58.3461538,68.3076923 C58.3461538,67.5217486 57.7090206,66.8846154 56.9230769,66.8846154 L7.11538462,66.8846154 C6.32944093,66.8846154 5.69230769,67.5217486 5.69230769,68.3076923 C5.69230769,69.093636 6.32944093,69.7307692 7.11538462,69.7307692 L12.8076923,69.7307692 L12.8076923,74 L8.53846154,74 C5.39468681,74 2.84615385,71.451467 2.84615385,68.3076923 C2.84615385,65.1639176 5.39468681,62.6153846 8.53846154,62.6153846 L63.3838462,62.6153846 C60.4619235,65.8478111 60.4619235,70.7675736 63.3838462,74 L63.3838462,74 Z M8.53846154,59.7692308 C6.43740653,59.7693861 4.41037387,60.5452328 2.84615385,61.9479615 L2.84615385,8.53846154 C2.84615385,5.39468681 5.39468681,2.84615385 8.53846154,2.84615385 L68.3076923,2.84615385 L68.3076923,59.7692308 L8.53846154,59.7692308 Z" id="Shape" fill="#000000"></path>
                                    </g>
                                </g>
                            </g>
                        </g>
                    </g>
                </g>
            </g>
        </g>
    </g>
</svg>