<?xml version="1.0" encoding="UTF-8"?>
<svg width="112px" height="123px" viewBox="0 0 112 123" version="1.1" xmlns="http://www.w3.org/2000/svg" xmlns:xlink="http://www.w3.org/1999/xlink">
    <!-- Generator: Sketch 61.2 (89653) - https://sketch.com -->
    <title>Group 54</title>
    <desc>Created with Sketch.</desc>
    <defs>
        <linearGradient x1="50%" y1="100%" x2="50%" y2="34.0281792%" id="linearGradient-1">
            <stop stop-color="#FFFFFF" stop-opacity="0" offset="0%"></stop>
            <stop stop-color="#F8F8F8" offset="100%"></stop>
        </linearGradient>
    </defs>
    <g id="Page-1" stroke="none" stroke-width="1" fill="none" fill-rule="evenodd">
        <g id="Desktop-HD" transform="translate(-917.000000, -2773.000000)">
            <g id="Group-27" transform="translate(0.000000, 1899.000000)">
                <g id="Group-24" transform="translate(140.000000, 160.000000)">
                    <g id="Group-23" transform="translate(736.000000, 81.000000)">
                        <g id="Group-19" transform="translate(0.000000, 600.000000)">
                            <g id="Group-15-Copy-2" transform="translate(41.344130, 33.255061)">
                                <g id="Group-54">
                                    <rect id="Rectangle" fill="url(#linearGradient-1)" x="-3.69482223e-13" y="0" width="110.550607" height="110.550607" rx="55.2753036"></rect>
                                    <g id="009-abc" transform="translate(12.582996, 35.951417)" fill-rule="nonzero">
                                        <path d="M32.1193902,74.3675948 L27.8546262,83.9634855 L20.2579725,83.9634855 L38.9164866,41.5819641 L46.5131404,41.5819641 L65.1716545,83.9634855 L57.5750008,83.9634855 L53.3102368,74.3675948 L32.1193902,74.3675948 Z M50.3779539,67.7038152 L42.6479833,50.2448089 L34.9180127,67.7038152 L50.3779539,67.7038152 L50.3779539,67.7038152 Z" id="Shape" fill="#FFDF46"></path>
                                        <path d="M65.1714827,85.2961384 L65.1714827,85.2961384 L57.574829,85.2961384 C57.0417335,85.2961384 56.508638,85.0296765 56.3753212,84.4964092 L52.5103359,75.7002476 L32.9189475,75.7002476 L29.0539622,84.4964092 C28.7873286,85.0295047 28.3875499,85.2961384 27.8544544,85.2961384 L20.2578007,85.2961384 C19.858022,85.2961384 19.3249265,85.0296765 19.1916097,84.629726 C18.924976,84.2299474 18.924976,83.8299969 19.0582928,83.4302182 L37.716807,41.0486968 C37.9834406,40.5156013 38.3832193,40.2489677 38.9163148,40.2489677 L46.5129686,40.2489677 C47.0460641,40.2489677 47.5791596,40.5156013 47.7124764,41.0486968 L66.2376737,83.1635846 C66.3709906,83.4302182 66.5043074,83.6966801 66.5043074,83.9633137 C66.5043074,84.7630429 65.8378951,85.2961384 65.1714827,85.2961384 Z M58.3745581,82.6306609 L63.0392726,82.6306609 L45.5800944,42.9146169 L39.716044,42.9146169 L22.2570376,82.6306609 L26.9217521,82.6306609 L30.7867373,73.8344993 C31.053371,73.3014038 31.4531497,73.0347702 31.9862452,73.0347702 L53.17692,73.0347702 C53.7100155,73.0347702 54.243111,73.3014038 54.3764278,73.8344993 L58.3745581,82.6306609 Z M50.3779539,69.036468 L34.9180127,69.036468 C34.518234,69.036468 33.9851385,68.7698344 33.8518217,68.3700557 C33.5851881,67.970277 33.5851881,67.5703266 33.7185049,67.1705479 L41.4484755,49.7115416 C41.7151091,49.1784461 42.1148878,48.9118124 42.6479833,48.9118124 C43.1810788,48.9118124 43.7141743,49.1784461 43.8474911,49.7115416 L51.5774617,67.1705479 C51.7107785,67.5703266 51.7107785,68.1034221 51.4441449,68.3700557 C51.177683,68.903323 50.7779043,69.036468 50.3779539,69.036468 Z M37.0505665,66.3709906 L48.3788887,66.3709906 L42.6479833,53.5765269 L37.0505665,66.3709906 Z" id="Shape" fill="#000000"></path>
                                        <rect id="Rectangle" fill="#E29C6D" x="5.33095496" y="1.33282464" width="74.6340566" height="50.111492"></rect>
                                        <path d="M79.9651834,52.7769695 L5.33095496,52.7769695 C4.53122582,52.7769695 3.99813032,52.243874 3.99813032,51.4441449 L3.99813032,1.33282464 C3.99813032,0.533095496 4.53139762,0 5.33095496,0 L79.9650116,0 C80.7647408,0 81.2978362,0.533095496 81.2978362,1.33282464 L81.2978362,51.4443167 C81.2978362,52.243874 80.7647408,52.7769695 79.9651834,52.7769695 Z M6.6637796,50.111492 L78.6323588,50.111492 L78.6323588,2.66547748 L6.6637796,2.66547748 L6.6637796,50.111492 Z" id="Shape" fill="#000000"></path>
                                        <g id="Group" transform="translate(1.202600, 6.528401)" fill="#FFFFFF">
                                            <rect id="Rectangle" x="9.48215911" y="0.158056028" width="63.9721467" height="39.4494103"></rect>
                                            <rect id="Rectangle" x="0.130224423" y="44.9157437" width="82.6306609" height="6.26400093"></rect>
                                        </g>
                                        <g id="Group" transform="translate(0.000000, 19.069803)">
                                            <path d="M83.9633137,39.971167 L1.33282464,39.971167 C0.533095496,39.971167 0,39.4380715 0,38.6383424 L0,32.3743414 C0,31.5746123 0.533095496,31.0415168 1.33282464,31.0415168 L83.9634855,31.0415168 C84.7632147,31.0415168 85.2963102,31.5746123 85.2963102,32.3743414 L85.2963102,38.6383424 C85.2963102,39.4380715 84.7630429,39.971167 83.9633137,39.971167 Z M2.66547748,37.3055177 L82.6306609,37.3055177 L82.6306609,33.7071661 L2.66547748,33.7071661 L2.66547748,37.3055177 Z" id="Shape" fill="#000000"></path>
                                            <path d="M23.3232286,11.3169834 L21.8572589,14.5155564 L19.3250983,14.5155564 L25.4557824,0.521584894 L27.987943,0.521584894 L34.1186271,14.5155564 L31.5864665,14.5155564 L30.1204968,11.3169834 L23.3232286,11.3169834 Z M29.4537409,9.05128463 L26.9215803,3.3203792 L24.3894196,9.05128463 L29.4537409,9.05128463 L29.4537409,9.05128463 Z" id="Shape" fill="#0091FF"></path>
                                            <path d="M44.1141247,14.3822396 L37.9834406,14.3822396 L37.9834406,0.38826807 L43.4477124,0.38826807 C44.3805866,0.38826807 45.1803157,0.521584894 45.8467281,0.788046742 C46.5131404,1.05450859 47.0462359,1.32114224 47.4460145,1.72092091 C48.1124269,2.38733323 48.3788887,3.3202074 48.3788887,4.11993654 C48.3788887,5.18612753 47.97911,5.98585668 47.3126977,6.51895217 C47.0460641,6.652269 46.9129191,6.78558582 46.7796022,6.91873085 C46.6462854,6.91873085 46.5129686,7.05204767 46.2465067,7.18536449 C47.1793809,7.31868132 47.8457932,7.71845999 48.3788887,8.38487231 C48.9119842,8.91796781 49.1786179,9.71769695 49.1786179,10.6505711 C49.1786179,11.5834453 48.7788392,12.5164913 48.1124269,13.1827318 C47.3126977,13.9824609 45.9798731,14.3822396 44.1141247,14.3822396 Z M40.2491395,6.25249033 L43.3143956,6.25249033 C45.0469989,6.25249033 45.8465563,5.71939483 45.8465563,4.51988701 C45.8465563,3.85347469 45.5799226,3.3203792 45.1801439,3.05391735 C44.7803653,2.7872837 44.1139529,2.65413868 43.3142238,2.65413868 L40.2489677,2.65413868 L40.2489677,6.25249033 L40.2491395,6.25249033 Z M40.2491395,12.2498576 L43.9808079,12.2498576 C44.9136821,12.2498576 45.5800944,12.1165408 45.9798731,11.8500789 C46.3796518,11.5836171 46.6462854,11.0503498 46.6462854,10.2507924 C46.6462854,9.05128463 45.7134112,8.38487231 43.7141743,8.38487231 L40.2489677,8.38487231 L40.2489677,12.2498576 L40.2491395,12.2498576 Z" id="Shape" fill="#0091FF"></path>
                                            <path d="M60.2403065,12.2498576 C61.0400356,12.2498576 61.7062761,12.1165408 62.3726884,11.8500789 C62.9057839,11.5834453 63.5721963,11.1836666 64.2386086,10.5172543 L65.7045782,12.1165408 C64.2386086,13.7158273 62.3726884,14.6487014 60.2403065,14.6487014 C58.1079245,14.6487014 56.3753212,13.9822891 54.9093515,12.6496363 C53.5765269,11.3168116 52.7769695,9.58438013 52.7769695,7.45182634 C52.7769695,5.31927256 53.4433818,3.58684105 54.9093515,2.25401641 C56.3753212,0.921191766 58.1079245,0.121634422 60.3736233,0.121634422 C62.5060053,0.121634422 64.3719254,0.921363566 65.8378951,2.52065005 L64.3719254,4.11993654 C63.7055131,3.45352422 63.0391008,3.05374555 62.5060053,2.7871119 C61.9729098,2.52047825 61.1731806,2.38733323 60.3736233,2.38733323 C58.9076536,2.38733323 57.7081458,2.7871119 56.7752716,3.72015787 C55.8423975,4.65303204 55.309302,5.85253985 55.309302,7.18536449 C55.309302,8.65133416 55.8423975,9.85084197 56.7752716,10.7837161 C57.7081458,11.8500789 58.9076536,12.2498576 60.2403065,12.2498576 Z" id="Path" fill="#0091FF"></path>
                                        </g>
                                        <rect id="Rectangle" fill="#193651" x="14.660212" y="10.6620817" width="2.66547748" height="2.66547748"></rect>
                                        <rect id="Rectangle" fill="#193651" x="67.970277" y="10.6620817" width="2.66547748" height="2.66547748"></rect>
                                        <rect id="Rectangle" fill="#193651" x="14.660212" y="39.4494103" width="2.66547748" height="2.66547748"></rect>
                                        <rect id="Rectangle" fill="#193651" x="67.970277" y="39.4494103" width="2.66547748" height="2.66547748"></rect>
                                    </g>
                                </g>
                            </g>
                        </g>
                    </g>
                </g>
            </g>
        </g>
    </g>
</svg>