<?xml version="1.0" encoding="UTF-8"?>
<svg width="112px" height="123px" viewBox="0 0 112 123" version="1.1" xmlns="http://www.w3.org/2000/svg" xmlns:xlink="http://www.w3.org/1999/xlink">
    <!-- Generator: Sketch 61.2 (89653) - https://sketch.com -->
    <title>Group 55</title>
    <desc>Created with Sketch.</desc>
    <defs>
        <linearGradient x1="50%" y1="100%" x2="50%" y2="34.0281792%" id="linearGradient-1">
            <stop stop-color="#FFFFFF" stop-opacity="0" offset="0%"></stop>
            <stop stop-color="#F8F8F8" offset="100%"></stop>
        </linearGradient>
    </defs>
    <g id="Page-1" stroke="none" stroke-width="1" fill="none" fill-rule="evenodd">
        <g id="Desktop-HD" transform="translate(-1409.000000, -2583.000000)">
            <g id="Group-27" transform="translate(0.000000, 1899.000000)">
                <g id="Group-24" transform="translate(140.000000, 160.000000)">
                    <g id="Group-23" transform="translate(736.000000, 81.000000)">
                        <g id="Group-20" transform="translate(492.000000, 410.000000)">
                            <g id="Group-15-Copy-3" transform="translate(41.344130, 33.255061)">
                                <g id="Group-55">
                                    <rect id="Rectangle" fill="url(#linearGradient-1)" x="-3.69482223e-13" y="0" width="110.550607" height="110.550607" rx="55.2753036"></rect>
                                    <g id="011-motivation" transform="translate(12.582996, 35.951417)" fill-rule="nonzero">
                                        <path d="M46.9615385,83.9615385 L46.9615385,45.5384615 C46.9615385,39.2509121 52.0586044,34.1538462 58.3461538,34.1538462 L72.5769231,34.1538462 C78.8644725,34.1538462 83.9615385,39.2509121 83.9615385,45.5384615 L83.9615385,83.9615385 L46.9615385,83.9615385 Z" id="Path" fill="#CCCCCC"></path>
                                        <path d="M46.9615385,75.9807452 L46.9615385,83.9615385 L83.9615385,83.9615385 L83.9615385,45.5384615 C83.9624403,42.6469739 82.8580784,39.864496 80.8745288,37.7606346 C74.6740735,54.2491583 62.5950677,67.8622586 46.9615385,75.9807452 Z" id="Path" fill="#B3B3B3"></path>
                                        <path d="M54.0769231,18.5 L54.0769231,9.96153846 L76.8461538,5.69230769 L76.8461538,18.5 C76.8461538,24.7875495 71.7490879,29.8846154 65.4615385,29.8846154 C59.173989,29.8846154 54.0769231,24.7875495 54.0769231,18.5 Z" id="Path" fill="#E29C6D"></path>
                                        <polygon id="Path" fill="#FFDF46" points="71.1538462 69.7307692 68.3076923 41.2692308 71.1538462 34.1538462 59.7692308 34.1538462 62.6153846 41.2692308 59.7692308 69.7307692 65.4615385 75.4230769"></polygon>
                                        <path d="M54.0769231,9.96153846 C54.0769231,5.24587637 57.8997225,1.42307692 62.6153846,1.42307692 L76.8461538,1.42307692 L76.8461538,9.96153846 L54.0769231,9.96153846 Z" id="Path" fill="#763A02"></path>
                                        <polygon id="Path" fill="#0091FF" points="1.42307692 61.1923077 22.7692308 61.1923077 22.7692308 83.9615385 1.42307692 83.9615385"></polygon>
                                        <path d="M17.0769231,41.2692308 C19.4347541,41.2692308 21.3461538,43.1806305 21.3461538,45.5384615 L21.3461538,55.5 L36.2884615,55.5 C38.2533207,55.5 39.8461538,57.0928331 39.8461538,59.0576923 C39.8461538,61.0225515 38.2533207,62.6153846 36.2884615,62.6153846 L37.7115385,62.6153846 C39.6763977,62.6153846 41.2692308,64.2082177 41.2692308,66.1730769 C41.2692308,68.1379361 39.6763977,69.7307692 37.7115385,69.7307692 L36.2884615,69.7307692 C38.2533207,69.7307692 39.8461538,71.3236023 39.8461538,73.2884615 C39.8461538,75.2533207 38.2533207,76.8461538 36.2884615,76.8461538 L34.8653846,76.8461538 C36.8302438,76.8461538 38.4230769,78.4389869 38.4230769,80.4038462 C38.4230769,82.3687054 36.8302438,83.9615385 34.8653846,83.9615385 L9.96153846,83.9615385 L9.96153846,61.1923077 C11.8332499,57.4488875 12.807691,53.3210938 12.8076923,49.1358221 L12.8076923,45.5384615 C12.8076923,43.1806305 14.719092,41.2692308 17.0769231,41.2692308 L17.0769231,41.2692308 Z" id="Path" fill="#E29C6D"></path>
                                        <polygon id="Path" fill="#F9B200" points="62.6153846 41.2692308 68.3076923 41.2692308 71.1538462 34.1538462 59.7692308 34.1538462"></polygon>
                                        <polygon id="Path" fill="#FFDF46" points="17.0769231 17.0769231 19.4285577 24.1923077 27.0384615 24.1923077 20.881875 28.5106346 23.2335096 35.5769231 17.0769231 31.2096779 10.9203365 35.5769231 13.2719712 28.5106346 7.11538462 24.1923077 14.7252885 24.1923077"></polygon>
                                        <path d="M41.2692308,66.1730769 C41.2692308,64.2082177 39.6763977,62.6153846 37.7115385,62.6153846 L36.2884615,62.6153846 C38.2533207,62.6153846 39.8461538,61.0225515 39.8461538,59.0576923 C39.8461538,57.0928331 38.2533207,55.5 36.2884615,55.5 L32.7289904,55.5 C29.6330711,66.115159 24.1017148,75.860969 16.5752885,83.9615385 L34.8653846,83.9615385 C36.8302438,83.9615385 38.4230769,82.3687054 38.4230769,80.4038462 C38.4230769,78.4389869 36.8302438,76.8461538 34.8653846,76.8461538 L36.2884615,76.8461538 C38.2533207,76.8461538 39.8461538,75.2533207 39.8461538,73.2884615 C39.8461538,71.3236023 38.2533207,69.7307692 36.2884615,69.7307692 L37.7115385,69.7307692 C39.6763977,69.7307692 41.2692308,68.1379361 41.2692308,66.1730769 L41.2692308,66.1730769 Z" id="Path" fill="#EDB48A"></path>
                                        <path d="M20.8199712,24.1923077 C18.2277237,26.5481659 15.4657315,28.7101954 12.5563413,30.6609038 L10.9203365,35.5769231 L17.0769231,31.2096779 L23.2335096,35.5769231 L20.881875,28.5104567 L27.0384615,24.1923077 L20.8199712,24.1923077 Z" id="Path" fill="#F9B200"></path>
                                        <path d="M60.0164904,67.2581731 L59.7692308,69.7307692 L65.4615385,75.4230769 L71.1538462,69.7307692 L69.8908654,57.1073654 C66.943109,60.8091133 63.6354602,64.2093597 60.0164904,67.2581731 L60.0164904,67.2581731 Z" id="Path" fill="#F9B200"></path>
                                        <path d="M65.4615385,31.3076923 C72.5318211,31.2999474 78.2614858,25.5702826 78.2692308,18.5 L78.2692308,1.42307692 C78.2692308,0.637133241 77.6320975,-1.42108547e-14 76.8461538,-1.42108547e-14 L62.6153846,-1.42108547e-14 C57.116542,0.00666503356 52.6605112,4.4626958 52.6538462,9.96153846 L52.6538462,18.5 C52.6615911,25.5702826 58.3912559,31.2999474 65.4615385,31.3076923 L65.4615385,31.3076923 Z M62.6153846,2.84615385 L75.4230769,2.84615385 L75.4230769,8.53846154 L55.6431971,8.53846154 C56.3237264,5.22796712 59.2356695,2.85056747 62.6153846,2.84615385 L62.6153846,2.84615385 Z M55.5,11.3846154 L75.4230769,11.3846154 L75.4230769,18.5 C75.4230769,24.0016058 70.9631442,28.4615385 65.4615385,28.4615385 C59.9599327,28.4615385 55.5,24.0016058 55.5,18.5 L55.5,11.3846154 Z" id="Shape" fill="#000000"></path>
                                        <path d="M72.5769231,32.7307692 L58.3461538,32.7307692 C51.2758712,32.7385142 45.5462065,38.4681789 45.5384615,45.5384615 L45.5384615,83.9615385 C45.5384615,84.7474821 46.1755948,85.3846154 46.9615385,85.3846154 L83.9615385,85.3846154 C84.7474821,85.3846154 85.3846154,84.7474821 85.3846154,83.9615385 L85.3846154,45.5384615 C85.3768705,38.4681789 79.6472057,32.7385142 72.5769231,32.7307692 L72.5769231,32.7307692 Z M63.9034471,42.6923077 L67.0196298,42.6923077 L69.6701106,69.2012067 L65.4615385,73.4108462 L61.2520769,69.2012067 L63.9034471,42.6923077 Z M69.0526731,35.5769231 L67.3449808,39.8461538 L63.5789856,39.8461538 L61.8712933,35.5769231 L69.0526731,35.5769231 Z M82.5384615,82.5384615 L48.3846154,82.5384615 L48.3846154,45.5384615 C48.3912804,40.0396189 52.8473112,35.5835881 58.3461538,35.5769231 L58.8056298,35.5769231 L61.1645577,41.4748654 L58.3530913,69.5884615 C58.3110197,70.0131806 58.4614798,70.4344035 58.7631154,70.736351 L64.4554231,76.4286587 C65.0111344,76.9842022 65.9119425,76.9842022 66.4676538,76.4286587 L72.1599615,70.736351 C72.4615972,70.4344035 72.6120572,70.0131806 72.5699856,69.5884615 L69.7585192,41.4748654 L72.1174471,35.5769231 L72.5769231,35.5769231 C78.0757657,35.5835881 82.5317965,40.0396189 82.5384615,45.5384615 L82.5384615,82.5384615 Z" id="Shape" fill="#000000"></path>
                                        <path d="M65.4615385,25.6153846 C68.6040126,25.6122468 71.1507084,23.065551 71.1538462,19.9230769 L68.3076923,19.9230769 C68.3076923,21.4949643 67.0334258,22.7692308 65.4615385,22.7692308 C63.8896511,22.7692308 62.6153846,21.4949643 62.6153846,19.9230769 L59.7692308,19.9230769 C59.7723685,23.065551 62.3190644,25.6122468 65.4615385,25.6153846 L65.4615385,25.6153846 Z" id="Path" fill="#000000"></path>
                                        <path d="M40.3442308,61.9468942 C41.4272642,60.4287192 41.5710328,58.4325814 40.7167373,56.7748733 C39.8624417,55.1171653 38.1533518,54.0758933 36.2884615,54.0769231 L22.7692308,54.0769231 L22.7692308,45.5384615 C22.7692308,42.3946868 20.2206978,39.8461538 17.0769231,39.8461538 C13.9331483,39.8461538 11.3846154,42.3946868 11.3846154,45.5384615 L11.3846154,49.1365337 C11.3767364,52.8065823 10.5821173,56.4322897 9.05432692,59.7692308 L1.42307692,59.7692308 C0.637133241,59.7692308 -4.26325641e-14,60.406364 -4.26325641e-14,61.1923077 L-4.26325641e-14,83.9615385 C-4.26325641e-14,84.7474821 0.637133241,85.3846161 1.42307692,85.3846161 L34.8653846,85.3846161 C36.7302749,85.3856452 38.4393648,84.3443732 39.2936603,82.6866651 C40.1479559,81.0289571 40.0041873,79.0328193 38.9211538,77.5146442 C40.0884774,76.7890306 40.9036021,75.6128207 41.1731573,74.2650449 C41.4427125,72.9172691 41.1426781,71.5180274 40.3442308,70.3992596 C41.8047839,69.4910116 42.692848,67.8929984 42.692848,66.1730769 C42.692848,64.4531555 41.8047839,62.8551423 40.3442308,61.9468942 Z M2.84615385,62.6153846 L8.53846154,62.6153846 L8.53846154,82.5384615 L2.84615385,82.5384615 L2.84615385,62.6153846 Z M37.7115385,68.3076923 L35.5769231,68.3076923 C34.7909794,68.3076923 34.1538462,68.9448255 34.1538462,69.7307692 C34.1538462,70.5167129 34.7909794,71.1538462 35.5769231,71.1538462 L36.2884615,71.1538462 C37.4673771,71.1538462 38.4230769,72.109546 38.4230769,73.2884615 C38.4230769,74.4673771 37.4673771,75.4230769 36.2884615,75.4230769 L34.1538462,75.4230769 C33.3679025,75.4230769 32.7307692,76.0602102 32.7307692,76.8461538 C32.7307692,77.6320975 33.3679025,78.2692308 34.1538462,78.2692308 L34.8653846,78.2692308 C36.0443001,78.2692308 37,79.2249306 37,80.4038462 C37,81.5827617 36.0443001,82.5384615 34.8653846,82.5384615 L11.3846154,82.5384615 L11.3846154,61.5229952 C13.2524323,57.6606373 14.2252774,53.4268155 14.2307692,49.1365337 L14.2307692,45.5384615 C14.2307692,43.9665742 15.5050357,42.6923077 17.0769231,42.6923077 C18.6488104,42.6923077 19.9230769,43.9665742 19.9230769,45.5384615 L19.9230769,55.5 C19.9230769,56.2859437 20.5602102,56.9230769 21.3461538,56.9230769 L36.2884615,56.9230769 C37.4673771,56.9230769 38.4230769,57.8787768 38.4230769,59.0576923 C38.4230769,60.2366078 37.4673771,61.1923077 36.2884615,61.1923077 L35.5769231,61.1923077 C34.7909794,61.1923077 34.1538462,61.8294409 34.1538462,62.6153846 C34.1538462,63.4013283 34.7909794,64.0384615 35.5769231,64.0384615 L37.7115385,64.0384615 C38.8904539,64.0384616 39.8461537,64.9941614 39.8461537,66.1730769 C39.8461537,67.3519924 38.8904539,68.3076922 37.7115385,68.3076923 L37.7115385,68.3076923 Z" id="Shape" fill="#000000"></path>
                                        <path d="M5.75901442,23.7643173 C5.57118562,24.3559693 5.78957247,25.0010427 6.29818269,25.3569183 L11.5875817,29.0663462 L9.57019231,35.1281202 C9.37583186,35.7122839 9.57915107,36.3551885 10.0740592,36.7213703 C10.5689674,37.0875522 11.2432254,37.0939657 11.7450096,36.7372644 L17.0769231,32.9545481 L22.4093702,36.7372644 C22.9111544,37.0939657 23.5854124,37.0875522 24.0803206,36.7213703 C24.5752287,36.3551885 24.7785479,35.7122839 24.5841875,35.1281202 L22.5662644,29.0663462 L27.8556635,25.357274 C28.3638924,25.0007123 28.5823193,24.3558303 28.3953827,23.7638103 C28.2084462,23.1717903 27.659294,22.7692794 27.0384615,22.7692308 L20.4567308,22.7692308 L18.4277788,16.6307885 C18.2348265,16.0484455 17.6904,15.6553013 17.0769231,15.6553013 C16.4634461,15.6553013 15.9190196,16.0484455 15.7260673,16.6307885 L13.6971154,22.7692308 L7.11538462,22.7692308 C6.49448786,22.7691912 5.9453689,23.1720464 5.75901442,23.7643173 Z M14.7254663,25.6153846 C15.3395462,25.6158439 15.8844415,25.2217742 16.0763221,24.6384423 L17.0769231,21.6115577 L18.077524,24.6384423 C18.2694047,25.2217742 18.8143,25.6158439 19.4283798,25.6153846 L22.5315769,25.6153846 L20.0653846,27.3456683 C19.5501218,27.7061654 19.3330517,28.3624407 19.5317308,28.9590817 L20.5100962,31.8996923 L17.9015962,30.048625 C17.4080924,29.6980524 16.7468211,29.6980524 16.2533173,30.048625 L13.64375,31.8996923 L14.6221154,28.9596154 C14.8207944,28.3629743 14.6037243,27.7066991 14.0884615,27.3462019 L11.6222692,25.6153846 L14.7254663,25.6153846 Z" id="Shape" fill="#000000"></path>
                                        <polygon id="Path" fill="#000000" points="15.6538462 7.11538462 18.5 7.11538462 18.5 12.8076923 15.6538462 12.8076923"></polygon>
                                        <polygon id="Path" fill="#000000" transform="translate(4.998876, 14.962116) rotate(-45.000000) translate(-4.998876, -14.962116) " points="3.57619221 12.1166585 6.42156054 12.1166585 6.42156054 17.807573 3.57619221 17.807573"></polygon>
                                        <polygon id="Path" fill="#000000" transform="translate(29.146991, 14.964558) rotate(-45.000000) translate(-29.146991, -14.964558) " points="26.3015335 13.5418741 31.992448 13.5418741 31.992448 16.3872425 26.3015335 16.3872425"></polygon>
                                        <circle id="Oval" fill="#000000" cx="61.1923077" cy="15.6538462" r="1.42307692"></circle>
                                        <circle id="Oval" fill="#000000" cx="69.7307692" cy="15.6538462" r="1.42307692"></circle>
                                    </g>
                                </g>
                            </g>
                        </g>
                    </g>
                </g>
            </g>
        </g>
    </g>
</svg>