<?xml version="1.0" encoding="UTF-8"?>
<svg width="112px" height="123px" viewBox="0 0 112 123" version="1.1" xmlns="http://www.w3.org/2000/svg" xmlns:xlink="http://www.w3.org/1999/xlink">
    <!-- Generator: Sketch 61.2 (89653) - https://sketch.com -->
    <title>Group 52</title>
    <desc>Created with Sketch.</desc>
    <defs>
        <linearGradient x1="50%" y1="100%" x2="50%" y2="34.0281792%" id="linearGradient-1">
            <stop stop-color="#FFFFFF" stop-opacity="0" offset="0%"></stop>
            <stop stop-color="#F8F8F8" offset="100%"></stop>
        </linearGradient>
    </defs>
    <g id="Page-1" stroke="none" stroke-width="1" fill="none" fill-rule="evenodd">
        <g id="Desktop-HD" transform="translate(-917.000000, -2363.000000)">
            <g id="Group-27" transform="translate(0.000000, 1899.000000)">
                <g id="Group-24" transform="translate(140.000000, 160.000000)">
                    <g id="Group-23" transform="translate(736.000000, 81.000000)">
                        <g id="Group-16" transform="translate(0.000000, 190.000000)">
                            <g id="Group-15" transform="translate(41.344130, 33.255061)">
                                <g id="Group-52">
                                    <rect id="Rectangle" fill="url(#linearGradient-1)" x="-3.69482223e-13" y="0" width="110.550607" height="110.550607" rx="55.2753036"></rect>
                                    <g id="006-idea" transform="translate(23.368421, 35.951417)" fill-rule="nonzero">
                                        <polygon id="Path" fill="#FC3E81" points="31.6115785 32.5315593 7.20965822 46.0503999 31.6115785 59.5698908 56.0141489 46.0503999"></polygon>
                                        <path d="M22.7173477,55.5876419 L40.5051591,55.5876419 C41.3718265,48.3786338 44.2546496,41.5382682 48.6998144,35.7037049 C51.4467534,32.0979005 53.0773623,27.5968217 53.0773623,22.7140969 C53.0773623,10.5150873 42.9016601,0.692423626 30.5745683,1.27236908 C19.5120439,1.79314982 10.5768528,10.8200137 10.1607484,21.8864394 C9.96309885,27.1436579 11.6574237,31.9977754 14.6163159,35.8252855 C19.0712332,41.5863804 21.8701854,48.4169935 22.7173477,55.5876419 Z" id="Path" fill="#FFDF46"></path>
                                        <path d="M53.0780126,22.7140969 C53.0780126,27.5968217 51.4474035,32.0972503 48.6991643,35.7037049 C44.2533492,41.5382682 41.3718265,48.3773336 40.5064595,55.5876419 L35.4000787,55.5876419 C36.2647955,48.3779837 39.1469685,41.5382682 43.5927835,35.7037049 C46.3410228,32.0972503 47.9716318,27.5968217 47.9716318,22.7140969 C47.9716318,11.7217899 39.7054586,2.65461585 29.0518865,1.39720039 C29.5564131,1.33998604 30.0635403,1.29837561 30.5739182,1.27301937 C42.9003599,0.691773504 53.0780126,10.5157375 53.0780126,22.7140969 Z" id="Path" fill="#F9B200"></path>
                                        <path d="M40.3881298,74.4176648 L22.8343771,74.4176648 C21.0717849,74.4176648 19.6427266,72.9886064 19.6427266,71.2260143 L19.6427266,58.1408323 C19.6427266,56.3782402 21.0717849,54.9491818 22.8343771,54.9491818 L40.3881298,54.9491818 C42.151372,54.9491818 43.5797802,56.3782402 43.5797802,58.1408323 L43.5797802,71.2260143 C43.5797802,72.9892565 42.151372,74.4176648 40.3881298,74.4176648 L40.3881298,74.4176648 Z" id="Path" fill="#A7C7D3"></path>
                                        <path d="M46.8832589,19.7096934 C46.8832589,16.2976377 44.7617768,13.3823065 41.7664755,12.2081119 C41.3893809,9.477427 39.0461932,7.37479972 36.2114822,7.37479972 C34.6029789,7.37479972 33.152465,8.05161943 32.1297584,9.13674155 C31.7955747,9.49108055 31.6115785,9.9604982 31.6115785,10.4474703 L31.6115785,34.2713956 C31.6115785,35.6393387 32.7084036,36.7667216 34.0769968,36.7771242 C34.0867493,36.7771242 34.0965018,36.7777743 34.105604,36.7777743 C35.9046053,36.7777743 37.3980298,35.4735471 37.6945041,33.7590671 C37.9181602,33.7844235 38.1450673,33.7974268 38.3752249,33.7974268 C41.7008091,33.7974268 44.3970353,31.1018506 44.3970353,27.7762665 C44.3970353,27.0922951 44.2826066,26.4349802 44.0726039,25.8218764 C45.7929353,24.345356 46.8832589,22.1549567 46.8832589,19.7096934 L46.8832589,19.7096934 Z" id="Path" fill="#FC3E81"></path>
                                        <path d="M16.3405483,19.7096934 C16.3405483,16.2976377 18.4613804,13.3823065 21.4566815,12.2081119 C21.8344264,9.477427 24.177614,7.37479972 27.012325,7.37479972 C28.6208284,7.37479972 30.0706921,8.05161943 31.0940487,9.13674155 C31.4275823,9.49108055 31.6122288,9.9604982 31.6122288,10.4474703 L31.6122288,34.2713956 C31.6122288,35.6393387 30.5147535,36.7667216 29.1468104,36.7771242 C29.1370579,36.7771242 29.1273054,36.7777743 29.117553,36.7777743 C27.3185517,36.7777743 25.8251272,35.4735471 25.5293029,33.7590671 C25.3056468,33.7844235 25.07874,33.7974268 24.847932,33.7974268 C21.5223481,33.7974268 18.8267719,31.1018506 18.8267719,27.7762665 C18.8267719,27.0922951 18.9412006,26.4349802 19.1512033,25.8218764 C17.4302216,24.345356 16.3405483,22.1549567 16.3405483,19.7096934 Z" id="Path" fill="#FD82AC"></path>
                                        <polygon id="Path" fill="#E29C6D" points="56.0141489 70.4529703 31.6115785 83.9718111 31.6115785 59.5698908 56.0141489 46.0503999"></polygon>
                                        <polygon id="Path" fill="#EDB48A" points="7.20965822 70.4529703 31.6115785 83.9718111 31.6115785 59.5698908 7.20965822 46.0503999"></polygon>
                                        <path d="M61.1250809,58.0959711 L39.6046833,70.0186615 C38.8225371,70.45167 37.8381903,70.1818523 37.3863269,69.4114091 L31.6115785,59.5698908 L56.0134987,46.0503999 L61.7472869,55.8217006 C62.2154043,56.620101 61.9345339,57.6473585 61.1250809,58.0959711 L61.1250809,58.0959711 Z" id="Path" fill="#EDB48A"></path>
                                        <path d="M2.09872638,58.0959711 L23.6191239,70.0186615 C24.4006199,70.45167 25.3849668,70.1818523 25.8374803,69.4114091 L31.6122288,59.5698908 L7.20965822,46.0503999 L1.47652037,55.8217006 C1.00775284,56.620101 1.28927341,57.6473585 2.09872638,58.0959711 L2.09872638,58.0959711 Z" id="Path" fill="#E29C6D"></path>
                                        <path d="M42.8659013,11.3258406 C42.1162631,8.31623584 39.3738754,6.12648663 36.2114822,6.12648663 C34.5132563,6.12648663 32.8657432,6.76884774 31.6122288,7.90208184 C30.3580641,6.76884774 28.7112011,6.12648663 27.012325,6.12648663 C23.850582,6.12648663 21.107544,8.31623584 20.357906,11.3258406 C17.1369982,12.869978 15.0922353,16.0889352 15.0922353,19.7096934 C15.0922353,22.1543066 16.0505757,24.4831906 17.7468511,26.215225 C17.6350231,26.725603 17.5784588,27.2483343 17.5784588,27.7762665 C17.5784588,31.7058523 20.7122448,34.9170075 24.611923,35.0418388 C25.3609108,36.8213351 27.1124501,38.0260874 29.117553,38.0260874 L29.1565627,38.0254373 C30.0973487,38.0182854 30.9568644,37.6561447 31.6115785,37.067747 C32.2636921,37.6561447 33.1206071,38.0182854 34.0561916,38.0254373 L34.1062541,38.0260874 C36.1120073,38.0260874 37.8635465,36.8213351 38.6125344,35.0418388 C42.5122126,34.9170075 45.6459986,31.7058523 45.6459986,27.7762665 C45.6459986,27.2483343 45.5894343,26.725603 45.4776063,26.215225 C47.1732316,24.4831906 48.131572,22.1543066 48.131572,19.7096934 C48.131572,16.0889352 46.086809,12.869978 42.8659013,11.3258406 L42.8659013,11.3258406 Z M29.1370579,35.5288111 C29.1331569,35.5288111 29.121454,35.5294612 29.117553,35.5294612 C28.3451592,35.5294612 27.6520855,35.1634194 27.2119251,34.5847742 C28.0551866,34.2505904 28.8366825,33.7525654 29.5193538,33.1076037 C30.0199793,32.6342849 30.042735,31.8443369 29.5694163,31.3430612 C29.0954475,30.8417854 28.3054993,30.81968 27.8042236,31.2929987 C27.1085492,31.9503136 26.2639873,32.3742197 25.3596104,32.5211567 C25.1873173,32.5393612 25.0156742,32.5491137 24.847932,32.5491137 C22.2160719,32.5491137 20.075085,30.4081266 20.075085,27.7756164 C20.075085,27.251585 20.1596063,26.7366559 20.326048,26.2451326 C20.8747857,24.8232259 22.0905905,23.7264008 23.5085963,23.3330522 C23.7485064,24.1145481 24.1262511,24.8401303 24.628177,25.4629864 C24.875239,25.768563 25.2360795,25.927853 25.600821,25.927853 C25.87584,25.927853 26.1528094,25.8374803 26.3836173,25.6515338 C26.9206521,25.2185251 27.0045231,24.4331281 26.5721647,23.8960933 C26.0123741,23.201069 25.7035468,22.2817385 25.7035468,21.3064939 C25.7035468,20.4710344 25.9265526,19.6823865 26.3491587,19.0270221 C26.7223522,18.447727 26.5552603,17.6753331 25.9753149,17.3014894 C25.3960196,16.928946 24.6229757,17.0960379 24.249782,17.6753331 C23.6503318,18.6063666 23.2992437,19.6895383 23.2231747,20.8318748 C21.4696849,21.2083193 19.9268478,22.2427288 18.8846366,23.6997442 C18.0511274,22.5496057 17.5888614,21.1576066 17.5888614,19.7096934 C17.5888614,16.8879857 19.2864372,14.3998116 21.9124459,13.3699533 C22.3331015,13.2054621 22.6315262,12.826417 22.6932917,12.3791048 C22.9897661,10.2374676 24.8466318,8.62311281 27.012325,8.62311281 C28.2255292,8.62311281 29.3522618,9.10943479 30.1851208,9.99300627 C30.3001996,10.1145868 30.3639157,10.2764775 30.3639157,10.4474703 L30.3639157,12.6008104 C28.7710161,12.6554241 27.2411824,13.272429 26.0396811,14.373155 C25.5312535,14.8393219 25.497445,15.6286199 25.9629617,16.1370473 C26.2093736,16.4062148 26.5455079,16.542099 26.8835927,16.542099 C27.1846182,16.542099 27.486944,16.4341718 27.7268543,16.2144168 C28.4621886,15.5401977 29.392572,15.1546509 30.3632654,15.1006873 L30.3632654,34.2713956 C30.3632654,34.9592681 29.8132275,35.5236098 29.1370579,35.5288111 Z M44.3391707,23.6997442 C43.2969593,22.2427288 41.7541223,21.2083193 40.0006326,20.8318748 C39.9245636,19.6895383 39.5734755,18.6063666 38.9740251,17.6753331 C38.6008315,17.0960379 37.8284378,16.928946 37.2484924,17.3014894 C36.6685469,17.6753331 36.501455,18.447727 36.8746486,19.0270221 C37.2966043,19.6823865 37.5202604,20.4710344 37.5202604,21.3064939 C37.5202604,22.2817385 37.2114329,23.201069 36.6516426,23.8960933 C36.2186341,24.4331281 36.3031552,25.2185251 36.84019,25.6515338 C37.0709977,25.8374803 37.3479673,25.927853 37.6229863,25.927853 C37.9870776,25.927853 38.3485683,25.768563 38.5956302,25.4629864 C39.0975561,24.8401303 39.4753008,24.1145481 39.715211,23.3330522 C41.1332166,23.7264008 42.3490216,24.8232259 42.8971091,26.2457827 C43.0635508,26.737306 43.1487222,27.251585 43.1487222,27.7756164 C43.1487222,30.4081266 41.007085,32.5491137 38.3752249,32.5491137 C38.2081331,32.5491137 38.0358399,32.5393612 37.8635465,32.5211567 C36.95982,32.3742197 36.114608,31.9503136 35.4189334,31.2929987 C34.9176576,30.81968 34.1277096,30.8417854 33.6543909,31.3430612 C33.1804219,31.8443369 33.2031777,32.6342849 33.7044534,33.1082539 C34.3864745,33.7525654 35.1679705,34.2505904 36.011232,34.5847742 C35.5710717,35.1634194 34.8779977,35.5294612 34.105604,35.5294612 L34.0867493,35.5288111 C33.4099296,35.5236098 32.8598916,34.9592681 32.8598916,34.2713956 L32.8598916,15.1000372 C33.830585,15.1540008 34.7609684,15.5401977 35.496953,16.2137665 C35.736213,16.4335217 36.0385389,16.542099 36.3395643,16.542099 C36.6776491,16.542099 37.0144337,16.4062148 37.2601952,16.1370473 C37.7263621,15.6286199 37.6919035,14.8393219 37.1834761,14.373155 C35.9819747,13.272429 34.4527912,12.654774 32.8598916,12.6001603 L32.8598916,10.4474703 C32.8598916,10.2764775 32.9229575,10.1152371 33.0380363,9.99300627 C33.8708952,9.10943479 34.9976277,8.62311281 36.2108321,8.62311281 C38.3771755,8.62311281 40.2333909,10.2381179 40.5298652,12.3791048 C40.5916308,12.826417 40.8900557,13.2054621 41.3107112,13.3706035 C43.9367197,14.3998116 45.6342962,16.8879857 45.6342962,19.7096934 C45.6349458,21.1576066 45.1726798,22.5496057 44.3391707,23.6997442 Z" id="Shape" fill="#000000"></path>
                                        <path d="M57.0908189,45.4184414 C56.9776906,45.2279437 56.8125493,45.0660531 56.6188006,44.9581259 L47.374782,39.8367915 C48.088011,38.6801514 48.8604048,37.5521186 49.6926135,36.4598446 C52.7236736,32.4814968 54.3256754,27.7275044 54.3256754,22.7134468 C54.3256754,17.7084914 52.7282248,12.9597004 49.7049665,8.98265295 C49.288212,8.4332652 48.5047655,8.32663845 47.9560279,8.74339294 C47.4066401,9.16079754 47.3000134,9.94424417 47.717418,10.4929818 C50.4077929,14.0324695 51.8296995,18.2585295 51.8296995,22.7134468 C51.8296995,27.1768162 50.4038918,31.4067771 47.7070154,34.9469151 C43.4445463,40.5409181 40.6182874,47.0165423 39.5149607,53.7008688 L23.7120973,53.7008688 C22.6178728,46.9502256 19.8202211,40.5142613 15.6045638,35.0613438 C12.7204404,31.3313583 11.2302666,26.6690389 11.4084114,21.9332511 C11.7991594,11.5358434 20.2441274,3.00765427 30.6330831,2.51938193 C35.5197087,2.28727376 40.3153115,3.82360896 44.1337192,6.84101572 C44.6746548,7.26817298 45.4600518,7.17584974 45.8872089,6.63556435 C46.3150163,6.09462868 46.2226932,5.3092317 45.6817576,4.88207444 C41.3906813,1.49147416 36.0047303,-0.231458052 30.5160538,0.0253564013 C24.8524832,0.291923176 19.5159448,2.67867184 15.4881847,6.74609199 C11.4617247,10.812862 9.12633894,16.1734565 8.91373574,21.8396277 C8.71348535,27.1586117 10.3883054,32.3969755 13.6293684,36.5885768 C14.4342702,37.6301381 15.1832581,38.7100589 15.876332,39.8218377 L6.60500665,44.9587762 C6.41255838,45.0654028 6.24351598,45.2279437 6.13298818,45.4190915 L0.399850328,55.1903924 C0.00195049753,55.8685123 -0.103375969,56.660411 0.104676212,57.4198015 C0.312078273,58.1785418 0.805552083,58.8065993 1.49407465,59.1882451 L5.96134513,61.6634159 L5.96134513,70.4529703 C5.96134513,70.9067842 6.20775697,71.3248391 6.60500665,71.5452442 L31.0069269,85.064085 C31.3788202,85.2695366 31.8456372,85.2701867 32.2168803,85.064085 L47.5035144,76.5950608 C48.1062156,76.2608771 48.3246704,75.5014866 47.9904865,74.8981353 C47.6563028,74.2954341 46.896262,74.0769793 46.293561,74.411163 L32.8605419,81.8535797 L32.8605419,64.163943 L36.3096569,70.0427175 C36.8505926,70.9652989 37.8069825,71.4782776 38.7978308,71.4782776 C39.2750506,71.4782776 39.7594221,71.3592977 40.2099852,71.1102852 L54.7658358,63.0463126 L54.7658358,69.7169859 L51.3498791,71.6096104 C50.7471779,71.9437943 50.5287231,72.7031848 50.862907,73.3065361 C51.0911143,73.7174392 51.516971,73.9495473 51.9558311,73.9495473 C52.1606325,73.9495473 52.3686847,73.8994848 52.5598325,73.7935082 L56.6188006,71.5445941 C57.0160503,71.3248391 57.262462,70.9061341 57.262462,70.4523202 L57.262462,61.6627656 L61.7297324,59.1875949 C62.4182552,58.8065993 62.911729,58.1785418 63.1191309,57.4191514 C63.3271831,56.660411 63.2218567,55.8685123 62.8239569,55.1897423 L57.0908189,45.4184414 Z M31.6115785,58.1427828 L28.1013482,56.1974949 L35.1224591,56.1974949 L31.6115785,58.1427828 Z M53.4382029,46.0503999 L42.3438203,52.1963913 C43.1136134,48.6796593 44.391834,45.2435476 46.1290698,42.0011843 L53.4382029,46.0503999 Z M17.1278959,41.9829797 C18.8560292,45.1986864 20.1270981,48.6432502 20.8910397,52.202893 L9.78560438,46.0503999 L17.1278959,41.9829797 Z M8.45797131,63.0463126 L10.7972581,64.3420877 C10.9890563,64.4487145 11.1964582,64.498777 11.4012596,64.498777 C11.8401197,64.498777 12.2666266,64.2666688 12.4941836,63.8551156 C12.8283675,63.2524144 12.6099127,62.4923738 12.0072115,62.1581899 L2.70337812,57.0036971 C2.57594599,56.9328294 2.52913425,56.8210014 2.51223009,56.7605362 C2.49532594,56.7000709 2.47907174,56.5797908 2.55254029,56.4536593 L7.66997367,47.7330219 L29.887346,60.0419091 L24.7608103,68.7794506 C24.6502825,68.9673477 24.4142734,69.032364 24.2237755,68.9263876 L16.7761577,64.8004527 C16.1734565,64.466919 15.4134159,64.6847235 15.079232,65.2874248 C14.7456984,65.8907761 14.963503,66.6501665 15.5662043,66.9843504 L23.0138221,71.1102852 C23.4637349,71.3599478 23.9481064,71.4782776 24.4253261,71.4782776 C25.4161747,71.4782776 26.3725646,70.9652989 26.9141504,70.0433676 L30.3632654,64.1645931 L30.3632654,81.8529296 L8.45797131,69.7169859 L8.45797131,63.0463126 Z M60.7109269,56.7605362 C60.6946728,56.8210014 60.6478611,56.9328294 60.519779,57.0036971 L39.0000316,68.9263876 C38.8088837,69.032364 38.5728745,68.9673477 38.462997,68.7794506 L33.3358109,60.0419091 L55.5538336,47.7330219 L60.6706168,56.4536593 C60.7447355,56.5797908 60.7278312,56.7000709 60.7109269,56.7605362 Z" id="Shape" fill="#000000"></path>
                                        <path d="M5.67852432,36.174423 L5.68437574,36.174423 C6.37419872,36.171172 6.93008818,35.6094311 6.92685159,34.9202585 L6.925537,34.6094804 C6.9216361,33.921608 6.36314599,33.3670188 5.67722391,33.3670188 C5.67462326,33.3670188 5.67267273,33.3670188 5.6707222,33.3670188 C4.98154951,33.3702697 4.42500992,33.9320106 4.42824653,34.6218336 L4.43021123,34.9326114 C4.433462,35.6198338 4.99130183,36.174423 5.67852432,36.174423 Z" id="Path" fill="#000000"></path>
                                        <path d="M4.44061384,39.5143106 C4.44386461,40.2021831 5.00235473,40.7567723 5.68892693,40.7567723 L5.69477835,40.7567723 C6.38460133,40.7535213 6.94049079,40.1917804 6.9372542,39.5019575 L6.93593961,39.1911796 C6.93203871,38.5039573 6.37419872,37.9493681 5.68762652,37.9493681 C5.68567599,37.9493681 5.68307534,37.9493681 5.6811248,37.9493681 C4.99195212,37.952619 4.43541253,38.5143599 4.43929305,39.2035326 L4.44061384,39.5143106 Z" id="Path" fill="#000000"></path>
                                        <path d="M7.81821085,38.3056574 L7.82536269,38.3056574 L8.13549043,38.3043572 C8.82531357,38.3004561 9.38120287,37.7387152 9.37796628,37.0495424 C9.37405103,36.3623201 8.8162112,35.807731 8.129639,35.807731 C8.12703835,35.807731 8.12508782,35.807731 8.12313745,35.807731 L7.81235942,35.8090313 C7.12253645,35.8129323 6.56664699,36.3746732 6.56988357,37.0638461 C6.57379882,37.7510684 7.13163865,38.3056574 7.81821085,38.3056574 Z" id="Path" fill="#000000"></path>
                                        <path d="M3.23586155,38.31606 L3.24301338,38.31606 L3.55379125,38.3147598 C4.24296426,38.3108587 4.79885356,37.7491178 4.79561697,37.059945 C4.79170173,36.3727227 4.2338619,35.8181336 3.5472897,35.8181336 C3.54533917,35.8181336 3.54273852,35.8181336 3.54078815,35.8181336 L3.23001012,35.8194339 C2.54018715,35.8233349 1.98429768,36.3850758 1.98817817,37.0742487 C1.99144952,37.761471 2.54993947,38.31606 3.23586155,38.31606 Z" id="Path" fill="#000000"></path>
                                        <path d="M59.4886061,26.4778909 L59.4899207,26.7886689 C59.4938216,27.4758913 60.0516616,28.0304803 60.7382338,28.0304803 L60.7447355,28.0304803 C61.4339082,28.0272295 61.9904478,27.4654886 61.9872112,26.7763158 L61.9852465,26.4655378 C61.9819957,25.7783154 61.4235056,25.2230763 60.7369334,25.2230763 C60.734983,25.2230763 60.7330325,25.2230763 60.731082,25.2230763 C60.041259,25.2269772 59.4853695,25.788718 59.4886061,26.4778909 L59.4886061,26.4778909 Z" id="Path" fill="#000000"></path>
                                        <path d="M60.7492865,32.6134797 L60.7557883,32.6134797 C61.4449611,32.6095788 62.0008504,32.0478379 61.9976138,31.3586651 L61.9956491,31.0478871 C61.9923983,30.3600146 61.4339082,29.8054256 60.7479863,29.8054256 C60.7453856,29.8054256 60.7434351,29.8054256 60.7408345,29.8054256 C60.0516616,29.8093265 59.4957721,30.3710674 59.4990087,31.0608905 L59.5009734,31.3710182 C59.5042242,32.0588907 60.0627143,32.6134797 60.7492865,32.6134797 Z" id="Path" fill="#000000"></path>
                                        <path d="M63.1899988,27.6637883 C63.1880482,27.6637883 63.1860977,27.6637883 63.1834971,27.6637883 L62.8727192,27.6650887 C62.1835463,27.6689896 61.6276569,28.2300804 61.6302484,28.9192533 C61.6341586,29.6071257 62.1919984,30.162365 62.8785706,30.162365 L62.8844221,30.162365 L63.1952001,30.1604145 C63.8850231,30.1571637 64.4409125,29.5954229 64.4376759,28.90625 C64.4350609,28.2190277 63.876571,27.6637883 63.1899988,27.6637883 L63.1899988,27.6637883 Z" id="Path" fill="#000000"></path>
                                        <path d="M58.2962213,30.1721175 L58.3027229,30.1721175 L58.6128508,30.1708171 C59.3026738,30.1675664 59.8585632,29.6058255 59.8559717,28.9166526 C59.8520615,28.2294303 59.2942217,27.6741909 58.6076495,27.6741909 C58.6056989,27.6741909 58.6037484,27.6741909 58.601798,27.6741909 L58.29102,27.6754914 C57.601197,27.6787421 57.0453076,28.240483 57.0478991,28.9296559 C57.051159,29.6175283 57.6096491,30.1721175 58.2962213,30.1721175 L58.2962213,30.1721175 Z" id="Path" fill="#000000"></path>
                                        <path d="M7.81430996,6.48732701 L7.8208115,6.48732701 C8.50998435,6.48342611 9.06587382,5.92168522 9.06263723,5.23251237 L9.06067251,4.92173434 C9.05742174,4.23451202 8.49893162,3.67992296 7.81300955,3.67992296 C7.81040889,3.67992296 7.80845836,3.67992296 7.80585788,3.67992296 C7.11668486,3.68317374 6.56079556,4.24491463 6.56403215,4.93473777 L6.56599686,5.24551563 C6.56924764,5.93273795 7.12773776,6.48732701 7.81430996,6.48732701 Z" id="Path" fill="#000000"></path>
                                        <path d="M9.07107512,9.50408364 C9.06782435,8.81686132 8.50933423,8.26227227 7.82341215,8.26227227 C7.8208115,8.26227227 7.81886097,8.26227227 7.81626049,8.26227227 C7.12708747,8.26552304 6.57119817,8.82726393 6.57443476,9.51708707 L6.57639947,9.82786493 C6.57965025,10.5150873 7.13814036,11.0696763 7.82471256,11.0696763 L7.83121411,11.0696763 C8.52038696,11.0657754 9.07627643,10.5040345 9.07303984,9.81486167 L9.07107512,9.50408364 Z" id="Path" fill="#000000"></path>
                                        <path d="M9.95399665,8.61856163 L9.96114832,8.61856163 L10.2719264,8.6166111 C10.9610992,8.61336032 11.5169885,8.05161943 11.5137519,7.36179646 C11.5098368,6.67457397 10.9519968,6.11998492 10.2654246,6.11998492 C10.2634741,6.11998492 10.2608736,6.11998492 10.2589231,6.11998492 L9.94814506,6.12193545 C9.25832209,6.12518622 8.70243262,6.68692711 8.70631328,7.37675009 C8.70958446,8.06397257 9.26807457,8.61856163 9.95399665,8.61856163 Z" id="Path" fill="#000000"></path>
                                        <path d="M5.37164735,8.62896424 L5.3781489,8.62896424 L5.68892693,8.62766399 C6.3787499,8.62376293 6.9346392,8.06202204 6.93075871,7.37219907 C6.92748753,6.68497658 6.36899741,6.13038753 5.68307534,6.13038753 C5.68047468,6.13038753 5.67852432,6.13038753 5.6759235,6.13038753 L5.36514564,6.13233806 C4.67597278,6.13558883 4.12008332,6.69798001 4.12332007,7.38715269 C4.12723516,8.07437518 4.68507515,8.62896424 5.37164735,8.62896424 Z" id="Path" fill="#000000"></path>
                                        <path d="M56.0011458,33.6472391 C55.3119728,33.6504899 54.7560835,34.2122308 54.75932,34.9020537 L54.7612848,35.2128318 C54.7645355,35.9000541 55.3230257,36.4546433 56.0095979,36.4546433 L56.0160994,36.4546433 C56.7052723,36.4507422 57.2611617,35.8890013 57.2579251,35.1998285 L57.2566105,34.8890506 C57.2527096,34.1992275 56.6857674,33.6478892 56.0011458,33.6472391 L56.0011458,33.6472391 Z" id="Path" fill="#000000"></path>
                                        <path d="M56.0200005,41.0369926 L56.026502,41.0369926 C56.716325,41.0330915 57.2722144,40.4713507 57.268334,39.7821778 L57.2670131,39.4713999 C57.2631122,38.7841774 56.7052723,38.2295884 56.0187001,38.2295884 C56.0160994,38.2295884 56.0141489,38.2295884 56.0121985,38.2295884 C55.3223754,38.2328392 54.7664861,38.7945801 54.7703666,39.484403 L54.7716874,39.7951811 C54.7749381,40.4824034 55.3334283,41.0369926 56.0200005,41.0369926 Z" id="Path" fill="#000000"></path>
                                        <path d="M58.1492846,38.5858778 L58.1564362,38.5858778 L58.4672143,38.5839272 C59.1563871,38.5806765 59.7122764,38.0189356 59.7090398,37.3291126 C59.7051247,36.6418903 59.1472847,36.087301 58.4607125,36.087301 C58.458762,36.087301 58.4561615,36.087301 58.454211,36.087301 L58.143433,36.0892516 C57.45361,36.0925023 56.8977205,36.6542432 56.9016012,37.3440664 C56.9048724,38.0312887 57.4633625,38.5858778 58.1492846,38.5858778 Z" id="Path" fill="#000000"></path>
                                        <path d="M53.8718617,36.0977014 L53.5610837,36.0996542 C52.8712607,36.102905 52.3153712,36.665296 52.3192519,37.354469 C52.3225231,38.0416913 52.8810132,38.5962804 53.5675854,38.5962804 L53.5740869,38.5962804 L53.8848649,38.5943298 C54.5740378,38.5910791 55.1299271,38.0293382 55.1266905,37.3395152 C55.1234256,36.6503423 54.5688365,36.0964034 53.8718617,36.0977014 Z" id="Path" fill="#000000"></path>
                                        <path d="M56.0518584,14.3503992 C56.2098481,14.8971863 56.7085232,15.2521755 57.2507591,15.2521755 C57.3651878,15.2521755 57.481567,15.2365715 57.597296,15.2027631 L58.8722659,14.8347707 C59.5347819,14.6436228 59.9164277,13.951199 59.7252798,13.2893331 C59.5341318,12.6268169 58.8417082,12.244521 58.1798421,12.4363192 L56.9048724,12.8043115 C56.2423561,12.9954594 55.8600603,13.687883 56.0518584,14.3503992 Z" id="Path" fill="#000000"></path>
                                        <path d="M55.8177997,12.3615504 C56.1454819,12.3615504 56.472514,12.2334683 56.7176254,11.9786044 L57.6376062,11.0222144 C58.1154759,10.5254899 58.1005223,9.73554186 57.6037977,9.25702184 C57.1064228,8.77915195 56.3164748,8.79475586 55.8386049,9.29148045 L54.9186241,10.2478702 C54.4401041,10.7445949 54.455708,11.5345429 54.9524326,12.013063 C55.1942933,12.2458214 55.5063716,12.3615504 55.8177997,12.3615504 Z" id="Path" fill="#000000"></path>
                                        <path d="M59.16809,16.3197431 L57.8794668,16.0011633 C57.2110992,15.8353717 56.5336292,16.2443242 56.3678376,16.9133421 C56.2026962,17.58301 56.6109987,18.2591796 57.2800164,18.4249712 L58.5686397,18.743551 C58.6687647,18.7682573 58.7701902,18.7806105 58.8690149,18.7806105 C59.4294556,18.7806105 59.9391834,18.4002649 60.0802688,17.8313722 C60.2454103,17.1623545 59.8371077,16.4855348 59.16809,16.3197431 Z" id="Path" fill="#000000"></path>
                                        <path d="M3.61685719,26.1020967 C3.63831253,26.1020967 3.66041816,26.1020967 3.68252362,26.1001462 L5.00820615,26.031229 C5.69672872,25.9948199 6.22596154,25.4077226 6.18955241,24.7191998 C6.1537934,24.0306771 5.5666961,23.4955929 4.87752342,23.5378536 L3.552491,23.6074211 C2.86396827,23.6431799 2.33473562,24.2302772 2.37114475,24.9194501 C2.40560335,25.5858672 2.95694163,26.1020967 3.61685719,26.1020967 Z" id="Path" fill="#000000"></path>
                                        <path d="M3.6019034,22.0938415 L4.78389994,22.6965425 C4.9659456,22.7888657 5.15904399,22.8330768 5.34954172,22.8330768 C5.80400575,22.8330768 6.24221557,22.5834142 6.46327102,22.1510558 C6.77599958,21.5366516 6.53153826,20.7850631 5.91778433,20.4716846 L4.73513767,19.8689834 C4.12073344,19.556255 3.3691451,19.8000662 3.05576642,20.4144702 C2.74303803,21.0288743 2.98749934,21.7811129 3.6019034,22.0938415 Z" id="Path" fill="#000000"></path>
                                        <path d="M6.3624957,28.9719164 C6.94114091,28.5967724 7.10563213,27.8237285 6.72983796,27.2450833 C6.35469391,26.6670884 5.58099978,26.5025972 5.00300485,26.8783913 L3.88992568,27.6007226 C3.31193075,27.9758666 3.14743937,28.7495607 3.52258342,29.3275557 C3.76184343,29.6955479 4.16234388,29.8964484 4.57064645,29.8964484 C4.80340475,29.8964484 5.03941398,29.8307818 5.24941653,29.6948978 L6.3624957,28.9719164 Z" id="Path" fill="#000000"></path>
                                    </g>
                                </g>
                            </g>
                        </g>
                    </g>
                </g>
            </g>
        </g>
    </g>
</svg>