<?xml version="1.0" encoding="UTF-8"?>
<svg width="26px" height="26px" viewBox="0 0 26 26" version="1.1" xmlns="http://www.w3.org/2000/svg" xmlns:xlink="http://www.w3.org/1999/xlink">
    <!-- Generator: Sketch 61.2 (89653) - https://sketch.com -->
    <title>Combined Shape</title>
    <desc>Created with Sketch.</desc>
    <g id="Page-1" stroke="none" stroke-width="1" fill="none" fill-rule="evenodd">
        <g id="Contact-Us-HD" transform="translate(-1230.000000, -907.000000)" fill="#1B3C3E" fill-rule="nonzero">
            <g id="Group-3" transform="translate(0.000000, 335.000000)">
                <g id="Group-26" transform="translate(133.000000, 306.000000)">
                    <g id="Group-25" transform="translate(1047.000000, 0.000000)">
                        <g id="Group-24" transform="translate(0.000000, 45.000000)">
                            <g id="Group-2-Copy" transform="translate(50.000000, 221.000000)">
                                <path d="M17.03411,-9.23705556e-14 C17.4996696,0.126445598 17.9259531,0.371969059 18.2750732,0.722233298 L18.2750732,0.722233298 L25.1807084,7.65463735 C26.2730972,8.75103012 26.2730972,10.535008 25.1807084,11.6315999 L25.1807084,11.6315999 L13.3800524,23.4776595 C12.8526034,24.0071379 12.1490074,24.2988589 11.3991926,24.2988589 C10.6493779,24.2988589 9.94598024,24.0071379 9.41833282,23.4776595 L9.41833282,23.4776595 L8.81173668,22.8687294 L5.9154284,25.7759822 C5.76665566,25.9253274 5.57186249,26 5.37687097,26 C5.1818795,26 4.98688798,25.9253274 4.83831359,25.7759822 C4.54076806,25.477491 4.54076806,24.9932144 4.83831359,24.6947232 L4.83831359,24.6947232 L7.73442347,21.7872712 L6.50417184,20.552087 L1.30029881,25.7759822 C1.15152602,25.9253274 0.956732903,26 0.761741383,26 C0.566749863,26 0.371956745,25.9253274 0.223183952,25.7759822 C-0.0743615837,25.477491 -0.0743615837,24.9932144 0.222985601,24.6947232 L0.222985601,24.6947232 L5.42685867,19.4708279 L4.19660704,18.2358429 L1.30029881,21.1432948 C1.15152602,21.2924408 0.956732903,21.3671134 0.761741383,21.3671134 C0.566749863,21.3671134 0.371956745,21.2924408 0.223183952,21.1432948 C-0.0743615837,20.8446044 -0.0743615837,20.3605269 0.222985601,20.0618366 L0.222985601,20.0618366 L3.11929383,17.1543846 L2.51269769,16.5454545 C2.15623815,16.1876235 1.91681316,15.7563146 1.79303422,15.2999158 L1.79303422,15.2999158 L13.9961701,12.8498583 C14.2976829,12.7893238 14.5333389,12.5525619 14.5936415,12.249889 L14.5936415,12.249889 Z M15.4763599,0.0217048199 L13.1993431,11.4501953 L1.81525095,13.7357739 C1.94438568,13.3084476 2.17666957,12.905813 2.51269769,12.568492 L2.51269769,12.568492 L14.313552,0.722432412 C14.6430341,0.391682635 15.04115,0.153725971 15.4763599,0.0217048199 L15.4763599,0.0217048199 Z" id="Combined-Shape"></path>
                            </g>
                        </g>
                    </g>
                </g>
            </g>
        </g>
    </g>
</svg>