<?xml version="1.0" encoding="UTF-8"?>
<svg width="109px" height="109px" viewBox="0 0 109 109" version="1.1" xmlns="http://www.w3.org/2000/svg" xmlns:xlink="http://www.w3.org/1999/xlink">
    <!-- Generator: Sketch 61.2 (89653) - https://sketch.com -->
    <title>001-plant</title>
    <desc>Created with Sketch.</desc>
    <g id="Page-1" stroke="none" stroke-width="1" fill="none" fill-rule="evenodd">
        <g id="Learning-HD" transform="translate(-145.000000, -2037.000000)" fill-rule="nonzero">
            <g id="Group-3" transform="translate(140.000000, 1921.000000)">
                <g id="Group-47" transform="translate(0.000000, 106.000000)">
                    <g id="Group-46" transform="translate(0.000000, 10.000000)">
                        <g id="Group-10">
                            <g id="001-plant" transform="translate(5.000000, 0.000000)">
                                <g id="Group" transform="translate(1.690574, 1.690574)">
                                    <g transform="translate(49.237961, 0.000000)" id="Path">
                                        <path d="M15.7409324,10.4063268 C9.46552254,7.70140881 0.0703701332,8.78337602 0.0703701332,8.78337602 C0.0703701332,8.78337602 2.90144723,17.9980597 6.65240779,22.3982006 C8.50083888,24.4129419 11.2989498,25.2628778 13.9556865,24.6162334 L15.7409324,10.4063268 Z" fill="#66C0B7"></path>
                                        <path d="M55.4649782,0.706871158 C55.4649782,0.706871158 49.6223553,21.8772925 41.904252,32.0477843 C38.53198,36.3435323 33.0350794,38.3846888 27.6763832,37.3314613 C23.9621926,36.7370133 20.5366675,34.9674052 17.9025423,32.2823514 C11.3205046,25.5200564 10.815657,13.7807121 18.1189357,7.59553663 C24.7189357,2.02340548 35.2501537,0.490689037 43.4369685,0.23815958 L43.5451652,0.23815958 C47.5245645,0.100589139 51.508613,0.257178535 55.4649782,0.706871158 Z" fill="#53DCCE"></path>
                                    </g>
                                    <path d="M99.2931032,0.706871158 C99.2931032,0.706871158 93.4504803,21.8772925 85.732377,32.0477843 C83.5834465,34.8790727 80.4246094,36.7718814 76.9143443,37.3314613 C73.2001537,36.7370133 69.7746286,34.9674052 67.1405033,32.2823514 C60.5584657,25.5200564 60.0536181,13.7807121 67.3568968,7.59553663 C73.9568968,2.02340548 84.4881148,0.490689037 92.6749296,0.23815958 L92.7831263,0.23815958 C96.7143443,0.364318648 99.2931032,0.706871158 99.2931032,0.706871158 Z" id="Path" fill="#66C0B7"></path>
                                    <path d="M88.4734311,74.893686 C87.6598425,77.3693199 86.2036245,79.5846055 84.253759,81.3134285 C82.3131916,83.0561988 79.9510374,84.2620005 77.4012295,84.8118596 L56.4110656,89.3199859 C54.5600986,89.7130443 52.6516522,89.7559426 50.7848361,89.446145 L50.5323066,89.410009 C50.6946017,89.373873 50.8389344,89.3559106 51.0010182,89.3197746 L71.9911821,84.8116483 C74.54099,84.2620005 76.9029329,83.0559874 78.8437116,81.3132172 C80.7935771,79.5843942 82.2497951,77.3691086 83.0633837,74.8934746 C83.0557761,71.7574603 80.741592,69.1049501 77.6355853,68.6721632 C77.6501665,68.64448 77.6565061,68.6132044 77.6535476,68.5819288 C77.6541816,66.6686219 76.8942687,64.8337154 75.541387,63.4808338 C74.1885054,62.1279521 72.3535989,61.3682505 70.440292,61.3686732 C69.9369237,61.3682505 69.4350346,61.4225602 68.9435003,61.5309682 C67.0783747,57.8527024 63.6285476,55.2337923 59.5844839,54.4261206 C60.4868276,54.2441726 61.4050205,54.1537269 62.3255379,54.1555995 C67.4033876,54.1543609 72.0518315,57.0046683 74.3533363,61.5309682 C74.8448706,61.4225602 75.3467597,61.3682505 75.8501281,61.3686732 C77.7634349,61.3680392 79.5983414,62.1279521 80.9512231,63.4808338 C82.3041048,64.8337154 83.0638064,66.6686219 83.0633837,68.5819288 C83.0661309,68.6129931 83.0600026,68.64448 83.0454214,68.6721632 C86.1516393,69.1051614 88.4658235,71.7576716 88.4734311,74.893686 Z" id="Path" fill="#CCA422"></path>
                                    <path d="M83.063595,74.893686 C82.2500064,77.3693199 80.7937884,79.5846055 78.8439229,81.3134285 C76.9033555,83.0561988 74.5412013,84.2620005 71.9913934,84.8118596 L51.0012295,89.3199859 C50.8389344,89.3561219 50.6946017,89.3740843 50.5325179,89.4102203 L37.1702228,87.1742252 C31.3544378,86.1835489 26.6567559,81.8808274 25.1603868,76.1742956 L21.7521887,63.1727267 C21.7500768,59.2554559 24.2793865,55.7857646 28.0096376,54.5890497 C28.6241611,54.3904073 29.2593942,54.2634029 29.9030802,54.2103612 C30.1902664,54.1744365 30.4793545,54.1562628 30.7686539,54.1562628 C32.1063204,54.1638704 33.4251793,54.4719775 34.6275999,55.0579726 C36.1005123,53.0098425 38.2443712,51.5424244 40.6866163,50.9103612 C41.5682505,50.6707223 42.4779905,50.5494237 43.3915343,50.549635 C43.8378458,50.5521709 44.2835233,50.5821785 44.726031,50.6398694 C46.3046043,50.8309042 47.820415,51.3731557 49.1620966,52.2266842 C49.6172836,51.0724449 50.4498911,50.106282 51.5244621,49.4856301 C52.3365715,49.0004355 53.2653304,48.7447362 54.2114178,48.746209 C55.6467149,48.7443135 57.0238986,49.3136142 58.0388768,50.3285925 C59.053855,51.3435707 59.6231557,52.7207544 59.6212538,54.1560515 C59.618084,54.2471311 59.6060387,54.3377882 59.5851178,54.4265433 C63.6291816,55.2344262 67.0790087,57.8533363 68.9441342,61.5313909 C69.4356685,61.4229828 69.9375576,61.3686732 70.440926,61.3690958 C72.3542328,61.3684618 74.1891393,62.1283747 75.542021,63.4812564 C76.8949027,64.8341381 77.6546043,66.6690446 77.6541816,68.5823514 C77.6569288,68.6134157 77.6508005,68.6449027 77.6362193,68.6725858 C80.7418033,69.1051614 83.0559874,71.7576716 83.063595,74.893686 Z" id="Path" fill="#FBD24C"></path>
                                    <path d="M16.342155,65.8774334 L16.342155,98.3364498 C16.3254483,101.815228 13.509375,104.631301 10.0305968,104.647996 L6.42418033,104.647996 C2.94011911,104.644192 0.116438268,101.820722 0.112634477,98.3364498 L0.112634477,65.8774334 C0.116438268,62.3933722 2.93990779,59.5696913 6.42418033,59.5658876 L10.0308081,59.5658876 C12.5605405,59.5690574 14.844717,61.0800077 15.8372951,63.4068712 C16.1720287,64.1874936 16.3438332,65.0281314 16.342155,65.8774334 Z" id="Path" fill="#4CA299"></path>
                                    <path d="M10.9323066,65.8774334 L10.9323066,98.3364498 C10.9637935,99.910374 10.5333312,101.458728 9.69396132,102.790478 C9.08493212,103.874769 7.96619493,104.574667 6.72467982,104.647784 L4.32026127,104.647784 C2.00016009,104.647784 0.112634477,101.816707 0.112634477,98.3362385 L0.112634477,65.8772221 C0.112634477,62.3969647 2.00016009,59.5656762 4.32026127,59.5656762 L6.72467982,59.5656762 C8.45582736,59.5656762 9.95853612,61.152491 10.5956711,63.4066598 C10.822208,64.210739 10.9354764,65.04229 10.9323066,65.8774334 Z" id="Path" fill="#66C0B7"></path>
                                    <path d="M102.322611,80.4298924 L68.5290984,101.005232 C66.9245325,101.986821 65.1177318,102.591201 63.2454214,102.772515 C62.8206647,102.824078 62.3929495,102.848169 61.9650231,102.844926 L14.5389344,102.844926 L14.4848361,102.790478 C15.6762679,101.614895 16.3455238,100.010118 16.3421427,98.3364498 L16.3421427,65.8774334 C16.3457351,65.5813717 16.3216445,65.2855213 16.270082,64.9938973 L16.270082,64.9759349 C16.2028817,64.43474 16.0570697,63.9062244 15.8372951,63.4070825 L16.3241803,63.1727267 L21.3914639,63.1727267 C25.126998,63.1780097 28.7503202,64.4493212 31.6701524,66.7793545 C34.5899846,69.1093878 38.2133069,70.3806993 41.9488409,70.3859823 L51.379918,70.3859823 C54.5505891,70.3813332 57.4896516,72.0461258 59.1159836,74.7679495 L59.2782787,75.0384413 C60.8156442,77.6081135 60.4067367,80.8943776 58.2865459,83.0088627 L62.5241803,83.0088627 C63.3031122,83.0092853 64.0769723,82.8812244 64.8142738,82.6301742 L92.8372246,73.2891201 L98.1929623,71.5038742 C100.213198,70.8405353 102.431653,71.5366291 103.710995,73.2350218 L103.710995,73.2529841 C104.549097,74.3660156 104.876434,75.7820825 104.611648,77.1501793 C104.347074,78.5178535 103.515311,79.709708 102.322611,80.4298924 Z" id="Path" fill="#FFDDCF"></path>
                                </g>
                                <g id="Group" fill="#1B3C3E">
                                    <path d="M67.887103,7.91188525 C80.4448963,-2.6939293 105.564921,0.4592021 106.627658,0.600153689 C107.145184,0.667776639 107.607768,0.956230789 107.896222,1.39113089 C108.184676,1.82603099 108.270473,2.36447874 108.131634,2.86742444 C107.890305,3.74610015 102.114248,24.4987385 94.2636463,34.825397 C91.423271,38.5440254 87.0823002,40.8146773 82.4076524,41.0268443 C82.0422772,41.049667 81.675,41.0602331 81.3096247,41.0602331 C76.1223105,41.0304367 71.1619557,38.9294762 67.5314485,35.2241611 C67.3013192,34.9876921 67.097605,34.7258645 66.880155,34.4769275 C62.8115779,38.5239498 59.8012999,43.5100858 58.1151639,48.9953637 C60.4768955,49.7584465 62.282217,51.6793609 62.8973745,54.0837795 C68.5738986,53.6740266 74.0107838,56.4412846 77.0197938,61.2723105 C81.6695056,61.0060451 85.757947,64.3221055 86.4569992,68.9265945 C88.8675461,69.7539191 90.7548604,71.6575051 91.5612641,74.0750256 L91.5612641,74.0750256 L99.3114882,71.4914062 C102.569013,70.4081711 106.120697,71.9421555 107.565503,75.0561924 C109.01031,78.1700179 107.88798,81.8723745 104.957371,83.6601562 L104.957371,83.6601562 L71.1564613,104.235073 C68.8963755,105.610989 66.3013448,106.338781 63.6553855,106.338569 L63.6553855,106.338569 L16.7588691,106.338569 C15.3349834,107.497458 13.557345,108.133959 11.7213819,108.141778 L11.7213819,108.141778 L8.1147541,108.141778 C3.63515625,108.136917 0.0048603996,104.506621 5.20792881e-12,100.027024 L5.20792881e-12,100.027024 L5.20792881e-12,67.5680072 C0.0048603996,63.0884093 3.63515625,59.4581135 8.1147541,59.4532531 L8.1147541,59.4532531 L11.7213819,59.4532531 C14.4294698,59.4547323 16.9583568,60.807614 18.4623335,63.0598809 L18.4623335,63.0598809 L21.8024846,63.0598809 C22.6847528,57.8600986 27.1850602,54.0522925 32.4592277,54.043417 C33.5775423,54.0444736 34.6882492,54.2243084 35.7497182,54.5761591 C39.3891009,50.5538614 45.1970671,49.3176294 50.1591124,51.5094582 C51.2148758,50.1206519 52.7344903,49.1576588 54.4411245,48.7960873 C56.2658876,42.2079214 59.8137679,36.2254034 64.7193904,31.4645364 C64.2128522,30.5955815 63.7711898,29.6904905 63.398207,28.7564485 C63.1363794,28.7761014 62.8743404,28.7959657 62.6156826,28.7959657 C59.9745838,28.8521773 57.4427382,27.7414703 55.6957415,25.7599065 C51.7537462,21.1355533 48.8886463,11.9016393 48.7679816,11.5106942 C48.6107582,10.998239 48.6895812,10.4426742 48.9828957,9.99424949 C49.2762103,9.5458248 49.7535861,9.25081967 50.2859055,9.18953637 C55.3853099,8.64073386 60.5424052,9.05851691 65.4869109,10.4211194 C66.1954726,9.50165856 66.9999744,8.6605981 67.887103,7.91188525 Z M11.7213819,63.0598809 L8.1147541,63.0598809 C5.62622951,63.0626281 3.60958632,65.0794826 3.60662782,67.5680072 L3.60662782,67.5680072 L3.60662782,100.027024 C3.609375,102.515548 5.62622951,104.532191 8.1147541,104.53515 L8.1147541,104.53515 L11.7213819,104.53515 C14.2099065,104.532191 16.2265497,102.515548 16.2295082,100.027024 L16.2295082,100.027024 L16.2295082,67.5680072 C16.226761,65.0794826 14.2099065,63.0628394 11.7213819,63.0598809 L11.7213819,63.0598809 Z M23.0790791,66.6662974 L19.7450564,66.6662974 C19.7926037,66.964895 19.8230341,67.2660284 19.836136,67.5680072 L19.836136,67.5680072 L19.836136,100.027024 C19.8270492,100.950711 19.6584144,101.865734 19.3376281,102.731942 L19.3376281,102.731942 L63.6553855,102.731942 C65.6396965,102.732364 67.5859695,102.186732 69.280981,101.155059 L69.280981,101.155059 L103.082736,80.5792969 C103.841803,80.122842 104.369474,79.3637743 104.533037,78.4933402 C104.705053,77.6241739 104.497535,76.7226755 103.962257,76.0164383 C103.15374,74.9289767 101.738096,74.4839331 100.452626,74.9131276 L100.452626,74.9131276 L91.2677382,77.9747567 C90.9577293,78.2346824 90.5682633,78.3804944 90.1637935,78.3876793 C90.1342085,78.3876793 90.1094839,78.3722528 90.0801101,78.3707736 L90.0801101,78.3707736 L67.0726691,86.0398502 C66.1532082,86.3460553 65.1906378,86.5022221 64.2215164,86.5022221 L64.2215164,86.5022221 L48.1927638,86.5022221 C45.344147,86.4992636 42.5591381,87.3426486 40.1906442,88.9252369 L40.1906442,88.9252369 L38.8690382,89.8058145 C38.332915,90.166752 37.6448514,90.2132428 37.065196,89.9275359 C36.4855405,89.6420402 36.1030482,89.0680904 36.0626857,88.4231365 C36.0221119,87.778394 36.3300077,87.1611232 36.8693007,86.8052574 L36.8693007,86.8052574 L38.1909068,85.9246798 C41.1508901,83.9464972 44.6322041,82.8922131 48.1925525,82.8958056 L48.1925525,82.8958056 L59.1529649,82.8958056 C60.2989626,81.3633005 60.4046235,79.2898117 59.4200756,77.6488986 L59.4200756,77.6488986 L59.2598937,77.3839011 C57.9518122,75.2155289 55.6067751,73.8869493 53.0742956,73.879553 L53.0742956,73.879553 L43.6423732,73.879553 C39.4966637,73.87427 35.475,72.4634862 32.2345927,69.8775423 C29.633645,67.8025743 26.4063397,66.6705238 23.0790791,66.6662974 L23.0790791,66.6662974 Z M56.033645,52.2530994 C55.9888448,52.2564805 55.948271,52.2759221 55.9030482,52.2759221 C55.8550781,52.2759221 55.8062628,52.265356 55.7580815,52.2615523 C54.3198258,52.3105789 53.0523181,53.2196849 52.5447234,54.5662269 C52.351998,55.0719198 51.9422451,55.4643443 51.428522,55.6350922 C50.9147989,55.8058402 50.3516265,55.736738 49.8945377,55.4468046 C45.8713947,52.8866419 40.5484119,53.9185259 37.7735464,57.7969134 C37.2634157,58.502094 36.3228227,58.7432121 35.5362833,58.3700179 C34.5775166,57.9025743 33.5257684,57.6563845 32.4590164,57.6498335 C29.1097784,57.6576524 26.206218,59.969512 25.4484183,63.2321081 C28.75349,63.6625704 31.8785156,64.9867123 34.4868596,67.0616803 C37.0878074,69.1366483 40.3151127,70.2686988 43.6423732,70.2729252 L43.6423732,70.2729252 L53.0742956,70.2729252 C56.8721696,70.28328 60.389197,72.2751985 62.3513192,75.5268058 L62.3513192,75.5268058 L62.511501,75.7918033 C63.7946465,77.937564 64.0421043,80.547176 63.185406,82.8958059 L63.185406,82.8958059 L64.2215164,82.8958059 C64.8030738,82.8958059 65.380616,82.8024014 65.932377,82.6185515 L65.932377,82.6185515 L88.1281314,75.2193327 C87.5970799,73.587929 86.188198,72.3979764 84.4908619,72.1473489 C83.6024654,72.0205558 82.9422964,71.260009 82.942085,70.3625256 C82.942085,70.3141329 82.9454662,70.2532723 82.9499039,70.1934682 C82.9163038,68.5806609 82.1682249,67.0661181 80.9076908,66.0593814 C79.6473681,65.0526447 78.0047643,64.6578957 76.4245005,64.9816406 C75.6276063,65.1519659 74.8159196,64.7658811 74.4450499,64.0404137 C72.4514408,60.1144787 68.4194224,57.6434939 64.016323,57.6496222 C63.2200628,57.6496222 62.4259157,57.7297131 61.6459273,57.8890497 C61.0975474,58.0018955 60.527824,57.8535476 60.104124,57.4875384 C59.6804239,57.1215292 59.4507172,56.579489 59.4824155,56.020543 C59.4857966,55.9704598 59.5043929,55.7995005 59.5113665,55.7494173 C59.4638192,53.8456199 57.937231,52.3107902 56.033645,52.2530994 Z M60.3158683,62.3031378 C62.1207672,61.109804 64.4112833,60.9240523 66.3850282,61.8109695 C68.3587731,62.6978868 69.7408171,64.5338499 70.0472336,66.6758069 C70.1873399,67.661834 69.5020236,68.5749552 68.5159964,68.7159068 C68.4306224,68.7273181 68.3448258,68.7332351 68.2588179,68.7334465 C67.3619685,68.7321785 66.6022669,68.0724321 66.4756852,67.1846696 C66.3945377,66.6050141 66.1257364,66.0678343 65.7104892,65.6553343 C64.8007492,64.7496094 63.3806673,64.6050653 62.3073642,65.3094006 C61.7703957,65.6665343 61.0836002,65.7098553 60.5060579,65.4224577 C59.9287269,65.1352715 59.5485592,64.561533 59.5092533,63.9178471 C59.4701588,63.2741611 59.7776319,62.6583696 60.3158683,62.3031378 Z M45.9838179,57.6500178 C47.3506468,57.6460297 48.6811283,58.0898053 49.7717597,58.9135374 C50.5635822,59.5130571 50.7214395,60.6400359 50.1248783,61.4339716 C49.5283171,62.2279073 48.4019723,62.389991 47.6057121,61.796177 C47.1384798,61.444115 46.5689677,61.2545594 45.9838179,61.2564613 C44.6996158,61.2589972 43.5929239,62.1615523 43.3325756,63.4191278 C43.1339331,64.3950115 42.1819288,65.0251729 41.2060451,64.8269531 C40.2301614,64.6283107 39.6,63.6765177 39.7982198,62.700634 C40.4042905,59.7649526 42.9862193,57.6568071 45.9838179,57.6500178 Z M97.0239306,3.68967725 C88.8474705,3.68967725 77.1174244,4.83884477 70.2133325,10.6677318 C67.3539383,13.1433658 65.6639985,16.7047707 65.5547451,20.485105 C65.4287974,23.4030353 66.0678343,26.3032147 67.4088819,28.8978227 C71.3346055,25.3911501 75.6840292,22.3897477 80.3552959,19.9637743 C81.2498207,19.5259157 82.3300973,19.8961514 82.7679559,20.7906762 C83.2058145,21.6852011 82.8355789,22.7654777 81.941054,23.2033363 C77.4356749,25.5948642 73.2455879,28.5377305 69.4673668,31.9641009 C69.6812244,32.2151511 69.8870517,32.4735976 70.1165471,32.7094326 C73.2736936,35.9466701 77.6727779,37.6657723 82.1883005,37.4271901 C85.8126793,37.271446 89.1826268,35.5200115 91.393052,32.6435003 C97.4385438,24.6897733 102.384317,9.4826396 104.051223,3.96883325 C102.419608,3.83675717 99.9490459,3.68967725 97.0239306,3.68967725 Z M63.5731814,13.6076396 C60.102856,12.7420658 56.5215868,12.4071209 52.951095,12.6146388 C54.2156442,16.4795018 56.069147,20.1260694 58.4463051,23.4254355 C59.442053,24.5325499 60.8576972,25.1696849 62.3466701,25.180885 C62.0153176,23.5790663 61.8830302,21.9425909 61.9525551,20.3084401 C62.0577933,17.9915087 62.6080751,15.7166304 63.5731814,13.6076396 Z" id="Combined-Shape"></path>
                                </g>
                            </g>
                        </g>
                    </g>
                </g>
            </g>
        </g>
    </g>
</svg>