<?xml version="1.0" encoding="UTF-8"?>
<svg width="127px" height="141px" viewBox="0 0 127 141" version="1.1" xmlns="http://www.w3.org/2000/svg" xmlns:xlink="http://www.w3.org/1999/xlink">
    <!-- Generator: Sketch 61.2 (89653) - https://sketch.com -->
    <title>002-female</title>
    <desc>Created with Sketch.</desc>
    <defs>
        <linearGradient x1="100%" y1="26.6877657%" x2="8.96724057%" y2="80.0028369%" id="linearGradient-1">
            <stop stop-color="#66C0B7" stop-opacity="0" offset="0%"></stop>
            <stop stop-color="#66C0B7" stop-opacity="0.166165865" offset="100%"></stop>
        </linearGradient>
    </defs>
    <g id="Page-1" stroke="none" stroke-width="1" fill="none" fill-rule="evenodd">
        <g id="Life-@-Darwin-HD" transform="translate(-510.000000, -5374.000000)">
            <g id="Group-17" transform="translate(0.000000, 5055.000000)">
                <g id="Group-15" transform="translate(140.000000, 80.000000)">
                    <g id="Group-47" transform="translate(35.000000, 239.000000)">
                        <g id="Group-45" transform="translate(335.000000, 0.000000)">
                            <g id="Group-11">
                                <g id="002-female">
                                    <circle id="Oval" fill="url(#linearGradient-1)" cx="63.5" cy="77.5" r="63.5"></circle>
                                    <g id="Group" transform="translate(7.343750, 2.343750)" fill-rule="nonzero">
                                        <path d="M36.1138917,75.1730346 C35.0839233,76.1425781 34.4989012,77.5836183 34.5721434,78.8323973 L34.6051027,82.0596314 C34.6051027,84.5443725 35.7220458,86.3635254 37.5302123,86.9476317 C38.6865234,87.3266602 40.1284791,87.1939087 41.7306518,86.4038086 L45.9384155,84.1387941 L45.9384155,77.0324707 L41.5447997,74.901123 C39.2980957,73.5058594 37.369995,73.9910887 36.1138917,75.1730346 L36.1138917,75.1730346 Z" id="Path" fill="#E8755D"></path>
                                        <polygon id="Path" fill="#E8755D" points="45.9375 77.0324707 45.9375 84.1387941 53.7139894 84.1387941 53.7139894 77.0324707"></polygon>
                                        <path d="M58.1076049,74.901123 L53.7139894,77.0324707 L53.7139894,84.1387941 L57.9217528,86.4038086 C59.6099855,87.2332763 61.1123658,87.3394777 62.3016356,86.8881225 C64.003601,86.2435912 65.0473022,84.4638061 65.0473022,82.0596314 L65.0802612,78.8323973 C65.1470948,77.6568605 64.635315,76.3146973 63.7179565,75.352478 C62.4682617,74.0441895 60.4669191,73.4399414 58.1076049,74.901123 L58.1076049,74.901123 Z" id="Path" fill="#E8755D"></path>
                                        <path d="M53.7139894,84.1387941 L45.9384155,84.1387941 L41.7306518,86.4038086 C40.1284791,87.1939088 38.6865234,87.3266602 37.5302123,86.9476317 L43.5452271,115.279541 L49.8660279,115.273132 L56.2738036,115.279541 L62.3025513,86.8881225 C61.1123658,87.3394777 59.6099855,87.2332763 57.9217528,86.4038086 L53.7139894,84.1387941 Z" id="Path" fill="#F9F9F9"></path>
                                        <path d="M65.0463867,82.0596314 C65.0463867,84.4638061 64.003601,86.2445067 62.3016356,86.8881225 L56.2728881,115.279541 L77.980957,115.293274 L81.6769409,115.28595 L81.6769409,79.1711426 C78.1137084,76.7605591 73.8537598,74.1833496 68.7222291,71.1355591 C67.2866822,72.8421021 65.592041,74.2364503 63.7179565,75.352478 C64.635315,76.3146973 65.1470948,77.6568605 65.0802612,78.8323973 L65.0463867,82.0596314 Z" id="Path" fill="#66C0B7"></path>
                                        <path d="M81.6769409,79.1711426 L81.6769409,115.28595 L89.2666627,115.279541 C96.0928345,115.279541 100.673218,113.167419 99.3704224,105.782776 C97.0303345,92.4865723 92.7703856,86.6619872 81.6769409,79.1711426 Z" id="Path" fill="#F9F9F9"></path>
                                        <path d="M18.1549073,79.1711426 C7.16766352,86.6958619 3.10638422,92.5534057 0.368041875,105.782776 C-1.35314953,114.064636 3.47900391,115.279541 10.67688,115.279541 L18.1549073,115.28595 L18.1549073,79.1711426 Z" id="Path" fill="#F9F9F9"></path>
                                        <path d="M18.1549073,79.1711426 L18.1549073,115.28595 L21.9104004,115.28595 L43.5452271,115.279541 L37.5302123,86.9485474 C35.7220458,86.3635254 34.6051027,84.5443725 34.6051027,82.0605469 L34.5721434,78.8323973 C34.4989013,77.5836183 35.0839233,76.1425781 36.1138917,75.1739503 C34.1400145,74.0570067 32.3986816,72.702942 31.0162355,71.1355591 C25.8984375,74.1769409 21.6705323,76.7605591 18.1549073,79.1711426 Z" id="Path" fill="#66C0B7"></path>
                                        <path d="M58.626709,18.477173 C51.3949584,30.3515625 39.7769166,30.9558105 27.5802612,30.975952 L27.5802612,41.4157104 C27.5802612,49.152832 31.0757447,56.1126708 36.1138917,60.741577 C37.5970458,62.1029662 39.204712,63.2583619 40.9066772,64.1748047 C43.7310792,65.7092285 46.7889403,66.5725709 49.8596191,66.5995535 C54.3585206,66.6320801 58.8720703,64.7790527 62.6477051,61.6378784 C63.0065918,61.3394166 63.3654785,61.020813 63.7179565,60.6948853 C68.6892701,56.0595703 72.1325684,49.1125488 72.1325684,41.4157104 L72.1325684,30.5236816 C65.5517578,29.3417358 62.7474975,27.4822997 58.626709,18.477173 Z" id="Path" fill="#FFDDCF"></path>
                                        <path d="M72.1325684,41.4157104 C72.1325684,49.1125488 68.6892701,56.0595703 63.7179565,60.6948853 L63.7179565,75.352478 C65.592041,74.2364503 67.2866822,72.8421021 68.7222291,71.1355591 C73.8537598,74.1833496 78.1137084,76.7605591 81.6769409,79.1711426 C92.0855714,79.3835449 95.7009888,72.5765991 95.7009888,68.385315 C82.0623778,69.6670533 85.610962,49.2984009 84.1232299,31.4273072 C80.6533814,-10.2264403 18.6071777,-10.5587768 15.8084107,31.088562 C14.6054077,48.9862059 17.7026367,69.6679688 4.06402594,68.3862305 C4.06402594,72.5830078 7.69317633,79.4100952 18.1549073,79.1711426 C21.6714478,76.7605591 25.8984375,74.1769409 31.0162355,71.1355591 C32.3986816,72.702942 34.1400145,74.0570067 36.1138917,75.1730346 L36.1138917,60.741577 C31.0757447,56.1126708 27.5802612,49.152832 27.5802612,41.4157104 L27.5802612,30.975952 C39.7769166,30.9558105 51.3949584,30.3515625 58.626709,18.477173 C62.7474975,27.4822997 65.5517578,29.3417358 72.1325684,30.5245971 L72.1325684,41.4157104 Z" id="Path" fill="#FBD24C"></path>
                                        <path d="M62.6477051,61.6378784 C58.8720703,64.7790527 54.3585206,66.6329955 49.8596191,66.6000366 C46.7889403,66.5725709 43.7310792,65.7092285 40.9057617,64.1757202 C39.204712,63.2592773 37.5961303,62.1029662 36.1138917,60.741577 L36.1138917,75.1730346 C37.369995,73.9910887 39.2980957,73.5058594 41.5447997,74.901123 L45.9384155,77.0324707 L53.7149048,77.0324707 L58.1085206,74.901123 C60.4678345,73.4399414 62.4682617,74.0441895 63.7179565,75.352478 L63.7179565,60.6958008 C63.3654785,61.020813 63.0056763,61.3394166 62.6477051,61.6378784 L62.6477051,61.6378784 Z" id="Path" fill="#FFCBBE"></path>
                                    </g>
                                    <path d="M109.041443,107.71637 C106.944885,95.7980346 103.308411,89.5056152 95.2371216,83.1152344 C98.182373,82.2583008 100.202942,80.8218384 101.520386,79.5309448 C103.954773,77.1450806 105.40863,73.8546752 105.40863,70.729065 C105.40863,70.064392 105.128479,69.4299316 104.635925,68.9813231 C104.143372,68.5336303 103.485107,68.3139037 102.824097,68.3761596 C100.793457,68.5665893 99.2636108,68.1765748 98.151245,67.1832277 C94.6777344,64.0823365 94.5046998,55.2236939 94.3215943,45.8441161 C94.2428588,41.817627 94.161377,37.6547241 93.8217163,33.5751342 C92.9519654,23.1307983 88.5235597,14.3884277 81.0153198,8.29284656 C74.3392944,2.87292469 65.6408691,-0.0686646094 56.5350341,0.000915527344 C47.604065,0.0723267188 39.1766356,3.0587768 32.8063965,8.40820313 C25.6359863,14.4296264 21.4822388,23.0273438 20.7937623,33.2739258 C20.5465698,36.9561769 20.4779052,40.7409668 20.4129029,44.4003295 C20.2407838,53.9520263 20.0631713,63.8287355 16.3598633,67.1392823 C15.2145385,68.1637573 13.6672974,68.5684205 11.628418,68.3761596 C10.9664916,68.3157349 10.3082277,68.5336303 9.8165893,68.9822388 C9.32495117,69.4299316 9.04388422,70.064392 9.04388422,70.7299805 C9.04388422,73.8601685 10.5023192,77.1542358 12.9440307,79.5419311 C14.2770385,80.8447266 16.3259888,82.2921752 19.3179322,83.1436158 C17.6141356,84.5205689 16.0888672,85.911255 14.7430419,87.3568725 C9.98321539,92.4691772 7.36297602,98.1582642 5.39825445,107.644958 C4.58435047,111.559753 5.01556395,114.478455 6.71478266,116.568604 C9.15832531,119.572449 13.5931395,119.986267 18.0197143,119.986267 L25.4537963,119.990845 C25.4693605,119.99176 25.4840089,119.993591 25.4986573,119.993591 C25.5133058,119.993591 25.5279542,119.99176 25.541687,119.990845 L29.2550659,119.993591 L50.7974244,119.983521 C50.8267213,119.984436 50.8560181,119.987182 50.8862305,119.987182 C50.9118652,119.987182 50.9375,119.983521 50.9622193,119.983521 L57.2079467,119.979858 L63.574524,119.984436 C63.5891724,119.985352 63.6047363,119.987182 63.6193848,119.987182 C63.6367798,119.987182 63.6541747,119.985352 63.6724855,119.984436 L85.3283691,120 L96.6113281,119.986267 C101.790466,119.986267 105.30426,118.800659 107.351379,116.359863 C109.114685,114.258728 109.683228,111.350098 109.041443,107.71637 L109.041443,107.71637 Z M16.2481691,76.1608887 C15.246582,75.1812745 14.5983887,74.0798951 14.2166138,73.0444336 C16.269226,72.772522 18.041687,71.9769286 19.5101928,70.663147 C24.7525025,65.9765625 24.9310302,56.0174559 25.1388549,44.4854738 C25.2038574,40.8828736 25.2706909,37.1575927 25.5105591,33.5906981 C26.8399048,13.8134766 42.069702,4.8449707 56.5734863,4.72869867 C56.6650391,4.7277832 56.7547606,4.7277832 56.8472291,4.7277832 C71.2667846,4.7277832 87.4349975,13.841858 89.1113281,33.9678956 C89.439087,37.8982545 89.5187377,41.9842528 89.595642,45.9365845 C89.8080444,56.8295288 89.9920653,66.2365723 95.0027466,70.7098388 C96.4465332,71.999817 98.1988527,72.7807617 100.234985,73.0471802 C99.8541261,74.0789794 99.2086791,75.1776122 98.2116699,76.1544799 C96.2487793,78.0770873 93.3245848,79.1052246 89.7320558,79.152832 C86.2356568,76.8209838 82.1258544,74.3344116 77.2744752,71.4477539 C76.2811278,70.8572388 75.0030519,71.0714721 74.256897,71.9577026 C73.9932252,72.2717285 73.7139894,72.5747681 73.4246825,72.8695678 L73.4246825,64.03656 C78.7319947,58.7036133 81.8392944,51.3015748 81.8392944,43.7594604 L81.8392944,35.6396484 C81.8823242,35.6460572 81.9226074,35.6524659 81.9656373,35.657959 C83.2592773,35.8483887 84.4567871,34.9530028 84.6463013,33.6611939 C84.8348998,32.3693848 83.9404297,31.1691284 82.6486205,30.9805298 C81.6845703,30.8404542 80.8065795,30.7067871 79.9945067,30.5639648 C79.935913,30.5502319 79.8764038,30.5410767 79.8159791,30.5319213 C74.0179442,29.4891356 71.8170167,27.9226685 68.1192017,19.8376465 C67.7548217,19.0429688 66.9821166,18.5128784 66.1087037,18.4616088 C65.2362059,18.4094238 64.4058228,18.8442994 63.9508058,19.5913697 C57.0156861,30.9786987 45.8544922,30.9613036 32.9309082,30.956726 L32.0996094,30.9558105 C32.0996094,30.9558105 32.0986939,30.9558105 32.0977784,30.9558105 C30.7931518,30.9558105 29.7348022,32.0132447 29.7348022,33.3187866 C29.7338867,34.623413 30.7913209,35.6826783 32.0968627,35.6835938 L32.5592042,35.6835938 L32.5592042,43.7594604 C32.5592042,51.4736939 35.767212,58.8784791 41.09375,64.1226197 L41.09375,72.904358 C40.7522584,72.5839233 40.4309082,72.2543334 40.1324464,71.9155884 C39.3798828,71.0632324 38.1283569,70.866394 37.1505737,71.4477539 C32.4630737,74.2373658 28.3340455,76.7349244 24.7561646,79.1555787 C21.152649,79.1171264 18.2174682,78.0862427 16.2481691,76.1608887 Z M55.6451417,81.7401122 L58.6947631,81.7401122 L58.6947631,84.1186523 L55.6451417,84.1186523 L55.6451417,81.7401122 Z M53.8250731,77.0123292 L50.0228881,75.1675416 C48.7704467,74.413147 47.485962,74.0304565 46.2042238,74.0304565 C46.0760497,74.0304565 45.9478761,74.0359498 45.8215332,74.043274 L45.8215332,67.8378295 C46.2472534,68.1015014 46.6793823,68.3569336 47.121582,68.5958862 C50.333252,70.3399659 53.8122559,71.2765502 57.1859741,71.3067628 L57.3205566,71.3067628 C61.166687,71.3067628 65.1071166,70.0881959 68.697815,67.8305053 L68.697815,74.0570067 C68.5119629,74.0405273 68.3242798,74.0304565 68.1356811,74.0304565 C66.8539428,74.0304565 65.5694581,74.413147 64.3170167,75.1675416 L60.5148315,77.0123292 L53.8250731,77.0123292 Z M37.2869872,35.6689453 C47.8219604,35.5462645 58.241577,34.4577026 65.6152344,25.4205323 C68.9212037,31.4739989 72.0083619,33.581543 77.1124269,34.7854615 L77.1124269,43.7594604 C77.1124269,50.7843019 73.8851928,57.6654052 68.4799194,62.1652221 C65.0549316,65.0152589 61.0961914,66.5798951 57.3242188,66.5798951 C57.2903443,66.5798951 57.2573853,66.5798951 57.2235106,66.5798951 C54.6243287,66.5570067 51.9116211,65.8181763 49.3756105,64.4403075 C42.1447754,60.5264283 37.2869872,52.2152709 37.2869872,43.7594604 L37.2869872,35.6689453 Z M46.1950684,87.1307372 C44.4958496,87.1307372 44.3127441,85.2236939 44.3127441,84.4033814 C44.3127441,84.3951417 44.3127441,84.3878175 44.3127441,84.3795776 L44.2788697,81.1514283 C44.2788697,81.1166381 44.2779542,81.0809325 44.2752076,81.0452271 C44.2514038,80.6066895 44.4619752,79.8852539 44.9819947,79.3359375 C45.3445435,78.9523315 45.7556152,78.7582397 46.203308,78.7582397 C46.6290284,78.7582397 47.1124269,78.9239503 47.6406861,79.2526245 C47.7102662,79.2956543 47.7825927,79.335022 47.8558348,79.3707277 L50.9173583,80.8566284 L50.9173583,85.0708008 L47.994995,86.6436769 C47.3376465,86.9622802 46.7160034,87.1307372 46.1950684,87.1307372 Z M63.4216309,80.8566284 L66.4831543,79.3716431 C66.557312,79.335022 66.6296387,79.2956543 66.6992188,79.2526245 C67.7832031,78.5787963 68.651123,78.5888672 69.3579102,79.3359375 C69.8770142,79.8852539 70.0885011,80.6066895 70.0637818,81.0452271 C70.0619506,81.0809325 70.0610352,81.1166381 70.0601197,81.1514283 L70.0271607,84.3795776 L70.0271607,84.4033814 C70.0271607,85.2236939 69.8431395,87.1307372 68.1448365,87.1307372 C67.6239013,87.1307372 67.0022584,86.9622802 66.3439941,86.6436769 L63.4216309,85.0708008 L63.4216309,80.8566284 Z M27.8616334,115.264893 L27.8616334,109.91272 C27.8616334,108.607178 26.8032838,107.548828 25.4986573,107.548828 C24.1931152,107.548828 23.1347656,108.607178 23.1347656,109.91272 L23.1347656,115.262146 L18.02063,115.2594 C15.0982667,115.2594 11.5890502,115.06897 10.3814698,113.5849 C9.64630133,112.681275 9.52728266,111.006775 10.026245,108.605347 C12.2546387,97.8460692 15.1641847,92.3657227 23.1347656,86.1703491 L23.1347656,91.1975098 C23.1347656,92.5030519 24.1931152,93.5614012 25.4986573,93.5614012 C26.8032838,93.5614012 27.8616334,92.5030519 27.8616334,91.1975098 L27.8616334,82.7828979 C30.7144166,80.8703613 34.048767,78.8113404 37.9754638,76.4602662 C38.6428834,77.0755005 39.367981,77.6586914 40.1434325,78.2098388 C39.7177123,79.1821289 39.5062255,80.2304077 39.5529174,81.2466431 L39.5849609,84.4161987 C39.588623,87.3614503 40.8190918,89.7079467 42.8048705,90.9310912 L47.9702759,115.257568 L29.2550659,115.265808 L27.8616334,115.264893 Z M52.8024291,115.255737 L47.7972411,91.6827394 C48.5598755,91.522522 49.335327,91.2524414 50.1171875,90.8688354 C50.1428223,90.8560181 50.1693725,90.8422852 50.1950073,90.8285522 L53.8772584,88.8455201 L60.4626465,88.8455201 L64.1448973,90.8285522 C64.1705323,90.8422852 64.1970826,90.8560181 64.2227173,90.8688354 C65.0585938,91.2789916 65.8871459,91.5628052 66.7019654,91.7175293 L61.7031861,115.256653 L57.2088622,115.252991 L52.8024291,115.255737 Z M103.729553,113.321228 C102.651062,114.607544 100.256042,115.2594 96.607666,115.2594 L91.3836669,115.265808 L91.3836669,109.91272 C91.3836669,108.607178 90.3253175,107.548828 89.0206909,107.548828 C87.715149,107.548828 86.6567994,108.607178 86.6567994,109.91272 L86.6567994,115.271301 L85.326538,115.273132 L66.5353393,115.2594 L71.7272949,90.807495 C73.5995483,89.5550536 74.7503661,87.2653198 74.7540284,84.4161987 L74.7869872,81.2466431 C74.830017,80.2926635 74.6450806,79.3103027 74.2697143,78.3892823 C75.0598145,77.798767 75.8041381,77.1652221 76.4962768,76.4868164 C80.4211426,78.8305664 83.7765502,80.8721925 86.6567994,82.7682495 L86.6567994,91.1975098 C86.6567994,92.5030519 87.715149,93.5614013 89.0206909,93.5614013 C90.3253175,93.5614013 91.3836669,92.5030519 91.3836669,91.1975098 L91.3836669,86.0833739 C99.3450927,92.1276855 102.45697,97.5704955 104.385986,108.536682 C104.773254,110.731201 104.552612,112.340698 103.729553,113.321228 L103.729553,113.321228 Z" id="Shape" fill="#1B3C3E" fill-rule="nonzero"></path>
                                    <path d="M57.2097779,98.0310059 L57.2564698,98.0310059 C58.5610963,98.0310059 59.6194459,96.9726562 59.6194459,95.6671144 C59.6194459,94.3615723 58.5610963,93.3032227 57.2564698,93.3032227 L57.2097779,93.3032227 C55.9042358,93.3032227 54.8458862,94.3615723 54.8458862,95.6671144 C54.8458862,96.9726562 55.9042358,98.0310059 57.2097779,98.0310059 Z" id="Path" fill="#FBD24C" fill-rule="nonzero"></path>
                                    <path d="M57.2161864,103.166199 L57.1694947,103.166199 C55.8639526,103.166199 54.8065184,104.224548 54.8065184,105.529175 C54.8065184,106.834717 55.8639526,107.893066 57.1694947,107.893066 L57.2161864,107.893066 C58.5217285,107.893066 59.5800781,106.834717 59.5800781,105.529175 C59.5800781,104.224548 58.5217285,103.166199 57.2161864,103.166199 L57.2161864,103.166199 Z" id="Path" fill="#FBD24C" fill-rule="nonzero"></path>
                                    <path d="M46.9869995,45.9301758 C48.2925416,45.9301758 49.3508912,44.8718262 49.3508912,43.5662841 L49.3508912,43.5269166 C49.3508912,42.2222902 48.2925416,41.1630248 46.9869995,41.1630248 C45.6814576,41.1630248 44.623108,42.2222902 44.623108,43.5269166 L44.623108,43.5662841 C44.623108,44.8718262 45.6814576,45.9301758 46.9869995,45.9301758 Z" id="Path" fill="#1B3C3E" fill-rule="nonzero"></path>
                                    <path d="M69.1867065,45.890808 C70.4922486,45.890808 71.5505982,44.8324584 71.5505982,43.5269166 L71.5505982,43.4802246 C71.5505982,42.1755982 70.4922486,41.1172486 69.1867065,41.1172486 C67.8820801,41.1172486 66.8237305,42.1755982 66.8237305,43.4802246 L66.8237305,43.5269166 C66.8237305,44.8324584 67.8820801,45.890808 69.1867065,45.890808 L69.1867065,45.890808 Z" id="Path" fill="#1B3C3E" fill-rule="nonzero"></path>
                                    <path d="M25.4986573,98.1454467 C24.1931152,98.1454467 23.1347656,99.2028809 23.1347656,100.508423 L23.1347656,100.555115 C23.1347656,101.860657 24.1931152,102.919006 25.4986573,102.919006 C26.8032837,102.919006 27.8616334,101.860657 27.8616334,100.555115 L27.8616334,100.508423 C27.8616334,99.2028809 26.8041992,98.1454467 25.4986573,98.1454467 Z" id="Path" fill="#FBD24C" fill-rule="nonzero"></path>
                                    <path d="M89.0206909,102.919006 C87.715149,102.919006 86.6567994,101.860657 86.6567994,100.555115 L86.6567994,100.508423 C86.6567994,99.2028809 87.715149,98.1454467 89.0206909,98.1454467 C90.3253175,98.1454467 91.3836669,99.2028809 91.3836669,100.508423 L91.3836669,100.555115 C91.3836669,101.860657 90.3253175,102.919006 89.0206909,102.919006 L89.0206909,102.919006 Z" id="Path" fill="#FBD24C" fill-rule="nonzero"></path>
                                </g>
                            </g>
                        </g>
                    </g>
                </g>
            </g>
        </g>
    </g>
</svg>