<?xml version="1.0" encoding="UTF-8"?>
<svg width="132px" height="120px" viewBox="0 0 132 120" version="1.1" xmlns="http://www.w3.org/2000/svg" xmlns:xlink="http://www.w3.org/1999/xlink">
    <!-- Generator: Sketch 61.2 (89653) - https://sketch.com -->
    <title>003-university</title>
    <desc>Created with Sketch.</desc>
    <defs>
        <linearGradient x1="50%" y1="0%" x2="50%" y2="100%" id="linearGradient-1">
            <stop stop-color="#FBD24C" offset="0%"></stop>
            <stop stop-color="#FBD24C" offset="100%"></stop>
        </linearGradient>
        <linearGradient x1="50%" y1="0%" x2="50%" y2="100%" id="linearGradient-2">
            <stop stop-color="#FBD24C" offset="0%"></stop>
            <stop stop-color="#FBD24C" offset="100%"></stop>
        </linearGradient>
        <linearGradient x1="50%" y1="0%" x2="50%" y2="100%" id="linearGradient-3">
            <stop stop-color="#FBD24C" offset="0%"></stop>
            <stop stop-color="#FBD24C" offset="100%"></stop>
        </linearGradient>
    </defs>
    <g id="Page-1" stroke="none" stroke-width="1" fill="none" fill-rule="evenodd">
        <g id="Desktop-HD" transform="translate(-850.000000, -1469.000000)" fill-rule="nonzero">
            <g id="Group-15" transform="translate(140.000000, 1270.000000)">
                <g id="Group-47" transform="translate(0.000000, 149.000000)">
                    <g id="Group-44" transform="translate(670.000000, 0.000000)">
                        <g id="Group-12" transform="translate(40.000000, 50.000000)">
                            <g id="003-university">
                                <path d="M129.668246,55.7687204 L100.572512,55.7687204 L100.572512,50.149763 C100.57109,49.3290995 100.127773,48.5727014 99.4123223,48.1706161 L68.2464455,30.6540284 L68.2464455,21.7364929 L74.4113744,21.7364929 L74.4113744,25.1260664 C74.4113744,26.3823697 75.4299526,27.4009479 76.6862559,27.4009479 L95.2720379,27.4009479 C96.5283412,27.4003791 97.5463507,26.3815166 97.5460664,25.1252133 C97.5460664,24.8618957 97.5,24.6005687 97.4104265,24.3526066 L95.5450237,19.0521327 L97.4331754,13.8654028 C97.8602844,12.6838863 97.24891,11.3798104 96.0673934,10.9527014 C95.8197156,10.863128 95.5583886,10.817346 95.2947867,10.8170616 L86.8322275,10.8170616 L86.8322275,7.51848341 C86.8322275,6.26218009 85.8136493,5.2436019 84.557346,5.2436019 L68.2464455,5.2436019 L68.2464455,2.46824645 C68.2464455,1.21194313 67.2278673,0.193364929 65.971564,0.193364929 C64.7152607,0.193364929 63.6966825,1.21194313 63.6966825,2.46824645 L63.6966825,30.6540284 L32.5308057,48.1478673 C31.8153555,48.5499526 31.3720379,49.3063507 31.3706161,50.1270142 L31.3706161,55.7459716 L2.27488152,55.7459716 C1.0185782,55.7459716 0,56.7645498 0,58.0208531 L0,117.531754 C0,118.788057 1.0185782,119.806635 2.27488152,119.806635 L129.668246,119.806635 C130.92455,119.806635 131.943128,118.788057 131.943128,117.531754 L131.943128,58.0436019 C131.943128,56.7872986 130.92455,55.7687204 129.668246,55.7687204 Z M86.8322275,19.4616114 L86.7412322,19.3706161 L86.7412322,15.4578199 L91.9279621,15.4578199 L90.9952607,18.3696682 C90.8090047,18.8763981 90.8090047,19.4326066 90.9952607,19.9393365 L92.064455,22.8511848 L78.9611374,22.8511848 L78.9611374,21.7364929 L84.557346,21.7364929 C85.8136493,21.7364929 86.8322275,20.7179147 86.8322275,19.4616114 Z M68.2464455,9.79336493 L82.2824645,9.79336493 L82.2824645,13.1829384 L82.2824645,17.1867299 L68.2464455,17.1867299 L68.2464455,9.79336493 Z M31.3706161,115.256872 L4.54976303,115.256872 L4.54976303,60.3184834 L31.3706161,60.3184834 L31.3706161,115.256872 Z M63.6966825,115.256872 L51.7535545,115.256872 L51.7535545,89.2777251 L63.6966825,89.2777251 L63.6966825,115.256872 Z M80.1895735,115.256872 L68.2464455,115.256872 L68.2464455,89.2777251 L80.1895735,89.2777251 L80.1895735,115.256872 Z M96.1137441,115.256872 L84.7393365,115.256872 L84.7393365,87.0028436 C84.7393365,85.7465403 83.7207583,84.7279621 82.464455,84.7279621 L49.478673,84.7279621 C48.2223697,84.7279621 47.2037915,85.7465403 47.2037915,87.0028436 L47.2037915,115.256872 L35.8293839,115.256872 L35.8293839,51.5601896 L65.971564,34.5895735 L96.0227488,51.4691943 L96.1137441,58.0208531 L96.1137441,115.256872 Z M127.393365,115.256872 L100.572512,115.256872 L100.572512,60.3184834 L127.393365,60.3184834 L127.393365,115.256872 Z" id="Shape" fill="#233B3D"></path>
                                <path d="M65.971564,41.5507109 C60.7035071,41.5632227 56.4398104,45.8371564 56.4398104,51.1052133 C56.4523223,56.3695735 60.7299526,60.6267299 65.9943128,60.6142455 C71.258673,60.6017062 75.5158294,56.3240758 75.503345,51.0597156 C75.4908057,45.804455 71.2268246,41.5507109 65.971564,41.5507109 Z M65.971564,56.0645076 C63.2200948,56.0519431 60.9998104,53.8111848 61.0122697,51.0597156 C61.0248341,48.3261611 63.2377251,46.1129858 65.971564,46.1004739 C68.7267299,46.1129858 70.9535545,48.3500474 70.9535545,51.1052133 L70.9763033,51.1052133 C70.9637915,53.8566825 68.7230332,56.0769668 65.971564,56.0645076 Z" id="Shape" fill="url(#linearGradient-1)"></path>
                                <rect id="Rectangle" fill="url(#linearGradient-2)" x="10.0322275" y="65.3232227" width="4.54976303" height="9.09952607"></rect>
                                <rect id="Rectangle" fill="url(#linearGradient-2)" x="21.2473934" y="65.3232227" width="4.54976303" height="9.09952607"></rect>
                                <rect id="Rectangle" fill="url(#linearGradient-3)" x="42.7450237" y="65.3232227" width="9.09952607" height="4.54976303"></rect>
                                <rect id="Rectangle" fill="url(#linearGradient-3)" x="61.4218009" y="65.3232227" width="9.09952607" height="4.54976303"></rect>
                                <rect id="Rectangle" fill="url(#linearGradient-3)" x="80.0985782" y="65.3232227" width="9.09952607" height="4.54976303"></rect>
                                <rect id="Rectangle" fill="url(#linearGradient-3)" x="42.7450237" y="75.9241706" width="9.09952607" height="4.54976303"></rect>
                                <rect id="Rectangle" fill="url(#linearGradient-3)" x="61.4218009" y="75.9241706" width="9.09952607" height="4.54976303"></rect>
                                <rect id="Rectangle" fill="url(#linearGradient-3)" x="80.0985782" y="75.9241706" width="9.09952607" height="4.54976303"></rect>
                                <rect id="Rectangle" fill="url(#linearGradient-2)" x="10.0322275" y="83.2265403" width="4.54976303" height="9.09952607"></rect>
                                <rect id="Rectangle" fill="url(#linearGradient-2)" x="21.2473934" y="83.2265403" width="4.54976303" height="9.09952607"></rect>
                                <rect id="Rectangle" fill="url(#linearGradient-2)" x="10.0322275" y="101.152607" width="4.54976303" height="9.09952607"></rect>
                                <rect id="Rectangle" fill="url(#linearGradient-2)" x="21.2473934" y="101.152607" width="4.54976303" height="9.09952607"></rect>
                                <rect id="Rectangle" fill="url(#linearGradient-2)" x="106.145972" y="65.3232227" width="4.54976303" height="9.09952607"></rect>
                                <rect id="Rectangle" fill="url(#linearGradient-2)" x="117.361137" y="65.3232227" width="4.54976303" height="9.09952607"></rect>
                                <rect id="Rectangle" fill="url(#linearGradient-2)" x="106.145972" y="83.2265403" width="4.54976303" height="9.09952607"></rect>
                                <rect id="Rectangle" fill="url(#linearGradient-2)" x="117.361137" y="83.2265403" width="4.54976303" height="9.09952607"></rect>
                                <rect id="Rectangle" fill="url(#linearGradient-2)" x="106.145972" y="101.152607" width="4.54976303" height="9.09952607"></rect>
                                <rect id="Rectangle" fill="url(#linearGradient-2)" x="117.361137" y="101.152607" width="4.54976303" height="9.09952607"></rect>
                            </g>
                        </g>
                    </g>
                </g>
            </g>
        </g>
    </g>
</svg>