<?xml version="1.0" encoding="UTF-8"?>
<svg width="30px" height="30px" viewBox="0 0 30 30" version="1.1" xmlns="http://www.w3.org/2000/svg" xmlns:xlink="http://www.w3.org/1999/xlink">
    <!-- Generator: Sketch 61.2 (89653) - https://sketch.com -->
    <title>Combined Shape</title>
    <desc>Created with Sketch.</desc>
    <g id="Page-1" stroke="none" stroke-width="1" fill="none" fill-rule="evenodd">
        <g id="Desktop-HD" transform="translate(-143.000000, -977.000000)" fill="#EAC445" fill-rule="nonzero">
            <g id="Group-12">
                <g id="Group-11" transform="translate(140.000000, 216.000000)">
                    <g id="Group-2" transform="translate(0.000000, 721.000000)">
                        <g id="Group" transform="translate(3.000000, 38.000000)">
                            <g id="telephone-(1)" transform="translate(0.000000, 2.000000)">
                                <path d="M3.38382536,3.5987526 C4.35679834,2.63825364 5.57925156,2.63825364 6.55846154,3.59251559 C7.16345114,4.18503119 7.75596674,4.79002079 8.35471933,5.38877339 C8.93476091,5.97505198 9.51480249,6.54885655 10.0948441,7.13513514 C11.1177131,8.16424116 11.1177131,9.36174636 10.1010811,10.3846154 C9.37135135,11.1205821 8.64785863,11.8565489 7.90565489,12.5738046 C7.71230769,12.7671518 7.69359667,12.9230769 7.79338877,13.1600832 C8.28611227,14.3326403 8.99089397,15.3742204 9.78299376,16.3471933 C11.3796674,18.3056133 13.1821622,20.045738 15.3339293,21.3991684 C15.7954678,21.6860707 16.3069023,21.8981289 16.7871518,22.1600832 C17.030395,22.2972973 17.1987942,22.2536383 17.3983784,22.047817 C18.1281081,21.2993763 18.8703119,20.5634096 19.6125156,19.8274428 C20.5854886,18.8607069 21.8079418,18.8607069 22.7871518,19.8274428 C23.97842,21.012474 25.1696881,22.1975052 26.3547193,23.3887734 C27.3464033,24.3866944 27.3401663,25.6091476 26.3422453,26.6195426 C25.6686486,27.2993763 24.9513929,27.9480249 24.3152183,28.6590437 C23.3859044,29.7006237 22.2258212,30.037422 20.8911019,29.962578 C18.9513929,29.8565489 17.1676091,29.2141372 15.4461954,28.3783784 C11.6229106,26.5197505 8.35471933,23.9438669 5.6166736,20.6881497 C3.58964657,18.2806653 1.9181289,15.6548857 0.8204158,12.6985447 C0.284033264,11.2702703 -0.0964241164,9.8045738 0.0220790021,8.25155925 C0.0969230769,7.2972973 0.452432432,6.48024948 1.15721414,5.81288981 C1.9181289,5.08939709 2.63538462,4.33471933 3.38382536,3.5987526 Z M15.1592931,5.98752599 C17.3921414,6.2993763 19.4191684,7.30977131 21.022079,8.91268191 C22.5376715,10.4345114 23.5355925,12.3492723 23.8973389,14.4636175 L23.8973389,14.4636175 L21.5958836,14.8565489 C21.3152183,13.2224532 20.5480665,11.7380457 19.3755094,10.5654886 C18.1343451,9.32432432 16.5626195,8.54469854 14.8349688,8.3014553 L14.8349688,8.3014553 Z M15.4649064,8.2600593e-14 C19.1759252,0.517671518 22.5376715,2.1954262 25.1946362,4.85239085 C27.7143867,7.37837838 29.3671933,10.5592516 29.972183,14.0644491 L29.972183,14.0644491 L27.6707277,14.4573805 C27.1530561,11.4324324 25.7247817,8.68191268 23.5480665,6.50519751 C21.2528482,4.21621622 18.3464033,2.76299376 15.1405821,2.31392931 L15.1405821,2.31392931 Z" id="Combined-Shape"></path>
                            </g>
                        </g>
                    </g>
                </g>
            </g>
        </g>
    </g>
</svg>