<?xml version="1.0" encoding="UTF-8"?>
<svg width="26px" height="20px" viewBox="0 0 26 20" version="1.1" xmlns="http://www.w3.org/2000/svg" xmlns:xlink="http://www.w3.org/1999/xlink">
    <!-- Generator: Sketch 61.2 (89653) - https://sketch.com -->
    <title>icon-twitter</title>
    <desc>Created with Sketch.</desc>
    <g id="Page-1" stroke="none" stroke-width="1" fill="none" fill-rule="evenodd" opacity="0.600000024">
        <g id="About-Us-HD" transform="translate(-1676.000000, -10.000000)" fill="#1B3C3E">
            <g id="Group-12">
                <g id="Social-Icons" transform="translate(1676.000000, 9.000000)">
                    <path d="M25.344,3.50794298 C24.4124527,3.89607794 23.4069732,4.15945524 22.3571342,4.27035094 C23.4365461,3.66042457 24.2498016,2.7178111 24.6490362,1.56726818 C23.6435566,2.12174669 22.5345718,2.53760558 21.3516546,2.74553502 C20.4053209,1.80292155 19.0449662,1.20685714 17.5515333,1.20685714 C14.6829592,1.20685714 12.3466978,3.39704728 12.3466978,6.08626808 C12.3466978,6.47440304 12.3910572,6.83481407 12.479776,7.19522511 C8.16212835,6.98729566 4.31764761,5.04662086 1.75958926,2.09402277 C1.31599533,2.81484484 1.04983897,3.64656261 1.04983897,4.5475902 C1.04983897,6.23874967 1.96659977,7.73584166 3.37131389,8.60914532 C2.51369895,8.58142139 1.71522987,8.35962999 1.02026604,7.99921895 L1.02026604,8.0546668 C1.02026604,10.4112005 2.80942824,12.3934612 5.19004901,12.837044 C4.74645508,12.9479397 4.28807468,13.0033875 3.81490782,13.0033875 C3.47481914,13.0033875 3.14951692,12.9756636 2.83900117,12.9202158 C3.50439207,14.8608906 5.42663244,16.2748108 7.70374796,16.3025347 C5.92937223,17.6055592 3.68182964,18.3956911 1.24206301,18.3956911 C0.828042007,18.3956911 0.414021004,18.3679672 0,18.3263813 C2.30668845,19.7125776 5.04218436,20.5165714 7.96990432,20.5165714 C17.5367468,20.5165714 22.7711552,13.0865593 22.7711552,6.64074659 C22.7711552,6.43281715 22.7711552,6.2248877 22.7563687,6.0030963 C23.7618483,5.35158404 24.6490362,4.49214234 25.344,3.50794298 L25.344,3.50794298 L25.344,3.50794298 Z" id="icon-twitter"></path>
                </g>
            </g>
        </g>
    </g>
</svg>