<?xml version="1.0" encoding="UTF-8"?>
<svg width="23px" height="21px" viewBox="0 0 23 21" version="1.1" xmlns="http://www.w3.org/2000/svg" xmlns:xlink="http://www.w3.org/1999/xlink">
    <!-- Generator: Sketch 61.2 (89653) - https://sketch.com -->
    <title>icon-fb</title>
    <desc>Created with Sketch.</desc>
    <g id="Page-1" stroke="none" stroke-width="1" fill="none" fill-rule="evenodd" opacity="0.600000024">
        <g id="About-Us-HD" transform="translate(-1725.000000, -10.000000)" fill="#1B3C3E">
            <g id="Group-12">
                <g id="Social-Icons" transform="translate(1676.000000, 9.000000)">
                    <path d="M71.2045714,2.06171429 L71.2045714,20.8685714 C71.2045714,21.2084004 70.6673866,21.7157416 70.2994286,21.7234286 L64.8685714,21.7234286 L64.8685714,14.0297143 L67.584,14.0297143 L67.584,10.6102857 L64.8685714,10.6102857 L64.8685714,8.90057143 C64.4734828,7.80229299 64.7339361,7.19502093 65.7737143,7.19085714 L67.584,7.19085714 L67.584,4.62628571 C67.5338085,4.38927025 66.5082738,4.30471338 64.8685714,4.62628571 C62.7968151,4.30471338 61.0875906,5.74986715 61.248,8.04571429 L61.248,10.6102857 L58.5325714,10.6102857 L58.5325714,14.0297143 L61.248,14.0297143 L61.248,21.7234286 L50.3862857,21.7234286 C50.0183277,21.7234286 49.4811429,21.2160874 49.4811429,20.8685714 L49.4811429,2.06171429 C49.4811429,1.71419836 50.0183277,1.20685714 50.3862857,1.20685714 L70.2994286,1.20685714 C70.6673866,1.20685714 71.2045714,1.70651137 71.2045714,2.06171429 L71.2045714,2.06171429 Z" id="icon-fb"></path>
                </g>
            </g>
        </g>
    </g>
</svg>