<?xml version="1.0" encoding="UTF-8"?>
<svg width="23px" height="21px" viewBox="0 0 23 21" version="1.1" xmlns="http://www.w3.org/2000/svg" xmlns:xlink="http://www.w3.org/1999/xlink">
    <!-- Generator: Sketch 61.2 (89653) - https://sketch.com -->
    <title>LinkedIn</title>
    <desc>Created with Sketch.</desc>
    <g id="Page-1" stroke="none" stroke-width="1" fill="none" fill-rule="evenodd" opacity="0.600000024">
        <g id="About-Us-HD" transform="translate(-1771.000000, -9.000000)" fill="#1B3C3E" fill-rule="nonzero">
            <g id="Group-12">
                <g id="Social-Icons" transform="translate(1676.000000, 9.000000)">
                    <path d="M117.065143,12.5786937 L117.065143,20.5165714 L112.409109,20.5165714 L112.409109,13.1103249 C112.409109,11.2498153 111.735664,9.98009035 110.050334,9.98009035 C108.763798,9.98009035 107.99818,10.8357919 107.661356,11.6635392 C107.538526,11.9594556 107.506909,12.3713325 107.506909,12.7855556 L107.506909,20.5165714 L102.849309,20.5165714 C102.849309,20.5165714 102.912037,7.97282066 102.849309,6.67319454 L107.506454,6.67319454 L107.506454,8.6354378 C107.49701,8.65011382 107.484737,8.66593796 107.475848,8.68016471 L107.506454,8.68016471 L107.506454,8.6354378 C108.125202,7.69352709 109.230219,6.34797602 111.703592,6.34797602 C114.767934,6.34797602 117.065143,8.32654261 117.065143,12.5786937 Z M97.9772615,0 C96.3839027,0 95.3417143,1.03296191 95.3417143,2.39134202 C95.3417143,3.72012051 96.3537507,4.78443119 97.9154424,4.78443119 L97.946554,4.78443119 C99.5707719,4.78443119 100.580889,3.72032018 100.580889,2.39134202 C100.550283,1.03296191 99.5707719,0 97.9772615,0 Z M95.6183349,20.5165714 L100.274167,20.5165714 L100.274167,6.67319454 L95.6183349,6.67319454 L95.6183349,20.5165714 Z" id="LinkedIn"></path>
                </g>
            </g>
        </g>
    </g>
</svg>