<?xml version="1.0" encoding="UTF-8"?>
<svg width="127px" height="131px" viewBox="0 0 127 131" version="1.1" xmlns="http://www.w3.org/2000/svg" xmlns:xlink="http://www.w3.org/1999/xlink">
    <!-- Generator: Sketch 61.2 (89653) - https://sketch.com -->
    <title>003-insurance</title>
    <desc>Created with Sketch.</desc>
    <defs>
        <linearGradient x1="100%" y1="26.6877657%" x2="8.96724057%" y2="80.0028369%" id="linearGradient-1">
            <stop stop-color="#66C0B7" stop-opacity="0" offset="0%"></stop>
            <stop stop-color="#66C0B7" stop-opacity="0.166165865" offset="100%"></stop>
        </linearGradient>
    </defs>
    <g id="Page-1" stroke="none" stroke-width="1" fill="none" fill-rule="evenodd">
        <g id="Learning-HD" transform="translate(-1184.000000, -2037.000000)">
            <g id="Group-3" transform="translate(140.000000, 1921.000000)">
                <g id="Group-47" transform="translate(0.000000, 106.000000)">
                    <g id="Group-43" transform="translate(1044.000000, 0.000000)">
                        <g id="Group-13">
                            <g id="003-insurance" transform="translate(0.000000, 10.000000)">
                                <circle id="Oval-Copy" fill="url(#linearGradient-1)" cx="63.5" cy="67.5" r="63.5"></circle>
                                <g id="004-punctuality" transform="translate(5.000000, 0.000000)" fill-rule="nonzero">
                                    <path d="M44.8143839,57.5885775 L48.8630354,57.5885775 C50.0322581,57.5885775 51.1142253,57.2046536 51.9867795,56.5415124 C57.0126917,61.5150714 63.923321,64.5690111 71.5494447,64.5690111 C86.9762031,64.5690111 99.4711793,52.0740349 99.4711793,36.6472766 C99.4711793,21.2205182 86.9762031,8.72554204 71.5494447,8.72554204 C63.8535167,8.72554204 56.873083,11.8492861 51.8122686,16.9101005 C49.386568,19.3183501 47.4145955,22.1628768 46.0010576,25.3389741 C44.1686938,23.9079852 42.0920148,22.7736647 39.840825,22.0407192 C45.3728186,10.0518244 57.483871,1.74510841 71.5494447,1.74510841 C90.8328926,1.74510841 106.451613,17.3638287 106.451613,36.6472766 C106.451613,55.9307245 90.8328926,71.5494447 71.5494447,71.5494447 C60.5378107,71.5494447 50.7303014,66.4537282 44.3257536,58.4960338 C44.5002644,58.1993654 44.6573242,57.902697 44.7969328,57.5885775 L44.8143839,57.5885775 Z" id="Path" fill="#FFFFFF"></path>
                                    <path d="M71.5494447,8.72554204 C86.9762031,8.72554204 99.4711793,21.2205182 99.4711793,36.6472766 C99.4711793,52.0740349 86.9762031,64.5690111 71.5494447,64.5690111 C63.923321,64.5690111 57.0126917,61.5150714 51.9867795,56.5415124 C53.2781597,55.5991539 54.0983607,54.0809096 54.0983607,52.3532522 L54.0983607,41.8826018 C54.0983607,36.0888419 51.7599154,30.8535167 47.9730301,27.0666314 C47.3447911,26.4383924 46.699101,25.8625066 46.0010576,25.3389741 C47.4145955,22.1628768 49.386568,19.3183501 51.8122686,16.9101005 C56.873083,11.8492861 63.8535167,8.72554204 71.5494447,8.72554204 L71.5494447,8.72554204 Z" id="Path" fill="#FBD24C"></path>
                                    <path d="M12.2157589,106.451613 L1.74510841,106.451613 L1.74510841,94.8815442 C1.74510841,88.0930724 5.67160233,81.9328398 11.8143839,79.070862 L21.6044421,74.4986779 L24.4315177,87.2554204 L30.6615547,81.0253834 L27.9217345,106.451613 L12.2157589,106.451613 Z" id="Path" fill="#66C0B7"></path>
                                    <path d="M54.0983607,106.451613 L38.392385,106.451613 L35.6525648,81.0253834 L41.8826018,87.2554204 L44.7096774,74.4986779 L54.4997356,79.070862 C60.6425172,81.9328398 64.5690111,88.0930724 64.5690111,94.8815442 L64.5690111,106.451613 L54.0983607,106.451613 Z" id="Path" fill="#66C0B7"></path>
                                    <path d="M44.7096774,74.4986779 L41.8826018,87.2554204 L35.6525648,81.0253834 L33.1570598,78.5298784 L39.858276,71.8286621 C40.2945531,72.2998414 40.8180857,72.6837652 41.4114225,72.9629825 L44.7096774,74.4986779 Z" id="Path" fill="#FFFFFF"></path>
                                    <polygon id="Path" fill="#FFFFFF" points="30.6615547 81.0253834 33.1570598 78.5298784 35.6525648 81.0253834 38.392385 106.451613 27.9217345 106.451613"></polygon>
                                    <path d="M33.1570598,78.5298784 L30.6615547,81.0253834 L24.4315177,87.2554204 L21.6044421,74.4986779 L24.902697,72.9629825 C25.4960338,72.6837652 26.0195664,72.2998414 26.4558435,71.8286621 L33.1570598,78.5298784 Z" id="Path" fill="#FFFFFF"></path>
                                    <path d="M17.4510841,47.117927 C14.5542041,47.117927 12.2157589,49.4563723 12.2157589,52.3532522 L12.2157589,41.8826018 C12.2157589,30.3125331 21.586991,20.9413009 33.1570598,20.9413009 C35.495505,20.9413009 37.7466949,21.3252247 39.840825,22.0407192 C42.0920148,22.7736647 44.1686938,23.9079852 46.0010576,25.3389741 C46.699101,25.8625066 47.3447911,26.4383924 47.9730301,27.0666314 C51.7599154,30.8535167 54.0983607,36.0888419 54.0983607,41.8826018 L54.0983607,52.3532522 C54.0983607,50.9048123 53.5050238,49.595981 52.5626653,48.6536224 C51.6203067,47.7112639 50.3114754,47.117927 48.8630354,47.117927 L47.117927,47.117927 L47.117927,43.6277102 L41.5859334,43.6277102 C38.2527763,43.6277102 34.9719725,43.173982 31.7784241,42.3014278 C28.6023268,41.4114225 25.5483871,40.1025912 22.6864093,38.392385 L19.1961925,43.6277102 L19.1961925,47.117927 L17.4510841,47.117927 Z" id="Path" fill="#E6DDC0"></path>
                                    <g id="Group" transform="translate(12.215759, 38.392385)" fill="#FFDDCF">
                                        <path d="M27.6425172,33.4362771 L20.9413009,40.1374934 L14.2400846,33.4362771 C15.1649921,32.4939186 15.7059757,31.2025383 15.7059757,29.8239027 L15.7059757,26.8223162 C17.2765732,27.9915389 19.0391327,28.9513485 20.9413009,29.6668429 C22.8434691,28.9513485 24.6060286,27.9915389 26.1766261,26.8223162 L26.1766261,29.8239027 C26.1766261,31.2025383 26.7176097,32.4939186 27.6425172,33.4362771 Z" id="Path"></path>
                                        <path d="M39.7710206,18.1491274 C38.8984664,18.8122686 37.8164992,19.1961925 36.6472766,19.1961925 L32.5986251,19.1961925 L32.581174,19.1961925 C34.0819672,16.2644104 34.9021682,12.9661555 34.9021682,9.52829191 L34.9021682,8.72554204 L36.6472766,8.72554204 C38.0957166,8.72554204 39.4045479,9.3188789 40.3469064,10.2612374 C41.2892649,11.203596 41.8826018,12.5124273 41.8826018,13.9608673 C41.8826018,15.6885246 41.0624008,17.2067689 39.7710206,18.1491274 Z" id="Path"></path>
                                        <path d="M34.9021682,8.72554204 L34.9021682,9.52829191 C34.9021682,12.9661555 34.0819672,16.2644104 32.581174,19.1961925 C32.4415653,19.510312 32.2845056,19.8069804 32.1099947,20.1036489 C30.6441036,22.7213115 28.6197779,25.0074035 26.1766261,26.8223162 C24.6060286,27.9915389 22.8434691,28.9513485 20.9413009,29.6668429 C19.0391327,28.9513485 17.2765732,27.9915389 15.7059757,26.8223162 C13.8038075,25.4087784 12.1459545,23.6985722 10.8196721,21.7789529 C10.2437864,20.958752 9.73770492,20.1036489 9.30142782,19.1961925 C7.80063458,16.2644104 6.98043363,12.9661555 6.98043363,9.52829191 L6.98043363,8.72554204 L6.98043363,5.23532522 L10.4706504,1.2399741e-14 C13.3326282,1.71020624 16.386568,3.01903755 19.5626653,3.90904283 C22.7562136,4.78159704 26.0370175,5.23532522 29.3701745,5.23532522 L34.9021682,5.23532522 L34.9021682,8.72554204 Z" id="Path"></path>
                                        <path d="M6.98043363,9.52829191 C6.98043363,12.9661555 7.80063458,16.2644104 9.30142782,19.1961925 L9.28397673,19.1961925 L5.23532522,19.1961925 C3.78688525,19.1961925 2.47805394,18.6028556 1.5356954,17.6604971 C0.593336859,16.7181386 -1.54996763e-15,15.4093072 -1.54996763e-15,13.9608673 C-1.54996763e-15,11.0639873 2.33844527,8.72554204 5.23532522,8.72554204 L6.98043363,8.72554204 L6.98043363,9.52829191 Z" id="Path"></path>
                                    </g>
                                    <path d="M71.5494447,0 C57.8014807,0 45.1738763,7.79888948 38.9351137,19.9710206 C37.0870439,19.4823903 35.156954,19.1961925 33.1570598,19.1961925 C20.6481227,19.1961925 10.4706504,29.3736647 10.4706504,41.8826018 L10.4706504,52.3532522 C10.4706504,56.2029614 13.6013749,59.3336859 17.4510841,59.3336859 L20.4858276,59.3336859 C21.9395029,61.8989952 23.8661026,64.1850873 26.1766261,66.0471179 L26.1766261,68.2145426 C26.1766261,69.5635114 25.386092,70.8060286 24.162771,71.376679 L11.0779482,77.4828133 C4.34881015,80.6240085 0,87.4526177 0,94.879799 L0,108.196721 L66.3141195,108.196721 L66.3141195,94.879799 C66.3141195,87.4526177 61.9653094,80.6257536 55.2361713,77.4845584 L42.1513485,71.3784241 C40.9280275,70.8077737 40.1374934,69.5652565 40.1374934,68.2145426 L40.1374934,66.0471179 C41.8110524,64.6981491 43.2839238,63.1275516 44.5229508,61.3894236 C51.463247,68.9806452 61.1835008,73.2945531 71.5494447,73.2945531 C91.7578001,73.2945531 108.196721,56.8556319 108.196721,36.6472766 C108.196721,16.4389212 91.7578001,0 71.5494447,0 Z M33.1570598,22.6864093 C43.7411423,22.6864093 52.3532522,31.2985193 52.3532522,41.8826018 L52.3532522,46.3430989 C51.3218932,45.7427816 50.1404548,45.3728186 48.8630354,45.3728186 L48.8630354,41.8826018 L41.5876785,41.8826018 C35.2476996,41.8826018 29.0211528,40.1584347 23.5851401,36.8968271 L22.1576415,36.0399788 L17.4510841,43.0989424 L17.4510841,45.3728186 C16.1736647,45.3728186 14.9922263,45.7427816 13.9608673,46.3430989 L13.9608673,41.8826018 C13.9608673,31.2985193 22.5729773,22.6864093 33.1570598,22.6864093 L33.1570598,22.6864093 Z M51.850661,19.4178213 L56.7404548,24.307615 L59.2080381,21.8400317 L54.3147541,16.9467478 C58.5763088,13.2244315 63.9983607,10.9226335 69.8043363,10.5352195 L69.8043363,17.4510841 L73.2945531,17.4510841 L73.2945531,10.559651 C79.1982549,10.9523004 84.5627181,13.2977261 88.7579588,16.9711793 L83.8891063,21.8400317 L86.3566896,24.307615 L91.225542,19.4387626 C94.8989952,23.6340032 97.246166,28.9984664 97.6370703,34.9021682 L90.7456372,34.9021682 L90.7456372,38.392385 L97.6370703,38.392385 C97.2444209,44.2960867 94.8989952,49.66055 91.225542,53.8557906 L86.3566896,48.9869381 L83.8891063,51.4545214 L88.7579588,56.3233739 C84.5627181,59.9968271 79.1982549,62.3439979 73.2945531,62.7349022 L73.2945531,55.8434691 L69.8043363,55.8434691 L69.8043363,62.7383924 C64.1152829,62.3649392 58.7874669,60.1852988 54.4787943,56.4612374 C55.326917,55.3059757 55.8434691,53.894183 55.8434691,52.3532522 L55.8434691,41.8826018 C55.8434691,35.1272871 52.8610788,29.071761 48.1615019,24.9114225 C49.1684294,22.906293 50.4092015,21.0634585 51.850661,19.4178213 L51.850661,19.4178213 Z M48.8263882,48.8630354 L48.8630354,48.8630354 C50.78789,48.8630354 52.3532522,50.4283977 52.3532522,52.3532522 C52.3532522,54.2781068 50.78789,55.8434691 48.8630354,55.8434691 L47.4372819,55.8434691 C48.2470122,53.6289265 48.7251719,51.2817557 48.8263882,48.8630354 Z M17.4510841,55.8434691 C15.5262295,55.8434691 13.9608673,54.2781068 13.9608673,52.3532522 C13.9608673,50.4283977 15.5262295,48.8630354 17.4510841,48.8630354 L17.4877314,48.8630354 C17.5872025,51.2817557 18.0653622,53.6289265 18.8768377,55.8434691 L17.4510841,55.8434691 Z M25.6373876,74.5405605 C25.8747224,74.4288736 26.0980962,74.2945003 26.319725,74.1601269 L30.6894765,78.5298784 L25.4454257,83.7739291 L23.6043363,75.4898995 L25.6373876,74.5405605 Z M33.9807509,81.8211528 L36.4483342,104.706504 L29.8640402,104.706504 L32.3316235,81.8211528 L33.1570598,80.9974617 L33.9807509,81.8211528 Z M3.49021682,94.879799 C3.49021682,88.8033316 7.04849286,83.2172396 12.5543099,80.6466949 L20.3654151,77.0011634 L23.4176097,90.7369117 L28.3981491,85.7563723 L26.3546272,104.706504 L13.9608673,104.706504 L13.9608673,94.235854 L10.4706504,94.235854 L10.4706504,104.706504 L3.49021682,104.706504 L3.49021682,94.879799 Z M62.8239027,94.879799 L62.8239027,104.706504 L55.8434691,104.706504 L55.8434691,94.235854 L52.3532522,94.235854 L52.3532522,104.706504 L39.9594923,104.706504 L37.9159704,85.7563723 L42.8965098,90.7369117 L45.9487044,77.0011634 L53.7598096,80.6466949 C59.2656267,83.2172396 62.8239027,88.8033316 62.8239027,94.879799 L62.8239027,94.879799 Z M42.7097832,75.4898995 L40.8686938,83.7739291 L35.624643,78.5298784 L39.9943945,74.1601269 C40.2160233,74.2962454 40.437652,74.4288736 40.6767319,74.5405605 L42.7097832,75.4898995 Z M37.572184,71.6471708 L33.1570598,76.0622951 L28.7419355,71.6471708 C29.3038604,70.6576943 29.6319408,69.5355896 29.6563723,68.3628768 C30.5812797,68.865468 31.5410894,69.3174511 32.5445267,69.6943945 L33.1570598,69.9230037 L33.7695928,69.6943945 C34.7730301,69.3174511 35.7328398,68.865468 36.6577472,68.3628768 C36.6839238,69.5355896 37.0102591,70.6576943 37.572184,71.6471708 Z M33.1570598,66.1832364 C25.8223691,63.1467478 20.9413009,55.8888419 20.9413009,47.9136965 L20.9413009,44.1564781 L23.2343733,40.7151243 C28.862348,43.7673189 35.1709149,45.3728186 41.5876785,45.3728186 L45.3728186,45.3728186 L45.3728186,47.9136965 C45.3728186,55.8888419 40.4917504,63.1484929 33.1570598,66.1832364 Z M71.5494447,69.8043363 C62.3108408,69.8043363 53.6428874,66.0122158 47.3831835,59.3336859 L48.8630354,59.3336859 C49.8943945,59.3336859 50.8664199,59.094606 51.7476996,58.691486 C57.1994183,63.5987308 64.1589106,66.3141195 71.5494447,66.3141195 C87.908091,66.3141195 101.216288,53.0059228 101.216288,36.6472766 C101.216288,20.2886304 87.908091,6.98043363 71.5494447,6.98043363 C60.5151243,6.98043363 50.4406134,13.1127446 45.3257007,22.7684294 C44.3519302,22.1454257 43.3310418,21.5904812 42.2630354,21.119302 C47.9835008,10.3572184 59.2760973,3.49021682 71.5494447,3.49021682 C89.8329455,3.49021682 104.706504,18.3637758 104.706504,36.6472766 C104.706504,54.9307774 89.8329455,69.8043363 71.5494447,69.8043363 Z" id="Shape" fill="#1B3C3E"></path>
                                    <polygon id="Path" fill="#1B3C3E" points="80.2749868 34.9021682 73.2945531 34.9021682 73.2945531 24.4315177 69.8043363 24.4315177 69.8043363 38.392385 80.2749868 38.392385"></polygon>
                                </g>
                            </g>
                        </g>
                    </g>
                </g>
            </g>
        </g>
    </g>
</svg>