<?xml version="1.0" encoding="UTF-8"?>
<svg width="24px" height="35px" viewBox="0 0 24 35" version="1.1" xmlns="http://www.w3.org/2000/svg" xmlns:xlink="http://www.w3.org/1999/xlink">
    <!-- Generator: Sketch 61.2 (89653) - https://sketch.com -->
    <title>icon</title>
    <desc>Created with Sketch.</desc>
    <g id="Page-1" stroke="none" stroke-width="1" fill="none" fill-rule="evenodd">
        <g id="Contact-Us-HD" transform="translate(-1232.000000, -686.000000)" fill="#1B3C3E" fill-rule="nonzero">
            <g id="Group-3" transform="translate(0.000000, 335.000000)">
                <g id="Group-26" transform="translate(133.000000, 306.000000)">
                    <g id="Group-25" transform="translate(1047.000000, 0.000000)">
                        <g id="Group-24" transform="translate(0.000000, 45.000000)">
                            <g id="Group-20" transform="translate(52.000000, 0.000000)">
                                <g id="google-maps">
                                    <path d="M1.23097207,17.6642682 C0.517139665,16.0702793 0.0532960894,14.3249832 0.0054301676,12.3331173 C0.00181005587,12.2198883 1.37756473e-12,12.1057877 1.37756473e-12,11.9916872 C1.37756473e-12,9.06087151 1.05150838,6.37454749 2.79861453,4.29150838 C4.99836872,1.66826816 8.29964246,5.41788836e-14 11.9912179,5.41788836e-14 C13.2545698,5.41788836e-14 14.4722682,0.195486034 15.6156872,0.557765363 L15.612,0.561 L15.6152179,0.558435754 C18.6592626,1.52205587 21.1770503,3.66764246 22.6307263,6.4563352 L22.627,6.461 C23.436724,8.00174749 23.9154458,9.74460514 23.9756956,11.5932303 L23.9821676,11.9909497 C23.9821676,12.1053855 23.9801564,12.219419 23.9770726,12.3331173 C23.7601341,21.3498771 15.0209832,25.3203352 13.1808939,33.0896313 C13.1587709,33.1829497 13.1349721,33.2920223 13.1096313,33.4146369 C12.8593743,34.6271061 11.1232626,34.6271061 10.8730056,33.4146369 C10.8476648,33.2920223 10.8238659,33.1829497 10.801743,33.0896313 C10.1115084,30.1755084 8.45068156,27.7958212 6.63305028,25.4837765 L6.63305028,25.4837765 C4.67443575,22.9933408 2.53521788,20.5814749 1.23097207,17.6642682 Z M8.75101676,8.75135196 C8.67586592,8.82650279 8.60426816,8.90353073 8.53548603,8.98230168 L8.537,8.978 L8.42473743,9.11389944 C6.96945251,10.9123575 7.07812291,13.5578547 8.75094972,15.2306816 C10.5406257,17.0203575 13.4415419,17.0203575 15.2311508,15.2306816 C15.3117989,15.1500335 15.3896983,15.0667039 15.4630391,14.9816313 L15.55,14.877 L15.5454972,14.8828827 C17.0136536,13.0832849 16.9094749,10.4286704 15.2312179,8.75135196 C13.4415419,6.96167598 10.5406257,6.96167598 8.75101676,8.75135196 Z" id="icon"></path>
                                </g>
                            </g>
                        </g>
                    </g>
                </g>
            </g>
        </g>
    </g>
</svg>