<?xml version="1.0" encoding="UTF-8"?>
<svg width="127px" height="131px" viewBox="0 0 127 131" version="1.1" xmlns="http://www.w3.org/2000/svg" xmlns:xlink="http://www.w3.org/1999/xlink">
    <!-- Generator: Sketch 61.2 (89653) - https://sketch.com -->
    <title>002-female</title>
    <desc>Created with Sketch.</desc>
    <defs>
        <linearGradient x1="100%" y1="26.6877657%" x2="8.96724057%" y2="80.0028369%" id="linearGradient-1">
            <stop stop-color="#66C0B7" stop-opacity="0" offset="0%"></stop>
            <stop stop-color="#66C0B7" stop-opacity="0.166165865" offset="100%"></stop>
        </linearGradient>
    </defs>
    <g id="Page-1" stroke="none" stroke-width="1" fill="none" fill-rule="evenodd">
        <g id="Learning-HD" transform="translate(-485.000000, -2037.000000)">
            <g id="Group-3" transform="translate(140.000000, 1921.000000)">
                <g id="Group-47" transform="translate(0.000000, 106.000000)">
                    <g id="Group-45" transform="translate(345.000000, 10.000000)">
                        <g id="Group-11">
                            <g id="002-female">
                                <circle id="Oval" fill="url(#linearGradient-1)" cx="63.5" cy="67.5" r="63.5"></circle>
                                <g id="002-teacher" transform="translate(5.000000, 0.000000)" fill-rule="nonzero">
                                    <path d="M82.1438525,57.7612705 L81.5487705,63.1147541 L81.147541,66.7213115 L30.6557377,66.7213115 L30.2545082,63.1147541 L29.6594262,57.7612705 C29.1304108,52.9967032 29.8448819,48.1763532 31.7331967,43.770082 C33.3965189,39.8868021 34.152025,35.6752414 33.9422131,31.4559426 L33.6288934,25.2165984 C33.2184978,16.9941612 37.3716205,9.2144507 44.4319144,4.98016848 C51.4922084,0.745886257 60.3110703,0.745886257 67.3713642,4.98016848 C74.4316582,9.2144507 78.5847809,16.9941612 78.1743852,25.2165984 L77.8610656,31.4559426 C77.6512537,35.6752414 78.4067598,39.8868021 80.070082,43.770082 C81.9590346,48.1761725 82.6735306,52.9966911 82.1438525,57.7612705 L82.1438525,57.7612705 Z" id="Path" fill="#E6DDC0"></path>
                                    <path d="M82.1438525,57.7612705 L81.5487705,63.1147541 L61.3114754,63.1147541 L61.3114754,43.2786885 L64.9180328,36.0655738 L64.9180328,21.6393443 C64.9132988,12.7040488 58.940736,4.87255582 50.325,2.50430328 C57.1931458,0.741343719 64.4903732,2.34590281 69.9854572,6.8273651 C75.4805413,11.3088274 78.5199655,18.134224 78.1743852,25.2165984 L77.8610656,31.4559426 C77.6512537,35.6752414 78.4067598,39.8868021 80.070082,43.770082 C81.9590346,48.1761725 82.6735306,52.9966911 82.1438525,57.7612705 L82.1438525,57.7612705 Z" id="Path" fill="#E6DDC0"></path>
                                    <path d="M65.6393443,59.5081967 C64.9696713,59.5085558 64.3273233,59.2426882 63.8537929,58.7691579 C63.3802626,58.2956275 63.1143951,57.6532795 63.1147541,56.9836066 L63.1147541,45.0819672 L48.6885246,45.0819672 L48.6885246,56.9836066 C48.6888836,57.6532795 48.4230161,58.2956275 47.9494857,58.7691579 C47.4759554,59.2426882 46.8336074,59.5085558 46.1639344,59.5081967 L43.2786885,59.5081967 L43.2786885,70.3278689 L68.5245902,70.3278689 L68.5245902,59.5081967 L65.6393443,59.5081967 Z" id="Path" fill="#FFDDCF"></path>
                                    <path d="M56.9890164,54.0983607 C59.221879,54.0738633 61.380798,53.2947744 63.1147541,51.8877664 L63.1147541,45.0819672 L48.6885246,45.0819672 L48.6885246,51.8870902 C50.4223907,53.2943414 52.5813185,54.0736717 54.8142623,54.0983607 L56.9890164,54.0983607 Z" id="Path" fill="#FEB784"></path>
                                    <path d="M72.1311475,25.2459016 L72.1311475,34.2622951 C72.1311475,43.2256048 64.8649491,50.4918029 55.9016393,50.4918029 C46.9383296,50.4918029 39.6721311,43.2256048 39.6721311,34.2622951 L39.6721311,25.2459016 C43.2178606,22.8830905 46.0850129,19.6352052 47.9897541,15.8237705 L48.6885246,14.4262295 L49.7118852,15.2805328 C54.1924436,19.014129 59.3573251,21.8392716 64.9180328,23.5981557 C67.2730634,24.344598 69.6855981,24.8957114 72.1311475,25.2459016 L72.1311475,25.2459016 Z" id="Path" fill="#FFDDCF"></path>
                                    <path d="M72.1311475,25.2459016 L72.1311475,34.2622951 C72.1294583,42.0314632 66.6245661,48.7108458 58.9987705,50.1965164 C62.7914689,46.4735994 64.9250504,41.3801408 64.9180328,36.0655738 L64.9180328,23.5981557 C67.2730634,24.344598 69.6855981,24.8957114 72.1311475,25.2459016 L72.1311475,25.2459016 Z" id="Path" fill="#FEC093"></path>
                                    <polygon id="Path" fill="#E0E0DE" points="46.8852459 66.7213115 64.9180328 66.7213115 64.9180328 79.3442623 46.8852459 79.3442623"></polygon>
                                    <path d="M92.6366803,106.319057 C89.9947075,106.759075 87.4223772,105.222544 86.557377,102.687705 L74.6467213,80.3428279 C76.1885201,84.9524427 75.2369818,90.0315767 72.1311475,93.7704918 L72.1311475,108.196721 L39.6721311,108.196721 L39.6721311,93.7704918 C36.5200779,89.9870568 35.5761853,84.8307015 37.1836066,80.1760246 L25.0790984,102.687705 C24.1120387,105.531481 21.0332143,107.063908 18.1813649,106.120923 C15.3295155,105.177938 13.7711158,102.112178 14.689959,99.252459 L27.9305328,66.2952869 C29.5765798,62.1945448 33.5515137,59.5074038 37.9702869,59.5081965 L45.0819672,59.5081965 L55.9016393,79.3442623 L66.7213115,59.5081965 L73.8059426,59.5081965 C78.2374819,59.5112666 82.2199371,62.2141571 83.8592213,66.3313525 L96.9487705,99.252459 C97.4325648,100.765851 97.2350082,102.414771 96.4074003,103.771045 C95.5797924,105.127318 94.2037828,106.057138 92.6366803,106.319057 L92.6366803,106.319057 Z" id="Path" fill="#66C0B7"></path>
                                    <path d="M13.1256148,99.8588115 L14.4262295,82.9508197 L25.2459016,82.9508197 L25.2459016,100.324283 C25.2459016,103.676187 22.5286462,106.393443 19.1767418,106.393443 C17.4862218,106.393443 15.8723026,105.688376 14.7236942,104.44799 C13.5750859,103.207604 12.9958935,101.544347 13.1256148,99.8588115 L13.1256148,99.8588115 Z" id="Path" fill="#439D94"></path>
                                    <path d="M18.668668,56.6454918 C17.6364247,56.9035323 16.7770934,57.6161444 16.332483,58.5828051 C15.8878725,59.5494657 15.9060444,60.6656808 16.3818852,61.6173566 L18.0327869,64.9180328 L11.5705123,64.9180328 C9.8908394,64.9180586 8.23422718,64.5270191 6.73186475,63.7758811 L4.93489754,62.8773975 C4.26412562,62.542036 3.46753846,62.5778819 2.82959865,62.9721345 C2.19165884,63.3663871 1.80327869,64.0628315 1.80327869,64.8127664 L1.80327869,69.9020697 C1.80327869,71.2681672 2.57513611,72.5170081 3.79702869,73.1279098 L6.73186475,74.5955533 C8.23422718,75.3466912 9.8908394,75.7377049 11.5705123,75.7377049 L25.2459016,75.7377049 L25.2459016,64.9180328 L22.7765369,58.7447336 C22.1246516,57.1163869 20.3702175,56.2198195 18.668668,56.6454918 L18.668668,56.6454918 Z" id="Path" fill="#FFDDCF"></path>
                                    <polygon id="Path" fill="#E0E0DE" points="14.4262295 75.7377049 25.2459016 75.7377049 25.2459016 82.9508197 14.4262295 82.9508197"></polygon>
                                    <path d="M92.6366803,106.319057 C89.9947075,106.759075 87.4223772,105.222544 86.557377,102.687705 L74.6467213,80.3428279 C76.1885201,84.9524427 75.2369818,90.0315767 72.1311475,93.7704918 L72.1311475,108.196721 L40.264959,108.196721 C55.1487705,98.4770492 67.7063525,86.142623 78.2465164,60.4639344 C80.8092491,61.6154251 82.8225282,63.7200698 83.8592213,66.3313525 L96.9487705,99.252459 C97.4325648,100.765851 97.2350082,102.414771 96.4074003,103.771045 C95.5797924,105.127318 94.2037828,106.057138 92.6366803,106.319057 L92.6366803,106.319057 Z" id="Path" fill="#439D94"></path>
                                    <polygon id="Path" fill="#FBD24C" points="81.147541 100.983607 63.1147541 97.3770492 63.1147541 72.1311475 81.147541 75.7377049"></polygon>
                                    <polygon id="Path" fill="#FBD24C" points="88.3606557 100.983607 106.393443 97.3770492 106.393443 72.1311475 88.3606557 75.7377049"></polygon>
                                    <polygon id="Path" fill="#CCA422" points="81.147541 75.7377049 88.3606557 75.7377049 88.3606557 100.983607 81.147541 100.983607"></polygon>
                                    <path d="M84.7540984,75.7377049 C84.7540648,72.6159596 82.497219,69.9517509 79.4179713,69.4384016 L63.1147541,66.7213115 L63.1147541,72.1311475 L81.147541,75.7377049 L84.7540984,75.7377049 C84.7541319,72.6159596 87.0109777,69.9517509 90.0902254,69.4384016 L106.393443,66.7213115 L106.393443,72.1311475 L88.3606557,75.7377049 L84.7540984,75.7377049 Z" id="Path" fill="#D4BD81"></path>
                                    <path d="M103.083299,100.811619 L95.8701844,102.013955 C95.3473312,102.101084 94.812624,101.953761 94.4081755,101.611141 C94.0037269,101.268522 93.7704918,100.765309 93.7704918,100.235246 L93.7704918,93.5326844 C93.7704918,92.3853072 94.5998119,91.4060249 95.7315574,91.2172746 L101.856393,90.1963934 C102.537129,90.0828048 103.233359,90.2745329 103.759976,90.7206025 C104.286592,91.166672 104.590164,91.8218816 104.590164,92.5120287 L104.590164,99.0329098 C104.590164,99.914424 103.952823,100.66672 103.083299,100.811619 L103.083299,100.811619 Z" id="Path" fill="#FFDDCF"></path>
                                    <path d="M55.9016393,-1.1811317e-13 C69.2060168,0.0105507301 79.9911883,10.7885628 80.0105738,24.0929303 C80.0105738,24.4966393 79.9911885,24.9035041 79.9724795,25.2968443 L79.9724795,25.2968443 L79.6656967,31.538668 C79.4689065,35.4844523 80.172273,39.4233048 81.7225615,43.0571107 C83.302873,46.7271272 84.1192891,50.6805139 84.1220492,54.6763115 C84.1159482,55.7696476 84.0524455,56.8619093 83.9318033,57.9485861 L83.9318033,57.9485861 L83.461373,62.2126639 C84.3406498,63.239618 85.0402352,64.4076513 85.5306352,65.6675205 L85.5306352,65.6675205 L86.7733197,68.8052254 C87.6943593,68.2273092 88.7210824,67.8382272 89.7938115,67.6605943 L89.7938115,67.6605943 L106.097029,64.9432787 C106.619896,64.8565546 107.154464,65.0039192 107.559037,65.3463115 C107.963247,65.6887288 108.196721,66.1915612 108.196721,66.7213115 L108.196721,66.7213115 L108.196721,97.3770492 C108.196721,98.23708 107.589215,98.9773608 106.745758,99.1453893 L106.745758,99.1453893 L106.385102,99.2177459 C106.304259,100.910165 105.051654,102.315905 103.379713,102.590553 L103.379713,102.590553 L98.5838934,103.389857 C97.6860019,105.860201 95.5307227,107.658117 92.9394057,108.098443 C92.5468604,108.166005 92.1491309,108.198891 91.7508197,108.196822 C88.6974843,108.195121 85.967218,106.29475 84.9053484,103.432008 L84.9053484,103.432008 L84.5591189,102.786885 L81.147541,102.786885 C81.0878074,102.786885 80.8788525,102.765697 80.8337705,102.757807 L80.8337705,102.757807 L73.9344262,101.379877 L73.9344262,108.196822 L70.3278689,108.196822 L70.3278689,100.658791 L62.7610861,99.1453893 C61.9181669,98.9767976 61.3114358,98.236663 61.3114754,97.3770492 L61.3114754,97.3770492 L61.3114754,73.1921516 L57.4846926,80.2078074 C57.1686868,80.7870922 56.561511,81.1475142 55.9016393,81.1475142 C55.2417677,81.1475142 54.6345919,80.7870922 54.3185861,80.2078074 L54.3185861,80.2078074 L44.0114959,61.3114754 L37.9770492,61.3114754 C35.5441564,61.3213662 33.2159108,62.3022268 31.5093648,64.0362295 C30.6862982,64.8679333 30.04068,65.8581011 29.6116393,66.9467213 L29.6116393,66.9467213 L27.0491803,73.3273975 L27.0491803,95.2356557 L35.4912295,79.5374385 C36.0363975,77.9619668 36.8276171,76.4827665 37.8354918,75.1547951 C37.8433811,75.1419467 37.849918,75.1279713 37.8580328,75.1153484 L37.8580328,75.1153484 L37.890041,75.0592213 C37.9502029,74.9815466 38.0125349,74.9061755 38.0805123,74.8360656 C38.7484221,74.0002729 39.4990113,73.2340512 40.3208607,72.5490574 L40.3208607,72.5490574 L42.629959,75.3197951 C37.4268356,79.6656949 36.7233973,87.4032137 41.0575,92.616168 C41.3275213,92.9402232 41.4753993,93.3486823 41.4754098,93.7704918 L41.4754098,93.7704918 L41.4754098,108.196822 L37.8688525,108.196822 L37.8688525,94.4016393 C36.4497865,92.549196 35.4594288,90.4049608 34.9691803,88.1235246 L34.9691803,88.1235246 L26.7374385,103.428852 C25.6913567,106.292346 22.9673779,108.196822 19.918791,108.196822 C19.8045082,108.196822 19.6897746,108.191988 19.5748156,108.186578 C19.4428757,108.19334 19.3101844,108.196822 19.1767418,108.196822 C16.9840804,108.196822 14.8907752,107.28221 13.4008979,105.673475 C11.9110207,104.06474 11.1595786,101.907532 11.3275205,99.7213115 L11.3275205,99.7213115 L12.6229508,82.881168 L12.6229508,77.5409836 L11.5705123,77.5409836 C9.61120811,77.538622 7.67907498,77.0824956 5.92557377,76.2083607 L5.92557377,76.2083607 L2.9905123,74.7407172 C1.15283769,73.8297397 -0.00699094198,71.9531375 -3.1427574e-05,69.9020697 L-3.1427574e-05,69.9020697 L-3.1427574e-05,64.8127664 C-3.1427574e-05,63.4378133 0.711916517,62.1608912 1.88152036,61.4380337 C3.0511242,60.7151762 4.51162005,60.6494638 5.74141393,61.2643648 L5.74141393,61.2643648 L7.53838115,62.1628484 C8.79088106,62.7872686 10.1709931,63.1130855 11.5705123,63.1147541 L11.5705123,63.1147541 L15.115082,63.1147541 L14.768627,62.4247746 C13.8953756,60.6803165 14.0487171,58.5975379 15.1680343,56.9997798 C16.2873514,55.4020216 18.192476,54.5464631 20.1302954,54.7713141 C22.0681148,54.9961652 23.7267126,56.2652332 24.4504303,58.0768443 L24.4504303,58.0768443 L26.9121311,64.2305328 C27.3161532,63.4949992 27.7947355,62.8029583 28.3403279,62.1653279 L28.3403279,62.1653279 L27.87125,57.960082 C27.3036264,52.8847109 28.0648485,47.7489474 30.0802664,43.0564344 C31.4654041,39.8347359 32.1767325,36.3637023 32.1704918,32.8568648 C32.1704918,32.4227254 32.1538115,31.9840779 32.1357787,31.5195082 L32.1357787,31.5195082 L31.830123,25.2981967 C31.5036124,18.7068925 33.8937053,12.2699424 38.4428252,7.48900012 C42.9919451,2.70805784 49.302253,0.00123614048 55.9016393,-1.1811317e-13 Z M92.4358402,102.008094 L88.7289754,102.749467 L88.7165779,102.751947 L88.7136475,102.751947 L88.67375,102.757807 C88.6401639,102.763668 88.6065779,102.769303 88.572541,102.773135 C89.2362875,103.898051 90.4446832,104.588893 91.7508197,104.590164 C91.941725,104.592032 92.1324191,104.576945 92.3206557,104.545082 C93.0438142,104.421741 93.7150848,104.089514 94.2517418,103.589344 C93.4811284,103.289217 92.8390688,102.730125 92.4358402,102.008094 L92.4358402,102.008094 Z M23.442623,84.7540984 L16.0960656,84.7540984 L14.923709,99.9972131 C14.8324032,101.181931 15.2394409,102.351035 16.0467655,103.222884 C16.8540901,104.094733 17.9885105,104.590164 19.1767418,104.590164 L19.1767418,104.590164 L19.2826844,104.584754 C19.3500692,104.577643 19.4177952,104.574257 19.4855533,104.574611 C21.7136167,104.411687 23.4391336,102.558292 23.442623,100.324283 L23.442623,100.324283 L23.442623,84.7540984 Z M102.245902,91.9672131 C102.214936,91.9674169 102.184035,91.9700548 102.153484,91.9751025 L102.153484,91.9751025 L96.0284221,92.9959836 C95.7657749,93.0392041 95.5732227,93.2665054 95.5737693,93.5326844 L95.5737693,93.5326844 L95.5737693,100.235246 L102.786885,99.0329098 L102.788238,99.032459 L102.786885,92.5118033 C102.786892,92.2124373 102.545261,91.9691957 102.245902,91.9672131 Z M86.557377,77.5409836 L82.9508197,77.5409836 L82.9508197,99.1803279 L86.557377,99.1803279 L86.557377,77.5409836 Z M104.590164,74.3309221 L90.1639344,77.216168 L90.1639344,98.7847336 L91.9672131,98.4240779 L91.9672131,93.5326844 C91.9617912,91.5017132 93.4311654,89.7670379 95.4353689,89.4383402 L95.4353689,89.4383402 L101.56043,88.4176844 C102.619386,88.2404886 103.705759,88.4817522 104.590164,89.0905328 L104.590164,89.0905328 L104.590164,74.3309221 Z M64.9180328,74.3309221 L64.9180328,95.8985861 L79.3442623,98.783832 L79.3442623,77.216168 L64.9180328,74.3309221 Z M23.442623,77.5409836 L16.2295082,77.5409836 L16.2295082,81.147541 L23.442623,81.147541 L23.442623,77.5409836 Z M59.7491598,68.5245902 L52.0541189,68.5245902 L55.9016393,75.5783402 L59.7491598,68.5245902 Z M21.1019672,59.4144262 C20.7832521,58.6249876 19.9325251,58.1900648 19.1059631,58.3939959 C18.6043674,58.5192919 18.1867772,58.8655289 17.9707462,59.3352395 C17.7547153,59.80495 17.7636069,60.3473361 17.994918,60.8097131 L17.994918,60.8097131 L19.6455943,64.1115164 C19.9251157,64.6705025 19.8952721,65.3343648 19.5667215,65.8660152 C19.2381709,66.3976657 18.6577651,66.7212902 18.0327869,66.7213115 L18.0327869,66.7213115 L11.5705123,66.7213115 C9.61120811,66.7189498 7.67907498,66.2628235 5.92557377,65.3886885 L5.92557377,65.3886885 L4.12838115,64.4902049 C4.01738423,64.4309107 3.88286781,64.4369622 3.77764344,64.5059836 C3.66905203,64.5695065 3.60353046,64.6869964 3.60645686,64.8127664 L3.60645686,64.8127664 L3.60645686,69.9020697 C3.60426268,70.585766 3.99081688,71.2113159 4.60331967,71.5151025 L4.60331967,71.5151025 L7.53838115,72.9825205 C8.79088106,73.6069407 10.1709931,73.9327577 11.5705123,73.9344262 L11.5705123,73.9344262 L23.442623,73.9344262 L23.442623,65.2653893 Z M104.590164,68.8498566 L90.387541,71.2173361 C88.8433115,71.4702614 87.5365256,72.4954484 86.9234426,73.9344262 L86.9234426,73.9344262 L88.1821311,73.9344262 L96.108668,72.3495697 L104.590164,70.6531352 L104.590164,68.8498566 Z M64.9162295,68.8494057 L64.9162295,70.6526844 L81.3260656,73.9344262 L82.5847541,73.9344262 C81.9716832,72.4945894 80.6641488,71.4688571 79.1197541,71.216209 L79.1197541,71.216209 L64.9162295,68.8494057 Z M73.8081967,61.3114694 L67.7917828,61.3114694 L65.6113934,65.3093443 L79.7146107,67.659918 C80.8728695,67.8516478 81.9764704,68.2897982 82.9508197,68.9447541 L82.9508197,68.9447541 L82.1760861,66.988873 C81.759491,65.9070198 81.1223548,64.9236808 80.3051844,64.101373 L80.3051844,64.101373 L80.2718238,64.0671107 C78.5840846,62.3043038 76.2486769,61.3086505 73.8081967,61.3114694 L73.8081967,61.3114694 Z M61.3114754,51.4648975 C57.7898497,52.5718046 54.013429,52.5718046 50.4918033,51.4648975 L50.4918033,51.4648975 L50.4918033,56.9836066 C50.4897982,58.6950688 49.480236,60.244878 47.9155943,60.9384221 L47.9155943,60.9384221 L50.0860656,64.9180328 L61.7172131,64.9180328 L63.887459,60.9375205 C62.3232039,60.2440417 61.3137969,58.6946886 61.3114754,56.9836066 L61.3114754,56.9836066 Z M65.8535978,6.17984023 C59.3452897,2.56768652 51.3903473,2.76738065 45.0714754,6.70153701 C38.7526035,10.6356934 35.0628888,17.6860119 35.4321721,25.1203484 L35.4321721,25.1203484 L35.7387295,31.3605943 C35.7581148,31.8578484 35.7770492,32.3519467 35.7770492,32.8557377 C35.7837257,36.8514551 34.9728294,40.8062911 33.3942418,44.4769672 C31.6254753,48.5947757 30.9574581,53.1016393 31.4557172,57.5554713 L31.4557172,57.5554713 L31.662418,59.4085656 C33.5825276,58.2992865 35.759557,57.7119377 37.9770492,57.704918 L37.9770492,57.704918 L46.1639344,57.704918 C46.5601217,57.6996988 46.8800266,57.3797939 46.8852459,56.9836066 L46.8852459,56.9836066 L46.8852459,49.8689959 C41.309905,46.6486791 37.8736842,40.7008386 37.8688525,34.2622951 L37.8688525,34.2622951 L37.8688525,25.2459016 C37.8688376,24.6428962 38.1702266,24.0797902 38.6719877,23.7453484 C41.9548536,21.5546499 44.610376,18.5465028 46.3769467,15.0172541 L46.3769467,15.0172541 L47.0757172,13.6197131 C47.3220877,13.1269687 47.7801826,12.7738733 48.3194166,12.6610809 C48.8586506,12.5482884 49.419863,12.6881737 49.8430738,13.0408607 L49.8430738,13.0408607 L50.8671107,13.8944877 C57.013401,19.0183406 64.4643567,22.3306309 72.3860861,23.4606557 C73.2745365,23.5875348 73.9344656,24.3484372 73.9344262,25.2459016 L73.9344262,25.2459016 L73.9344262,34.2622951 C73.9295945,40.7008386 70.4933736,46.6486791 64.9180328,49.8689959 L64.9180328,49.8689959 L64.9180328,56.9836066 C64.923252,57.3797939 65.243157,57.6996988 65.6393443,57.704918 L65.6393443,57.704918 L73.8081967,57.704918 C76.0337094,57.7074149 78.2189327,58.2987682 80.1419877,59.4189344 L80.1419877,59.4189344 L80.3468852,57.5606557 C80.453693,56.6025236 80.5102732,55.6394573 80.5163934,54.6754098 C80.5131247,51.1668149 79.7954947,47.6956238 78.4072336,44.4733607 C76.6419409,40.3352609 75.8409199,35.8498671 76.0647746,31.3565369 L76.0647746,31.3565369 L76.3711066,25.12125 C76.3884631,24.7565369 76.404918,24.4096311 76.404918,24.0918033 C76.4007207,16.648302 72.3619059,9.79199394 65.8535978,6.17984023 Z M49.28,17.2544467 C47.3916185,20.7872962 44.722413,23.8429599 41.4754098,26.1890164 L41.4754098,26.1890164 L41.4754098,34.2622951 C41.4843539,42.2259739 47.9379605,48.6795805 55.9016393,48.6885246 C63.8653182,48.6795805 70.3189248,42.2259739 70.3278689,34.2622951 L70.3278689,34.2622951 L70.3278689,26.7831967 C62.6246789,25.4195872 55.3873342,22.1431107 49.28,17.2544467 Z M54.0983607,36.0655738 C54.0994787,37.0610336 54.9061795,37.8677345 55.9016393,37.8688525 C56.8970992,37.8677345 57.7038,37.0610336 57.704918,36.0655738 L57.704918,36.0655738 L61.3114754,36.0655738 C61.3114754,39.0533437 58.8894093,41.4754098 55.9016393,41.4754098 C52.9138694,41.4754098 50.4918033,39.0533437 50.4918033,36.0655738 L50.4918033,36.0655738 Z M64.0163934,27.0491803 C65.5096089,27.0507954 66.7196964,28.2608829 66.7213115,29.7540984 C66.7213115,31.2479833 65.5102784,32.4590164 64.0163934,32.4590164 C62.5225085,32.4590164 61.3114754,31.2479833 61.3114754,29.7540984 C61.3114754,28.2602134 62.5225085,27.0491803 64.0163934,27.0491803 Z M47.7868852,27.0491803 C49.2801007,27.0507954 50.4901883,28.2608829 50.4918033,29.7540984 C50.4918033,31.2479833 49.2807702,32.4590164 47.7868852,32.4590164 C46.2930003,32.4590164 45.0819672,31.2479833 45.0819672,29.7540984 C45.0819672,28.2602134 46.2930003,27.0491803 47.7868852,27.0491803 Z" id="Combined-Shape" fill="#1B3C3E"></path>
                                </g>
                            </g>
                        </g>
                    </g>
                </g>
            </g>
        </g>
    </g>
</svg>