<?xml version="1.0" encoding="UTF-8"?>
<svg width="154px" height="131px" viewBox="0 0 154 131" version="1.1" xmlns="http://www.w3.org/2000/svg" xmlns:xlink="http://www.w3.org/1999/xlink">
    <!-- Generator: Sketch 61.2 (89653) - https://sketch.com -->
    <title>bus</title>
    <desc>Created with Sketch.</desc>
    <defs>
        <linearGradient x1="100%" y1="26.6877657%" x2="8.96724057%" y2="80.0028369%" id="linearGradient-1">
            <stop stop-color="#66C0B7" stop-opacity="0" offset="0%"></stop>
            <stop stop-color="#66C0B7" stop-opacity="0.166165865" offset="100%"></stop>
        </linearGradient>
    </defs>
    <g id="Page-1" stroke="none" stroke-width="1" fill="none" fill-rule="evenodd">
        <g id="Learning-HD" transform="translate(-1529.000000, -2037.000000)">
            <g id="Group-3" transform="translate(140.000000, 1921.000000)">
                <g id="Group-47" transform="translate(0.000000, 106.000000)">
                    <g id="Group-42" transform="translate(1389.000000, 0.000000)">
                        <g id="Group-14">
                            <g id="bus" transform="translate(0.000000, 10.000000)">
                                <circle id="Oval-Copy" fill="url(#linearGradient-1)" cx="63.5" cy="67.5" r="63.5"></circle>
                                <g id="005-mortarboard" transform="translate(5.000000, 0.000000)" fill-rule="nonzero">
                                    <path d="M98.5028866,62.9709847 L9.44737294,62.9709847 L9.44737294,91.2322641 L98.5019007,91.2322641 C102.766675,91.2322641 106.224041,84.9060831 106.224041,77.1021173 C106.224041,69.2981515 102.767661,62.9709847 98.5028866,62.9709847 Z" id="Path" fill="#FFFFFF"></path>
                                    <path d="M17.1734568,77.1011315 C17.1734568,84.9090407 13.7131334,91.2283207 9.4444154,91.2283207 C5.17569737,91.2283207 1.72523246,84.9090407 1.72523246,77.1011315 C1.72523246,69.2932223 5.18555585,62.9739423 9.4444154,62.9739423 C13.703275,62.9739423 17.1734568,69.2932223 17.1734568,77.1011315 Z" id="Path" fill="#FFDDCF"></path>
                                    <path d="M17.1734568,77.1011315 C17.1734568,84.9090407 13.7131334,91.2283207 9.4444154,91.2283207 C5.34329139,81.5374435 9.4444154,77.1011315 9.4444154,77.1011315 L17.1734568,77.1011315 Z" id="Path" fill="#C3C3C3"></path>
                                    <path d="M98.5028866,62.9709847 L53.9751298,62.9709847 L63.5053139,77.1011315 L53.9751298,91.2322641 L98.5028866,91.2322641 C102.767661,91.2322641 106.225027,84.9060831 106.225027,77.1021173 C106.225027,69.2981515 102.767661,62.9709847 98.5028866,62.9709847 Z" id="Path" fill="#FFFFFF"></path>
                                    <path d="M24.8926398,16.9171366 L24.8926398,50.2644012 C24.8926398,51.8240114 37.910751,54.7815527 53.9751298,54.7815527 C70.0395086,54.7815527 83.0576198,51.8240114 83.0576198,50.2644012 L83.0576198,16.9171366 L24.8926398,16.9171366 Z" id="Path" fill="#FBD24C"></path>
                                    <path d="M53.9751298,54.7815527 C70.0345793,54.7815527 83.0576198,51.8240114 83.0576198,50.2644012 L83.0576198,16.9171366 L53.9751298,16.9171366 L53.9751298,54.7815527 Z" id="Path" fill="#CCA422"></path>
                                    <path d="M58.5376302,62.9709847 L49.4126293,62.9709847 C53.6774039,62.9709847 57.1347698,69.2971657 57.1347698,77.1011315 C57.1347698,84.9050973 53.6774039,91.2312782 49.4126293,91.2312782 L58.5366444,91.2312782 C62.801419,91.2312782 66.2587849,84.9050973 66.2587849,77.1011315 C66.2587849,69.2971657 62.8024049,62.9709847 58.5376302,62.9709847 Z" id="Path" fill="#66C0B7"></path>
                                    <polygon id="Path" fill="#1B3C3E" points="48.0600471 106.348258 44.991105 102.083483 37.9787744 106.348258 43.8938571 91.2283207 53.9751298 91.2283207"></polygon>
                                    <polygon id="Path" fill="#66C0B7" points="59.8902125 106.348258 62.9591546 102.083483 69.9714851 106.348258 64.0564024 91.2283207 53.9751298 91.2283207"></polygon>
                                    <polygon id="Path" fill="#FBD24C" points="53.9751298 1.84846335 9.08753874 16.9171366 53.9751298 31.9848239 98.8627208 16.9171366"></polygon>
                                    <path d="M94.8394787,16.5415288 C93.8866591,16.5415288 93.1142462,17.3139417 93.1142462,18.2667613 L93.1142462,52.5584675 C93.1142462,53.511287 93.8866591,54.2836999 94.8394787,54.2836999 C95.7922983,54.2836999 96.5647112,53.511287 96.5647112,52.5584675 L96.5647112,18.2667613 C96.5647112,17.3139417 95.7922983,16.5415288 94.8394787,16.5415288 Z" id="Path" fill="#724435"></path>
                                    <polygon id="Path" fill="#CCA422" points="98.8627208 16.9171366 53.9751298 1.84846335 53.9751298 31.9848239"></polygon>
                                    <polygon id="Path" fill="#FBD24C" points="98.8627208 69.2143545 94.8394787 65.6860077 90.8162366 69.2143545 90.8162366 52.5584675 98.8627208 52.5584675"></polygon>
                                    <g id="Group">
                                        <path d="M98.50683,89.5070316 C101.343112,89.5070316 104.503738,84.4121737 104.503738,77.1011315 C104.566844,74.0068734 103.903348,70.9409446 102.566548,68.1496396 C102.247542,67.600483 102.25604,66.9204661 102.588671,66.3794531 C102.921302,65.8384402 103.524273,65.5239227 104.158295,65.5607168 C104.792318,65.5975109 105.354859,65.9796663 105.622674,66.5555249 C107.214918,69.839513 108.012258,73.4520254 107.95026,77.1011315 C107.95026,85.9934725 103.800829,92.9574965 98.5028866,92.9574965 L98.5028866,92.9574965 L76.0129858,92.9574378 L75.9920535,92.9584824 L66.5851003,92.9584824 L71.5774301,105.720273 C71.8471841,106.409482 71.6472855,107.193963 71.0805993,107.670033 C70.5139131,108.146103 69.7067093,108.207683 69.0743642,107.823085 L69.0743642,107.823085 L63.4264461,104.388394 L61.2901154,107.357765 C60.9660541,107.808207 60.445112,108.075462 59.8902125,108.075462 C59.8180353,108.075462 59.7459406,108.070547 59.674312,108.06166 C59.0470194,107.982226 58.5133543,107.566187 58.2832817,106.977228 L58.2832817,106.977228 L53.9751298,95.9643303 L49.6669779,106.977228 C49.4369052,107.566187 48.9032402,107.982226 48.2759476,108.06166 C48.204319,108.070547 48.1322242,108.075462 48.0600471,108.075462 C47.5051476,108.075462 46.9842054,107.808207 46.6601441,107.357765 L46.6601441,107.357765 L44.5238134,104.388394 L38.8758953,107.823085 C38.2435503,108.207683 37.4363464,108.146103 36.8696603,107.670033 C36.3029741,107.193963 36.1030754,106.409482 36.3728295,105.720273 L36.3728295,105.720273 L40.1190485,96.1378394 C40.4661471,95.250356 41.4669735,94.8122875 42.3544569,95.1593861 C43.2419402,95.5064846 43.6800087,96.5073111 43.3329101,97.3947944 L43.3329101,97.3947944 L41.4450129,102.220516 L44.0939841,100.609642 C44.8640152,100.141772 45.8643725,100.344849 46.3910079,101.075948 L46.3910079,101.075948 L47.6085291,102.767661 L51.4464319,92.9584824 L9.44934464,92.9584824 C9.38494498,92.9555277 9.3207631,92.9489449 9.25710445,92.9387655 C4.05183166,92.7770865 0.000985847114,85.8840435 0.000985847114,77.1021173 C0.000985847114,68.2906158 4.08337877,61.3808133 9.3083685,61.26054 C9.35470331,61.2565966 9.40005228,61.2467381 9.44835879,61.2467381 L9.44835879,61.2467381 L89.0910041,61.2467381 L89.0910041,52.5584675 C89.0910041,51.6056479 89.863417,50.833235 90.8162366,50.833235 L90.8162366,50.833235 L93.1132604,50.833235 L93.1132604,20.6663132 L54.5242466,33.6203443 C54.1678949,33.7396846 53.7823647,33.7396846 53.4260129,33.6203443 L53.4260129,33.6203443 L26.6228014,24.6225176 L26.6228014,49.5743082 C28.9868628,50.7681691 39.6280966,53.0563203 53.9751298,53.0563203 C68.3221629,53.0563203 78.961425,50.7681691 81.3274581,49.5743082 L81.3274581,49.5743082 L81.3274581,30.2733933 C81.3274581,29.3205738 82.099871,28.5481609 83.0526905,28.5481609 C84.0055101,28.5481609 84.777923,29.3205738 84.777923,30.2733933 L84.777923,30.2733933 L84.7772607,50.4015682 C84.7615858,51.5051787 84.374938,53.1121272 74.8376265,54.8061989 C67.9449392,55.9690292 60.9651469,56.5379802 53.9751298,56.5067852 C46.9854417,56.5379238 40.0059817,55.9689729 33.1136189,54.8061989 C23.5763074,53.1121272 23.1896596,51.5051787 23.1739847,50.4015682 L23.1733224,23.4641473 L8.53940774,18.5516711 C7.83672639,18.3157611 7.36326558,17.6573758 7.36326558,16.9161507 C7.36326558,16.1749257 7.83672639,15.5165403 8.53940774,15.2806303 L8.53940774,15.2806303 L24.3484521,9.9738153 C25.2472969,9.68536244 26.2110693,10.1728759 26.5112856,11.0678603 C26.8115019,11.9628447 26.3366701,12.932928 25.4457,13.244856 L25.4457,13.244856 L14.5087121,16.9161507 L53.9751298,30.165936 L93.4415475,16.9161507 L53.9751298,3.66833713 L38.5407073,8.84896374 C37.9563921,9.04514432 37.3118015,8.91469422 36.8497466,8.50675273 C36.3876917,8.09881124 36.1783695,7.47535438 36.3006298,6.87123232 C36.42289,6.26711027 36.8581584,5.77410354 37.4424736,5.577923 L37.4424736,5.577923 L53.4260129,0.212942978 C53.7823647,0.0936026986 54.1678949,0.0936026986 54.5242466,0.212942978 L54.5242466,0.212942978 L99.4108518,15.2816162 C100.113533,15.5175261 100.586994,16.1759115 100.586994,16.9171366 C100.586994,17.6583616 100.113533,18.316747 99.4108518,18.5526569 L99.4108518,18.5526569 L96.5637253,19.5079428 L96.5637253,50.8283058 L98.854834,50.8283058 C99.8076536,50.8283058 100.580066,51.6007186 100.580066,52.5535382 L100.580066,52.5535382 L100.580066,69.2143545 C100.578489,69.8900008 100.182657,70.502543 99.567316,70.7815685 C98.9519745,71.060594 98.2303888,70.9547427 97.7211098,70.5107435 L97.7211098,70.5107435 L94.8355353,67.9810598 L91.9499608,70.5107435 C91.4406818,70.9547427 90.7190961,71.060594 90.1037547,70.7815685 C89.4884132,70.502543 89.0925819,69.8900008 89.0910041,69.2143545 L89.0910041,69.2143545 L89.0910041,64.6962172 L64.478345,64.6962172 C66.6274917,67.57982 67.9850032,72.0210613 67.9850032,77.1011315 C67.9850032,82.1812017 66.6274917,86.6244147 64.478345,89.5070316 L64.478345,89.5070316 Z M62.8783151,92.954539 L56.5028418,92.954539 L60.3407446,102.763718 L61.5582658,101.072004 C62.0846237,100.340476 63.0853465,100.137325 63.8552896,100.605698 L63.8552896,100.605698 L66.503275,102.21953 L62.8783151,92.954539 Z M58.5366444,64.6962172 L15.3880877,64.6962172 C17.5392061,67.5778483 18.8986893,72.0210613 18.8986893,77.1011315 C18.8986893,82.1812017 17.5392061,86.6254005 15.3871018,89.5070316 L15.3871018,89.5070316 L49.414601,89.5070316 C52.2508832,89.5070316 55.411509,84.4121737 55.411509,77.1011315 C55.4358705,74.6150973 55.0258411,72.1439109 54.1999029,69.7989619 C53.8771521,68.9072317 54.3346551,67.9221814 55.2242187,67.5935062 C56.1137823,67.264831 57.101854,67.7157716 57.436439,68.6031293 C58.4033196,71.3310504 58.8857629,74.2070262 58.8619739,77.1011315 C58.8619739,82.1812017 57.5044625,86.6244147 55.3553157,89.5070316 L55.3553157,89.5070316 L58.5376302,89.5070316 C61.3739124,89.5070316 64.5345383,84.4121737 64.5345383,77.1011315 C64.5345383,69.7910751 61.3689832,64.6962172 58.5366444,64.6962172 L58.5366444,64.6962172 Z M15.3811868,78.8263639 L10.3415363,78.8263639 C9.64355652,80.0636021 8.39547407,83.404638 10.5268755,89.2654991 C12.800239,88.2835954 14.992763,84.3224616 15.3811868,78.8263639 L15.3811868,78.8263639 Z M9.4444154,64.6991747 C6.6051757,64.6991747 3.45046492,69.7920609 3.45046492,77.1011315 C3.45046492,81.8223533 4.77051421,85.6080063 6.46814295,87.7058889 C4.61475036,79.9462863 8.00803615,76.1142985 8.17760185,75.930931 C8.50406198,75.5774484 8.96324389,75.3762659 9.4444154,75.375899 L9.4444154,75.375899 L15.3802009,75.375899 C14.9306546,69.0063408 12.0539527,64.6991747 9.4444154,64.6991747 Z M97.1374883,54.2836999 L92.5414691,54.2836999 L92.5414691,65.4109563 L93.7018111,64.3935621 C94.3524537,63.8216802 95.3265037,63.8216802 95.9771463,64.3935621 L95.9771463,64.3935621 L97.1374883,65.4109563 L97.1374883,54.2836999 Z" id="Combined-Shape" fill="#1B3C3E"></path>
                                        <path d="M30.8077225,11.3500579 C30.9943928,11.3498531 31.1798098,11.3195605 31.3568393,11.2603458 L32.3062101,10.9419172 C33.1973679,10.6307278 33.6729871,9.6611337 33.3736008,8.76594161 C33.0742144,7.87074952 32.1109898,7.38235955 31.2119198,7.66989059 L30.262549,7.98831921 C29.4610604,8.25740153 28.9726532,9.06765024 29.1089847,9.90203805 C29.2453162,10.7364259 29.9662137,11.349085 30.8116659,11.349072 L30.8077225,11.3500579 Z" id="Path" fill="#500000"></path>
                                    </g>
                                </g>
                                <g id="father-and-son" transform="translate(112.000000, 62.000000)"></g>
                            </g>
                        </g>
                    </g>
                </g>
            </g>
        </g>
    </g>
</svg>