<?xml version="1.0" encoding="UTF-8"?>
<svg width="127px" height="141px" viewBox="0 0 127 141" version="1.1" xmlns="http://www.w3.org/2000/svg" xmlns:xlink="http://www.w3.org/1999/xlink">
    <!-- Generator: Sketch 61.2 (89653) - https://sketch.com -->
    <title>006-receptionist</title>
    <desc>Created with Sketch.</desc>
    <defs>
        <linearGradient x1="100%" y1="26.6877657%" x2="8.96724057%" y2="80.0028369%" id="linearGradient-1">
            <stop stop-color="#66C0B7" stop-opacity="0" offset="0%"></stop>
            <stop stop-color="#66C0B7" stop-opacity="0.166165865" offset="100%"></stop>
        </linearGradient>
    </defs>
    <g id="Page-1" stroke="none" stroke-width="1" fill="none" fill-rule="evenodd">
        <g id="Life-@-Darwin-HD" transform="translate(-175.000000, -10292.000000)">
            <g id="Group-17-Copy" transform="translate(175.000000, 10292.000000)">
                <g id="Group-15">
                    <g id="Group-47">
                        <g id="Group-46">
                            <g id="Group-10">
                                <g id="006-receptionist">
                                    <circle id="Oval" fill="url(#linearGradient-1)" cx="63.5" cy="77.5" r="63.5"></circle>
                                    <polygon id="Path" fill="#66C0B7" fill-rule="nonzero" points="119 66 105 66 103 74 115 74 115 102 97 102 97 110 123 110 123 70 119 70"></polygon>
                                    <polygon id="Path" fill="#FFDDCF" fill-rule="nonzero" points="99.81225 84 91 84 87 74 95 64 107 60"></polygon>
                                    <path d="M56.6771975,62.64557 L61.0839975,53.83197 C63.5748405,48.8502829 63.8164667,43.0412127 61.747935,37.86988 C61.2506253,36.6266034 60.8827053,35.3354068 60.65,34.0167325 L58.128115,19.7260875 C56.3188985,9.47385795 47.4106424,2 37,2 C26.5893576,2 17.6811015,9.47385795 15.871885,19.7260875 L13.35,34.0167325 C13.1172932,35.3354035 12.7493724,36.6265967 12.2520625,37.86987 C10.1835276,43.0412047 10.4251538,48.8502785 12.916,53.8319675 L17.3228025,62.64557 L56.6771975,62.64557 Z" id="Path" fill="#FBD24C" fill-rule="nonzero"></path>
                                    <path d="M91,84 L75,92 L65,92 L51,84 L51,110 L13,110 L7,100 L10.1675,68.3300175 C10.6894163,63.1126399 13.734209,58.4819333 18.3175,55.935 L22.665,53.5200225 L29,50 L31,44 L43,44 L45,50 L51.335,53.52002 L59.005,57.78002 C61.6160805,59.2310702 63.7689414,61.3839242 65.22,63.995 L73,78 L87,74 L91,84 Z" id="Path" fill="#66C0B7" fill-rule="nonzero"></path>
                                    <polygon id="Path" fill="#FFFFFF" fill-rule="nonzero" points="51.335 53.52 39 71.1425 37 74 35 71.1425 22.665 53.52 29 50 31 44 43 44 45 50"></polygon>
                                    <polygon id="Path" fill="#FFDDCF" fill-rule="nonzero" points="45 50 37 56 29 50 31 44 43 44"></polygon>
                                    <polygon id="Path" fill="#FFFFFF" fill-rule="nonzero" points="7 110 123 110 123 118 7 118"></polygon>
                                    <polygon id="Path" fill="#66C0B7" fill-rule="nonzero" transform="translate(105.038902, 63.045909) rotate(-75.935963) translate(-105.038902, -63.045909) " points="72.0548678 58.9228893 138.022935 58.9228893 138.022935 67.168929 72.0548678 67.168929"></polygon>
                                    <circle id="Oval" fill="#8899F7" fill-rule="nonzero" cx="119" cy="70" r="4"></circle>
                                    <polygon id="Path" fill="#FFDDCF" fill-rule="nonzero" points="57 102 57 110 37 110 37 99.0775 41 100 51 96"></polygon>
                                    <path d="M51.142605,24 L51.142605,32.000025 C51.142605,39.7320056 44.8745856,46.00001 37.142605,46.00001 L37.1425775,46.00001 C29.4105993,46.00001 23.1425925,39.7320032 23.1425925,32.000025 L23.1425925,24 C29.4631854,24 35.441082,21.1268714 39.389525,16.1913175 L41.142605,14 C46.6654525,14 51.142605,18.4771525 51.142605,24 L51.142605,24 Z" id="Path" fill="#FFDDCF" fill-rule="nonzero"></path>
                                    <circle id="Oval" fill="#000000" fill-rule="nonzero" cx="43.1425" cy="26" r="2"></circle>
                                    <path d="M41.1425775,32 L41.1425775,30 L37.1425775,30 L37.1425775,32 C37.1413155,33.1040464 36.2466239,33.998738 35.1425775,34 L33.1425775,34 L33.1425775,38 L35.1425775,38 C38.4547154,37.9962113 41.1387888,35.3121379 41.1425775,32 L41.1425775,32 Z" id="Path" fill="#1B3C3E" fill-rule="nonzero"></path>
                                    <path d="M119,64.0000039 L111.061585,64.0000039 L118.940308,32.4851075 C119.208154,31.4135447 118.556653,30.3277292 117.485108,30.059815 L109.485108,28.059815 C108.970519,27.9310797 108.425866,28.0120671 107.970997,28.2849562 C107.516128,28.5578453 107.188315,29.0002759 107.059693,29.5148925 L99.326,60.4497075 L94.3675625,62.10254 C94.0017877,62.2245142 93.6790639,62.4496112 93.4382425,62.7507325 L85.8370625,72.2521975 L73.9773125,75.64087 L66.9684025,63.0249025 C65.6682183,60.684338 63.8617348,58.6636829 61.68085,57.1104725 L62.87282,54.7265625 C65.6169585,49.2332373 65.8833344,42.8291925 63.604875,37.1269525 C63.1587617,36.0111998 62.8286147,34.8525132 62.6196475,33.66919 L60.0977775,19.3784175 C58.1198041,8.17050793 48.3811078,3.93630853e-06 37,3.93630853e-06 C25.6188922,3.93630853e-06 15.8801959,8.17050793 13.9022225,19.3784175 L11.38037,33.6694325 C11.1713376,34.8527415 10.8411925,36.0114224 10.3951425,37.1271975 C8.11668789,42.8293544 8.38306438,49.2333228 11.1271975,54.7265625 L12.7058725,57.88391 C10.1449556,60.7308337 8.55849712,64.3201561 8.177,68.13037 L5.0098875,99.801025 C4.96708601,100.22931 5.0635797,100.659976 5.285035,101.029053 L9.467605,108.000004 L7,108.000004 C5.89543508,108.000004 4.99997113,108.895435 4.99997113,110.000004 L4.99997113,118.000004 C4.99997113,119.104565 5.89543508,120.000004 7,120.000004 L123,120.000004 C124.104565,120.000004 125,119.104565 125,118.000004 L125,70.0000039 C124.996255,66.6878438 122.312156,64.0037447 119,64.0000039 L119,64.0000039 Z M121,108 L99,108 L99,104 L115,104 C116.104565,103.999989 116.999989,103.104565 117,102 L117,75.655945 C118.293875,76.1146849 119.706125,76.1146849 121,75.655945 L121,108 Z M59,108 L59,102 C59,101.469535 58.7892736,100.960795 58.414185,100.585693 L53,95.1715 L53,87.4464725 L64.00769,93.7365725 C64.3099218,93.9091853 64.6519494,93.999983 65,94 L75,94 C75.3104918,94.0000241 75.6167205,93.9277193 75.89441,93.7888175 L91.472045,86 L92.938415,86 L91.0596925,93.5148925 C90.7918465,94.5864553 91.4433467,95.6722708 92.5148925,95.940185 L100.514893,97.940185 C101.029516,98.0695917 101.574482,97.9888951 102.029519,97.7159046 C102.484557,97.442914 102.812261,97.0000709 102.940308,96.4851075 L108.061585,76 L113,76 L113,100 L97,100 C95.8954351,100.000011 95.000011,100.895435 95,102 L95,108 L59,108 Z M40.5502925,101.94873 C40.9478747,102.040162 41.3638883,102.008138 41.7427925,101.856933 L50.5182925,98.3466825 L55,102.82837 L55,108 L39,108 L39,101.590943 L40.5502925,101.94873 Z M113.34404,68 C112.88532,69.2938788 112.88532,70.7061212 113.34404,72 L109.061585,72 L110.061585,68 L113.34404,68 Z M110.4552,32.4252925 L114.574585,33.4553225 L99.5448,93.5747075 L95.425415,92.5446775 L110.4552,32.4252925 Z M96.19275,65.7106925 L98.176,65.0496225 L93.938415,82 L92.354,82 L89.28973,74.339355 L96.19275,65.7106925 Z M14.109,38.6127925 C14.6570357,37.2419189 15.0626946,35.8183388 15.31958,34.3645 L17.84143,20.0737275 C19.4819635,10.7771766 27.5598089,3.99999349 37,3.99999349 C46.4401911,3.99999349 54.5180365,10.7771766 56.15857,20.0737275 L58.68042,34.364255 C58.9372402,35.8181097 59.342901,37.2416972 59.891,38.61255 C61.745567,43.2537964 61.5287609,48.4662942 59.295175,52.9375 L58.2322325,55.063355 L46.6513775,48.629395 L45.6268575,45.5559075 C50.2996557,42.6333154 53.1393157,37.511495 53.1425775,31.9999935 L53.1425775,23.9999935 C53.1351377,17.3756671 47.7669104,12.0074398 41.1425775,11.9999935 C40.5349663,11.9999652 39.9603011,12.2762034 39.58081,12.7507325 L37.82776,14.9421375 C34.2674833,19.4140521 28.8586431,22.013601 23.1425775,21.9999935 C22.0380131,22.0000124 21.1425899,22.8954356 21.1425775,23.9999935 L21.1425775,31.9999935 C21.145408,37.4123764 23.8849189,42.4562518 28.4234,45.4051525 L27.3486325,48.6294025 L17.34607,54.1865225 C16.8180162,54.4804865 16.3051155,54.8008805 15.80932,55.146485 L14.70482,52.9375 C12.4712416,48.466378 12.2544368,43.2539561 14.109,38.6127925 L14.109,38.6127925 Z M31.1426075,28 C32.0717627,28.0005749 32.8787822,27.3607873 33.0901869,26.4560013 C33.3015915,25.5512152 32.8616235,24.6200671 32.0284125,24.2088625 C35.5202769,22.7316728 38.5875288,20.4051 40.951295,17.440675 L42.06189,16.0525 C46.0952365,16.5242617 49.1376813,19.9391603 49.1425775,24 L49.1425775,32 C49.1425775,38.627417 43.7699945,44 37.1425775,44 C30.5151605,44 25.1425775,38.627417 25.1425775,32 L25.1425775,25.9138175 C26.5603481,25.7907652 27.9635056,25.5354035 29.333725,25.1510675 C29.041446,25.7701068 29.0867075,26.4957308 29.4536481,27.0736505 C29.8205887,27.6515703 30.4580381,28.0011944 31.1426075,28 L31.1426075,28 Z M37.1425775,48 C38.7825469,48.0008445 40.4128237,47.7485872 41.975845,47.252135 L42.64676,49.264885 L37,53.5 L31.35325,49.2648925 L32.05311,47.1652825 C33.6929781,47.7181997 35.412004,48.0001351 37.1425775,48 L37.1425775,48 Z M28.8375,52.378175 L35,57.00006 L35,67.6552725 L25.57486,54.190795 L28.8375,52.378175 Z M39,57.00006 L45.1625,52.378175 L48.425165,54.190795 L39,67.6552725 L39,57.00006 Z M9.05603,99.53955 L12.1572275,68.52832 C12.6144044,63.96334 15.2785796,59.9117835 19.2886975,57.683105 L22.0593725,56.1438 L35.3615725,75.1469725 C35.7358339,75.6815957 36.3473948,75.9999959 37,75.9999959 C37.6526052,75.9999959 38.2641661,75.6815957 38.6384275,75.1469725 L51.9406275,56.1438 L58.032715,59.52832 C60.3183846,60.7974109 62.2026601,62.681644 63.4718025,64.967285 L71.25171,78.9711925 C71.7032928,79.7839592 72.6553784,80.1783893 73.5494375,79.923095 L85.8135975,76.418945 L88.4595975,83.03418 L74.5278325,90 L65.5311275,90 L54.1454325,83.493775 C58.3889996,77.8923644 57.8481544,70.0186107 52.87854,65.05005 L52.4140625,64.5856925 L49.5859375,67.4143075 L50.05017,67.8784175 C53.9831832,71.8114759 53.9832951,78.188141 50.05042,82.1213375 L49.5859425,82.5856925 C49.2107783,82.9607552 49.0000033,83.4695094 49,84 L49,94.646 L40.8391125,97.9104 L25,94.2551875 L25,84 C24.999998,83.4695102 24.7892249,82.9607561 24.4140625,82.5856925 L23.94983,82.1215825 C20.0168168,78.1885241 20.0167049,71.811859 23.94958,67.8786625 L24.4140575,67.4143075 L21.5859325,64.5856925 L21.12121,65.0502925 C15.6738277,70.4979033 15.6198,79.3131758 21,84.8271475 L21,93.3320925 L15.4497075,92.05127 L14.5502925,95.94873 L35,100.667907 L35,108 L14.132325,108 L9.05603,99.53955 Z M121,116 L9,116 L9,112 L121,112 L121,116 Z M119,72 C117.895431,72 117,71.1045695 117,70 C117,68.8954305 117.895431,68 119,68 C120.104569,68 121,68.8954305 121,70 C120.998737,71.1040458 120.104046,71.9987367 119,72 L119,72 Z" id="Shape" fill="#1B3C3E" fill-rule="nonzero"></path>
                                </g>
                            </g>
                        </g>
                    </g>
                </g>
            </g>
        </g>
    </g>
</svg>