<?xml version="1.0" encoding="UTF-8"?>
<svg width="120px" height="120px" viewBox="0 0 120 120" version="1.1" xmlns="http://www.w3.org/2000/svg" xmlns:xlink="http://www.w3.org/1999/xlink">
    <!-- Generator: Sketch 61.2 (89653) - https://sketch.com -->
    <title>002-presentation</title>
    <desc>Created with Sketch.</desc>
    <defs>
        <linearGradient x1="50%" y1="0%" x2="50%" y2="100%" id="linearGradient-1">
            <stop stop-color="#FBD24C" offset="0%"></stop>
            <stop stop-color="#FBD24C" offset="100%"></stop>
        </linearGradient>
    </defs>
    <g id="Page-1" stroke="none" stroke-width="1" fill="none" fill-rule="evenodd">
        <g id="Desktop-HD" transform="translate(-515.000000, -1469.000000)" fill-rule="nonzero">
            <g id="Group-15" transform="translate(140.000000, 1270.000000)">
                <g id="Group-47" transform="translate(0.000000, 149.000000)">
                    <g id="Group-45" transform="translate(335.000000, 0.000000)">
                        <g id="Group-11" transform="translate(40.000000, 50.000000)">
                            <g id="002-presentation">
                                <path d="M118,0 L2,0 C0.894,0 0,0.896 0,2 L0,74 C0,75.104 0.894,76 2,76 L22,76 L22,79.624 C18.42,81.702 16,85.57 16,90 C16,93.89 17.87,97.344 20.748,99.538 C14.426,102.334 10,108.656 10,116 L10,118 C10,119.104 10.894,120 12,120 L44,120 L76,120 L108,120 C109.106,120 110,119.104 110,118 L110,116 C110,108.656 105.574,102.334 99.252,99.538 C102.13,97.344 104,93.89 104,90 C104,85.57 101.58,81.702 98,79.624 L98,76 L118,76 C119.106,76 120,75.104 120,74 L120,2 C120,0.896 119.106,0 118,0 Z M20,90 C20,85.588 23.588,82 28,82 C32.412,82 36,85.588 36,90 C36,94.412 32.412,98 28,98 C23.588,98 20,94.412 20,90 Z M14,116 C14,108.28 20.282,102 28,102 C35.718,102 42,108.28 42,116 L14,116 Z M35.252,99.538 C38.13,97.344 40,93.89 40,90 C40,86.924 38.828,84.126 36.92,82 L51.082,82 C49.172,84.126 48,86.924 48,90 C48,93.89 49.87,97.344 52.748,99.538 C48.972,101.208 45.882,104.136 44,107.79 C42.118,104.136 39.028,101.208 35.252,99.538 Z M52,90 C52,85.588 55.588,82 60,82 C64.412,82 68,85.588 68,90 C68,94.412 64.412,98 60,98 C55.588,98 52,94.412 52,90 Z M46,116 C46,108.28 52.282,102 60,102 C67.718,102 74,108.28 74,116 L46,116 Z M67.252,99.538 C70.13,97.344 72,93.89 72,90 C72,86.924 70.828,84.126 68.92,82 L83.082,82 C81.172,84.126 80,86.924 80,90 C80,93.89 81.87,97.344 84.748,99.538 C80.972,101.208 77.882,104.136 76,107.79 C74.118,104.136 71.028,101.208 67.252,99.538 Z M106,116 L78,116 C78,108.28 84.282,102 92,102 C99.718,102 106,108.28 106,116 Z M100,90 C100,94.412 96.412,98 92,98 C87.588,98 84,94.412 84,90 C84,85.588 87.588,82 92,82 C96.412,82 100,85.588 100,90 Z M96,62 L90,62 L90,66 L94,66 L94,78 L26,78 L26,64 C26,62.896 25.106,62 24,62 L18,62 L18,58 L44,58 L76,58 L102,58 L102,62 L96,62 Z M71.79,32 C74.052,32 76.27,32.778 78.036,34.192 L84.748,39.562 C85.178,39.906 85.732,40.06 86.274,39.982 C86.816,39.906 87.308,39.61 87.626,39.162 L96.436,26.828 L101.222,30.416 L91.408,43.912 C90.422,45.27 88.96,46.13 87.296,46.338 C85.626,46.544 84.004,46.068 82.716,44.994 L77.28,40.464 C76.684,39.968 75.852,39.862 75.152,40.188 C74.45,40.518 74,41.224 74,42 L74,54 L62,54 L62,36 L58,36 L58,54 L46,54 L46,42 C46,41.224 45.55,40.518 44.848,40.188 C44.152,39.862 43.318,39.966 42.72,40.464 L37.284,44.994 C35.994,46.07 34.376,46.544 32.704,46.338 C31.04,46.13 29.58,45.27 28.592,43.912 L18.778,30.416 L23.564,26.828 L32.374,39.162 C32.692,39.61 33.182,39.906 33.726,39.982 C34.27,40.062 34.822,39.906 35.252,39.562 L41.964,34.192 C43.728,32.778 45.948,32 48.208,32 L71.79,32 L71.79,32 Z M52,20 C52,15.588 55.588,12 60,12 C64.412,12 68,15.588 68,20 C68,24.412 64.412,28 60,28 C55.588,28 52,24.412 52,20 Z M116,72 L98,72 L98,66 L104,66 C105.106,66 106,65.104 106,64 L106,56 C106,54.896 105.106,54 104,54 L78,54 L78,46.27 L80.154,48.066 C82.274,49.832 85.066,50.648 87.788,50.308 C90.522,49.97 93.02,48.496 94.642,46.266 L105.616,31.178 C106.258,30.294 106.074,29.056 105.198,28.402 L97.198,22.402 C96.768,22.078 96.234,21.944 95.692,22.026 C95.16,22.108 94.684,22.402 94.372,22.84 L85.6,35.12 L80.538,31.07 C78.064,29.09 74.958,28 71.792,28 L68.92,28 C70.828,25.874 72,23.076 72,20 C72,13.382 66.618,8 60,8 C53.382,8 48,13.382 48,20 C48,23.076 49.172,25.874 51.08,28 L48.208,28 C45.04,28 41.934,29.09 39.462,31.068 L34.4,35.12 L25.626,22.838 C25.314,22.4 24.836,22.106 24.306,22.024 C23.764,21.944 23.23,22.078 22.8,22.4 L14.8,28.4 C13.924,29.056 13.74,30.292 14.382,31.176 L25.356,46.264 C26.978,48.492 29.476,49.966 32.21,50.306 C34.928,50.644 37.726,49.83 39.844,48.064 L42,46.27 L42,54 L16,54 C14.894,54 14,54.896 14,56 L14,64 C14,65.104 14.894,66 16,66 L22,66 L22,72 L4,72 L4,4 L116,4 L116,72 Z" id="Shape" fill="#233B3D"></path>
                                <rect id="Rectangle" fill="url(#linearGradient-1)" x="108" y="8" width="4" height="4"></rect>
                                <rect id="Rectangle" fill="url(#linearGradient-1)" x="100" y="8" width="4" height="4"></rect>
                                <rect id="Rectangle" fill="url(#linearGradient-1)" x="92" y="8" width="4" height="4"></rect>
                                <rect id="Rectangle" fill="url(#linearGradient-1)" x="82" y="62" width="4" height="4"></rect>
                            </g>
                        </g>
                    </g>
                </g>
            </g>
        </g>
    </g>
</svg>