<?xml version="1.0" encoding="UTF-8"?>
<svg width="127px" height="141px" viewBox="0 0 127 141" version="1.1" xmlns="http://www.w3.org/2000/svg" xmlns:xlink="http://www.w3.org/1999/xlink">
    <!-- Generator: Sketch 61.2 (89653) - https://sketch.com -->
    <title>002-idea</title>
    <desc>Created with Sketch.</desc>
    <defs>
        <linearGradient x1="100%" y1="26.6877657%" x2="8.96724057%" y2="80.0028369%" id="linearGradient-1">
            <stop stop-color="#66C0B7" stop-opacity="0" offset="0%"></stop>
            <stop stop-color="#66C0B7" stop-opacity="0.166165865" offset="100%"></stop>
        </linearGradient>
    </defs>
    <g id="Page-1" stroke="none" stroke-width="1" fill="none" fill-rule="evenodd">
        <g id="Life-@-Darwin-HD" transform="translate(-510.000000, -10292.000000)">
            <g id="Group-17-Copy" transform="translate(175.000000, 10292.000000)">
                <g id="Group-15">
                    <g id="Group-47">
                        <g id="Group-45" transform="translate(335.000000, 0.000000)">
                            <g id="Group-11">
                                <g id="002-idea">
                                    <circle id="Oval" fill="url(#linearGradient-1)" cx="63.5" cy="77.5" r="63.5"></circle>
                                    <path d="M97.393463,75.36 C94.844129,81.1811485 93.8884192,87.5754649 94.6242802,93.8876265 C95.0727294,97.9959533 95.8861099,102.056189 97.054786,106.020233 C97.682128,108.073277 98.4749744,110.07205 99.4255253,111.996887 C100.604521,113.807934 101.669114,115.690934 102.613074,117.634864 L52.6084047,117.774319 L52.6084047,117.754397 C52.4490272,117.156732 49.4407782,105.44249 42.7867704,102.434241 C41.5515953,102.872529 40.2367315,103.310817 38.9019455,103.769027 C34.4770307,105.303936 29.9751584,106.607285 25.4146304,107.673774 C24.1583021,107.973975 22.8349589,107.788991 21.7091051,107.155798 C20.4276433,106.36739 19.4729129,105.143921 19.0196109,103.709261 C18.4977739,102.290182 18.3069811,100.770653 18.4617899,99.2666148 C18.9207326,97.7308248 19.076363,96.1203885 18.92,94.5251362 C18.4020233,92.5129961 16.4894942,92.0149416 14.9754086,90.939144 C13.7402335,90.0625681 15.9515953,87.2535409 15.9515953,87.2535409 C15.9515953,87.2535409 13.6007782,85.5203113 12.7640467,84.7632685 C11.8874708,84.04607 13.1226459,82.8108949 14.2183658,80.48 C14.6704813,79.4679127 14.8025513,78.3418414 14.5968872,77.252607 C14.1785214,75.1209339 10.9511284,74.3041245 9.35735409,73.128716 C8.60031128,72.5708949 7.38505837,71.7341634 7.24560311,70.7181323 C7.02645914,69.3036576 8.69992218,67.3114397 9.51673152,66.3153307 C12.9922484,61.8363898 15.9714521,56.9935137 18.4020233,51.871751 C18.72099,51.3311083 18.9118147,50.7245584 18.9598444,50.098677 C18.92,47.2498054 14.7961089,46.0743969 14.4175875,43.305214 C14.3582704,42.4925005 14.5020419,41.6777951 14.8359533,40.9344747 C15.9848094,38.4924939 16.969815,35.9767365 17.7844358,33.4038911 C18.2747762,31.0437555 18.906789,28.7152875 19.6770428,26.4311284 C21.347713,21.848365 23.9221356,17.6479913 27.2474708,14.0793774 C32.1284047,8.91953307 39.3402335,6.36949416 46.1536187,5.01478599 C52.2126946,3.69004863 58.3571217,2.79135126 64.5417899,2.32529183 C64.7410117,2.30536965 64.9402335,2.30536965 65.1394553,2.28544747 C77.8896498,1.64793774 87.9702724,5.97105058 97.8516732,13.700856 C103.236098,17.7177927 107.171874,23.3732847 109.06786,29.8178988 C110.512594,35.139788 111.190143,40.6406811 111.08,46.1540856 C111.041817,51.5990404 109.45235,56.9203017 106.497899,61.4941634 C103.529494,66.1758755 99.6446693,70.24 97.393463,75.36 Z" id="Shape" fill="#24615B" fill-rule="nonzero"></path>
                                    <path d="M91.4168093,75.36 C88.8674753,81.1811485 87.9117655,87.5754649 88.6476265,93.8876265 C89.0960757,97.9959533 89.9094562,102.056189 91.0781323,106.020233 C91.7054743,108.073277 92.4983207,110.07205 93.4488716,111.996887 C94.6278669,113.807934 95.6924606,115.690934 96.6364202,117.634864 L52.6084047,117.754397 C52.4490272,117.156732 49.4407782,105.44249 42.7867704,102.434241 C41.5515953,102.872529 40.2367315,103.310817 38.9019455,103.769027 C38.2691982,103.230251 37.5653197,102.781109 36.8101167,102.434241 C32.0088716,104.107704 26.151751,106.040156 21.7091051,107.155798 C20.4276433,106.36739 19.4729129,105.143921 19.0196109,103.709261 C18.4977739,102.290182 18.3069811,100.770653 18.4617899,99.2666148 C18.9207326,97.7308248 19.076363,96.1203885 18.92,94.5251362 C18.4020233,92.5129961 16.4894942,92.0149416 14.9754086,90.939144 C13.7402335,90.0625681 15.9515953,87.2535409 15.9515953,87.2535409 C15.9515953,87.2535409 13.6007782,85.5203113 12.7640467,84.7632685 C11.8874708,84.04607 13.1226459,82.8108949 14.2183658,80.48 C14.6704813,79.4679127 14.8025513,78.3418414 14.5968872,77.252607 C14.1785214,75.1209339 10.9511284,74.3041245 9.35735409,73.128716 C8.60031128,72.5708949 7.38505837,71.7341634 7.24560311,70.7181323 C7.02645914,69.3036576 8.69992218,67.3114397 9.51673152,66.3153307 C12.9922484,61.8363898 15.9714521,56.9935137 18.4020233,51.871751 C18.72099,51.3311083 18.9118147,50.7245584 18.9598444,50.098677 C18.92,47.2498054 14.7961089,46.0743969 14.4175875,43.305214 C14.3582704,42.4925005 14.5020419,41.6777951 14.8359533,40.9344747 C15.9848094,38.4924939 16.969815,35.9767365 17.7844358,33.4038911 C18.2747762,31.0437555 18.906789,28.7152875 19.6770428,26.4311284 C21.347713,21.848365 23.9221356,17.6479913 27.2474708,14.0793774 C32.1284047,8.91953307 39.3402335,6.36949416 46.1536187,5.01478599 C52.2126946,3.69004863 58.3571217,2.79135126 64.5417899,2.32529183 C74.8216342,2.96280156 83.4280156,7.08669261 91.8750195,13.700856 C97.2594447,17.7177927 101.19522,23.3732847 103.091206,29.8178988 C104.53594,35.139788 105.213489,40.6406811 105.103346,46.1540856 C105.065163,51.5990404 103.475696,56.9203017 100.521245,61.4941634 C97.5528405,66.1758755 93.6680156,70.24 91.4168093,75.36 Z" id="Shape" fill="#66C0B7" fill-rule="nonzero"></path>
                                    <path d="M108.828794,40.5360311 C108.959339,46.8212632 106.743279,52.9296332 102.613074,57.6691051 C98.7083268,62.0121401 90.8988327,65.0004669 90.8988327,71.9533074 L78.9455253,71.9533074 C78.9455253,65.0004669 71.1360311,62.0121401 67.231284,57.6691051 C63.1092681,52.9248127 60.8943943,46.8197119 61.0155642,40.5360311 C61.170542,28.4606197 70.0053006,18.2543701 81.9338521,16.370428 C82.9239906,16.2333796 83.9226104,16.1668049 84.922179,16.1710015 C98.1514284,16.531222 108.719974,27.3023313 108.828794,40.5360311 Z" id="Shape" fill="#E8BD32" fill-rule="nonzero"></path>
                                    <path d="M102.85214,40.5360311 C102.982685,46.8212632 100.766625,52.9296332 96.6364202,57.6691051 C92.7316732,62.0121401 84.922179,65.0004669 84.922179,71.9533074 L78.9455253,71.9533074 C78.9455253,65.0004669 71.1360311,62.0121401 67.231284,57.6691051 C63.1092681,52.9248127 60.8943943,46.8197119 61.0155642,40.5360311 C61.170542,28.4606197 70.0053006,18.2543701 81.9338521,16.370428 C93.8662155,18.2475041 102.704504,28.4578312 102.85214,40.5360311 Z" id="Shape" fill="#FBD24C" fill-rule="nonzero"></path>
                                    <path d="M78.9455253,83.9066148 L90.8988327,83.9066148 L90.8988327,85.8988327 C90.8988327,89.1996473 88.2229936,91.8754864 84.922179,91.8754864 C81.6213644,91.8754864 78.9455253,89.1996473 78.9455253,85.8988327 L78.9455253,83.9066148 Z" id="Shape" fill="#7F8E94" fill-rule="nonzero"></path>
                                    <ellipse id="Oval" fill="#FBD24C" fill-rule="nonzero" cx="84.922179" cy="36.0933852" rx="17.9299611" ry="19.922179"></ellipse>
                                    <path d="M94.8832685,75.9377432 L94.8832685,79.922179 C94.8832685,82.1227221 93.0993758,83.9066148 90.8988327,83.9066148 L78.9455253,83.9066148 C76.7477067,83.9000508 74.9676535,82.1199976 74.9610895,79.922179 L74.9610895,75.9377432 C74.9676535,73.7399246 76.7477067,71.9598714 78.9455253,71.9533074 L90.8988327,71.9533074 C93.0993758,71.9533074 94.8832685,73.7372001 94.8832685,75.9377432 Z" id="Shape" fill="#CFD8DC" fill-rule="nonzero"></path>
                                    <path d="M88.9066148,75.9377432 L88.9066148,79.922179 C88.9066148,82.1227221 87.1227221,83.9066148 84.922179,83.9066148 L78.9455253,83.9066148 C76.7477067,83.9000508 74.9676535,82.1199976 74.9610895,79.922179 L74.9610895,75.9377432 C74.9676535,73.7399246 76.7477067,71.9598714 78.9455253,71.9533074 L84.922179,71.9533074 C87.1227221,71.9533074 88.9066148,73.7372001 88.9066148,75.9377432 Z" id="Shape" fill="#F5F5F5" fill-rule="nonzero"></path>
                                    <path d="M75.3017588,0.880933852 C76.3635798,1.09065545 77.0637183,2.10977045 76.8785897,3.17615431 C76.693461,4.24253817 75.6907973,4.96603979 74.6204202,4.80560311 C71.5238922,4.28230015 68.3788928,4.10390311 65.2430506,4.27368093 C58.9554722,4.7154224 52.7085367,5.61564164 46.5520623,6.96715953 C38.5114708,8.56093385 32.5049339,11.4197665 28.693821,15.4480311 C25.5472515,18.8191724 23.1157224,22.7924321 21.5457432,27.1284047 C20.8846162,29.0556804 20.342378,31.0217096 19.9220856,33.0154086 L19.7228638,33.8640934 C19.2468336,35.6721248 18.5976911,37.43008 17.7844358,39.1135875 C17.4079066,39.9523113 17.0333696,40.7890428 16.7086381,41.6437043 C16.5167453,42.0752778 16.4111658,42.5402336 16.3978521,43.012358 C16.4855097,43.6558444 17.2445447,44.3531206 18.051393,45.0922335 C19.6950603,46.2544294 20.7562438,48.0702807 20.9620233,50.0727782 C20.9207329,51.0209221 20.6507498,51.945016 20.1750973,52.7662568 C17.6821796,58.0169913 14.6253982,62.980921 11.0587082,67.570428 C9.54063813,69.4211984 9.22785992,70.1603113 9.21789883,70.4511751 C9.58593728,70.810931 9.98604018,71.136348 10.4132296,71.4233774 C10.931602,71.7853154 11.4793853,72.1031897 12.0508327,72.3736654 C13.7501946,73.2422724 16.0771051,74.4336187 16.5552374,76.8641245 C16.8394468,78.369698 16.6537451,79.9262539 16.0233152,81.3227082 C15.674677,82.0598288 15.31807,82.6973385 15.0052918,83.2451984 C14.9076732,83.4185214 14.80607,83.6097743 14.7064591,83.7830973 C15.5312374,84.4484981 16.6588327,85.2931984 17.136965,85.6438288 C17.5730384,85.964655 17.8597665,86.4491347 17.9311692,86.9857826 C18.002572,87.5224307 17.8524999,88.065028 17.5154864,88.488716 C17.2204769,88.8732546 16.9635978,89.2855957 16.7484825,89.7199066 L17.1628638,89.9569805 C18.9233977,90.715751 20.26856,92.200444 20.8504591,94.0270817 C21.1426204,95.4336117 21.0830853,96.8905114 20.6771362,98.2685136 C20.5854942,98.6848872 20.4898677,99.0992685 20.43807,99.5176342 C20.320474,100.72255 20.4806322,101.938389 20.9062412,103.071751 C21.3409543,104.912833 23.150983,106.082891 25.0082179,105.723393 C30.8142345,104.328215 36.5347916,102.598744 42.1412918,100.543626 L42.282926,100.499889 L42.660102,100.372349 C44.532147,99.7337622 46.2271647,99.1417691 47.5840311,98.6669572 C48.9646381,98.1848405 50.0045759,97.8222568 50.5444669,97.6489339 C58.8261167,95.0291673 60.5055564,92.0388482 60.4577432,89.988856 C60.4454602,89.4594335 60.644468,88.9469056 61.0108038,88.5644959 C61.3771396,88.1820861 61.8806547,87.9612659 62.4101167,87.9508171 C62.9424724,87.9234496 63.4626427,88.1162913 63.8485074,88.4840685 C64.2343721,88.8518457 64.4519454,89.362166 64.4501479,89.8952218 C64.5656965,94.8598288 60.2983658,98.7466459 51.7637043,101.450086 C51.2477198,101.61544 50.2416498,101.96607 48.9068638,102.432249 L47.1138677,103.059798 C50.3992462,106.702566 52.795512,111.057306 54.1145214,115.782101 L99.3020078,115.656591 L99.1685292,115.45737 C98.5949635,114.625737 98.0790972,113.755753 97.6245603,112.853541 C96.6345356,110.844668 95.8077536,108.759392 95.1522179,106.617899 C93.959995,102.582336 93.1286289,98.4488396 92.6679222,94.2661479 C92.555799,93.5476778 92.8440364,92.8251908 93.4199241,92.3812041 C93.9958117,91.9372172 94.7678565,91.8422683 95.4341624,92.1334854 C96.1004682,92.4247022 96.5551772,93.0558187 96.6204825,93.7800467 C97.0544109,97.7263172 97.8370915,101.626387 98.9593463,105.434521 C99.5546513,107.380854 100.306856,109.27569 101.20856,111.100389 C101.589172,111.847129 102.019808,112.567296 102.497525,113.255969 C103.343769,114.417226 104.023082,115.691357 104.515642,117.041183 C104.705758,117.645709 104.596924,118.304623 104.222509,118.815905 C103.848093,119.327187 103.252765,119.629838 102.619051,119.631066 L52.6143813,119.770521 L52.6084047,119.766537 C51.6909656,119.766294 50.8923116,119.139544 50.6739611,118.248467 C49.9373102,115.246804 47.114476,107.247711 42.6399856,104.600517 L43.450179,104.308918 C37.684147,106.422232 31.7989616,108.195038 25.8250272,109.618179 C25.2851001,109.737167 24.7343027,109.799924 24.1814475,109.805447 C20.8951875,109.74371 18.0362221,107.539217 17.1409494,104.376654 C16.5119917,102.662008 16.2876789,100.825234 16.4855097,99.0096187 C16.5532451,98.4856654 16.6668016,97.951751 16.7843424,97.4158444 C17.0262201,96.6433965 17.0942522,95.8270111 16.9835642,95.0251829 C16.8221946,94.4016187 16.3619922,94.0888405 15.1905681,93.417463 C14.7243891,93.1524981 14.2522335,92.8815564 13.8099611,92.5687782 C13.1617312,92.1079758 12.7338865,91.3987492 12.6285759,90.610428 C12.5518551,89.6089696 12.7774046,88.6075298 13.2760467,87.7356576 C12.5986926,87.2156887 11.8555953,86.6299767 11.4252763,86.2414942 C9.58446693,84.7373696 10.8056965,82.5778054 11.5348482,81.2888405 C11.8037977,80.8166848 12.1145837,80.2688249 12.4114241,79.6313152 C12.6856599,78.998845 12.764744,78.298881 12.638537,77.6211673 C12.5369339,77.1051829 11.0945681,76.3680623 10.23393,75.9277821 C9.51160036,75.5882018 8.81917802,75.1883429 8.16401556,74.7324514 C6.73531451,73.9261966 5.69288462,72.5770007 5.27330739,70.9910661 C4.95256031,68.9450584 6.46863813,66.8990506 7.9010428,65.1439066 C11.3144816,60.7475919 14.2402796,55.9935042 16.6269572,50.9652918 C16.7808174,50.693933 16.8955104,50.4021699 16.9676265,50.098677 C16.9676265,49.5508171 16.3201556,48.9212763 15.3459611,48.0267704 C13.8740968,46.9407471 12.8428871,45.3606906 12.4413074,43.5761556 C12.3287783,42.4382783 12.5105723,41.2905753 12.9692451,40.2431751 C13.3258521,39.3028482 13.7322646,38.3943969 14.138677,37.4859455 C14.8472479,36.0296115 15.4181761,34.5102487 15.8440156,32.9476732 L16.0432374,32.1069572 C16.5014935,29.9532545 17.0909609,27.8295751 17.8083424,25.7477977 C19.5655697,20.9083241 22.2836829,16.4743638 25.7991284,12.712716 C30.2537276,8.00311284 36.7822257,4.84743969 45.7651362,3.06042023 C52.1125147,1.66905197 58.5533478,0.744842698 65.0358599,0.29522179 C68.4689594,0.108433452 71.9121825,0.304883608 75.3017588,0.880933852 Z M84.922179,14.1789883 C99.2686395,14.464482 110.765434,26.1469935 110.821012,40.4961868 C110.95777,47.2870017 108.559959,53.8852442 104.095284,59.0038911 C102.688476,60.4646362 101.155125,61.797985 99.5131829,62.9883268 C96.5941091,65.2386239 93.8182144,67.3822672 93.0810002,70.3726377 C95.3033818,71.2447957 96.8754864,73.4076772 96.8754864,75.9377432 L96.8754864,79.922179 C96.8754864,82.5241961 95.2126939,84.7378474 92.8917338,85.5585082 L92.8910506,85.8988327 C92.8910506,90.2999189 89.3232652,93.8677043 84.922179,93.8677043 C80.5210927,93.8677043 76.9533074,90.2999189 76.9533074,85.8988327 L76.9529388,85.5586194 C74.6318143,84.7380475 72.9688716,82.5243137 72.9688716,79.922179 L72.9688716,75.9377432 C72.9688716,73.4073994 74.5413215,71.2443207 76.7623488,70.3723798 C76.0262605,67.3817881 73.2533466,65.2383724 70.3431284,62.9883268 C68.700776,61.7985018 67.1673809,60.4651145 65.7610272,59.0038911 C61.2908546,53.8877056 58.8885413,47.2888021 59.0233463,40.4961868 C59.0789244,26.1469935 70.5757184,14.464482 84.922179,14.1789883 Z M88.9066148,85.8988327 L80.9377432,85.8988327 C80.9377432,88.0993758 82.7216359,89.8832685 84.922179,89.8832685 C87.1227221,89.8832685 88.9066148,88.0993758 88.9066148,85.8988327 Z M90.8988327,73.9455253 L78.9455253,73.9455253 C77.8452538,73.9455253 76.9533074,74.8374717 76.9533074,75.9377432 L76.9533074,79.922179 C76.9533074,81.0224505 77.8452538,81.9143969 78.9455253,81.9143969 L90.8988327,81.9143969 C91.9991041,81.9143969 92.8910506,81.0224505 92.8910506,79.922179 L92.8910506,75.9377432 C92.8910506,74.8374717 91.9991041,73.9455253 90.8988327,73.9455253 Z M86.9143969,48.0466926 L82.9299611,48.0466926 L82.929926,69.9608893 L86.913926,69.9608893 L86.9143969,48.0466926 Z M84.922179,18.1634241 C73.2278599,18.1634241 63.2070039,28.4173696 63.0077821,40.5579455 C62.8831918,46.3430395 64.9172508,51.967241 68.7134942,56.3343191 C69.9638233,57.6161489 71.3222222,58.7879181 72.7736342,59.8366381 C74.976517,61.5309637 77.3340041,63.3537039 78.9471374,65.6943704 L78.9455253,48.0466926 L76.9533074,48.0466926 C73.6524928,48.0466926 70.9766537,45.3708535 70.9766537,42.0700389 C70.9766537,38.7692243 73.6524928,36.0933852 76.9533074,36.0933852 C80.254122,36.0933852 82.9299611,38.7692243 82.9299611,42.0700389 L82.9299611,44.0622568 L86.9143969,44.0622568 L86.9143969,42.0700389 C86.9143969,38.7692243 89.590236,36.0933852 92.8910506,36.0933852 C96.1918652,36.0933852 98.8677043,38.7692243 98.8677043,42.0700389 C98.8677043,45.3708535 96.1918652,48.0466926 92.8910506,48.0466926 L90.8988327,48.0466926 L90.8970635,65.7008047 C92.5125955,63.3561867 94.8740453,61.5306579 97.0687315,59.8346459 C98.5195327,58.7866696 99.8772766,57.6155572 101.126879,56.3343191 C104.923557,51.967238 106.958914,46.343375 106.836576,40.5579455 C106.647315,28.4173696 96.6164981,18.1634241 84.922179,18.1634241 Z M23.1634241,40.077821 C24.2636957,40.077821 25.155642,40.9697673 25.155642,42.0700389 C25.155642,43.1703105 24.2636957,44.0622568 23.1634241,44.0622568 C22.0631526,44.0622568 21.1712062,43.1703105 21.1712062,42.0700389 C21.1712062,40.9697673 22.0631526,40.077821 23.1634241,40.077821 Z M92.8910506,40.077821 C91.7907791,40.077821 90.8988327,40.9697674 90.8988327,42.0700389 L90.8988327,44.0622568 L92.8910506,44.0622568 C93.991322,44.0622568 94.8832685,43.1703104 94.8832685,42.0700389 C94.8832685,40.9697674 93.991322,40.077821 92.8910506,40.077821 Z M76.9533074,40.077821 C75.8530359,40.077821 74.9610895,40.9697674 74.9610895,42.0700389 C74.9610895,43.1703104 75.8530359,44.0622568 76.9533074,44.0622568 L78.9455253,44.0622568 L78.9455253,42.0700389 C78.9455253,40.9697674 78.0535789,40.077821 76.9533074,40.077821 Z M122.774319,38.0856031 C123.874591,38.0856031 124.766537,38.9775495 124.766537,40.077821 C124.766537,41.1780925 123.874591,42.0700389 122.774319,42.0700389 L116.797665,42.0700389 C115.697394,42.0700389 114.805447,41.1780925 114.805447,40.077821 C114.805447,38.9775495 115.697394,38.0856031 116.797665,38.0856031 L122.774319,38.0856031 Z M53.0466926,38.0856031 C54.1469641,38.0856031 55.0389105,38.9775495 55.0389105,40.077821 C55.0389105,41.1780925 54.1469641,42.0700389 53.0466926,42.0700389 L47.0700389,42.0700389 C45.9697674,42.0700389 45.077821,41.1780925 45.077821,40.077821 C45.077821,38.9775495 45.9697674,38.0856031 47.0700389,38.0856031 L53.0466926,38.0856031 Z M44.4756062,12.5003095 C45.006031,12.9894951 45.2304831,13.7272557 45.062368,14.428961 C44.8942529,15.1306663 44.359852,15.6866205 43.6653385,15.8823346 C40.2255333,16.7546527 37.0651573,18.490151 34.4832062,20.9246381 C32.0757972,23.5142873 30.2163865,26.5636123 29.0165603,29.8896187 C28.4805973,31.4952316 28.036936,33.1301936 27.687751,34.7864903 L27.4885292,35.6730272 C27.2817752,36.5811198 26.4734625,37.2247917 25.5421323,37.2229786 C25.3898868,37.2233443 25.2381175,37.205961 25.0898988,37.1711751 C24.0191293,36.9214819 23.3530851,35.8515312 23.6017121,34.7805136 L23.8009339,33.9178833 C24.1864993,32.0914569 24.6794328,30.2893562 25.2771673,28.520965 C26.6625021,24.6870659 28.8086052,21.1727966 31.5865214,18.189323 C34.6398794,15.2452361 38.4006878,13.1380582 42.5058677,12.0712218 C43.1917041,11.8469864 43.9451816,12.0111238 44.4756062,12.5003095 Z M112.216575,11.3606033 C112.913113,11.542922 113.457078,12.0868871 113.639397,12.7834251 C113.821715,13.4799631 113.614015,14.2206765 113.096125,14.7208716 L108.87063,18.948358 C108.496616,19.3224857 107.989156,19.5324938 107.46014,19.5320784 C106.653619,19.5327133 105.926284,19.0470126 105.617819,18.3018108 C105.309355,17.5566088 105.480625,16.6989446 106.051642,16.1293696 L110.279128,11.9038755 C110.779324,11.3859853 111.520037,11.1782846 112.216575,11.3606033 Z M59.5652296,11.9038755 L63.792716,16.1293696 C64.3637332,16.6989446 64.5350032,17.5566088 64.2265385,18.3018108 C63.9180737,19.0470126 63.1907388,19.5327133 62.3842179,19.5320784 C61.8552018,19.5324938 61.347742,19.3224857 60.9737276,18.948358 L56.7482335,14.7208716 C56.2303433,14.2206765 56.0226426,13.4799631 56.2049612,12.7834251 C56.38728,12.0868871 56.931245,11.542922 57.6277831,11.3606033 C58.3243211,11.1782846 59.0650345,11.3859853 59.5652296,11.9038755 Z M84.922179,0.233463035 C86.0224505,0.233463035 86.9143969,1.12540937 86.9143969,2.22568093 L86.9143969,8.20233463 C86.9143969,9.30260619 86.0224505,10.1945525 84.922179,10.1945525 C83.8219075,10.1945525 82.9299611,9.30260619 82.9299611,8.20233463 L82.9299611,2.22568093 C82.9299611,1.12540937 83.8219075,0.233463035 84.922179,0.233463035 Z" id="Combined-Shape" fill="#1B3C3E" fill-rule="nonzero"></path>
                                </g>
                            </g>
                        </g>
                    </g>
                </g>
            </g>
        </g>
    </g>
</svg>