<?xml version="1.0" encoding="UTF-8"?>
<svg width="26px" height="26px" viewBox="0 0 26 26" version="1.1" xmlns="http://www.w3.org/2000/svg" xmlns:xlink="http://www.w3.org/1999/xlink">
    <!-- Generator: Sketch 61.2 (89653) - https://sketch.com -->
    <title>Shape</title>
    <desc>Created with Sketch.</desc>
    <g id="Page-1" stroke="none" stroke-width="1" fill="none" fill-rule="evenodd">
        <g id="Desktop-HD" transform="translate(-1416.000000, -972.000000)" fill="#846605" fill-rule="nonzero">
            <g id="Group-12">
                <g id="Group-8" transform="translate(1349.000000, 622.000000)">
                    <g id="Group-41" transform="translate(40.000000, 333.000000)">
                        <path d="M52.7466339,17.1062498 C52.559113,16.9752349 52.3138124,16.9648756 52.1159321,17.0779972 L27.2978008,31.2597361 C27.0952671,31.3751289 26.9798185,31.5990453 27.0029193,31.8310496 C27.0260201,32.063054 27.1829615,32.2598257 27.403998,32.3331164 L34.8153125,34.8033427 L37.6721675,42.6122181 C37.7581446,42.8471031 37.9814523,43 38.2266976,43 C38.249189,43 38.2722898,42.9988367 38.2947812,42.995956 C38.4544372,42.9776194 38.5887764,42.8917534 38.6837279,42.772649 L42.8936696,37.496322 L48.676682,39.4239859 C48.7378409,39.4447599 48.8007726,39.4545653 48.8636489,39.4545653 C48.9698462,39.4545653 49.075434,39.4257032 49.1683358,39.3697518 C49.3166352,39.2808944 49.4181791,39.1314321 49.4464872,38.9606419 L52.9919346,17.6880335 C53.0294387,17.462843 52.9342102,17.2366554 52.7466339,17.1062498 Z M38.5833474,35.2431428 C38.5227424,35.3256849 38.4840749,35.422021 38.4719982,35.5236199 L37.9382422,39.8988526 L35.9589408,34.4889623 L47.5157142,23.1982485 L38.5833474,35.2431428 Z" id="Shape"></path>
                    </g>
                </g>
            </g>
        </g>
    </g>
</svg>