<?xml version="1.0" encoding="UTF-8"?>
<svg width="60px" height="60px" viewBox="0 0 60 60" version="1.1" xmlns="http://www.w3.org/2000/svg" xmlns:xlink="http://www.w3.org/1999/xlink">
    <!-- Generator: Sketch 61.2 (89653) - https://sketch.com -->
    <title>Shape Copy</title>
    <desc>Created with Sketch.</desc>
    <g id="Page-1" stroke="none" stroke-width="1" fill="none" fill-rule="evenodd">
        <g id="Desktop-HD" transform="translate(-40.000000, -5716.000000)" fill="#1B3C3E" fill-rule="nonzero">
            <g id="Group-39" transform="translate(-161.000000, 5266.000000)">
                <path d="M231,450 C247.593843,450 261,463.390907 261,480 C261,496.609093 247.609093,510 231,510 C214.390907,510 201,496.609093 201,480 C201,463.390907 214.406334,450 231,450 Z M229.482172,471.968955 L216.289521,485.161607 C215.496501,485.954627 215.496501,487.159585 216.289521,487.967856 C216.686031,488.364366 217.082541,488.562799 217.692734,488.562799 C218.089244,488.562799 218.699437,488.364543 219.294025,487.769778 L230.885208,476.178595 L242.476391,487.769778 C243.269412,488.562799 244.47437,488.562799 245.282641,487.769778 C246.075838,486.976935 246.075838,485.771977 245.282818,484.963529 L232.288422,471.968955 C231.495401,471.175935 230.290443,471.175935 229.482172,471.968955 Z" id="Shape-Copy" transform="translate(231.000000, 480.000000) scale(-1, 1) rotate(-270.000000) translate(-231.000000, -480.000000) "></path>
            </g>
        </g>
    </g>
</svg>