<?xml version="1.0" encoding="UTF-8"?>
<svg width="60px" height="60px" viewBox="0 0 60 60" version="1.1" xmlns="http://www.w3.org/2000/svg" xmlns:xlink="http://www.w3.org/1999/xlink">
    <!-- Generator: Sketch 61.2 (89653) - https://sketch.com -->
    <title>Shape</title>
    <desc>Created with Sketch.</desc>
    <g id="Page-1" stroke="none" stroke-width="1" fill="none" fill-rule="evenodd">
        <g id="Desktop-HD" transform="translate(-1820.000000, -5716.000000)" fill="#1B3C3E" fill-rule="nonzero">
            <g id="Group-39" transform="translate(-161.000000, 5266.000000)">
                <path d="M2011,450 C2027.59384,450 2041,463.390907 2041,480 C2041,496.609093 2027.60909,510 2011,510 C1994.39091,510 1981,496.609093 1981,480 C1981,463.390907 1994.40633,450 2011,450 Z M2009.48217,471.968955 L1996.28952,485.161607 C1995.4965,485.954627 1995.4965,487.159585 1996.28952,487.967856 C1996.68603,488.364366 1997.08254,488.562799 1997.69273,488.562799 C1998.08924,488.562799 1998.69944,488.364543 1999.29403,487.769778 L2010.88521,476.178595 L2022.47639,487.769778 C2023.26941,488.562799 2024.47437,488.562799 2025.28264,487.769778 C2026.07584,486.976935 2026.07584,485.771977 2025.28282,484.963529 L2012.28842,471.968955 C2011.4954,471.175935 2010.29044,471.175935 2009.48217,471.968955 Z" id="Shape" transform="translate(2011.000000, 480.000000) rotate(-270.000000) translate(-2011.000000, -480.000000) "></path>
            </g>
        </g>
    </g>
</svg>