<?xml version="1.0" encoding="UTF-8"?>
<svg width="120px" height="120px" viewBox="0 0 120 120" version="1.1" xmlns="http://www.w3.org/2000/svg" xmlns:xlink="http://www.w3.org/1999/xlink">
    <!-- Generator: Sketch 61.2 (89653) - https://sketch.com -->
    <title>001-project</title>
    <desc>Created with Sketch.</desc>
    <g id="Page-1" stroke="none" stroke-width="1" fill="none" fill-rule="evenodd">
        <g id="Desktop-HD" transform="translate(-180.000000, -1469.000000)" fill-rule="nonzero">
            <g id="Group-15" transform="translate(140.000000, 1270.000000)">
                <g id="Group-47" transform="translate(0.000000, 149.000000)">
                    <g id="Group-46">
                        <g id="Group-10" transform="translate(40.000000, 50.000000)">
                            <g id="001-project">
                                <path d="M118.078509,31.4541615 C118.078261,31.4541615 118.078261,31.4541615 118.078012,31.4541615 L118.074037,31.4501863 L110.34236,30.3470807 C109.255652,30.1922981 108.500124,29.1858385 108.654907,28.0991304 C108.729193,27.5768944 109.008199,27.1058385 109.430062,26.7893168 L115.679006,22.1026087 C116.557267,21.4439752 116.735155,20.1982609 116.076522,19.32 L108.921242,9.77962733 C108.262609,8.90136646 107.016894,8.72347826 106.138634,9.3821118 L99.891677,14.0688199 C99.0171429,14.7324224 97.7704348,14.5614907 97.1068323,13.6869565 C96.7845963,13.2623602 96.6464596,12.7259627 96.7234783,12.1985093 L97.8285714,4.4668323 C97.9843478,3.38012422 97.2298137,2.3731677 96.143354,2.21714286 C96.1426087,2.21714286 96.1418634,2.21689441 96.141118,2.21689441 L84.3428571,0.531428571 C83.2563975,0.375403727 82.2489441,1.12968944 82.0929193,2.21639752 C82.0929193,2.21664596 82.0929193,2.21664596 82.0929193,2.21689441 L80.9878261,9.94857143 C80.8330435,11.0352795 79.8265839,11.7908075 78.7398758,11.6360248 C78.2176398,11.5617391 77.7465839,11.2827329 77.4300621,10.8608696 L72.7453416,4.61192547 C72.0867081,3.7336646 70.8409938,3.5557764 69.9627329,4.21440994 L63.9900621,8.69639752 C61.2879503,8.40919255 58.5629814,8.40919255 55.8608696,8.69639752 C38.1649689,10.7190062 24.2879503,24.8313043 22.5629814,42.5587578 C22.5093168,43.1212422 22.489441,43.6797516 22.4616149,44.2382609 L21.8653416,44.2382609 C20.922236,44.24 20.1100621,44.9043478 19.9214907,45.828323 L18.5480745,52.3595031 L13.0464596,48.5652174 C12.2568944,48.0203727 11.190559,48.1175155 10.5122981,48.7957764 L4.54956522,54.7585093 C3.87229814,55.4365217 3.77540373,56.5013665 4.31900621,57.2906832 L8.09540373,62.7823602 L1.56223602,64.1557764 C0.648447205,64.3560248 -0.00198757764,65.1662112 -4.54268058e-06,66.1016149 L-4.54268058e-06,74.0519255 C-4.54268058e-06,74.9920497 0.658136646,75.8039752 1.57813665,75.997764 L8.11130435,77.3711801 L4.33490683,82.8628571 C3.79130435,83.6521739 3.88819876,84.7170186 4.56546584,85.3950311 L10.5281988,91.357764 C11.2064596,92.0360248 12.272795,92.1331677 13.0623602,91.588323 L18.5540373,87.8019876 L19.9274534,94.3351553 C20.1160248,95.2591304 20.9281988,95.9234783 21.8713043,95.9252174 L29.8216149,95.9252174 C30.7617391,95.9257143 31.5736646,95.2670807 31.7674534,94.3470807 L33.1408696,87.813913 L38.6325466,91.5903106 C39.4218634,92.133913 40.4867081,92.0370186 41.1647205,91.3597516 L44.2514286,88.2631056 L44.2514286,93.9277019 C44.2603727,96.7552795 45.7751553,99.3637267 48.2265839,100.772919 L48.2265839,111.815901 C48.2265839,116.206708 51.786087,119.766211 56.1768944,119.766211 L64.127205,119.766211 C68.5180124,119.766211 72.0775155,116.206708 72.0775155,111.815901 L72.0775155,100.772919 C74.5289441,99.3637267 76.0437267,96.7552795 76.0526708,93.9277019 L76.0526708,86.0608696 C76.1065839,82.7508075 77.8382609,79.6949068 80.6499379,77.9475776 C82.2993789,76.8775155 83.8636025,75.6812422 85.3286957,74.3699379 L82.6772671,71.4084472 C81.3667081,72.5831056 79.9664596,73.6536646 78.489441,74.6104348 C74.5428571,77.0874534 72.1269565,81.4014907 72.0775155,86.0608696 L72.0775155,93.9277019 C72.0775155,96.1232298 70.2978882,97.9028571 68.1023602,97.9028571 L52.2017391,97.9028571 C50.0062112,97.9028571 48.2265839,96.1232298 48.2265839,93.9277019 L48.2265839,85.8959006 C48.1806211,81.3247205 45.8027329,77.093913 41.9219876,74.6780124 C26.1686957,64.7793789 21.4223602,43.9845963 31.3209938,28.2313043 C37.4626087,18.4571429 48.181118,12.5080745 59.7247205,12.4668323 C59.6951553,12.5376398 59.6690683,12.6099379 59.647205,12.6834783 C59.5734161,13.2052174 59.7100621,13.7351553 60.0268323,14.1562733 L64.7115528,20.4032298 C65.2054658,21.0424845 65.2529193,21.9204969 64.8308075,22.609441 C64.4243478,23.3026087 63.6385093,23.6807453 62.8432298,23.5654658 L55.1115528,22.4603727 C54.0248447,22.3045963 53.0178882,23.0591304 52.8618634,24.1455901 C52.8618634,24.1463354 52.8616149,24.1470807 52.8616149,24.1478261 L51.1741615,35.9520497 C51.0183851,37.0385093 51.7729193,38.0457143 52.8593789,38.2017391 C52.8601242,38.2017391 52.8608696,38.2019876 52.8616149,38.2019876 L60.5932919,39.3070807 C61.68,39.4618634 62.435528,40.468323 62.2807453,41.5550311 C62.2064596,42.0772671 61.9274534,42.548323 61.5055901,42.8648447 L55.2586335,47.5495652 C54.3803727,48.2081988 54.2024845,49.453913 54.861118,50.3321739 L62.0163975,59.8725466 C62.6750311,60.7508075 63.9207453,60.9286957 64.7990062,60.2700621 L71.0479503,55.5853416 C71.9269565,54.9279503 73.1726708,55.1075776 73.8300621,55.9868323 C74.1445963,56.4074534 74.28,56.9356522 74.2062112,57.4556522 L73.1031056,65.1873292 C72.9470807,66.2737888 73.7013665,67.2812422 74.7880745,67.4372671 C74.788323,67.4372671 74.788323,67.4372671 74.7885714,67.4372671 L86.5947826,69.1247205 C86.6877019,69.136646 86.7813665,69.1426087 86.8750311,69.1426087 C87.8645963,69.1438509 88.7040994,68.4168944 88.8447205,67.4372671 L89.9478261,59.7055901 C90.1026087,58.618882 91.1090683,57.863354 92.1957764,58.0181366 C92.7180124,58.0924224 93.1890683,58.3714286 93.5055901,58.7932919 L98.1922981,65.0402484 C98.8509317,65.9185093 100.096646,66.0963975 100.974907,65.437764 L110.51528,58.2824845 C111.39354,57.6238509 111.571429,56.3781366 110.912795,55.4998758 L106.228075,49.2529193 C105.736398,48.6126708 105.688944,47.7361491 106.10882,47.0467081 C106.506584,46.3443478 107.299627,45.9637267 108.096398,46.0926708 L115.828075,47.1957764 C116.914534,47.3518012 117.921988,46.5972671 118.078012,45.5108075 C118.078012,45.510559 118.078012,45.510559 118.078012,45.5103106 L119.763478,33.7040994 C119.919503,32.6173913 119.165217,31.6101863 118.078509,31.4541615 Z M52.2017391,101.878012 L68.1023602,101.878012 L68.1023602,105.853168 L52.2017391,105.853168 L52.2017391,101.878012 L52.2017391,101.878012 Z M52.2017391,109.828323 L68.1023602,109.828323 L68.1023602,111.815901 C68.1023602,114.011429 66.3227329,115.791056 64.127205,115.791056 L56.1768944,115.791056 C53.9813665,115.791056 52.2017391,114.011429 52.2017391,111.815901 L52.2017391,109.828323 L52.2017391,109.828323 Z M36.3786335,75.5525466 C37.4638509,76.44 38.597764,77.2663354 39.7754037,78.0270807 C41.6534161,79.213913 43.0670807,81.009441 43.7803727,83.1132919 L39.5170186,87.3686957 L35.3888199,84.5224845 C33.581118,83.2767702 31.1058385,83.7324224 29.8598758,85.5401242 C29.5612422,85.9736646 29.3515528,86.4621118 29.2432298,86.9771429 L28.2017391,91.9401242 L23.4772671,91.9401242 L22.4357764,86.9850932 C21.9836025,84.8367702 19.875528,83.4616149 17.727205,83.9137888 C17.2121739,84.0221118 16.7237267,84.2318012 16.2901863,84.5304348 L12.16,87.3686957 L8.53863354,83.7552795 L11.3828571,79.6290683 C12.6298137,77.8221118 12.1756522,75.3465839 10.3686957,74.0996273 C9.93490683,73.8002484 9.44596273,73.5900621 8.93018634,73.4814907 L3.97515528,72.4380124 L3.97515528,67.715528 L8.93018634,66.6720497 C11.077764,66.216646 12.4496894,64.1065839 11.9942857,61.9587578 C11.8862112,61.4491925 11.6792547,60.9659627 11.3848447,60.5363975 L8.53863354,56.3982609 L12.16,52.7848447 L16.2921739,55.6310559 C18.1006211,56.875528 20.5759006,56.4183851 21.8203727,54.6099379 C22.1185093,54.1768944 22.3277019,53.6889441 22.4357764,53.1744099 L22.7836025,51.5207453 C23.1021118,53.8109317 23.6295652,56.0668323 24.3597516,58.2606211 C17.8198758,59.0402484 13.1503106,64.9741615 13.9299379,71.5140373 C14.7095652,78.053913 20.6434783,82.7234783 27.183354,81.9438509 C31.1202484,81.4742857 34.5664596,79.0790062 36.3786335,75.5525466 Z M33.2919255,72.7520497 C31.8077019,76.8775155 27.2603727,79.0186335 23.1349068,77.5346584 C19.009441,76.0504348 16.868323,71.5031056 18.3522981,67.3776398 C19.4877019,64.2216149 22.4842236,62.1195031 25.8382609,62.1264424 C25.8640994,62.1264424 25.8879503,62.1264424 25.9137888,62.1264424 C27.7416149,66.0675776 30.237764,69.6623602 33.2919255,72.7520497 Z M114.412919,42.9741615 L108.648944,42.1513043 C105.38882,41.6857143 102.368696,43.9513043 101.903106,47.2111801 C101.679503,48.776646 102.086957,50.3669565 103.036025,51.6320497 L106.528199,56.2889441 L100.16795,61.0591304 L96.6737888,56.4042236 C94.6981366,53.769441 90.9607453,53.2350311 88.3262112,55.2106832 C87.061118,56.1592547 86.2245963,57.571677 86.0004969,59.1371429 L85.195528,64.9090683 L77.3267081,63.7840994 L78.1495652,58.0201242 C78.6163975,54.7602484 76.3520497,51.7391304 73.0921739,51.2725466 C71.5257143,51.0481988 69.9346584,51.4556522 68.6688199,52.4052174 L64.0119255,55.8973913 L59.2417391,49.5371429 L63.896646,46.0429814 C66.5314286,44.0673292 67.0658385,40.3299379 65.0901863,37.6954037 C64.1416149,36.4303106 62.7291925,35.5937888 61.1637267,35.3696894 L55.3997516,34.5468323 L56.5247205,26.6780124 L62.2886957,27.5008696 C65.5485714,27.9677019 68.5696894,25.703354 69.0362733,22.4434783 C69.2606211,20.8770186 68.8531677,19.2859627 67.9036025,18.0201242 L64.3995031,13.3592547 L70.7597516,8.58906832 L74.253913,13.2459627 C76.2295652,15.8807453 79.9669565,16.4151553 82.6014907,14.4395031 C83.8665839,13.4909317 84.7031056,12.0785093 84.927205,10.5130435 L85.7500621,4.74906832 L93.618882,5.87204969 L92.7960248,11.6360248 C92.3304348,14.8961491 94.5957764,17.9162733 97.8559006,18.3818634 C99.4213665,18.6054658 101.011677,18.1980124 102.27677,17.2489441 L106.933665,13.7567702 L111.703851,20.1170186 L107.046957,23.6111801 C104.412174,25.5868323 103.877764,29.3242236 105.853416,31.9587578 C106.801988,33.2238509 108.21441,34.0603727 109.779876,34.284472 L115.543851,35.1073292 L114.412919,42.9741615 Z" id="Shape" fill="#233B3D"></path>
                                <path d="M85.4658385,18.924472 C76.6842236,18.924472 69.5652174,26.0434783 69.5652174,34.8250932 C69.5652174,43.6067081 76.6842236,50.7257143 85.4658385,50.7257143 C94.2474534,50.7257143 101.36646,43.6067081 101.36646,34.8250932 C101.356522,26.0474534 94.2434783,18.9341615 85.4658385,18.924472 Z M85.4658385,46.750559 C78.8795031,46.750559 73.5403727,41.4114286 73.5403727,34.8250932 C73.5403727,28.2387578 78.8795031,22.8996273 85.4658385,22.8996273 C92.0521739,22.8996273 97.3913043,28.2387578 97.3913043,34.8250932 C97.3836025,41.4081988 92.0489441,46.7428571 85.4658385,46.750559 Z" id="Shape" fill="#F6CF5A"></path>
                                <rect id="Rectangle" fill="#F6CF5A" x="58.164472" y="87.9649689" width="3.97515528" height="5.96273292"></rect>
                                <path d="M51.4583851,68.4449689 C39.1888199,63.6519255 33.1279503,49.8198758 37.9212422,37.5503106 C39.7786335,32.7960248 43.1120497,28.7629814 47.4315528,26.0439752 L45.3068323,22.6809938 C32.3040994,30.8725466 28.4037267,48.053913 36.5952795,61.056646 C39.7677019,66.0924224 44.4713043,69.9783851 50.0154037,72.1438509 C54.9227329,74.0240994 58.1632298,78.7346584 58.164472,83.9898137 L62.1396341,83.9898137 C62.1458385,77.0949068 57.8968944,70.9113043 51.4583851,68.4449689 Z" id="Path" fill="#F6CF5A"></path>
                                <rect id="Rectangle" fill="#F6CF5A" x="97.9160248" y="74.0519255" width="13.9130435" height="3.97515528"></rect>
                                <rect id="Rectangle" fill="#F6CF5A" transform="translate(101.891942, 90.944191) rotate(-50.201031) translate(-101.891942, -90.944191) " x="99.9043514" y="83.1826501" width="3.97518092" height="15.5230815"></rect>
                                <rect id="Rectangle" fill="#F6CF5A" x="85.990559" y="89.9525466" width="3.97515528" height="13.9130435"></rect>
                                <rect id="Rectangle" fill="#F6CF5A" transform="translate(10.461080, 34.297919) rotate(-14.034854) translate(-10.461080, -34.297919) " x="2.26670588" y="32.3114346" width="16.3887478" height="3.97296956"></rect>
                                <rect id="Rectangle" fill="#F6CF5A" transform="translate(13.441784, 17.407133) rotate(-54.462988) translate(-13.441784, -17.407133) " x="11.4552979" y="8.85898462" width="3.97297128" height="17.0962976"></rect>
                                <rect id="Rectangle" fill="#F6CF5A" transform="translate(26.319109, 8.458593) rotate(-14.341974) translate(-26.319109, -8.458593) " x="24.3316025" y="0.253170677" width="3.97501362" height="16.4108437"></rect>
                            </g>
                        </g>
                    </g>
                </g>
            </g>
        </g>
    </g>
</svg>