<?xml version="1.0" encoding="UTF-8"?>
<svg width="22px" height="22px" viewBox="0 0 22 22" version="1.1" xmlns="http://www.w3.org/2000/svg" xmlns:xlink="http://www.w3.org/1999/xlink">
    <!-- Generator: Sketch 61.2 (89653) - https://sketch.com -->
    <title>time</title>
    <desc>Created with Sketch.</desc>
    <g id="Page-1" stroke="none" stroke-width="1" fill="none" fill-rule="evenodd">
        <g id="Contact-Us-HD" transform="translate(-140.000000, -728.000000)" fill="#1B3C3E" fill-rule="nonzero">
            <g id="Group-3" transform="translate(0.000000, 335.000000)">
                <g id="Group-26" transform="translate(133.000000, 306.000000)">
                    <g id="Group-2" transform="translate(0.000000, 28.000000)">
                        <g id="Group-13" transform="translate(7.000000, 0.000000)">
                            <g id="clock-(1)" transform="translate(0.000000, 59.000000)">
                                <path d="M10.9057143,2.66453526e-13 C16.9191224,2.66453526e-13 21.8114286,4.89230612 21.8114286,10.9057143 C21.8114286,16.9191224 16.9191224,21.8114286 10.9057143,21.8114286 C4.89230612,21.8114286 -7.69162511e-12,16.9191224 -7.69162511e-12,10.9057143 C-7.69162511e-12,4.89230612 4.89230612,2.66453526e-13 10.9057143,2.66453526e-13 Z M10.9057143,2.32055102 C6.17189796,2.32055102 2.32032653,6.17167347 2.32032653,10.9057143 C2.32032653,15.6397551 6.17189796,19.4908776 10.9057143,19.4908776 C15.6395306,19.4908776 19.491102,15.6397551 19.491102,10.9057143 C19.491102,6.17167347 15.6395306,2.32055102 10.9057143,2.32055102 Z M10.7903265,3.77816327 C11.2862245,3.77816327 11.6882857,4.18022449 11.6882857,4.67612245 L11.6882857,4.67612245 L11.6882857,10.5689796 L16.5893469,10.5689796 C17.0852449,10.5689796 17.4873061,10.9710408 17.4873061,11.4669388 C17.4873061,11.9628367 17.0852449,12.364898 16.5893469,12.364898 L16.5893469,12.364898 L10.7903265,12.364898 C10.2944286,12.364898 9.89236735,11.9628367 9.89236735,11.4669388 L9.89236735,11.4669388 L9.89236735,4.67612245 C9.89236735,4.18022449 10.2944286,3.77816327 10.7903265,3.77816327 Z" id="time"></path>
                            </g>
                        </g>
                    </g>
                </g>
            </g>
        </g>
    </g>
</svg>