<?xml version="1.0" encoding="UTF-8"?>
<svg width="127px" height="141px" viewBox="0 0 127 141" version="1.1" xmlns="http://www.w3.org/2000/svg" xmlns:xlink="http://www.w3.org/1999/xlink">
    <!-- Generator: Sketch 61.2 (89653) - https://sketch.com -->
    <title>003-seatbelt</title>
    <desc>Created with Sketch.</desc>
    <defs>
        <linearGradient x1="100%" y1="26.6877657%" x2="8.96724057%" y2="80.0028369%" id="linearGradient-1">
            <stop stop-color="#66C0B7" stop-opacity="0" offset="0%"></stop>
            <stop stop-color="#66C0B7" stop-opacity="0.166165865" offset="100%"></stop>
        </linearGradient>
    </defs>
    <g id="Page-1" stroke="none" stroke-width="1" fill="none" fill-rule="evenodd">
        <g id="Life-@-Darwin-HD" transform="translate(-845.000000, -10292.000000)">
            <g id="Group-17-Copy" transform="translate(175.000000, 10292.000000)">
                <g id="Group-15">
                    <g id="Group-47">
                        <g id="Group-44" transform="translate(670.000000, 0.000000)">
                            <g id="Group-12">
                                <g id="003-seatbelt">
                                    <circle id="Oval" fill="url(#linearGradient-1)" cx="63.5" cy="77.5" r="63.5"></circle>
                                    <rect id="Rectangle" fill="#FFFFFF" fill-rule="nonzero" transform="translate(49.516129, 83.225806) rotate(-90.000000) translate(-49.516129, -83.225806) " x="30.1612903" y="63.8709677" width="38.7096774" height="38.7096774" rx="3.87096774"></rect>
                                    <rect id="Rectangle" fill="#57565C" fill-rule="nonzero" transform="translate(49.516129, 83.225806) rotate(-90.000000) translate(-49.516129, -83.225806) " x="37.9032258" y="71.6129032" width="23.2258065" height="23.2258065" rx="1.93548387"></rect>
                                    <path d="M59.1935484,32.9032258 L39.8387097,32.9032258 C38.7697715,32.9032258 37.9032258,33.7697715 37.9032258,34.8387097 L37.9032258,48.3870968 L41.7741935,50.3225806 L43.7096774,54.1935484 L55.3225806,54.1935484 L57.2580645,50.3225806 L61.1290323,48.3870968 L61.1290323,34.8387097 C61.1290323,33.7697715 60.2624866,32.9032258 59.1935484,32.9032258 Z M53.3870968,46.4516129 L45.6451613,46.4516129 L45.6451613,38.7096774 L53.3870968,38.7096774 L53.3870968,46.4516129 Z" id="Shape" fill="#FFFFFF" fill-rule="nonzero"></path>
                                    <polygon id="Path" fill="#66C0B7" fill-rule="nonzero" transform="translate(50.483871, 27.096774) rotate(-90.000000) translate(-50.483871, -27.096774) " points="44.6774194 8.70967742 56.2903226 8.70967742 56.2903226 45.483871 44.6774194 45.483871"></polygon>
                                    <polygon id="Path" fill="#FBD24C" fill-rule="nonzero" transform="translate(49.516129, 110.322581) rotate(-90.000000) translate(-49.516129, -110.322581) " points="41.7741935 98.7096774 57.2580645 98.7096774 57.2580645 121.935484 41.7741935 121.935484"></polygon>
                                    <polygon id="Path" fill="#FBD24C" fill-rule="nonzero" transform="translate(49.516129, 11.612903) rotate(-90.000000) translate(-49.516129, -11.612903) " points="39.8387097 0 59.1935484 0 59.1935484 23.2258065 39.8387097 23.2258065"></polygon>
                                    <path d="M65,61.9354839 L34.0322581,61.9354839 C30.8254434,61.9354839 28.2258065,64.5351208 28.2258065,67.7419355 L28.2258065,98.7096774 C28.2258065,101.916492 30.8254434,104.516129 34.0322581,104.516129 L35.9677419,104.516129 L35.9677419,118.064516 C35.9677419,119.133454 36.8342876,120 37.9032258,120 L61.1290323,120 C62.1979705,120 63.0645161,119.133454 63.0645161,118.064516 L63.0645161,104.516129 L65,104.516129 C68.2068147,104.516129 70.8064516,101.916492 70.8064516,98.7096774 L70.8064516,67.7419355 C70.8064516,64.5351208 68.2068147,61.9354839 65,61.9354839 Z M59.1935484,116.129032 L39.8387097,116.129032 L39.8387097,104.516129 L59.1935484,104.516129 L59.1935484,116.129032 Z M66.9354839,98.7096774 C66.9354839,99.7786156 66.0689382,100.645161 65,100.645161 L34.0322581,100.645161 C32.9633198,100.645161 32.0967742,99.7786156 32.0967742,98.7096774 L32.0967742,67.7419355 C32.0967742,66.6729973 32.9633198,65.8064516 34.0322581,65.8064516 L65,65.8064516 C66.0689382,65.8064516 66.9354839,66.6729973 66.9354839,67.7419355 L66.9354839,98.7096774 Z" id="Shape" fill="#1B3C3E" fill-rule="nonzero"></path>
                                    <path d="M59.1935484,69.6774194 L39.8387097,69.6774194 C37.7008332,69.6774194 35.9677419,71.4105106 35.9677419,73.5483871 L35.9677419,92.9032258 C35.9677419,95.0411023 37.7008332,96.7741935 39.8387097,96.7741935 L59.1935484,96.7741935 C61.3314248,96.7741935 63.0645161,95.0411023 63.0645161,92.9032258 L63.0645161,73.5483871 C63.0645161,71.4105106 61.3314248,69.6774194 59.1935484,69.6774194 Z M59.1935484,92.9032258 L39.8387097,92.9032258 L39.8387097,73.5483871 L59.1935484,73.5483871 L59.1935484,92.9032258 Z" id="Shape" fill="#1B3C3E" fill-rule="nonzero"></path>
                                    <path d="M68.8709677,19.3548387 L63.0645161,19.3548387 L63.0645161,1.93548387 C63.0645161,0.866545645 62.1979705,0 61.1290323,0 L37.9032258,0 C36.8342876,0 35.9677419,0.866545645 35.9677419,1.93548387 L35.9677419,19.3548387 L32.0967742,19.3548387 C31.027836,19.3548387 30.1612903,20.2213844 30.1612903,21.2903226 L30.1612903,32.9032258 C30.1612903,33.972164 31.027836,34.8387097 32.0967742,34.8387097 L35.9677419,34.8387097 L35.9677419,48.3870968 C35.9674001,49.1206954 36.3818355,49.7914363 37.0380645,50.1193548 L40.3283871,51.7645161 L41.9735484,55.0548387 C42.3010042,55.713822 42.9738208,56.1301132 43.7096774,56.1290613 L55.3225806,56.1290613 C56.0596625,56.1330558 56.7350466,55.7180697 57.0645161,55.0587097 L58.7096774,51.7683871 L62,50.1232258 C62.6552232,49.7930639 63.0674271,49.1207969 63.0645161,48.3870968 L63.0645161,34.8387097 L68.8709677,34.8387097 C69.939906,34.8387097 70.8064516,33.972164 70.8064516,32.9032258 L70.8064516,21.2903226 C70.8064516,20.2213844 69.939906,19.3548387 68.8709677,19.3548387 Z M39.8387097,3.87096774 L59.1935484,3.87096774 L59.1935484,19.3548387 L39.8387097,19.3548387 L39.8387097,3.87096774 Z M59.1935484,47.1909677 L56.3929032,48.5903226 C56.0175297,48.7777343 55.7132182,49.0820459 55.5258065,49.4574194 L54.1264516,52.2580645 L44.9058065,52.2580645 L43.516129,49.4574194 C43.3287173,49.0820459 43.0244057,48.7777343 42.6490323,48.5903226 L39.8387097,47.1909677 L39.8387097,34.8387097 L59.1935484,34.8387097 L59.1935484,47.1909677 Z M66.9354839,30.9677419 L34.0322581,30.9677419 L34.0322581,23.2258065 L66.9354839,23.2258065 L66.9354839,30.9677419 Z" id="Shape" fill="#1B3C3E" fill-rule="nonzero"></path>
                                    <path d="M45.6451613,48.3870968 L53.3870968,48.3870968 C54.456035,48.3870968 55.3225806,47.5205511 55.3225806,46.4516129 L55.3225806,38.7096774 C55.3225806,37.6407392 54.456035,36.7741935 53.3870968,36.7741935 L45.6451613,36.7741935 C44.5762231,36.7741935 43.7096774,37.6407392 43.7096774,38.7096774 L43.7096774,46.4516129 C43.7096774,47.5205511 44.5762231,48.3870968 45.6451613,48.3870968 Z M47.5806452,40.6451613 L51.4516129,40.6451613 L51.4516129,44.516129 L47.5806452,44.516129 L47.5806452,40.6451613 Z" id="Shape" fill="#1B3C3E" fill-rule="nonzero"></path>
                                    <path d="M92.0967742,58.0645161 L80.483871,58.0645161 C79.4149327,58.0645161 78.5483871,58.9310618 78.5483871,60 C78.5483871,61.0689382 79.4149327,61.9354839 80.483871,61.9354839 L92.0967742,61.9354839 C93.1657124,61.9354839 94.0322581,61.0689382 94.0322581,60 C94.0322581,58.9310618 93.1657124,58.0645161 92.0967742,58.0645161 Z" id="Path" fill="#1B3C3E" fill-rule="nonzero"></path>
                                    <path d="M20.483871,60 C20.483871,58.9310618 19.6173253,58.0645161 18.5483871,58.0645161 L6.93548387,58.0645161 C5.86654565,58.0645161 5,58.9310618 5,60 C5,61.0689382 5.86654565,61.9354839 6.93548387,61.9354839 L18.5483871,61.9354839 C19.6173253,61.9354839 20.483871,61.0689382 20.483871,60 Z" id="Path" fill="#1B3C3E" fill-rule="nonzero"></path>
                                    <path d="M78.1612903,50.1503345 C78.4143146,50.1496214 78.6647816,50.0996595 78.8987097,50.0032258 L89.6367742,45.5825806 C90.2841999,45.3246459 90.7429668,44.7385622 90.8378828,44.0481411 C90.9327987,43.3577201 90.6492062,42.6695802 90.0954025,42.2465059 C89.5415988,41.8234317 88.8031054,41.7307566 88.1619355,42.003871 L77.423871,46.4225806 C76.5657622,46.7724092 76.0760127,47.6813871 76.2558425,48.5904481 C76.4356724,49.4995091 77.2346187,50.153558 78.1612903,50.1503345 L78.1612903,50.1503345 Z" id="Path" fill="#1B3C3E" fill-rule="nonzero"></path>
                                    <path d="M20.1412903,69.9967742 L9.40322581,74.4174194 C8.54777061,74.7688178 8.06043216,75.676311 8.23999049,76.5835283 C8.41954883,77.4907456 9.21582976,78.1441822 10.1406452,78.1432269 C10.3937644,78.1434817 10.644416,78.093483 10.8780645,77.996129 L21.616129,73.5774194 C22.6048969,73.1701539 23.0762977,72.0384453 22.6690323,71.0496774 C22.2617668,70.0609096 21.1300582,69.5895087 20.1412903,69.9967742 L20.1412903,69.9967742 Z" id="Path" fill="#1B3C3E" fill-rule="nonzero"></path>
                                    <path d="M88.8277419,76.4748387 L78.3316129,71.5045161 C77.3652928,71.0470106 76.211054,71.4594864 75.7535485,72.4258065 C75.2960429,73.3921266 75.7085186,74.5463654 76.6748387,75.003871 L87.1709677,79.9741935 C88.1372879,80.4316991 89.2915267,80.0192234 89.7490323,79.0529032 C90.2065378,78.0865831 89.7940621,76.9323443 88.8277419,76.4748387 L88.8277419,76.4748387 Z" id="Path" fill="#1B3C3E" fill-rule="nonzero"></path>
                                    <path d="M22.3574194,44.996129 L11.8612903,40.0258065 C10.8949702,39.5683009 9.74073141,39.9807767 9.28322586,40.9470968 C8.82572031,41.9134169 9.23819601,43.0676557 10.2045161,43.5251613 L20.7006452,48.4954839 C21.3257447,48.7914381 22.0612502,48.7314244 22.6301038,48.3380494 C23.1989574,47.9446745 23.5147368,47.2777012 23.4584909,46.588372 C23.402245,45.8990428 22.9825189,45.2920832 22.3574194,44.996129 L22.3574194,44.996129 Z" id="Path" fill="#1B3C3E" fill-rule="nonzero"></path>
                                </g>
                            </g>
                        </g>
                    </g>
                </g>
            </g>
        </g>
    </g>
</svg>