<?xml version="1.0" encoding="UTF-8"?>
<svg width="60px" height="60px" viewBox="0 0 60 60" version="1.1" xmlns="http://www.w3.org/2000/svg" xmlns:xlink="http://www.w3.org/1999/xlink">
    <!-- Generator: Sketch 61.2 (89653) - https://sketch.com -->
    <title>Combined Shape</title>
    <desc>Created with Sketch.</desc>
    <defs>
        <path d="M30,0 C46.5685425,0 60,13.4314575 60,30 C60,46.5685425 46.5685425,60 30,60 C13.4314575,60 0,46.5685425 0,30 C0,13.4314575 13.4314575,0 30,0 Z M25.3125,17.4905649 C24.0698593,17.4905649 23.0625,18.4979242 23.0625,19.7405649 L23.0625,19.7405649 L23.0625,39.8844351 C23.0625,40.3784646 23.2250966,40.8587617 23.5251949,41.2511979 C24.2800371,42.2382992 25.6921614,42.4265825 26.6792627,41.6717403 L26.6792627,41.6717403 L39.8502548,31.5998051 C40.0084265,31.4788503 40.1498424,31.3374344 40.2707972,31.1792627 C41.0256394,30.1921614 40.8373562,28.7800371 39.8502548,28.0251949 L39.8502548,28.0251949 L26.6792627,17.9532597 C26.2868266,17.6531615 25.8065294,17.4905649 25.3125,17.4905649 Z" id="path-1"></path>
    </defs>
    <g id="Page-1" stroke="none" stroke-width="1" fill="none" fill-rule="evenodd">
        <g id="Desktop-HD" transform="translate(-945.000000, -4415.000000)">
            <g id="Group-37" transform="translate(140.000000, 3859.000000)">
                <g id="Group-35">
                    <g id="Group-25">
                        <g id="Group-28" transform="translate(0.000000, 155.000000)">
                            <g id="Group-30-Copy" transform="translate(805.000000, 401.000000)">
                                <g id="Oval-2">
                                    <mask id="mask-2" fill="white">
                                        <use xlink:href="#path-1"></use>
                                    </mask>
                                    <use id="Combined-Shape" fill="#FFFFFF" xlink:href="#path-1"></use>
                                </g>
                            </g>
                        </g>
                    </g>
                </g>
            </g>
        </g>
    </g>
</svg>