<?xml version="1.0" encoding="UTF-8"?>
<svg width="127px" height="141px" viewBox="0 0 127 141" version="1.1" xmlns="http://www.w3.org/2000/svg" xmlns:xlink="http://www.w3.org/1999/xlink">
    <!-- Generator: Sketch 61.2 (89653) - https://sketch.com -->
    <title>001-jogging</title>
    <desc>Created with Sketch.</desc>
    <defs>
        <linearGradient x1="100%" y1="26.6877657%" x2="8.96724057%" y2="80.0028369%" id="linearGradient-1">
            <stop stop-color="#66C0B7" stop-opacity="0" offset="0%"></stop>
            <stop stop-color="#66C0B7" stop-opacity="0.166165865" offset="100%"></stop>
        </linearGradient>
    </defs>
    <g id="Page-1" stroke="none" stroke-width="1" fill="none" fill-rule="evenodd">
        <g id="Life-@-Darwin-HD" transform="translate(-1515.000000, -10292.000000)">
            <g id="Group-17-Copy" transform="translate(175.000000, 10292.000000)">
                <g id="Group-15">
                    <g id="Group-47">
                        <g id="Group-42" transform="translate(1340.000000, 0.000000)">
                            <g id="Group-14">
                                <g id="001-jogging">
                                    <circle id="Oval-Copy" fill="url(#linearGradient-1)" cx="63.5" cy="77.5" r="63.5"></circle>
                                    <path d="M38.9384375,105.967969 L34.3660156,94.0399219 L26.2149219,97.0485937 L33.2199219,115.992187 C38.024375,113.289844 40.0521875,108.889922 39.0251563,106.207734 L38.9384375,105.967969 Z" id="Path" fill="#FFFFFF"></path>
                                    <path d="M62.4905469,96.0967969 L66.9174219,86.9046094 C63.040625,84.6682031 53.3058594,80.4016406 51.9207031,70.9694531 L49.62125,82.9042969 L48.381875,89.3472656 L34.3660156,94.0399219 L38.9384375,105.967969 L59.2833594,98.9390625 C61.1785156,98.28 61.8809375,97.36125 62.4905469,96.0967969 L62.4905469,96.0967969 Z" id="Path" fill="#FBD24C"></path>
                                    <path d="M86.6921094,81.699375 L75.7974219,70.9694531 L51.9207031,70.9694531 C53.3058594,80.4016406 63.040625,84.6682031 66.9174219,86.9046094 L75.8372656,91.9169531 L75.8309375,108.757266 L88.0376563,108.757266 L88.0376563,90.26625 L88.0376563,86.5654687 C88.0374219,83.9226562 88.2427344,83.22375 86.6921094,81.699375 L86.6921094,81.699375 Z" id="Path" fill="#FBD24C"></path>
                                    <path d="M96.6260937,117.636328 C98.2165625,112.404609 90.9003125,108.757031 88.0439844,108.757031 L88.0374219,108.757031 L75.8307031,108.757031 L75.8307031,108.909844 L75.8042187,117.636094 L96.6260937,117.636094 L96.6260937,117.636328 Z" id="Path" fill="#FFFFFF"></path>
                                    <path d="M75.8173437,59.7403125 L75.8372656,48.4448438 L68.6670312,37.1561719 C66.8314062,38.0010938 64.8764844,38.4675 62.9548437,38.4675 C60.3103906,38.4675 58.0510156,37.9680469 56.1354687,37.0694531 L50.9996094,44.4914063 C53.7298437,43.7592188 56.6192187,45.2765625 57.5403125,47.9990625 C58.5014844,50.8347656 56.9836719,53.9428125 54.160625,54.9084375 L49.0908594,56.645625 L51.9207031,70.9694531 L75.7974219,70.9694531 L75.8173437,59.7403125 Z" id="Path" fill="#66C0B7"></path>
                                    <path d="M54.160625,54.9082031 C56.9834375,53.9428125 58.5014844,50.8345313 57.5403125,47.9988281 C56.6192187,45.2763281 53.7298437,43.7589844 50.9996094,44.4911719 C50.886875,44.5244531 50.7678125,44.5572656 50.6548437,44.5973438 L36.4003906,49.483125 C34.293125,50.2019531 32.8153906,52.1925 32.7359375,54.421875 L32.7359375,59.3742188 L32.7359375,68.6528906 C32.7359375,71.6547656 35.2540625,74.0910938 38.2294531,74.0780215 C41.211875,74.064375 43.64375,71.6015625 43.630625,68.60625 L43.5907812,58.5285938 L49.0910937,56.6451563 L54.160625,54.9082031 Z" id="Path" fill="#FDD99B"></path>
                                    <path d="M89.2964844,57.5775 L97.1825,46.3549219 C98.8988281,43.9054687 98.2428125,40.4775 95.7839844,38.7801562 C93.3258594,37.0830469 89.9325781,37.7085937 88.2427344,40.1782031 L82.5567969,48.4783594 L75.8370313,48.4448437 L75.8171094,59.7403125 L84.2335156,59.73375 C86.7652344,59.7271875 87.7390625,59.7203906 89.2964844,57.5775 L89.2964844,57.5775 Z" id="Path" fill="#FDD99B"></path>
                                    <path d="M68.6670313,37.1561719 C73.8492969,34.7861719 78.1235938,29.4478125 78.1235938,23.2378125 C78.1235938,19.2907031 76.6257031,15.6895312 74.1739063,12.9801562 C70.6946094,15.3100781 65.5123438,16.4350781 61.6289844,16.7278125 C53.0473438,17.386875 48.9849219,29.1682031 48.9849219,29.1682031 C50.4558594,32.6564062 52.7555469,35.4848437 56.1352344,37.0692187 C58.0505469,37.9678125 60.3101563,38.4672657 62.9546094,38.4672657 C64.8764844,38.4672657 66.8311719,38.0013281 68.6670313,37.1561719 L68.6670313,37.1561719 Z" id="Path" fill="#FDD99B"></path>
                                    <path d="M74.1739063,12.9803906 C77.5735156,10.7107031 79.3496094,7.28273437 76.6985938,2.36414062 C67.480625,6.97664062 61.9671875,3.95484375 56.778125,5.7984375 C47.8184375,8.98007812 44.9822656,16.9542187 48.9849219,29.1684375 C48.9849219,29.1684375 53.0473438,17.386875 61.6289844,16.7280469 C65.5123438,16.4353125 70.6948438,15.3103125 74.1739063,12.9803906 L74.1739063,12.9803906 Z" id="Path" fill="#FBD24C"></path>
                                    <g id="Group" transform="translate(5.000000, 0.000000)" fill="#1B3C3E" fill-rule="nonzero">
                                        <path d="M73.7789063,1.24289063 C76.168125,5.6775 75.3682031,8.98945313 74.2764844,10.9865625 C73.7946094,11.8680469 73.1765625,12.6539063 72.4633594,13.3558594 C74.4257813,16.2576563 75.4867969,19.6879688 75.4867969,23.2378125 C75.4867969,29.4602105 71.9514949,34.7096638 67.2975412,37.8129879 L67.0052344,38.0041406 L72.1396875,46.0877344 L76.3150781,46.1083594 L81.2929688,38.8420313 C82.4667188,37.1271094 84.2425781,35.9725781 86.2933594,35.5926563 C88.3448438,35.2127344 90.4160156,35.6540625 92.1267188,36.8350781 C93.8526563,38.0264063 95.0088281,39.8273438 95.3819531,41.9055469 C95.7321914,43.8569063 95.3446359,45.8154574 94.2898192,47.4552639 L94.1177344,47.7114844 L86.2300781,58.9366406 C86.2228125,58.9469531 86.2155469,58.9570313 86.2080469,58.9673438 C84.0066228,61.9959241 82.0825502,62.087542 79.4717782,62.0967506 L79.2396094,62.0974219 L73.1763281,62.1023438 L73.1622656,69.9815625 L83.3500781,80.0153906 C85.4404688,82.0699219 85.4257031,83.6196094 85.4053125,85.764375 C85.40375,85.9279688 85.4020833,86.1005208 85.4011458,86.2832118 L85.4003906,90.2657813 C85.4003906,91.5710156 84.3421875,92.6292188 83.0369531,92.6292188 C81.7861035,92.6292188 80.7621281,91.6573621 80.6789684,90.4275902 L80.6735156,90.2657813 L80.6735156,86.565 C80.6735156,86.2591406 80.6763281,85.9785938 80.6786719,85.719375 C80.6941406,84.1068139 80.6948132,84.0367025 80.1174458,83.465898 L80.0350781,83.3847656 L69.82875,73.3328906 L49.98,73.3328906 C52.1500781,78.8749219 57.9560156,82.0410938 61.621875,84.0386719 C62.0413125,84.2670469 62.44185,84.4856719 62.8074075,84.6916669 L63.0747656,84.84375 L71.9946094,89.8560938 C72.6900156,90.2467813 73.1379719,90.9596438 73.1944181,91.7477213 L73.2004688,91.9176563 L73.1950781,106.393594 L83.0439844,106.393594 C85.8152344,106.393594 90.315,108.461719 92.5971094,111.541172 C94.1521875,113.639531 94.5984375,115.984688 93.8873438,118.32375 C93.6015755,119.264063 92.7668244,119.923194 91.7983118,119.993528 L91.6260938,119.999766 L70.8042188,119.999766 C70.1760938,119.999766 69.5739844,119.749688 69.1305469,119.305078 C68.7316641,118.904719 68.4905414,118.376405 68.4476726,117.816671 L68.4407813,117.629063 L68.4672656,108.749766 L68.4672656,108.748594 L68.473125,93.2992969 L67.5667969,92.79 C67.4361719,92.7551563 67.3071094,92.7088542 67.1809983,92.6504688 L66.9942188,92.55375 L62.9428125,90.2217188 L59.6196094,97.1221875 C58.9059635,98.6022917 57.8919602,100.098261 55.3585088,101.061977 L55.059375,101.170781 L36.6539063,107.530078 C36.7614844,111.261797 33.9553125,115.477734 29.3782031,118.052109 C29.0205469,118.253203 28.6209375,118.355391 28.2196875,118.355391 C27.9445313,118.355391 27.6686719,118.307578 27.4047656,118.210547 C26.8143537,117.993643 26.337449,117.551275 26.0753029,116.985222 L26.0032031,116.811797 L18.9984375,97.8679688 C18.7809375,97.2796875 18.8060156,96.6292969 19.0682813,96.0595313 C19.3043203,95.5471641 19.7150156,95.137882 20.2236513,94.9027627 L20.3967188,94.8309375 L28.5480469,91.8225 L28.5641895,91.8174609 L28.5641895,91.8174609 L28.5801563,91.8124219 L28.6157813,91.7983594 L41.3226563,87.5439844 L41.7609375,85.2675 L29.2270313,85.2675 C27.9217969,85.2675 26.8638281,84.2090625 26.8638281,82.9038281 C26.8638281,81.6529785 27.8354696,80.6290031 29.0652234,80.5458434 L29.2270313,80.5403906 L42.67125,80.5403906 L44.5129688,70.9748438 L42.2969531,59.7576563 L40.9607813,60.2153906 L40.9938281,68.5971094 C41.0124474,72.8197806 37.6669428,76.2865273 33.4870535,76.4366543 L33.2402344,76.4416406 L33.2057813,76.441875 C28.9697776,76.441875 25.5081854,73.0809073 25.3766138,68.899988 L25.3727344,68.653125 L25.3727344,61.7378906 L11.8579688,61.7378906 C10.5527344,61.7378906 9.49453125,60.6796875 9.49453125,59.3744531 C9.49453125,58.1236035 10.4663879,57.0996281 11.6961598,57.0164684 L11.8579688,57.0110156 L25.3727344,57.0110156 L25.3730859,54.3801563 L25.3741406,54.3382031 C25.4852478,51.2228772 27.4845128,48.4446197 30.379739,47.3393941 L30.6375,47.24625 L44.50875,42.4921875 L47.7438281,37.8173438 C45.2177344,36.016875 43.2166406,33.4272656 41.8073438,30.0878906 C41.806875,30.0869531 41.8066406,30.0857813 41.8061719,30.0848438 L41.7707813,29.9958105 L41.7707813,29.9958105 L41.7389063,29.9048438 L41.72625,29.865 C41.7253125,29.8621875 41.724375,29.8598438 41.7236719,29.8570313 C35.86875,11.9299219 45.0114844,5.69390625 50.986875,3.57164063 C53.1196875,2.81390625 55.2457031,2.75039063 57.0714844,2.75039063 C57.4364063,2.75039063 57.8069531,2.7534375 58.1838281,2.75648438 C58.5607031,2.75953125 58.9446094,2.76304688 59.3360156,2.76304688 C62.5157813,2.7628125 66.0077344,2.56875 70.6408594,0.250546875 C71.7834375,-0.321328125 73.1732813,0.118125 73.7789063,1.24289063 Z M83.0439844,111.120469 L73.1871094,111.120469 L73.1746875,115.272891 L89.3146875,115.272891 C89.2078125,114.990469 89.0432813,114.684844 88.7995313,114.356016 C87.335625,112.380469 84.196875,111.120469 83.0439844,111.120469 Z M27.99375,97.0661719 L24.2517188,98.4471094 L29.3669531,112.280391 C31.4366298,110.394464 32.1831318,108.292232 31.8568634,107.169815 L31.8178125,107.053359 L27.99375,97.0661719 Z M47.7686719,79.0664063 L45.7028906,89.7944531 C45.5523906,90.5762656 45.0194865,91.2257781 44.2913037,91.5291873 L44.1323438,91.5888281 L32.4550781,95.4986719 L35.323125,102.989297 L53.5117969,96.705 C54.5994434,96.3268506 54.9152316,95.9647687 55.2864837,95.2238258 L55.3617188,95.0704688 L58.8182813,87.8939063 C55.6202344,86.143125 50.9271094,83.4384375 47.7686719,79.0664063 Z M83.0439844,96.975 C84.3492187,96.975 85.4074219,98.0329688 85.4074219,99.3384375 L85.4074219,99.3384375 L85.4074219,99.3982031 C85.4074219,100.703438 84.3492187,101.761641 83.0439844,101.761641 C81.73875,101.761641 80.6805469,100.703438 80.6805469,99.3982031 L80.6805469,99.3982031 L80.6805469,99.3384375 C80.6805469,98.0332031 81.73875,96.975 83.0439844,96.975 Z M20.42625,80.4740625 C21.7314844,80.4740625 22.7896875,81.5322656 22.7896875,82.8375 C22.7896875,84.0883496 21.8178308,85.1125403 20.588059,85.1957179 L20.42625,85.2011719 L20.3667188,85.2011719 C19.0614844,85.2011719 18.0035156,84.1427344 18.0035156,82.8375 C18.0035156,81.5866504 18.9751571,80.562675 20.2049109,80.4795153 L20.3667188,80.4740625 L20.42625,80.4740625 Z M47.3896875,46.6720313 C47.1260625,46.6720313 46.8643875,46.7068313 46.6091025,46.7758313 L46.4189063,46.8339844 L32.1663281,51.7190625 C31.0639021,52.0951974 30.2481875,53.1270031 30.1149583,54.2774148 L30.0991406,54.4701563 L30.0991406,59.1269531 C30.1075781,59.2082813 30.1122656,59.2905469 30.1122656,59.3742188 L30.1088672,59.4987305 L30.1088672,59.4987305 L30.0991406,59.6214844 L30.0991406,68.6528906 C30.0991406,70.2532282 31.4219932,71.6140576 33.0261971,71.7092185 L33.2055469,71.7145313 L33.2191406,71.7145313 C34.8468248,71.7070731 36.1765947,70.4146827 36.2627773,68.7977436 L36.2671875,68.6167969 L36.2273438,58.5382031 C36.2235938,57.5843796 36.7926465,56.7279263 37.6589881,56.3567122 L37.8248438,56.2928906 L48.3944531,52.6717969 C49.993125,52.1252344 50.848125,50.3695313 50.3017969,48.7575 C49.8792188,47.5101563 48.70875,46.6720313 47.3896875,46.6720313 Z M52.0153125,39.9510938 L50.2565625,42.493125 C52.3453125,43.3183594 54.0274219,45.0229688 54.7788281,47.2403906 C56.1324586,51.2344164 54.0662056,55.5832485 50.1618453,57.0595068 L49.9253906,57.1446094 L46.8096094,58.2114844 L48.8629688,68.6055469 L68.4382031,68.6055469 L68.4539063,59.7424219 L68.4539063,59.7419531 L68.4726563,49.1299219 L62.7053906,40.0502344 C61.1329688,40.5588281 59.5263281,40.8307031 57.9546094,40.8307031 C55.8098438,40.8307031 53.825625,40.5342188 52.0153125,39.9510938 Z M2.54039063,57.0110156 C3.845625,57.0110156 4.90359375,58.0692188 4.90359375,59.3744531 C4.90359375,60.6253027 3.93195231,61.6492782 2.70219844,61.7324378 L2.54039063,61.7378906 L2.480625,61.7378906 C1.17539063,61.7378906 0.1171875,60.6796875 0.1171875,59.3744531 C0.1171875,58.1236035 1.08904419,57.0996281 2.318816,57.0164684 L2.480625,57.0110156 L2.54039063,57.0110156 Z M87.1546875,40.2407813 C86.4162695,40.3776367 85.7694287,40.7687419 85.3129141,41.3498286 L85.1932031,41.5129688 L79.5065625,49.8140625 C79.0978846,50.4107452 78.4345839,50.7873539 77.7238612,50.8364171 L77.5453125,50.8417969 L73.1967188,50.8197656 L73.185,57.3747656 L79.2321094,57.3700781 C81.4414089,57.3641945 81.5265498,57.3642101 82.2896572,56.3187214 L82.3741406,56.2026563 L90.2491406,44.9957813 C90.703125,44.3477344 90.8746875,43.5461719 90.7300781,42.7408594 C90.5810156,41.9116406 90.1235156,41.1960938 89.4417188,40.7252344 C88.7728125,40.26375 87.9607031,40.0919531 87.1546875,40.2407813 Z M68.58,16.05375 C63.9171094,18.3982031 58.3190625,18.9696094 56.8082813,19.0846875 C51.1275,19.5208594 47.6046094,26.6444531 46.5522656,29.1086719 C47.8748438,31.8396094 49.6900781,33.7563281 52.0338281,34.884375 C52.1039063,34.9132031 52.1728125,34.9460156 52.2407813,34.9821094 C53.8870313,35.731875 55.7871094,36.1038281 57.9546094,36.1038281 C63.8763281,36.1038281 70.7601563,30.4835156 70.7601563,23.2378125 C70.7601563,20.6592188 69.9949219,18.1675781 68.58,16.05375 Z M70.4425781,5.5209375 C66.1907813,7.22601563 62.6039063,7.4896875 59.3364844,7.4896875 C58.93125,7.4896875 58.5342188,7.48664063 58.1442188,7.483125 C57.7807031,7.4803125 57.4235156,7.47726563 57.0717188,7.47726563 C55.2452344,7.47726563 53.8549219,7.56914063 52.569375,8.02570313 C48.7483594,9.38273438 46.3570313,11.6165625 45.25875,14.855625 C44.5436719,16.9645313 44.3859375,19.4854688 44.7836719,22.3886719 C47.1583594,18.7720313 50.9810156,14.7909375 56.4482813,14.3709375 C61.771875,13.9654688 68.3228906,12.0239063 70.1292188,8.71898438 C70.6413281,7.7821875 70.7465625,6.725625 70.4425781,5.5209375 Z" id="Combined-Shape"></path>
                                    </g>
                                </g>
                            </g>
                        </g>
                    </g>
                </g>
            </g>
        </g>
    </g>
</svg>