<?xml version="1.0" encoding="UTF-8"?>
<svg width="120px" height="120px" viewBox="0 0 120 120" version="1.1" xmlns="http://www.w3.org/2000/svg" xmlns:xlink="http://www.w3.org/1999/xlink">
    <!-- Generator: Sketch 61.2 (89653) - https://sketch.com -->
    <title>winner</title>
    <desc>Created with Sketch.</desc>
    <g id="Page-1" stroke="none" stroke-width="1" fill="none" fill-rule="evenodd">
        <g id="Desktop-HD" transform="translate(-1520.000000, -1469.000000)">
            <g id="Group-15" transform="translate(140.000000, 1270.000000)">
                <g id="Group-47" transform="translate(0.000000, 149.000000)">
                    <g id="Group-42" transform="translate(1340.000000, 0.000000)">
                        <g id="Group-14" transform="translate(40.000000, 50.000000)">
                            <g id="winner">
                                <rect id="Rectangle" fill="#FBD24C" x="18" y="9" width="49" height="12"></rect>
                                <path d="M87.0967742,54.1935484 C75.0774194,54.1935484 64.1825806,60.6987097 58.4070968,71.0167742 C57.3948387,70.1825806 56.1096774,69.6774194 54.7316129,69.6774194 L53.8974194,69.6774194 L51.6929032,56.4541935 C61.0103226,53.1116129 67.9645161,44.82 69.3812903,34.7516129 C78.2245161,33.8883871 85.1612903,26.4116129 85.1612903,17.3458065 L85.1612903,3.87096774 C85.1612903,1.73612903 83.4251613,0 81.2903226,0 L77.4193548,0 C75.2845161,0 73.5483871,1.73612903 73.5483871,3.87096774 L73.5483871,11.6129032 L69.6774194,11.6129032 L69.6774194,3.87096774 C69.6774194,1.73612903 67.9412903,0 65.8064516,0 L19.3548387,0 C17.22,0 15.483871,1.73612903 15.483871,3.87096774 L15.483871,11.6129032 L11.6129032,11.6129032 L11.6129032,3.87096774 C11.6129032,1.73612903 9.87677419,0 7.74193548,0 L3.87096774,0 C1.73612903,0 -1.375244e-14,1.73612903 -1.375244e-14,3.87096774 L-1.375244e-14,17.3458065 C-1.375244e-14,26.4135484 6.93677419,33.8883871 15.78,34.7516129 C17.1967742,44.82 24.1509677,53.1116129 33.4683871,56.4541935 L31.263871,69.6774194 L30.4296774,69.6774194 C27.5806452,69.6774194 25.1109677,71.8045161 24.6890323,74.6225806 L19.623871,108.387097 L19.3548387,108.387097 C17.22,108.387097 15.483871,110.123226 15.483871,112.258065 L15.483871,116.129032 C15.483871,118.263871 17.22,120 19.3548387,120 L65.8064516,120 C67.9412903,120 69.6774194,118.263871 69.6774194,116.129032 L69.6774194,114.990968 C74.8451613,118.22129 80.8509677,120 87.0967742,120 C105.24,120 120,105.24 120,87.0967742 C120,68.9535484 105.24,54.1935484 87.0967742,54.1935484 Z M103.662581,75.4083871 L98.6767742,78.9425806 L89.0322581,72.5129032 L89.0322581,66.843871 L98.6090323,60.4587097 C100.683871,61.3587097 102.617419,62.5103226 104.407742,63.8477419 L103.662581,75.4083871 Z M87.0967742,98.3187097 L77.4193548,91.8677419 L77.4193548,82.3258065 L87.0967742,75.8748387 L96.7741935,82.3258065 L96.7741935,91.8677419 L87.0967742,98.3187097 Z M85.1612903,72.5129032 L75.5167742,78.9425806 L70.5309677,75.4083871 L69.7819355,63.7954839 C71.576129,62.4619355 73.5212903,61.3451613 75.5825806,60.4548387 L85.1612903,66.8419355 L85.1612903,72.5129032 Z M68.4812903,78.6987097 L73.5483871,82.2890323 L73.5483871,91.9025806 L68.4812903,95.4948387 L63.2129032,92.8896774 L61.5948387,82.1032258 L68.4812903,78.6987097 Z M66.6445161,98.9051613 L66.116129,107.101935 C65.8083871,106.77871 65.4929032,106.46129 65.1987097,106.122581 L63.9135484,97.5541935 L66.6445161,98.9051613 Z M70.5309677,98.7851613 L75.5167742,95.2509677 L85.1612903,101.680645 L85.1612903,107.349677 L75.6,113.725161 C73.5445161,112.836774 71.5896774,111.725806 69.7819355,110.380645 L70.5309677,98.7851613 Z M89.0322581,101.680645 L98.6767742,95.2509677 L103.662581,98.7851613 L104.407742,110.347742 C102.617419,111.685161 100.683871,112.836774 98.6090323,113.734839 L89.0322581,107.351613 L89.0322581,101.680645 Z M105.712258,95.4948387 L100.645161,91.9045161 L100.645161,82.2909677 L105.712258,78.6987097 L115.92,83.7464516 C116.047742,84.8458065 116.129032,85.9606452 116.129032,87.0967742 C116.129032,88.2329032 116.047742,89.3477419 115.92,90.4490323 L105.712258,95.4948387 Z M114.942581,78.9445161 L107.549032,75.2903226 L108.077419,67.0877419 C111.236129,70.3954839 113.622581,74.4406452 114.942581,78.9445161 Z M93.9445161,58.9141935 L87.0967742,63.48 L80.223871,58.8987097 C82.4419355,58.3587097 84.7432258,58.0645161 87.0967742,58.0645161 C89.46,58.0645161 91.743871,58.38 93.9445161,58.9141935 L93.9445161,58.9141935 Z M66.1103226,67.0258065 L66.6425806,75.2883871 L60.9909677,78.0812903 L60.5748387,75.3019355 C61.9606452,72.1896774 63.84,69.4025806 66.1103226,67.0258065 L66.1103226,67.0258065 Z M30.9677419,15.483871 L30.9677419,17.4193548 C30.9677419,18.4877419 30.0987097,19.3548387 29.0322581,19.3548387 C27.9658065,19.3548387 27.0967742,18.4877419 27.0967742,17.4193548 L27.0967742,16.9354839 C27.0967742,13.9993548 29.4832258,11.6129032 32.4193548,11.6129032 C33.5651613,11.6129032 34.6993548,11.9903226 35.6129032,12.6774194 L44.516129,19.3548387 L34.4825806,19.3548387 C34.6993548,18.7470968 34.8387097,18.1006452 34.8387097,17.4193548 L34.8387097,15.483871 L30.9677419,15.483871 Z M23.5819355,19.3548387 L19.3548387,19.3548387 L19.3548387,11.6129032 L24.9522581,11.6129032 C23.876129,13.1187097 23.2258065,14.9477419 23.2258065,16.9354839 L23.2258065,17.4193548 C23.2258065,18.1006452 23.3651613,18.7470968 23.5819355,19.3548387 L23.5819355,19.3548387 Z M49.5483871,18.2903226 L40.6451613,11.6129032 L50.6787097,11.6129032 C50.4619355,12.2206452 50.3225806,12.8670968 50.3225806,13.5483871 L50.3225806,15.483871 L54.1935484,15.483871 L54.1935484,13.5483871 C54.1935484,12.48 55.0625806,11.6129032 56.1290323,11.6129032 C57.1954839,11.6129032 58.0645161,12.48 58.0645161,13.5483871 L58.0645161,14.0322581 C58.0645161,16.9683871 55.6780645,19.3548387 52.7419355,19.3548387 C51.596129,19.3548387 50.4619355,18.9774194 49.5483871,18.2903226 L49.5483871,18.2903226 Z M61.5793548,11.6129032 L65.8064516,11.6129032 L65.8064516,19.3548387 L60.2090323,19.3548387 C61.2851613,17.8490323 61.9354839,16.02 61.9354839,14.0322581 L61.9354839,13.5483871 C61.9354839,12.8670968 61.796129,12.2206452 61.5793548,11.6129032 Z M81.2903226,3.87096774 L81.2903226,7.74193548 L77.4193548,7.74193548 L77.4193548,3.87096774 L81.2903226,3.87096774 Z M77.4193548,15.483871 L77.4193548,11.6129032 L81.2903226,11.6129032 L81.2903226,17.3458065 C81.2903226,24.1722581 76.2367742,29.8258065 69.6774194,30.8032258 L69.6774194,15.483871 L77.4193548,15.483871 Z M65.8064516,3.87096774 L65.8064516,7.74193548 L19.3548387,7.74193548 L19.3548387,3.87096774 L65.8064516,3.87096774 Z M7.74193548,3.87096774 L7.74193548,7.74193548 L3.87096774,7.74193548 L3.87096774,3.87096774 L7.74193548,3.87096774 Z M3.87096774,17.3458065 L3.87096774,11.6129032 L7.74193548,11.6129032 L7.74193548,15.483871 L15.483871,15.483871 L15.483871,30.8032258 C8.92451613,29.8258065 3.87096774,24.1722581 3.87096774,17.3458065 Z M19.3548387,30.9677419 L19.3548387,23.2258065 L65.8064516,23.2258065 L65.8064516,30.9677419 C65.8064516,43.7748387 55.3877419,54.1935484 42.5806452,54.1935484 C29.7735484,54.1935484 19.3548387,43.7748387 19.3548387,30.9677419 Z M37.2135484,57.5264516 C38.9477419,57.8767742 40.743871,58.0645161 42.5806452,58.0645161 C44.4174194,58.0645161 46.2135484,57.8767742 47.9477419,57.5264516 L49.9741935,69.6774194 L35.1870968,69.6774194 L37.2135484,57.5264516 Z M30.4296774,73.5483871 L54.7316129,73.5483871 C55.6819355,73.5483871 56.5045161,74.2567742 56.6458065,75.1974194 L56.9787097,77.4193548 L28.1825806,77.4193548 L28.5154839,75.1974194 C28.6587097,74.2567742 29.4793548,73.5483871 30.4296774,73.5483871 Z M27.6019355,81.2903226 L57.5593548,81.2903226 L61.623871,108.387097 L23.5374194,108.387097 L27.6019355,81.2903226 Z M19.3548387,116.129032 L19.3548387,112.258065 L65.8064516,112.258065 L65.8083871,116.129032 L19.3548387,116.129032 Z M80.2393548,115.285161 L87.0967742,110.713548 L93.9445161,115.279355 C91.743871,115.813548 89.46,116.129032 87.0967742,116.129032 C84.7587097,116.129032 82.4632258,115.825161 80.2393548,115.285161 Z M108.079355,107.107742 L107.550968,98.9051613 L114.944516,95.2509677 C113.622581,99.7529032 111.236129,103.798065 108.079355,107.107742 Z" id="Shape" fill="#1B3C3E" fill-rule="nonzero"></path>
                                <path d="M50.3225806,85.1612903 L34.8387097,85.1612903 C32.703871,85.1612903 30.9677419,86.8974194 30.9677419,89.0322581 L30.9677419,100.645161 C30.9677419,102.78 32.703871,104.516129 34.8387097,104.516129 L50.3225806,104.516129 C52.4574194,104.516129 54.1935484,102.78 54.1935484,100.645161 L54.1935484,89.0322581 C54.1935484,86.8974194 52.4574194,85.1612903 50.3225806,85.1612903 Z M34.8387097,100.645161 L34.8387097,89.0322581 L50.3225806,89.0322581 L50.3245161,100.645161 L34.8387097,100.645161 Z" id="Shape" fill="#FBD24C" fill-rule="nonzero"></path>
                            </g>
                        </g>
                    </g>
                </g>
            </g>
        </g>
    </g>
</svg>